<?xml version="1.0" encoding="utf-8"?>
<!-- Generator: Adobe Illustrator 25.1.0, SVG Export Plug-In . SVG Version: 6.00 Build 0)  -->
<svg version="1.1" id="Layer_1" xmlns="http://www.w3.org/2000/svg" xmlns:xlink="http://www.w3.org/1999/xlink" x="0px" y="0px"
	 viewBox="0 0 197 80.6" style="enable-background:new 0 0 197 80.6;" xml:space="preserve">
<style type="text/css">
	.st0{enable-background:new    ;}
	.st1{fill:#2C0B2D;}
	.st2{fill:#FFC52F;}
</style>
<g class="st0">
	<path class="st1" d="M47.1,50.4h9.1v7.2c0,0.7-0.2,1.2-0.7,1.7c-0.4,0.5-1.1,0.7-1.9,0.7h-6.5v17.6H36.3V59.9H5.8
		c-0.8,0-1.6-0.3-2.2-0.8s-1-1.2-1.2-1.9L1.2,51L35.4,5.2h11.7C47.1,5.2,47.1,50.4,47.1,50.4z M36.3,26.7c0-1.1,0-2.2,0.1-3.4
		s0.2-2.5,0.4-3.9l-22.5,31h22V26.7z"/>
</g>
<g id="racing" transform="translate(455.893 72.993)">
	<g id="Group_501" transform="translate(158.107 120.507)">
		<g id="Group_500" transform="translate(0 0)">
			<path id="Path_384" class="st2" d="M-514.1-189.4c-19.3,0-34.9,15.6-34.9,34.9c0,11.1,5.2,21.5,14.1,28.1
				c0.1,0.1,0.2,0.1,0.2,0.2s0.2,0.1,0.3,0.2c12.1,8.6,28.3,8.6,40.4,0c0.1-0.1,0.2-0.1,0.3-0.2c0.1-0.1,0.2-0.1,0.2-0.2
				c15.5-11.5,18.8-33.3,7.3-48.8C-492.6-184.2-503-189.4-514.1-189.4z M-509.8-180.5c8.2,1.4,15.3,6.5,19.1,13.9l-11.1,3.6
				c-1.9-2.8-4.8-4.9-8.1-5.9v-11.6H-509.8z M-507.6-154.5c0,3.6-2.9,6.5-6.5,6.5s-6.5-2.9-6.5-6.5s2.9-6.5,6.5-6.5
				C-510.5-160.9-507.7-158.1-507.6-154.5L-507.6-154.5z M-518.4-180.5v11.6c-3.3,1-6.1,3.1-8.1,5.9l-11.1-3.6
				C-533.7-174-526.6-179.1-518.4-180.5z M-532.8-136c-5.9-5.9-8.6-14.3-7.3-22.5l11.1,3.6c0,0.1,0,0.2,0,0.4c0,3.3,1.1,6.5,3.1,9.1
				L-532.8-136z M-514.1-128.1c-4.1,0-8.2-1-11.8-2.8l6.8-9.4c3.2,1.1,6.8,1.1,10,0l6.8,9.4C-505.9-129.1-510-128.1-514.1-128.1
				L-514.1-128.1z M-495.4-136l-6.8-9.4c2-2.6,3.1-5.8,3.1-9.1c0-0.1,0-0.3,0-0.4l11.1-3.6C-486.8-150.2-489.5-141.9-495.4-136
				L-495.4-136z"/>
		</g>
	</g>
</g>
<g class="st0">
	<path class="st1" d="M154.5,68.4h14.6V26.2c0-1.6,0.1-3.3,0.2-5.1l-10.4,8.7c-0.4,0.4-0.9,0.6-1.3,0.8c-0.5,0.1-0.9,0.2-1.3,0.2
		c-0.7,0-1.3-0.1-1.8-0.4c-0.5-0.3-1-0.6-1.2-1l-3.9-5.4l22-18.8h10.2v63.2h13v9.2h-40v-9.2H154.5z"/>
</g>
</svg>
