<?xml version="1.0" encoding="utf-8"?>
<!-- Generator: Adobe Illustrator 24.2.3, SVG Export Plug-In . SVG Version: 6.00 Build 0)  -->
<svg version="1.1" id="Layer_1" xmlns="http://www.w3.org/2000/svg" xmlns:xlink="http://www.w3.org/1999/xlink" x="0px" y="0px"
	 viewBox="0 0 196.1 73.5" style="enable-background:new 0 0 196.1 73.5;" xml:space="preserve">
<style type="text/css">
	.st0{enable-background:new    ;}
	.st1{fill:#2C0B2D;}
	.st2{fill:#FFC52F;}
</style>
<g id="Group_502" transform="translate(-549 -168)">
	<g class="st0">
		<path class="st1" d="M595,214.2h9.1v7.2c0,0.7-0.2,1.2-0.7,1.7c-0.4,0.5-1.1,0.7-1.9,0.7H595v17.7h-10.8v-17.7h-30.5
			c-0.8,0-1.6-0.3-2.2-0.8c-0.6-0.5-1-1.2-1.2-1.9l-1.2-6.2l34.2-45.8H595V214.2z M584.1,190.6c0-1.1,0-2.2,0.1-3.4
			c0.1-1.2,0.2-2.5,0.4-3.9l-22.5,31h22V190.6z"/>
	</g>
	<g id="racing" transform="translate(455.893 72.993)">
		<g id="Group_501" transform="translate(158.107 120.507)">
			<g id="Group_500">
				<path id="Path_384" class="st2" d="M33.8-25.5C14.5-25.5-1.1-9.9-1.1,9.4c0,11.1,5.2,21.5,14.1,28.1c0.1,0.1,0.2,0.1,0.2,0.2
					s0.2,0.1,0.3,0.2c12.1,8.6,28.3,8.6,40.4,0c0.1-0.1,0.2-0.1,0.3-0.2c0.1-0.1,0.2-0.1,0.2-0.2C70,26,73.3,4.1,61.8-11.4
					C55.2-20.3,44.8-25.5,33.8-25.5z M38-16.6c8.2,1.4,15.3,6.5,19.1,13.9L46.1,0.9C44.1-1.9,41.3-4,38-5V-16.6L38-16.6z M40.2,9.4
					c0,3.6-2.9,6.5-6.5,6.5c-3.6,0-6.5-2.9-6.5-6.5c0-3.6,2.9-6.5,6.5-6.5C37.3,3,40.2,5.8,40.2,9.4L40.2,9.4z M29.5-16.6V-5
					c-3.3,1-6.1,3.1-8.1,5.9L10.3-2.7C14.2-10.1,21.3-15.2,29.5-16.6L29.5-16.6z M15,27.9C9.2,22,6.4,13.7,7.7,5.4L18.8,9
					c0,0.1,0,0.2,0,0.4c0,3.3,1.1,6.5,3.1,9.1L15,27.9z M33.8,35.8c-4.1,0-8.2-1-11.8-2.8l6.8-9.4c3.2,1.1,6.8,1.1,10,0l6.8,9.4
					C41.9,34.8,37.9,35.8,33.8,35.8L33.8,35.8z M52.5,27.9l-6.8-9.4c2-2.6,3.1-5.8,3.1-9.1c0-0.1,0-0.3,0-0.4l11.1-3.6
					C61.1,13.7,58.3,22,52.5,27.9L52.5,27.9z"/>
			</g>
		</g>
	</g>
	<g class="st0">
		<path class="st1" d="M735.9,214.2h9.1v7.2c0,0.7-0.2,1.2-0.7,1.7c-0.4,0.5-1.1,0.7-1.9,0.7h-6.6v17.7h-10.8v-17.7h-30.5
			c-0.8,0-1.6-0.3-2.2-0.8s-1-1.2-1.2-1.9l-1.2-6.2l34.2-45.8h11.7V214.2z M725.1,190.6c0-1.1,0-2.2,0.1-3.4
			c0.1-1.2,0.2-2.5,0.3-3.9l-22.5,31h22V190.6z"/>
	</g>
</g>
</svg>
