<?xml version="1.0" encoding="utf-8"?>
<!-- Generator: Adobe Illustrator 24.2.3, SVG Export Plug-In . SVG Version: 6.00 Build 0)  -->
<svg version="1.1" id="Layer_1" xmlns="http://www.w3.org/2000/svg" xmlns:xlink="http://www.w3.org/1999/xlink" x="0px" y="0px"
	 viewBox="0 0 189.1 74.3" style="enable-background:new 0 0 189.1 74.3;" xml:space="preserve">
<style type="text/css">
	.st0{enable-background:new    ;}
	.st1{fill:#2C0B2D;}
	.st2{fill:#FFC52F;}
</style>
<g id="Group_502" transform="translate(-549 -168)">
	<g class="st0">
		<path class="st1" d="M594.7,174.5c0,1.8-0.6,3.2-1.7,4.3c-1.1,1.1-3,1.7-5.6,1.7h-19.9l-2.6,15.1c3.3-0.7,6.2-1,8.9-1
			c3.8,0,7.1,0.6,10,1.7c2.9,1.1,5.3,2.7,7.3,4.7c2,2,3.4,4.3,4.4,7c1,2.7,1.5,5.6,1.5,8.7c0,3.8-0.7,7.3-2,10.5
			c-1.4,3.2-3.2,5.9-5.6,8.1s-5.2,4-8.5,5.2c-3.3,1.2-6.9,1.8-10.7,1.8c-2.3,0-4.4-0.2-6.5-0.7c-2-0.5-3.9-1.1-5.7-1.9
			c-1.8-0.8-3.4-1.7-5-2.7c-1.5-1-2.9-2.1-4.1-3.2l3.8-5.2c0.8-1.1,1.9-1.7,3.2-1.7c0.8,0,1.7,0.3,2.5,0.8c0.8,0.5,1.8,1.1,3,1.8
			c1.1,0.6,2.5,1.2,4,1.8s3.3,0.8,5.5,0.8c2.3,0,4.3-0.4,6-1.1c1.7-0.7,3.2-1.8,4.3-3.1s2-2.9,2.6-4.7c0.6-1.8,0.9-3.8,0.9-5.9
			c0-3.9-1.1-7-3.4-9.2c-2.3-2.2-5.6-3.3-10.1-3.3c-3.5,0-7,0.6-10.5,1.9l-7.7-2.2l6-35.1h35.7V174.5z"/>
	</g>
	<g id="racing" transform="translate(455.893 72.993)">
		<g id="Group_501" transform="translate(158.107 120.507)">
			<g id="Group_500">
				<path id="Path_384" class="st2" d="M31.1-25.5C11.8-25.5-3.8-9.9-3.8,9.4c0,11.1,5.2,21.5,14.1,28.1c0.1,0.1,0.2,0.1,0.2,0.2
					s0.2,0.1,0.3,0.2c12.1,8.6,28.3,8.6,40.4,0c0.1-0.1,0.2-0.1,0.3-0.2c0.1-0.1,0.2-0.1,0.2-0.2C67.3,26,70.6,4.1,59.2-11.4
					C52.6-20.3,42.2-25.5,31.1-25.5z M35.4-16.6c8.2,1.4,15.3,6.5,19.1,13.9L43.4,0.9C41.5-1.9,38.7-4,35.4-5V-16.6L35.4-16.6z
					 M37.6,9.4c0,3.6-2.9,6.5-6.5,6.5c-3.6,0-6.5-2.9-6.5-6.5c0-3.6,2.9-6.5,6.5-6.5C34.7,3,37.5,5.8,37.6,9.4L37.6,9.4z M26.8-16.6
					V-5c-3.3,1-6.1,3.1-8.1,5.9L7.7-2.7C11.5-10.1,18.6-15.2,26.8-16.6L26.8-16.6z M12.4,27.9C6.5,22,3.8,13.7,5,5.4L16.1,9
					c0,0.1,0,0.2,0,0.4c0,3.3,1.1,6.5,3.1,9.1L12.4,27.9z M31.1,35.8c-4.1,0-8.2-1-11.8-2.8l6.8-9.4c3.2,1.1,6.8,1.1,10,0l6.8,9.4
					C39.3,34.8,35.2,35.8,31.1,35.8L31.1,35.8z M49.8,27.9L43,18.5c2-2.6,3.1-5.8,3.1-9.1c0-0.1,0-0.3,0-0.4l11.1-3.6
					C58.4,13.7,55.7,22,49.8,27.9L49.8,27.9z"/>
			</g>
		</g>
	</g>
	<g class="st0">
		<path class="st1" d="M735.7,174.5c0,1.8-0.6,3.2-1.7,4.3c-1.1,1.1-3,1.7-5.6,1.7h-19.9l-2.6,15.1c3.3-0.7,6.2-1,9-1
			c3.8,0,7.1,0.6,10,1.7c2.9,1.1,5.3,2.7,7.3,4.7c2,2,3.5,4.3,4.5,7c1,2.7,1.5,5.6,1.5,8.7c0,3.8-0.7,7.3-2,10.5
			c-1.3,3.2-3.2,5.9-5.6,8.1s-5.2,4-8.5,5.2c-3.3,1.2-6.9,1.8-10.7,1.8c-2.3,0-4.4-0.2-6.5-0.7c-2-0.5-3.9-1.1-5.7-1.9
			c-1.8-0.8-3.4-1.7-5-2.7c-1.5-1-2.9-2.1-4.1-3.2l3.8-5.2c0.8-1.1,1.9-1.7,3.2-1.7c0.8,0,1.7,0.3,2.5,0.8c0.8,0.5,1.8,1.1,3,1.8
			c1.1,0.6,2.5,1.2,4,1.8s3.3,0.8,5.5,0.8c2.3,0,4.3-0.4,6-1.1c1.7-0.7,3.2-1.8,4.3-3.1c1.1-1.3,2-2.9,2.6-4.7
			c0.6-1.8,0.9-3.8,0.9-5.9c0-3.9-1.1-7-3.4-9.2c-2.3-2.2-5.6-3.3-10.1-3.3c-3.5,0-7,0.6-10.5,1.9l-7.7-2.2l6-35.1h35.7V174.5z"/>
	</g>
</g>
</svg>
