<svg xmlns="http://www.w3.org/2000/svg" width="45.573" height="45.573" viewBox="0 0 45.573 45.573">
    <defs>
        <style>
            .cls-1{fill:#2c0b2d}.cls-2{fill:#bb3e8c}
        </style>
    </defs>
    <g id="time-management" transform="translate(-4.75 -4.75)">
        <path id="Path_1789" d="M35.848 22.806h-3.092a1.166 1.166 0 0 0-.272-.272v-4.75a.673.673 0 0 0-1.346 0v4.75a1.161 1.161 0 1 0 1.618 1.618h3.092a.673.673 0 1 0 0-1.346z" class="cls-1" transform="translate(-15.938 -7.606)"/>
        <path id="Path_1790" d="M87.266 73.619a.673.673 0 0 0-.649-.5h-2.31q-.129-.291-.274-.567l1.533-1.533a.673.673 0 0 0 .077-.86 11.143 11.143 0 0 0-3.432-3.192.673.673 0 0 0-.82.1l-1.615 1.615q-.186-.077-.375-.144V66.32a.673.673 0 0 0-.53-.658 11.123 11.123 0 0 0-4.677 0 .673.673 0 0 0-.53.658v2.225q-.189.067-.375.144l-1.615-1.615a.672.672 0 0 0-.82-.1 11.141 11.141 0 0 0-3.431 3.192.672.672 0 0 0 .077.86l1.533 1.534q-.145.276-.274.567h-2.311a.673.673 0 0 0-.649.5 11.079 11.079 0 0 0-.389 2.915 11.371 11.371 0 0 0 .139 1.762.673.673 0 0 0 .665.569h2.154a8.671 8.671 0 0 0 .318.913l-.6.6a.452.452 0 0 0-.038.043l-.972.972a.673.673 0 0 0-.1.82 11.2 11.2 0 0 0 3.189 3.427.672.672 0 0 0 .861-.077l1.533-1.533a8.338 8.338 0 0 0 1.11.49v2.225a.673.673 0 0 0 .53.658 11.068 11.068 0 0 0 4.678 0 .673.673 0 0 0 .53-.658v-2.229a8.337 8.337 0 0 0 1.11-.49l1.533 1.533a.672.672 0 0 0 .861.077 11.2 11.2 0 0 0 3.189-3.427.673.673 0 0 0-.1-.82l-.972-.971-.038-.044-.6-.6a8.559 8.559 0 0 0 .318-.913h2.142a.673.673 0 0 0 .665-.569 11.372 11.372 0 0 0 .139-1.762 11.077 11.077 0 0 0-.388-2.916zm-1.006 3.9h-2.09a.673.673 0 0 0-.658.531 7.172 7.172 0 0 1-.545 1.586.673.673 0 0 0 .131.767l.89.89.04.044.631.631a9.89 9.89 0 0 1-2.074 2.237L81.1 82.72a.672.672 0 0 0-.827-.1 7 7 0 0 1-1.731.765.673.673 0 0 0-.488.647v2.157a9.748 9.748 0 0 1-3.046 0v-2.155a.673.673 0 0 0-.488-.647 6.988 6.988 0 0 1-1.731-.765.673.673 0 0 0-.827.1l-1.486 1.485a9.89 9.89 0 0 1-2.076-2.239l.631-.631a.45.45 0 0 0 .038-.043l.891-.891a.673.673 0 0 0 .135-.765 7.151 7.151 0 0 1-.545-1.586.674.674 0 0 0-.659-.533h-2.085c-.033-.33-.05-.659-.05-.985a9.773 9.773 0 0 1 .221-2.067h2.233a.673.673 0 0 0 .629-.433 7.481 7.481 0 0 1 .606-1.244.673.673 0 0 0-.1-.827l-1.486-1.486A9.824 9.824 0 0 1 71.1 68.4l1.562 1.562a.674.674 0 0 0 .769.13 6.726 6.726 0 0 1 1.088-.415.673.673 0 0 0 .488-.647v-2.152a9.818 9.818 0 0 1 3.046 0v2.157a.674.674 0 0 0 .488.647 6.722 6.722 0 0 1 1.088.416.674.674 0 0 0 .769-.13l1.562-1.562a9.817 9.817 0 0 1 2.24 2.075l-1.486 1.486a.673.673 0 0 0-.1.827 7.48 7.48 0 0 1 .607 1.243.673.673 0 0 0 .629.433h2.233a9.742 9.742 0 0 1 .22 2.065c0 .325-.017.655-.05.985z" class="cls-1" transform="translate(-37.331 -37.333)"/>
        <path id="Path_1791" d="M86.439 81.51a4.931 4.931 0 1 0 4.93 4.931 4.931 4.931 0 0 0-4.93-4.931zm0 8.515a3.585 3.585 0 1 1 3.584-3.585 3.585 3.585 0 0 1-3.584 3.585z" class="cls-1" transform="translate(-47.237 -47.239)"/>
        <path id="Path_1792" d="M23.737 8.008a.654.654 0 0 0-.052-.042 11.1 11.1 0 0 0-15.626 0 .59.59 0 0 0-.052.042c-.016.016-.028.034-.042.052a11.1 11.1 0 0 0 0 15.626c.014.017.026.035.042.052s.035.028.052.042a11.1 11.1 0 0 0 15.626 0c.017-.014.036-.026.052-.042s.028-.035.042-.052a11.1 11.1 0 0 0 0-15.626.6.6 0 0 0-.042-.052zm1.015 8.538h.871a9.733 9.733 0 0 1-2.384 5.742l-.613-.613a.673.673 0 0 0-.951.951l.613.613a9.733 9.733 0 0 1-5.742 2.384v-.873a.673.673 0 0 0-1.346 0v.871a9.73 9.73 0 0 1-5.742-2.384l.613-.613a.673.673 0 1 0-.952-.952l-.613.613a9.73 9.73 0 0 1-2.386-5.741h.871a.673.673 0 1 0 0-1.346h-.869a9.73 9.73 0 0 1 2.384-5.742l.613.613a.673.673 0 1 0 .952-.952L9.458 8.5A9.73 9.73 0 0 1 15.2 6.12v.871a.673.673 0 1 0 1.346 0v-.869a9.73 9.73 0 0 1 5.743 2.384l-.613.613a.673.673 0 1 0 .952.952l.613-.613a9.73 9.73 0 0 1 2.384 5.742h-.874a.673.673 0 0 0 0 1.346z" class="cls-1"/>
        <path id="Path_1793" d="M42.249 79.055c.008-.021.013-.043.02-.065a.534.534 0 0 0 .018-.061.673.673 0 0 0 0-.263c0-.021-.012-.041-.018-.061a.616.616 0 0 0-.02-.064.7.7 0 0 0-.038-.071c-.008-.015-.015-.03-.025-.045a.653.653 0 0 0-.085-.1l-2.388-2.387a.673.673 0 0 0-.951.951L40 78.124h-6.734v-8.361a.673.673 0 1 0-1.346 0V78.8a.673.673 0 0 0 .673.673H40l-1.24 1.238a.673.673 0 1 0 .951.951l2.389-2.388a.654.654 0 0 0 .085-.1c.01-.014.016-.03.025-.045a.684.684 0 0 0 .035-.07z" class="cls-2" transform="translate(-16.721 -39.595)"/>
        <path id="Path_1794" d="M69.141 28.516c-.008.021-.013.043-.02.065a.609.609 0 0 0-.018.06.673.673 0 0 0 0 .263c0 .021.012.038.018.06a.673.673 0 0 0 .02.065.75.75 0 0 0 .038.07c.008.015.015.031.025.046a.655.655 0 0 0 .085.1l2.387 2.387a.673.673 0 1 0 .952-.952l-1.241-1.239h6.737v8.361a.673.673 0 1 0 1.346 0v-9.029a.673.673 0 0 0-.67-.673h-7.41l1.24-1.238a.673.673 0 1 0-.952-.952l-2.39 2.39a.654.654 0 0 0-.085.1.433.433 0 0 0-.025.045.678.678 0 0 0-.037.07z" class="cls-2" transform="translate(-39.595 -12.901)"/>
    </g>
</svg>
