<svg xmlns="http://www.w3.org/2000/svg" viewBox="0 0 41.23 41.23"><defs><style>.cls-1{isolation:isolate;}.cls-2{fill:#bb3e8c;}.cls-3{fill:#2c0b2d;}</style></defs><g id="Layer_2" data-name="Layer 2"><g id="Layer_1-2" data-name="Layer 1"><g id="A-2" class="cls-1"><g class="cls-1"><path class="cls-2" d="M17.15,18H16a.45.45,0,0,1-.31-.1.55.55,0,0,1-.18-.24l-1-2.6H9.7l-1,2.6a.44.44,0,0,1-.18.23A.47.47,0,0,1,8.2,18H7.08L11.37,7.25h1.48Zm-7-4h4L12.43,9.64a7.35,7.35,0,0,1-.32-1L12,9.19c-.06.17-.11.33-.16.45Z"/></g></g><g id="C" class="cls-1"><g class="cls-1"><path class="cls-2" d="M33.85,33.69a.29.29,0,0,1,.23.1l.63.7a4.37,4.37,0,0,1-1.61,1.2,5.43,5.43,0,0,1-2.28.43,5.17,5.17,0,0,1-2.12-.41,4.64,4.64,0,0,1-1.62-1.13,5,5,0,0,1-1-1.74,6.56,6.56,0,0,1-.37-2.23,6.09,6.09,0,0,1,.39-2.22,5.13,5.13,0,0,1,1.08-1.74,4.8,4.8,0,0,1,1.67-1.13A5.57,5.57,0,0,1,31,25.11a5.13,5.13,0,0,1,3.59,1.37l-.52.74a.35.35,0,0,1-.13.14.33.33,0,0,1-.21.05.64.64,0,0,1-.33-.14l-.5-.32a4.36,4.36,0,0,0-.77-.32A4.12,4.12,0,0,0,31,26.49a3.67,3.67,0,0,0-1.47.28,3.25,3.25,0,0,0-1.15.81,3.47,3.47,0,0,0-.75,1.3,5.19,5.19,0,0,0-.27,1.73,5,5,0,0,0,.28,1.75,3.88,3.88,0,0,0,.76,1.3,3.3,3.3,0,0,0,1.15.81,3.56,3.56,0,0,0,1.42.28,5.35,5.35,0,0,0,.84-.06,3.22,3.22,0,0,0,.68-.17,2.49,2.49,0,0,0,.59-.29,3.49,3.49,0,0,0,.55-.42.6.6,0,0,1,.13-.09A.32.32,0,0,1,33.85,33.69Z"/></g></g><path id="Path_450-4" data-name="Path 450-4" class="cls-3" d="M16.75,22.62a.61.61,0,0,0-.6-.61H2.55a1.33,1.33,0,0,1-1.34-1.33V2.55A1.34,1.34,0,0,1,2.55,1.21H20.68A1.33,1.33,0,0,1,22,2.55v13.6a.62.62,0,0,0,.61.6.6.6,0,0,0,.61-.6V2.55A2.55,2.55,0,0,0,20.68,0H2.55A2.55,2.55,0,0,0,0,2.55V20.68a2.56,2.56,0,0,0,2.55,2.55h13.6A.62.62,0,0,0,16.75,22.62Z"/><path id="Path_451-4" data-name="Path 451-4" class="cls-3" d="M38.68,18H33.5a.61.61,0,1,0,0,1.21h5.18A1.33,1.33,0,0,1,40,20.55V38.68A1.34,1.34,0,0,1,38.68,40H20.55a1.35,1.35,0,0,1-1.34-1.34V20.55a1.34,1.34,0,0,1,1.34-1.34H38.91a.61.61,0,0,0,0-1.21H20.55A2.55,2.55,0,0,0,18,20.55V38.68a2.56,2.56,0,0,0,2.55,2.55H38.68a2.57,2.57,0,0,0,2.55-2.55V20.55A2.56,2.56,0,0,0,38.68,18Z"/></g></g></svg>