<svg xmlns="http://www.w3.org/2000/svg" viewBox="0 0 41.36 41.36"><defs><style>.cls-1{isolation:isolate;}.cls-2{fill:#bb3e8c;}.cls-3{fill:#2c0b2d;}</style></defs><g id="Layer_2" data-name="Layer 2"><g id="Layer_1-2" data-name="Layer 1"><g id="A" class="cls-1"><g class="cls-1"><path class="cls-2" d="M16.15,16.24H15a.45.45,0,0,1-.31-.1.58.58,0,0,1-.18-.25l-1-2.59H8.7l-1,2.59a.56.56,0,0,1-.17.24.52.52,0,0,1-.32.11H6.08L10.37,5.49h1.48Zm-7-4h4L11.43,7.88a7.35,7.35,0,0,1-.32-1L11,7.43c-.06.17-.11.32-.16.45Z"/></g></g><g id="E" class="cls-1"><g class="cls-1"><path class="cls-2" d="M34,34.94v1.3H27.33V25.47H34v1.3H28.93v3.41H33v1.25H28.93v3.51Z"/></g></g><path id="Path_450" data-name="Path 450" class="cls-3" d="M16.75,22.62a.61.61,0,0,0-.6-.61H2.55a1.33,1.33,0,0,1-1.34-1.33V2.55A1.34,1.34,0,0,1,2.55,1.21H20.68A1.33,1.33,0,0,1,22,2.55v13.6a.62.62,0,0,0,.61.6.6.6,0,0,0,.61-.6V2.55A2.55,2.55,0,0,0,20.68,0H2.55A2.55,2.55,0,0,0,0,2.55V20.68a2.56,2.56,0,0,0,2.55,2.55h13.6A.62.62,0,0,0,16.75,22.62Z"/><path id="Path_451" data-name="Path 451" class="cls-3" d="M38.81,18.13H33.63a.61.61,0,1,0,0,1.21h5.18a1.33,1.33,0,0,1,1.33,1.34V38.81a1.34,1.34,0,0,1-1.33,1.34H20.68a1.35,1.35,0,0,1-1.34-1.34V20.68a1.34,1.34,0,0,1,1.34-1.34H39a.61.61,0,0,0,0-1.21H20.68a2.55,2.55,0,0,0-2.55,2.55V38.81a2.56,2.56,0,0,0,2.55,2.55H38.81a2.57,2.57,0,0,0,2.55-2.55V20.68A2.56,2.56,0,0,0,38.81,18.13Z"/></g></g></svg>