<svg xmlns="http://www.w3.org/2000/svg" width="24" height="24" viewBox="0 0 24 24">
    <defs>
        <style>
            .cls-2{fill:#2c0b2d}
        </style>
    </defs>
    <g id="Group_3653" transform="translate(-1143 -316)">
        <circle id="Ellipse_266" cx="12" cy="12" r="12" fill="#f6e3ef" transform="translate(1143 316)"/>
        <g id="video-camera" transform="translate(1150 284)">
            <g id="Group_1835" transform="translate(0 40)">
                <g id="Group_1834">
                    <path id="Path_1177" d="M10.584 200.741a.178.178 0 0 0-.166-.018l-1.777.711a.178.178 0 0 0-.112.165h-.355v-1.066a.533.533 0 0 0-.533-.533H1.6a.533.533 0 0 0-.533.533v.109l-.832-.277a.178.178 0 0 0-.234.169v2.132a.178.178 0 0 0 .178.178.18.18 0 0 0 .056-.009l.832-.277v2.242a.533.533 0 0 0 .533.533h6.041a.533.533 0 0 0 .533-.533v-1.066h.356a.178.178 0 0 0 .112.165l1.777.711a.178.178 0 0 0 .244-.165v-3.554a.178.178 0 0 0-.079-.15zm-9.518 1.441l-.711.237v-1.639l.711.237zm6.753 2.618a.178.178 0 0 1-.178.178H1.6a.178.178 0 0 1-.178-.178v-4.265a.178.178 0 0 1 .178-.178h6.041a.178.178 0 0 1 .178.178zm.711-1.422h-.356v-1.422h.356zm1.777.8l-1.422-.569v-1.889l1.422-.569z" class="cls-2" transform="translate(0 -196.446)"/>
                    <path id="Path_1178" d="M67.554 41.777a1.777 1.777 0 1 0-1.777 1.777 1.777 1.777 0 0 0 1.777-1.777zM65.777 43.2a1.422 1.422 0 1 1 1.423-1.423 1.422 1.422 0 0 1-1.423 1.423z" class="cls-2" transform="translate(-62.578 -40)"/>
                    <path id="Path_1179" d="M242.488 89.244a1.244 1.244 0 1 0-1.244 1.244 1.244 1.244 0 0 0 1.244-1.244zm-1.244.889a.889.889 0 1 1 .889-.889.889.889 0 0 1-.889.888z" class="cls-2" transform="translate(-234.669 -86.934)"/>
                    <path id="Path_1180" fill="#bb3e8c" d="M123.732 248h-3.554a.178.178 0 0 0-.178.178v2.843a.178.178 0 0 0 .178.178h3.554a.178.178 0 0 0 .178-.178v-2.843a.178.178 0 0 0-.178-.178zm-.178 2.843h-3.2v-2.488h3.2z" transform="translate(-117.334 -243.38)"/>
                </g>
            </g>
        </g>
    </g>
</svg>
