<svg xmlns="http://www.w3.org/2000/svg" width="13.084" height="11.024" viewBox="0 0 13.084 11.024">
    <defs>
        <style>
            .cls-1{fill:#818181}
        </style>
    </defs>
    <g id="speaker_1_" transform="translate(0 -40.31)">
        <path id="Path_2514" d="M6 40.479l-3.445 2.1H.383A.383.383 0 0 0 0 42.96v5.724a.383.383 0 0 0 .383.383H2.55L6 51.164a1.15 1.15 0 0 0 1.748-.982v-8.72A1.15 1.15 0 0 0 6 40.479zM.767 43.343h1.507V48.3H.767zm6.21 6.839a.383.383 0 0 1-.583.327l-3.353-2.041v-5.293l3.353-2.041a.383.383 0 0 1 .583.327z" class="cls-1"/>
        <path id="Path_2515" d="M341.4 212.833a.383.383 0 0 0 0 .542.638.638 0 0 1 0 .9.383.383 0 0 0 .542.542 1.407 1.407 0 0 0 0-1.988.383.383 0 0 0-.542.004z" class="cls-1" transform="translate(-332.563 -168.005)"/>
        <path id="Path_2516" d="M387.194 167.579a.383.383 0 0 0-.542.542 2.277 2.277 0 0 1 0 3.216.383.383 0 0 0 .542.542 3.044 3.044 0 0 0 0-4.3z" class="cls-1" transform="translate(-376.662 -123.907)"/>
        <path id="Path_2517" d="M432.448 122.324a.383.383 0 0 0-.542.542 3.868 3.868 0 0 1 0 5.529.383.383 0 0 0 .542.542 4.616 4.616 0 0 0 0-6.613z" class="cls-1" transform="translate(-420.759 -79.809)"/>
    </g>
</svg>
