<svg xmlns="http://www.w3.org/2000/svg" width="48.436" height="44.642" viewBox="0 0 48.436 44.642">
    <defs>
        <style>
            .cls-1{fill:#bb3e8c}
        </style>
    </defs>
    <g id="audio" transform="translate(0 -20.052)">
        <g id="Group_4612" transform="translate(31.918 20.052)">
            <g id="Group_4611">
                <path id="Path_1681" d="M339.386 20.171a1.419 1.419 0 1 0-1.136 2.6 21.389 21.389 0 0 1 0 39.2 1.419 1.419 0 1 0 1.136 2.6 24.227 24.227 0 0 0 0-44.4z" class="cls-1" transform="translate(-337.397 -20.052)"/>
            </g>
        </g>
        <g id="Group_4614" transform="translate(31.919 30.759)">
            <g id="Group_4613">
                <path id="Path_1682" d="M339.773 133.591a1.419 1.419 0 0 0-1.893 2.115 12.26 12.26 0 0 1 0 18.276 1.419 1.419 0 0 0 1.893 2.115 15.1 15.1 0 0 0 0-22.5z" class="cls-1" transform="translate(-337.408 -133.229)"/>
            </g>
        </g>
        <g id="Group_4616" transform="translate(0 23.475)">
            <g id="Group_4615">
                <path id="Path_1683" fill="#2c0b2d" d="M24.859 56.386a1.419 1.419 0 0 0-1.481.121l-11.024 8.085H1.419A1.419 1.419 0 0 0 0 66.011V84.25a1.419 1.419 0 0 0 1.419 1.419h10.935l11.025 8.085a1.419 1.419 0 0 0 2.258-1.144V57.651a1.419 1.419 0 0 0-.778-1.265zM22.8 89.809l-9.141-6.7a1.419 1.419 0 0 0-.839-.275H2.838V67.43h9.98a1.42 1.42 0 0 0 .839-.275l9.141-6.7z" transform="translate(0 -56.232)"/>
            </g>
        </g>
    </g>
</svg>
