<svg xmlns="http://www.w3.org/2000/svg" width="37.384" height="45.573" viewBox="0 0 37.384 45.573">
    <defs>
        <style>
            .cls-1{fill:#bb3e8c}.cls-2{fill:#2c0b2d}
        </style>
    </defs>
    <g id="trophy" transform="translate(-46)">
        <g id="Group_4675" transform="translate(67.362 40.233)">
            <g id="Group_4674">
                <path id="Path_1759" d="M286.89 452a.89.89 0 1 0 .89.89.89.89 0 0 0-.89-.89z" class="cls-1" transform="translate(-286 -452)"/>
            </g>
        </g>
        <g id="Group_4677" transform="translate(46)">
            <g id="Group_4676">
                <path id="Path_1760" d="M80.714 4.094h-2.67V2.67A2.673 2.673 0 0 0 75.373 0H54.011a2.673 2.673 0 0 0-2.67 2.67v1.424H48.67A2.673 2.673 0 0 0 46 6.765c0 5.791 2.71 10.046 7.106 11.235a19.622 19.622 0 0 0 6.914 8.174 2.574 2.574 0 0 1 1.112 2.149v4.9a3.565 3.565 0 0 0-2.67 3.448h-.89a2.673 2.673 0 0 0-2.67 2.67v5.341a.89.89 0 0 0 .89.89h17.8a.89.89 0 0 0 .89-.89v-5.339a2.673 2.673 0 0 0-2.67-2.67h-.89a3.567 3.567 0 0 0-2.67-3.448v-4.9a2.577 2.577 0 0 1 1.113-2.154A19.622 19.622 0 0 0 76.28 18c4.4-1.185 7.1-5.441 7.1-11.231a2.673 2.673 0 0 0-2.666-2.675zM47.78 6.765a.891.891 0 0 1 .89-.89h2.67v3.978a19.551 19.551 0 0 0 .914 5.929c-2.832-1.402-4.474-4.643-4.474-9.017zm24.033 31.687a.891.891 0 0 1 .89.89v4.451H56.681v-4.45a.891.891 0 0 1 .89-.89zm4.451-28.6a17.9 17.9 0 0 1-7.892 14.84 4.354 4.354 0 0 0-1.9 3.63V34a.89.89 0 0 0 .89.89 1.782 1.782 0 0 1 1.78 1.78h-8.9a1.781 1.781 0 0 1 1.71-1.779h.07a.894.894 0 0 0 .89-.894v-5.678a4.351 4.351 0 0 0-1.9-3.626 17.9 17.9 0 0 1-7.893-14.84V2.67a.891.891 0 0 1 .89-.89h21.364a.891.891 0 0 1 .89.89zm.866 5.929a19.563 19.563 0 0 0 .914-5.929V5.875h2.67a.891.891 0 0 1 .89.89c-.004 4.374-1.642 7.614-4.474 9.018z" class="cls-2" transform="translate(-46)"/>
            </g>
        </g>
        <g id="Group_4679" transform="translate(57.54 5.376)">
            <g id="Group_4678">
                <path id="Path_1761" d="M189.846 65.541a.89.89 0 0 0-.719-.606l-3.841-.558-1.718-3.477a.89.89 0 0 0-1.6 0l-1.718 3.482-3.841.558a.89.89 0 0 0-.493 1.518l2.78 2.709-.656 3.826a.89.89 0 0 0 1.292.938l3.436-1.806 3.436 1.806a.89.89 0 0 0 1.291-.939l-.657-3.826 2.78-2.709a.89.89 0 0 0 .228-.916zm-4.583 2.674a.89.89 0 0 0-.256.788l.431 2.51-2.254-1.185a.89.89 0 0 0-.828 0l-2.256 1.185.43-2.51a.89.89 0 0 0-.256-.788l-1.823-1.777 2.519-.366a.89.89 0 0 0 .67-.487l1.127-2.284 1.127 2.284a.89.89 0 0 0 .67.487l2.519.366z" class="cls-1" transform="translate(-175.649 -60.4)"/>
            </g>
        </g>
        <g id="Group_4681" transform="translate(60.242 40.233)">
            <g id="Group_4680">
                <path id="Path_1762" d="M210.451 452h-3.56a.89.89 0 1 0 0 1.78h3.56a.89.89 0 1 0 0-1.78z" class="cls-1" transform="translate(-206 -452)"/>
            </g>
        </g>
        <g id="Group_4683" transform="translate(78.401 42.863)">
            <g id="Group_4682">
                <path id="Path_1763" d="M410.01 481.6h.5c-.257-.054-.427-.059-.5 0z" class="cls-2" transform="translate(-410.01 -481.557)"/>
            </g>
        </g>
    </g>
</svg>
