<svg xmlns="http://www.w3.org/2000/svg" viewBox="0 0 41.23 41.46"><defs><style>.cls-1{isolation:isolate;}.cls-2{fill:#bb3e8c;}.cls-3{fill:#2c0b2d;}</style></defs><g id="Layer_2" data-name="Layer 2"><g id="Layer_1-2" data-name="Layer 1"><g id="B-2" class="cls-1"><g class="cls-1"><path class="cls-2" d="M7.31,16.24V5.49h3.42a6.58,6.58,0,0,1,1.71.2,3.15,3.15,0,0,1,1.18.55,2.25,2.25,0,0,1,.68.88,3,3,0,0,1,.22,1.18,2.46,2.46,0,0,1-.12.76,2.28,2.28,0,0,1-.38.68,2.9,2.9,0,0,1-.63.57,3.47,3.47,0,0,1-.89.4,3.34,3.34,0,0,1,1.78.85,2.22,2.22,0,0,1,.6,1.62,3,3,0,0,1-.25,1.24,2.59,2.59,0,0,1-.74,1,3.41,3.41,0,0,1-1.18.63,5.57,5.57,0,0,1-1.6.22Zm1.45-5.93h1.92a3.68,3.68,0,0,0,1.06-.14,2.11,2.11,0,0,0,.75-.37,1.5,1.5,0,0,0,.44-.59,2,2,0,0,0,.14-.74,1.66,1.66,0,0,0-.57-1.39,2.92,2.92,0,0,0-1.77-.44h-2Zm0,1v3.74h2.32a3.35,3.35,0,0,0,1.07-.14,1.94,1.94,0,0,0,.74-.4,1.55,1.55,0,0,0,.42-.62,2.13,2.13,0,0,0,.14-.78,1.65,1.65,0,0,0-.59-1.32,2.78,2.78,0,0,0-1.78-.48Z"/></g></g><g id="A-2" class="cls-1"><g class="cls-1"><path class="cls-2" d="M35.21,36.24H34a.56.56,0,0,1-.35-.11.58.58,0,0,1-.19-.27l-1-2.49H27.74l-.95,2.49a.61.61,0,0,1-.2.26.53.53,0,0,1-.35.12H25l4.29-10.77h1.61Zm-3.16-4-1.6-4.18A10.09,10.09,0,0,1,30.11,27c-.06.21-.11.41-.17.6l-.17.49-1.59,4.17Z"/></g></g><path id="Path_450-3" data-name="Path 450-3" class="cls-3" d="M16.75,22.62a.61.61,0,0,0-.6-.61H2.55a1.33,1.33,0,0,1-1.34-1.33V2.55A1.34,1.34,0,0,1,2.55,1.21H20.68A1.33,1.33,0,0,1,22,2.55v13.6a.62.62,0,0,0,.61.6.6.6,0,0,0,.61-.6V2.55A2.55,2.55,0,0,0,20.68,0H2.55A2.55,2.55,0,0,0,0,2.55V20.68a2.56,2.56,0,0,0,2.55,2.55h13.6A.62.62,0,0,0,16.75,22.62Z"/><path id="Path_451-3" data-name="Path 451-3" class="cls-3" d="M38.68,18.24H33.5a.61.61,0,1,0,0,1.21h5.18A1.33,1.33,0,0,1,40,20.79V38.92a1.33,1.33,0,0,1-1.33,1.33H20.55a1.34,1.34,0,0,1-1.34-1.33V20.79a1.34,1.34,0,0,1,1.34-1.34H38.91a.61.61,0,0,0,0-1.21H20.55A2.55,2.55,0,0,0,18,20.79V38.92a2.55,2.55,0,0,0,2.55,2.54H38.68a2.56,2.56,0,0,0,2.55-2.54V20.79A2.56,2.56,0,0,0,38.68,18.24Z"/></g></g></svg>