<svg xmlns="http://www.w3.org/2000/svg" width="16.88" height="18.755" viewBox="0 0 16.88 18.755">
    <path id="bx-bell" fill="#fff" d="M18 12.865V9.5a6.57 6.57 0 0 0-4.821-6.32 1.872 1.872 0 0 0-3.479 0A6.571 6.571 0 0 0 4.876 9.5v3.363l-1.6 1.6a.934.934 0 0 0-.276.666V17a.937.937 0 0 0 .938.938h15A.937.937 0 0 0 19.88 17v-1.871a.934.934 0 0 0-.275-.663zm0 3.2H4.876v-.55l1.6-1.6a.934.934 0 0 0 .275-.663V9.5a4.689 4.689 0 0 1 9.378 0v3.751a.934.934 0 0 0 .275.663l1.6 1.6zm-6.56 4.69a2.8 2.8 0 0 0 2.643-1.876H8.8a2.8 2.8 0 0 0 2.64 1.876z" transform="translate(-3 -2)"/>
</svg>
