<svg xmlns="http://www.w3.org/2000/svg" viewBox="0 0 41.23 41.23"><defs><style>.cls-1{isolation:isolate;}.cls-2{fill:#bb3e8c;}.cls-3{fill:#2c0b2d;}</style></defs><g id="Layer_2" data-name="Layer 2"><g id="Layer_1-2" data-name="Layer 1"><g id="B" class="cls-1"><g class="cls-1"><path class="cls-2" d="M7.31,18V7.25h3.42a6.58,6.58,0,0,1,1.71.2A3.31,3.31,0,0,1,13.62,8a2.33,2.33,0,0,1,.68.88,3,3,0,0,1,.22,1.18,2.42,2.42,0,0,1-.12.76,2.28,2.28,0,0,1-.38.68,2.9,2.9,0,0,1-.63.57,3.47,3.47,0,0,1-.89.4,3.34,3.34,0,0,1,1.78.85,2.22,2.22,0,0,1,.6,1.62,2.92,2.92,0,0,1-.25,1.24,2.59,2.59,0,0,1-.74,1,3.41,3.41,0,0,1-1.18.63,5.25,5.25,0,0,1-1.6.22Zm1.45-5.93h1.92a3.63,3.63,0,0,0,1.06-.14,2.19,2.19,0,0,0,.75-.37,1.55,1.55,0,0,0,.44-.58,1.86,1.86,0,0,0,.14-.75,1.66,1.66,0,0,0-.57-1.39,2.92,2.92,0,0,0-1.77-.44h-2Zm0,1v3.74h2.32a3.35,3.35,0,0,0,1.07-.14,1.94,1.94,0,0,0,.74-.4,1.59,1.59,0,0,0,.42-.61,2.22,2.22,0,0,0,.14-.79,1.61,1.61,0,0,0-.59-1.31,2.72,2.72,0,0,0-1.78-.49Z"/></g></g><g id="I-2" class="cls-1"><g class="cls-1"><path class="cls-2" d="M29.93,36h-1.6V25.23h1.6Z"/></g></g><path id="Path_450-5" data-name="Path 450-5" class="cls-3" d="M16.75,22.62a.61.61,0,0,0-.6-.61H2.55a1.33,1.33,0,0,1-1.34-1.33V2.55A1.34,1.34,0,0,1,2.55,1.21H20.68A1.33,1.33,0,0,1,22,2.55v13.6a.62.62,0,0,0,.61.6.6.6,0,0,0,.61-.6V2.55A2.55,2.55,0,0,0,20.68,0H2.55A2.55,2.55,0,0,0,0,2.55V20.68a2.56,2.56,0,0,0,2.55,2.55h13.6A.62.62,0,0,0,16.75,22.62Z"/><path id="Path_451-5" data-name="Path 451-5" class="cls-3" d="M38.68,18H33.5a.61.61,0,1,0,0,1.21h5.18A1.33,1.33,0,0,1,40,20.55V38.68A1.34,1.34,0,0,1,38.68,40H20.55a1.35,1.35,0,0,1-1.34-1.34V20.55a1.34,1.34,0,0,1,1.34-1.34H38.91a.61.61,0,0,0,0-1.21H20.55A2.55,2.55,0,0,0,18,20.55V38.68a2.56,2.56,0,0,0,2.55,2.55H38.68a2.57,2.57,0,0,0,2.55-2.55V20.55A2.56,2.56,0,0,0,38.68,18Z"/></g></g></svg>