<svg xmlns="http://www.w3.org/2000/svg" width="46.532" height="48.754" viewBox="0 0 46.532 48.754">
    <defs>
        <style>
            .cls-2{fill:#bb3e8c}
        </style>
    </defs>
    <g id="subscription" transform="translate(-11.667)">
        <path id="Path_1687" fill="#2c0b2d" d="M57.485 2.373h-9.714V.714A.714.714 0 0 0 47.057 0H22.469a.714.714 0 0 0-.714.714v1.659h-9.374a.721.721 0 0 0-.714.714v18.74a.714.714 0 0 0 .714.714h9.373v5.214a.714.714 0 0 0 .714.714h2.18a2.556 2.556 0 0 0-.271.886l-.939 8.13a5.679 5.679 0 0 0-.037.688 5.921 5.921 0 0 0 2.281 4.5l2.378 2.047v3.32a.714.714 0 0 0 .714.714h2.2a.714.714 0 1 0 0-1.428h-1.485V44.4a.714.714 0 0 0-.248-.541L26.9 41.837a4.873 4.873 0 0 1-2.065-3.674 4.238 4.238 0 0 1 .028-.513l.939-8.13a1.135 1.135 0 0 1 1.128-1 1.182 1.182 0 0 1 .851.386 1.156 1.156 0 0 1 .284.749v6.021a.714.714 0 0 0 1.428 0V16.319a1.135 1.135 0 0 1 2.27-.006v9.045a.723.723 0 1 0 1.434.009v-.73c.127-1.453 2.563-1.418 2.563.074v1.082a.715.715 0 0 0 1.428 0 1.138 1.138 0 0 1 1.137-1.137c.71 0 1.429.308 1.429 1.137v.7a.715.715 0 0 0 1.428.013 1.024 1.024 0 0 1 .036-.292 1.162 1.162 0 0 1 2.232-.006l.881 3.394a14.373 14.373 0 0 1-.074 7.487l-2 7.111a.712.712 0 0 0-.027.193v2.928h-7.839a.714.714 0 0 0 0 1.428h8.556a.714.714 0 0 0 .714-.714V44.5l1.97-7.016a15.8 15.8 0 0 0 .082-8.232l-.2-.778h1.546a.714.714 0 0 0 .714-.714V6.7h9v14.413h-6.358a.714.714 0 1 0 0 1.428h7.07a.714.714 0 0 0 .714-.714V3.087a.715.715 0 0 0-.714-.714zM13.1 3.8h8.659v1.47H13.1zm10.083-2.371h23.16V5.27h-23.16zM13.1 21.113V6.7h8.659v14.413zm32.04 5.929l-.308-1.188a2.611 2.611 0 0 0-4.039-1.418 2.863 2.863 0 0 0-3.843-.807 2.825 2.825 0 0 0-3.762-1.211v-5.385h6.5a.693.693 0 0 1 .691.692V19.1a.692.692 0 0 1-.691.691h-3.913a.714.714 0 0 0 0 1.428h3.909A2.122 2.122 0 0 0 41.8 19.1v-1.375a2.123 2.123 0 0 0-2.12-2.121h-6.6a2.563 2.563 0 0 0-5.025.714v10.723h-4.872V6.7h23.16v20.342zM47.771 5.27V3.8h9v1.47z"/>
        <path id="Path_1688" d="M212.228 28.036h-8.281a.714.714 0 1 0 0 1.428h8.281a.714.714 0 1 0 0-1.428z" class="cls-2" transform="translate(-173.324 -25.366)"/>
        <path id="Path_1689" d="M162.956 84.734h-5.639a.714.714 0 0 0-.714.714v3.262a.714.714 0 0 0 .714.714h5.639a.714.714 0 0 0 .714-.714v-3.262a.714.714 0 0 0-.714-.714zM162.242 88h-4.211v-1.838h4.211z" class="cls-2" transform="translate(-131.135 -76.665)"/>
        <path id="Path_1690" d="M406.571 111.155h4.242a.714.714 0 0 0 0-1.428h-4.242a.714.714 0 0 0 0 1.428z" class="cls-2" transform="translate(-356.654 -99.279)"/>
        <path id="Path_1691" d="M410.814 143.419a.714.714 0 0 0 0-1.428h-4.242a.714.714 0 0 0 0 1.428z" class="cls-2" transform="translate(-356.654 -128.47)"/>
        <path id="Path_1692" d="M42.653 111.155H46.9a.714.714 0 1 0 0-1.428h-4.247a.714.714 0 1 0 0 1.428z" class="cls-2" transform="translate(-27.389 -99.279)"/>
        <path id="Path_1693" d="M46.9 141.991h-4.247a.714.714 0 1 0 0 1.428H46.9a.714.714 0 1 0 0-1.428z" class="cls-2" transform="translate(-27.389 -128.47)"/>
        <path id="Path_1694" d="M261.385 101.861h-7.576a.714.714 0 0 0 0 1.428h7.576a.714.714 0 1 0 0-1.428z" class="cls-2" transform="translate(-218.439 -92.162)"/>
    </g>
</svg>
