<svg xmlns="http://www.w3.org/2000/svg" width="45.404" height="45.405" viewBox="0 0 45.404 45.405">
    <defs>
        <style>
            .cls-1{fill:#2c0b2d}.cls-2{fill:#bb3e8c}
        </style>
    </defs>
    <g id="broadcasting" transform="translate(-.001)">
        <path id="Path_1738" d="M45.405 119.57a3.607 3.607 0 0 0-3.6-3.6H3.6a3.607 3.607 0 0 0-3.6 3.6v8.219a.665.665 0 0 0 1.33 0v-8.219a2.276 2.276 0 0 1 2.27-2.27h38.2a2.276 2.276 0 0 1 2.273 2.273v21.372H1.331V130.45a.665.665 0 1 0-1.33 0v14.1a3.607 3.607 0 0 0 3.6 3.6H8.4l-.988 1.976a.665.665 0 0 0 .595.963h2.943a.665.665 0 0 0 .595-.368l1.285-2.571h1.927a.665.665 0 0 0 0-1.33H3.6a2.276 2.276 0 0 1-2.273-2.273v-2.273h42.748v2.273a2.276 2.276 0 0 1-2.273 2.273H17.417a.665.665 0 0 0 0 1.33h15.159l1.285 2.571a.665.665 0 0 0 .595.368h2.938a.665.665 0 0 0 .595-.963L37 148.149h4.8a3.607 3.607 0 0 0 3.6-3.6V119.57zm-34.866 30.187H9.088l.8-1.608h1.451zm25.78 0h-1.451l-.8-1.608h1.451z" class="cls-1" transform="translate(0 -105.683)"/>
        <path id="Path_1739" d="M383.168 432.063a.665.665 0 0 0 0-1.33H381.7a.665.665 0 1 0 0 1.33z" class="cls-1" transform="translate(-347.243 -392.535)"/>
        <path id="Path_1740" d="M333.468 432.063a.665.665 0 0 0 0-1.33H332a.665.665 0 0 0 0 1.33z" class="cls-1" transform="translate(-301.95 -392.535)"/>
        <path id="Path_1741" d="M432.868 432.063a.665.665 0 0 0 0-1.33H431.4a.665.665 0 0 0 0 1.33z" class="cls-1" transform="translate(-392.535 -392.535)"/>
        <path id="Path_1742" d="M139.429 210.414a1.376 1.376 0 0 0 1.375-1.375v-8.865a1.376 1.376 0 0 0-1.375-1.375h-22.087a1.376 1.376 0 0 0-1.375 1.375v8.865a1.376 1.376 0 0 0 1.375 1.375zM117.3 209.04v-8.865a.044.044 0 0 1 .044-.044h22.087a.044.044 0 0 1 .044.044v8.865a.044.044 0 0 1-.044.044h-22.089a.044.044 0 0 1-.042-.044z" class="cls-1" transform="translate(-105.682 -181.17)"/>
        <path id="Path_1743" d="M149.765 237.671h2.935a.665.665 0 1 0 0-1.33h-2.27V232.6a.665.665 0 1 0-1.33 0v4.407a.665.665 0 0 0 .665.664z" class="cls-2" transform="translate(-135.877 -211.365)"/>
        <path id="Path_1744" d="M216.032 237.671a.665.665 0 0 0 .665-.665V232.6a.665.665 0 1 0-1.33 0v4.407a.665.665 0 0 0 .665.664z" class="cls-2" transform="translate(-196.267 -211.365)"/>
        <path id="Path_1745" d="M315.432 237.671h2.938a.665.665 0 0 0 0-1.33h-2.27v-.874h1.539a.665.665 0 1 0 0-1.33H316.1v-.874h2.273a.665.665 0 0 0 0-1.33h-2.938a.665.665 0 0 0-.665.665v4.407a.665.665 0 0 0 .662.666z" class="cls-2" transform="translate(-286.852 -211.365)"/>
        <path id="Path_1746" d="M250 237.214a.665.665 0 0 0 1.262 0l1.469-4.407a.665.665 0 1 0-1.262-.421l-.838 2.515-.838-2.515a.665.665 0 1 0-1.262.421z" class="cls-2" transform="translate(-226.461 -211.363)"/>
        <path id="Path_1747" d="M165.838 3.943a.662.662 0 0 0 .418-.148 11.09 11.09 0 0 1 13.942 0 .665.665 0 0 0 .837-1.034 12.42 12.42 0 0 0-15.616 0 .665.665 0 0 0 .419 1.182z" class="cls-2" transform="translate(-150.524)"/>
        <path id="Path_1748" d="M193.959 36.775a.665.665 0 0 0 .449-1.156 9.48 9.48 0 0 0-12.8 0 .665.665 0 0 0 .9.981 8.15 8.15 0 0 1 11 0 .663.663 0 0 0 .451.175z" class="cls-2" transform="translate(-165.305 -30.195)"/>
        <path id="Path_1749" d="M203.134 66.267a6.534 6.534 0 0 0-4.986 2.307.665.665 0 1 0 1.013.862 5.212 5.212 0 0 1 7.945 0 .665.665 0 0 0 1.014-.862 6.534 6.534 0 0 0-4.986-2.307z" class="cls-2" transform="translate(-180.431 -60.39)"/>
    </g>
</svg>
