<svg xmlns="http://www.w3.org/2000/svg" width="56.522" height="63.883" viewBox="0 0 56.522 63.883">
    <defs>
        <style>
            .cls-2{fill:#bb3e8c}
        </style>
    </defs>
    <g id="file_1_" transform="translate(-29.5)">
        <g id="Group_8148" transform="translate(30.436 .936)">
            <path id="Path_2633" fill="#fff" d="M107.928 63.975a5.542 5.542 0 0 1-5.548 5.537H64.238a5.542 5.542 0 0 1-5.548-5.537V13.037A5.542 5.542 0 0 1 64.238 7.5h23.744a4.165 4.165 0 0 1 2.945 1.219l15.784 15.786a4.148 4.148 0 0 1 1.216 2.933z" transform="translate(-55.984 -7.5)"/>
            <path id="Path_2636" d="M325.136 28.356h-14.1a3.751 3.751 0 0 1-3.746-3.756V10.51a4.122 4.122 0 0 1 1.219.843l15.785 15.787a4.123 4.123 0 0 1 .842 1.216z" class="cls-2" transform="translate(-273.565 -10.134)"/>
            <path id="Path_2638" d="M45.11 240.7h-3.119A4.991 4.991 0 0 1 37 235.708v-18.217a4.991 4.991 0 0 1 4.991-4.991h3.119a4.991 4.991 0 0 0-4.991 4.991v18.217a4.991 4.991 0 0 0 4.991 4.992z" class="cls-2" transform="translate(-37 -186.922)"/>
        </g>
        <g id="Group_8149" transform="translate(29.5)">
            <path id="Path_2639" fill="#2c0b2d" d="M83.315 26.534v-5.659a5.051 5.051 0 0 0-1.49-3.595L66.042 1.494A5.067 5.067 0 0 0 62.434 0H38.69a6.485 6.485 0 0 0-6.484 6.473V9.51a.936.936 0 1 0 1.872 0V6.473a4.612 4.612 0 0 1 4.612-4.6h23.744a3.209 3.209 0 0 1 .79.1v13.341a.936.936 0 1 0 1.872 0V3.2l15.025 15.021h-12.21a2.818 2.818 0 0 1-2.811-2.815v-.716a.936.936 0 1 0-1.872 0v.715a4.692 4.692 0 0 0 4.686 4.687h13.434a3.228 3.228 0 0 1 .1.782v4.86a5.913 5.913 0 0 0-1.349-.157H35.427a5.913 5.913 0 0 0-1.349.157V8.822a.936.936 0 1 0-1.872 0v17.711A5.926 5.926 0 0 0 29.5 31.5v18.574a.936.936 0 1 0 1.872 0V31.5a4.06 4.06 0 0 1 4.055-4.055H80.1a4.06 4.06 0 0 1 4.05 4.055v18.222a4.06 4.06 0 0 1-4.05 4.055H35.427a4.06 4.06 0 0 1-4.055-4.055v-.771a.936.936 0 1 0-1.872 0v.771a5.926 5.926 0 0 0 2.706 4.972v2.718a6.485 6.485 0 0 0 6.484 6.473h37.4a.936.936 0 1 0 0-1.872h-37.4a4.612 4.612 0 0 1-4.612-4.6v-1.921a5.913 5.913 0 0 0 1.349.157H80.1a5.913 5.913 0 0 0 1.349-.157v1.919a4.612 4.612 0 0 1-4.612 4.6h-1.712a.936.936 0 1 0 0 1.872h1.706a6.485 6.485 0 0 0 6.484-6.473v-2.717a5.926 5.926 0 0 0 2.706-4.972V31.5a5.925 5.925 0 0 0-2.706-4.966z" transform="translate(-29.5)"/>
            <path id="Path_2640" d="M235.439 261a.936.936 0 0 0-.936.936v14.211a.936.936 0 0 0 .778.922 15.82 15.82 0 0 0 1.676.026c.75 0 1.85 0 3.468-.013a.936.936 0 0 0-.005-1.872h-.005c-1.219.007-2.989.014-4.04.012V261.94a.936.936 0 0 0-.936-.94z" class="cls-2" transform="translate(-208.924 -228.438)"/>
            <path id="Path_2641" d="M315.312 275.217a5.805 5.805 0 0 1-4.263-1.8.936.936 0 1 0-1.387 1.257 7.7 7.7 0 0 0 5.65 2.416 5.092 5.092 0 0 0 5.156-3.854c.294-1.648-.5-3.816-3.6-4.959-1.887-.7-3.634-1.458-4.007-1.622a1.808 1.808 0 0 1-.756-1.778 2.293 2.293 0 0 1 1.722-1.826 5.586 5.586 0 0 1 4.692 1.061.936.936 0 0 0 1.2-1.435 7.4 7.4 0 0 0-6.434-1.418 4.171 4.171 0 0 0-3.035 3.352 3.687 3.687 0 0 0 1.643 3.65.936.936 0 0 0 .13.071c.081.036 2.015.9 4.2 1.7 1.738.641 2.614 1.689 2.4 2.875a3.2 3.2 0 0 1-3.311 2.31z" class="cls-2" transform="translate(-274.494 -228.428)"/>
            <path id="Path_2642" d="M113.952 276.927a.936.936 0 0 0 1.3-.226l4.6-6.53 4.593 6.529a.936.936 0 0 0 1.531-1.077L121 268.545l4.275-6.068a.936.936 0 1 0-1.53-1.078l-3.889 5.52-3.883-5.519a.936.936 0 0 0-1.531 1.077l4.268 6.068-4.986 7.078a.936.936 0 0 0 .228 1.304z" class="cls-2" transform="translate(-103.067 -228.437)"/>
        </g>
    </g>
</svg>
