<svg xmlns="http://www.w3.org/2000/svg" width="61.764" height="51.176" viewBox="0 0 61.764 51.176">
    <defs>
        <style>
            .cls-1{fill:#bb3e8c}
        </style>
    </defs>
    <g id="Icons" transform="translate(-2 -8)">
        <path id="Path_1700" d="M40.162 36.577a.882.882 0 0 1-.41-.1l-3.772-1.984-3.77 1.983a.882.882 0 0 1-1.28-.93l.72-4.2-3.05-2.972a.882.882 0 0 1 .489-1.505l4.216-.612 1.883-3.816a.919.919 0 0 1 1.583 0l1.886 3.821 4.216.612a.882.882 0 0 1 .489 1.505l-3.051 2.973.72 4.2a.882.882 0 0 1-.87 1.031zm-4.182-3.963a.882.882 0 0 1 .41.1l2.6 1.366-.5-2.894a.882.882 0 0 1 .254-.781l2.1-2.049-2.906-.423a.882.882 0 0 1-.664-.483l-1.3-2.63-1.3 2.633a.882.882 0 0 1-.664.483l-2.906.423 2.1 2.049a.882.882 0 0 1 .254.781l-.5 2.894 2.6-1.366a.882.882 0 0 1 .41-.1z" class="cls-1" transform="translate(-3.098 -1.646)"/>
        <path id="Path_1701" d="M18.162 36.577a.882.882 0 0 1-.41-.1l-3.772-1.984-3.77 1.983a.882.882 0 0 1-1.28-.93l.72-4.2-3.05-2.972a.882.882 0 0 1 .489-1.505l4.216-.612 1.883-3.816a.919.919 0 0 1 1.583 0l1.886 3.821 4.216.612a.882.882 0 0 1 .489 1.505l-3.051 2.973.72 4.2a.882.882 0 0 1-.87 1.031zm-4.182-3.963a.882.882 0 0 1 .41.1l2.6 1.366-.5-2.894a.882.882 0 0 1 .254-.781l2.1-2.049-2.906-.423a.882.882 0 0 1-.664-.483l-1.3-2.63-1.3 2.633a.882.882 0 0 1-.664.483l-2.9.424 2.1 2.049a.882.882 0 0 1 .254.781l-.5 2.894 2.6-1.366a.882.882 0 0 1 .41-.1z" class="cls-1" transform="translate(-.51 -1.646)"/>
        <path id="Path_1702" d="M62.162 36.577a.882.882 0 0 1-.41-.1l-3.772-1.984-3.77 1.983a.882.882 0 0 1-1.28-.93l.72-4.2-3.05-2.972a.882.882 0 0 1 .489-1.505l4.216-.612 1.883-3.816a.919.919 0 0 1 1.583 0l1.886 3.821 4.216.612a.882.882 0 0 1 .489 1.505l-3.051 2.973.72 4.2a.882.882 0 0 1-.87 1.031zm-4.182-3.963a.882.882 0 0 1 .41.1l2.6 1.366-.5-2.894a.882.882 0 0 1 .254-.781l2.1-2.049-2.906-.423a.882.882 0 0 1-.664-.483l-1.3-2.63-1.3 2.633a.882.882 0 0 1-.664.483l-2.906.423 2.1 2.049a.882.882 0 0 1 .254.781l-.5 2.894 2.6-1.366a.882.882 0 0 1 .41-.1z" class="cls-1" transform="translate(-5.687 -1.646)"/>
        <path id="Path_1703" fill="#2c0b2d" d="M10.823 59.176a.882.882 0 0 1-.882-.882v-9.706H6.412A4.417 4.417 0 0 1 2 44.176V12.412A4.417 4.417 0 0 1 6.412 8h52.94a4.417 4.417 0 0 1 4.412 4.412v31.764a4.417 4.417 0 0 1-4.412 4.412H21.777l-10.33 10.33a.882.882 0 0 1-.624.258zM6.412 9.765a2.647 2.647 0 0 0-2.647 2.647v31.764a2.647 2.647 0 0 0 2.647 2.647h4.412a.882.882 0 0 1 .882.882v8.458l9.082-9.082a.882.882 0 0 1 .624-.259h37.94A2.647 2.647 0 0 0 62 44.176V12.412a2.647 2.647 0 0 0-2.647-2.647z"/>
    </g>
</svg>
