<svg xmlns="http://www.w3.org/2000/svg" width="43.876" height="43.876" viewBox="0 0 43.876 43.876">
    <defs>
        <style>
            .cls-1{fill:#2c0b2d}
        </style>
    </defs>
    <g id="noun_Actor_3181858" transform="translate(-2 -2)">
        <path id="Path_458" d="M17.53 22.25a1.28 1.28 0 1 0 1.28 1.28 1.281 1.281 0 0 0-1.28-1.28zm-.183 1.28a.183.183 0 0 1 .366 0c0 .201-.366.201-.366 0z" class="cls-1" transform="translate(-3.829 -5.442)"/>
        <path id="Path_459" d="M27.53 24.809a1.28 1.28 0 1 0-1.28-1.28 1.281 1.281 0 0 0 1.28 1.28zm0-1.463a.183.183 0 0 1 .183.183c0 .2-.366.2-.366 0a.183.183 0 0 1 .183-.182z" class="cls-1" transform="translate(-6.517 -5.442)"/>
        <path id="Path_460" d="M21.992 32.742A2.746 2.746 0 0 0 24.734 30h-1.1a1.645 1.645 0 1 1-3.291 0h-1.1a2.746 2.746 0 0 0 2.749 2.742z" class="cls-1" transform="translate(-4.636 -7.525)"/>
        <path id="Path_461" d="M45.145 29.788H30.263l13.983-5.123a.731.731 0 0 0 .434-.939l-1.259-3.433a.732.732 0 0 0-.937-.435L24.633 26.4a.732.732 0 0 0-.436.938l.961 2.623-1.058-.237-2.356-1.764v-.734l2.429-1.331a.7.7 0 0 0 .117-.08 5.1 5.1 0 0 0 1.842-3.932v-1.6h.368a2.559 2.559 0 1 0 0-5.119h-.366V6.388A4.392 4.392 0 0 0 21.744 2H7.85a.731.731 0 0 0-.731.731v3.657a4.375 4.375 0 0 0 1.462 3.261v5.514h-.365a2.559 2.559 0 1 0 0 5.119h.366v1.6a5.1 5.1 0 0 0 1.842 3.932.734.734 0 0 0 .117.08l2.429 1.331v.734l-2.352 1.765-3.582.8A5.124 5.124 0 0 0 2 35.638v9.506a.731.731 0 0 0 .731.731h42.414a.731.731 0 0 0 .731-.731V30.519a.731.731 0 0 0-.731-.731zm-30.713-1.8a4.438 4.438 0 0 0 1.68.334H18.6a4.438 4.438 0 0 0 1.68-.334v1.532l-2.925 3.51-2.925-3.51zm3.656 7.551l3.25 2.167a.732.732 0 0 0 1.014-.2 19.861 19.861 0 0 0 2.178-6.187l.869.193v12.9h-7.311zm8.775-2.1v-2.188h7.01l-2.194 2.194zm9.078-2.194h2.32l-2.194 2.194h-2.32zm4.388 0h2.32l-2.194 2.194h-2.32zm4.085.3v1.891h-1.892zm-7.136-5.885l-2.177.8-2.815-1.305 2.177-.8zm-.872-2.017l2.178-.8 2.816 1.308-2.178.8zm6.546-.385l-2.426-1.125 1.776-.651zm-12.607 2.606l2.815 1.305-6.582 2.412-.755-2.06zm-7.21 4.968a22.27 22.27 0 0 1-1.631 5.23l-3.064-2.043 3.136-3.762a.737.737 0 0 0 .169-.469zm1.533-17.488l-1.606-2.57h1.606zm2.925 4.377a1.1 1.1 0 0 1-1.1 1.1h-.366v-2.196h.373a1.1 1.1 0 0 1 1.094 1.097zM8.581 3.463h13.163a2.928 2.928 0 0 1 2.925 2.925v2.925H11.506a2.928 2.928 0 0 1-2.925-2.925zm2.925 7.313h.143l-1.606 2.57v-2.827a4.37 4.37 0 0 0 1.463.256zm-3.29 8.043a1.1 1.1 0 1 1 0-2.194h.366v2.194zm1.828 3.064V16.1l3.33-5.328h7.965l3.33 5.329v5.779a3.646 3.646 0 0 1-1.269 2.768L20.031 26.5a2.978 2.978 0 0 1-1.43.366h-2.489a2.986 2.986 0 0 1-1.43-.366l-3.374-1.849a3.649 3.649 0 0 1-1.264-2.768zm2.925 7.9a.732.732 0 0 0 .169.468l3.136 3.762-3.065 2.043a22.235 22.235 0 0 1-1.631-5.23zm-9.506 5.85a3.66 3.66 0 0 1 3.656-3.656.723.723 0 0 0 .159-.018l2.9-.645a19.861 19.861 0 0 0 2.178 6.187.732.732 0 0 0 1.014.2l3.25-2.167v8.872H8.581v-2.918H7.119v2.925H3.463zm23.4 8.775v-9.501h17.55v9.506z" class="cls-1"/>
        <path id="Path_462" fill="#bb3e8c" d="M49.764 52.3l-3.656-2.2a.731.731 0 0 0-1.108.631v4.388a.731.731 0 0 0 1.108.627l3.656-2.194a.731.731 0 0 0 0-1.253zm-3.3 1.529v-1.8l1.5.9z" transform="translate(-11.556 -12.899)"/>
    </g>
</svg>
