<svg xmlns="http://www.w3.org/2000/svg" width="48.092" height="48.117" viewBox="0 0 48.092 48.117">
    <defs>
        <style>
            .cls-2{fill:#2c0b2d}
        </style>
    </defs>
    <g id="quality" transform="translate(-.425 .001)">
        <path id="Path_1678" fill="#bb3e8c" d="M182.37 192.9l-7.23 6.829-3.47-3.57a1 1 0 1 0-1.434 1.394l4.161 4.272a1.018 1.018 0 0 0 1.414.03l7.952-7.5a1 1 0 0 0 .04-1.414 1.023 1.023 0 0 0-1.433-.041zm0 0" transform="translate(-152.53 -173.307)"/>
        <path id="Path_1679" d="M105.856 90.551a14.981 14.981 0 1 0 14.981 14.981 15 15 0 0 0-14.981-14.981zm0 27.957a12.976 12.976 0 1 1 12.976-12.976 12.991 12.991 0 0 1-12.976 12.976zm0 0" class="cls-2" transform="translate(-81.38 -81.472)"/>
        <path id="Path_1680" d="M45.092 18.545l.331-5.946a1 1 0 0 0-.552-.953l-5.294-2.677L36.9 3.674a1.018 1.018 0 0 0-.953-.552l-5.957.321L25.027.164a1 1 0 0 0-1.1 0l-4.966 3.28-5.946-.331a1 1 0 0 0-.953.552L9.384 8.959 4.09 11.636a1.016 1.016 0 0 0-.552.953l.331 5.946L.59 23.5a1 1 0 0 0 0 1.1l3.269 4.973-.331 5.946a1 1 0 0 0 .552.953l5.295 2.677 2.677 5.295A1.016 1.016 0 0 0 13 45l5.946-.331 4.964 3.279a.976.976 0 0 0 1.1 0l4.964-3.279 5.953.331a1 1 0 0 0 .953-.552l2.677-5.295 5.295-2.677a1.017 1.017 0 0 0 .552-.953l-.331-5.946 3.279-4.964a1 1 0 0 0 0-1.1zm-1.865 10.208a.942.942 0 0 0-.16.612l.311 5.625-5 2.527a.99.99 0 0 0-.441.441l-2.527 5-5.625-.311a1.1 1.1 0 0 0-.612.16l-4.693 3.1-4.693-3.1a.993.993 0 0 0-.552-.17h-.05l-5.626.311-2.527-5a.988.988 0 0 0-.441-.441L5.574 34.99l.311-5.625a1.1 1.1 0 0 0-.161-.612l-3.1-4.693 3.1-4.693a.939.939 0 0 0 .161-.611l-.311-5.626 5-2.527a.989.989 0 0 0 .441-.441l2.527-5 5.626.311a1.1 1.1 0 0 0 .612-.161l4.693-3.1 4.693 3.1a.94.94 0 0 0 .612.161l5.625-.311 2.527 5a.989.989 0 0 0 .441.441l5 2.527-.311 5.626a1.1 1.1 0 0 0 .16.611l3.1 4.693zm0 0" class="cls-2"/>
    </g>
</svg>
