<svg xmlns="http://www.w3.org/2000/svg" width="44.454" height="41.834" viewBox="0 0 44.454 41.834">
    <defs>
        <style>
            .cls-1{fill:#2c0b2d}.cls-2{fill:#bb3e8c}
        </style>
    </defs>
    <g id="tv" transform="translate(0 -15.086)">
        <path id="Path_1831" d="M22.227 116.131a156.771 156.771 0 0 1-20.118-1.2A117.108 117.108 0 0 1 1.3 100.7a117.1 117.1 0 0 1 .806-14.237c.658-.09 1.973-.258 3.827-.439a.651.651 0 0 0-.127-1.3c-2.771.271-4.315.507-4.379.517a.651.651 0 0 0-.545.548A113.145 113.145 0 0 0 0 100.7a113.15 113.15 0 0 0 .885 14.908.651.651 0 0 0 .545.548c.034.005 1.449.22 3.954.472.074 1.869.189 2.99.194 3.041a.651.651 0 0 0 .507.569 15.5 15.5 0 0 0 3.075.275 15.5 15.5 0 0 0 3.075-.275.651.651 0 0 0 .507-.569c0-.043.1-.944.169-2.474 2.732.143 5.869.241 9.316.241a.651.651 0 0 0 0-1.305zm-10.737 2.913a16.682 16.682 0 0 1-4.659 0c-.038-.469-.094-1.26-.138-2.293 1.4.127 3.05.257 4.918.369-.041.853-.088 1.512-.122 1.924z" class="cls-1" transform="translate(0 -63.59)"/>
        <path id="Path_1832" d="M128.469 22.2a.651.651 0 0 0-.545-.548 149.771 149.771 0 0 0-19.443-1.275 15.819 15.819 0 0 1 6.254-4.017.651.651 0 0 0-.381-1.245 16.617 16.617 0 0 0-7.227 4.836 16.617 16.617 0 0 0-7.227-4.836.651.651 0 0 0-.381 1.245 15.819 15.819 0 0 1 6.255 4.017c-4.153.03-8.251.2-12.2.508a.651.651 0 1 0 .1 1.3c4.344-.338 8.871-.509 13.453-.509a156.766 156.766 0 0 1 20.118 1.2 117.109 117.109 0 0 1 .806 14.237 117.114 117.114 0 0 1-.806 14.237 151.037 151.037 0 0 1-16.962 1.169.651.651 0 1 0 .023 1.3c2.214-.039 4.27-.115 6.137-.213.073 1.529.165 2.43.169 2.473a.651.651 0 0 0 .507.569 17.347 17.347 0 0 0 6.15 0 .651.651 0 0 0 .507-.569c.005-.051.12-1.172.194-3.041 2.507-.253 3.923-.468 3.954-.472a.651.651 0 0 0 .545-.548 113.152 113.152 0 0 0 .885-14.908 113.147 113.147 0 0 0-.885-14.908zm-5.945 33.255a16.682 16.682 0 0 1-4.659 0c-.033-.412-.08-1.07-.121-1.923 1.867-.112 3.517-.242 4.917-.369-.043 1.037-.099 1.822-.137 2.291z" class="cls-1" transform="translate(-84.901)"/>
        <path id="Path_1833" d="M76.1 128.632a.651.651 0 0 0 1.3-.066c-.042-.815-.089-1.624-.142-2.4a.651.651 0 0 0-.56-.6 97.306 97.306 0 0 0-25.508 0 .651.651 0 0 0-.56.6 184.5 184.5 0 0 0 0 22.124.651.651 0 0 0 .56.6 97.294 97.294 0 0 0 25.508 0 .651.651 0 0 0 .56-.6c.288-3.538.483-11.982.257-17.02a.651.651 0 0 0-1.3.045c.212 4.887.053 12.708-.22 16.358a96.4 96.4 0 0 1-24.1 0 182.194 182.194 0 0 1 0-20.888 96.407 96.407 0 0 1 24.1 0c.04.602.075 1.222.105 1.847z" class="cls-1" transform="translate(-45.934 -100.118)"/>
        <path id="Path_1834" d="M399.557 140.819a2.8 2.8 0 1 0-2.8-2.8 2.8 2.8 0 0 0 2.8 2.8zm0-4.291a1.494 1.494 0 1 1-1.494 1.494 1.5 1.5 0 0 1 1.494-1.494z" class="cls-1" transform="translate(-362.313 -109.722)"/>
        <path id="Path_1835" d="M399.557 220.462a2.8 2.8 0 1 0-2.8-2.8 2.8 2.8 0 0 0 2.8 2.8zm0-4.291a1.494 1.494 0 1 1-1.494 1.494 1.5 1.5 0 0 1 1.494-1.494z" class="cls-1" transform="translate(-362.313 -182.45)"/>
        <path id="Path_1836" d="M405.644 347.525h-3.473a.651.651 0 0 0 0 1.3h3.473a.651.651 0 0 0 0-1.3z" class="cls-1" transform="translate(-366.663 -303.575)"/>
        <path id="Path_1837" d="M405.644 310.773h-3.473a.651.651 0 0 0 0 1.3h3.473a.651.651 0 0 0 0-1.3z" class="cls-1" transform="translate(-366.663 -270.014)"/>
        <path id="Path_1838" d="M110.371 183.042c.445.008.893.011 1.331.011a63.462 63.462 0 0 0 8.109-.458.651.651 0 0 0 .552-.54 41.309 41.309 0 0 0 0-10.71.651.651 0 0 0-.552-.54 68.446 68.446 0 0 0-8.912-.453 34.774 34.774 0 0 0 6.583-3.48.651.651 0 1 0-.732-1.077 33.657 33.657 0 0 1-10.818 4.772c-1.433.113-2.271.229-2.338.239a.651.651 0 0 0-.552.54 41.318 41.318 0 0 0 0 10.71.651.651 0 0 0 .552.54c.054.008 1.338.187 3.511.32a.651.651 0 0 0 .079-1.3c-1.355-.083-2.366-.186-2.922-.249a41.035 41.035 0 0 1 0-9.332 72.078 72.078 0 0 1 14.881 0 41.033 41.033 0 0 1 0 9.331 73.936 73.936 0 0 1-8.75.374.651.651 0 0 0-.022 1.3z" class="cls-2" transform="translate(-93.778 -137.52)"/>
        <path id="Path_1839" d="M142.049 264.7a2.652 2.652 0 1 0-2.649 2.652 2.653 2.653 0 0 0 2.649-2.652zm-2.649 1.349a1.347 1.347 0 1 1 1.347-1.349 1.35 1.35 0 0 1-1.347 1.353z" class="cls-2" transform="translate(-124.89 -225.524)"/>
        <path id="Path_1840" d="M220.725 264.7a2.652 2.652 0 1 0-2.649 2.652 2.653 2.653 0 0 0 2.649-2.652zm-4 0a1.349 1.349 0 1 1 1.347 1.349 1.35 1.35 0 0 1-1.342-1.349z" class="cls-2" transform="translate(-196.736 -225.524)"/>
        <path id="Path_1841" d="M401.469 386.022a.651.651 0 1 0 .651-.651.651.651 0 0 0-.651.651z" class="cls-1" transform="translate(-366.612 -338.136)"/>
        <path id="Path_1842" d="M442.12 385.371a.651.651 0 1 0 .651.651.651.651 0 0 0-.651-.651z" class="cls-1" transform="translate(-403.139 -338.136)"/>
    </g>
</svg>
