<svg xmlns="http://www.w3.org/2000/svg" width="15.142" height="15.142" viewBox="0 0 15.142 15.142">
    <path id="Path_68" fill="#0f1c21" d="M3.6 2.571l6.329-6.333a.721.721 0 0 0 .212-.513.72.72 0 0 0-.212-.513A.721.721 0 0 0 9.416-5a.72.72 0 0 0-.513.212L2.571 1.545l-6.333-6.333A.721.721 0 0 0-4.275-5a.72.72 0 0 0-.513.212.721.721 0 0 0-.212.513.721.721 0 0 0 .212.513l6.333 6.333L-4.788 8.9A.721.721 0 0 0-5 9.416a.72.72 0 0 0 .212.513.721.721 0 0 0 .513.212.721.721 0 0 0 .513-.212L2.571 3.6 8.9 9.929A.725.725 0 1 0 9.929 8.9z" data-name="Path 68" transform="translate(5 5)"/>
</svg>
