<svg xmlns="http://www.w3.org/2000/svg" id="bx-cloud-upload" width="42.312" height="29.618" viewBox="0 0 42.312 29.618">
    <defs>
        <style>
            .cls-1{fill:#2c0b2d}
        </style>
    </defs>
    <path id="Path_1109" d="M18.578 29.04v-8.462h6.347L16.462 10 8 20.578h6.347v8.462z" class="cls-1" transform="translate(4.694 .578)"/>
    <path id="Path_1110" d="M12.578 34.618h4.231v-4.231h-4.231a6.355 6.355 0 0 1-6.347-6.347 6.883 6.883 0 0 1 5.655-6.379l1.229-.216.406-1.181a10.014 10.014 0 0 1 9.634-7.034 10.59 10.59 0 0 1 10.579 10.579v2.116h2.116a4.231 4.231 0 1 1 0 8.462H29.5v4.231h6.35a8.464 8.464 0 0 0 2-16.688A14.829 14.829 0 0 0 23.156 5a14.261 14.261 0 0 0-13.208 8.78A11.1 11.1 0 0 0 2 24.04a10.59 10.59 0 0 0 10.578 10.578z" class="cls-1" transform="translate(-2 -5)"/>
</svg>
