<svg id="All_Done" data-name="All Done" xmlns="http://www.w3.org/2000/svg" xmlns:xlink="http://www.w3.org/1999/xlink" width="512.027" height="423.063" viewBox="0 0 512.027 423.063">
  <defs>
    <style>
      .cls-1, .cls-19 {
        fill: none;
      }

      .cls-2 {
        fill: #fefefe;
      }

      .cls-3 {
        fill: #e8e9eb;
      }

      .cls-12, .cls-4 {
        fill: #2c0b2d;
      }

      .cls-5 {
        fill: #cfc3ca;
      }

      .cls-6 {
        fill: #afb0b5;
      }

      .cls-7 {
        fill: #1a1a24;
      }

      .cls-8, .cls-9 {
        fill: #ffc52f;
      }

      .cls-9 {
        opacity: 0.5;
      }

      .cls-10 {
        fill: #fbe381;
      }

      .cls-11 {
        fill: #fbcf0a;
      }

      .cls-12 {
        opacity: 0.4;
      }

      .cls-13 {
        fill: url(#linear-gradient);
      }

      .cls-14 {
        fill: #8e798c;
      }

      .cls-15 {
        clip-path: url(#clip-path);
      }

      .cls-16 {
        fill: rgba(255,255,255,0.5);
      }

      .cls-17 {
        fill: rgba(231,0,63,0.68);
      }

      .cls-18 {
        fill: #fcfdfb;
      }

      .cls-19 {
        stroke: #e8e9eb;
        stroke-miterlimit: 10;
      }
    </style>
    <linearGradient id="linear-gradient" x1="1.243" y1="-0.012" x2="-0.157" y2="1.119" gradientUnits="objectBoundingBox">
      <stop offset="0" stop-color="#ee002c"/>
      <stop offset="1" stop-color="#a100ff"/>
    </linearGradient>
    <clipPath id="clip-path">
      <path id="Clip_90" data-name="Clip 90" class="cls-1" d="M0,423.063H512.027V0H0Z"/>
    </clipPath>
  </defs>
  <path id="Fill_1" data-name="Fill 1" class="cls-2" d="M147.384,294.767a148.483,148.483,0,0,1-29.705-2.995,146.572,146.572,0,0,1-52.7-22.178,147.812,147.812,0,0,1-53.4-64.845,146.644,146.644,0,0,1-8.587-27.665,148.819,148.819,0,0,1,0-59.4,146.582,146.582,0,0,1,22.175-52.7,147.81,147.81,0,0,1,64.843-53.4,146.637,146.637,0,0,1,27.667-8.589,148.812,148.812,0,0,1,59.407,0,146.576,146.576,0,0,1,52.7,22.178,147.829,147.829,0,0,1,53.4,64.846,146.634,146.634,0,0,1,8.588,27.664,148.794,148.794,0,0,1,0,59.4,146.578,146.578,0,0,1-22.177,52.7,147.827,147.827,0,0,1-64.845,53.4,146.636,146.636,0,0,1-27.665,8.588A148.451,148.451,0,0,1,147.384,294.767ZM194.293,181.4v0a30.586,30.586,0,0,0-13.638,57.939,30.827,30.827,0,0,0,13.68,3.216,30.568,30.568,0,0,0,24.705-48.545A30.5,30.5,0,0,0,194.3,181.4Zm-93.828,0a30.509,30.509,0,0,0-24.753,12.61,30.579,30.579,0,0,0,24.713,48.545,30.536,30.536,0,0,0,24.762-12.61A30.59,30.59,0,0,0,100.465,181.4ZM223.33,92.125a30.639,30.639,0,1,0,9.39,1.486A30.544,30.544,0,0,0,223.33,92.125Zm-151.909,0v0a30.651,30.651,0,1,0,9.468,1.509,30.413,30.413,0,0,0-9.468-1.509Zm75.963-55.16a30.569,30.569,0,1,0,21.611,8.954A30.381,30.381,0,0,0,147.384,36.964Z" transform="translate(191.951 119.642)"/>
  <path id="Fill_3" data-name="Fill 3" class="cls-3" d="M181.772,90.886A90.886,90.886,0,1,1,90.886,0a90.885,90.885,0,0,1,90.886,90.886" transform="translate(248.444 176.139)"/>
  <path id="Fill_5" data-name="Fill 5" class="cls-4" d="M169.151,84.575A84.575,84.575,0,1,1,84.575,0a84.575,84.575,0,0,1,84.575,84.575" transform="translate(254.755 182.45)"/>
  <path id="Fill_7" data-name="Fill 7" class="cls-5" d="M139.466,278.9a140.5,140.5,0,0,1-28.107-2.833,138.71,138.71,0,0,1-49.87-20.984A139.868,139.868,0,0,1,10.96,193.729a138.731,138.731,0,0,1-8.126-26.175,140.8,140.8,0,0,1,0-56.21A138.674,138.674,0,0,1,23.819,61.478,139.859,139.859,0,0,1,85.18,10.957a138.783,138.783,0,0,1,26.179-8.125,140.84,140.84,0,0,1,56.21,0,138.7,138.7,0,0,1,49.864,20.981,139.851,139.851,0,0,1,50.527,61.353,138.744,138.744,0,0,1,8.126,26.178,140.8,140.8,0,0,1,0,56.21A138.685,138.685,0,0,1,255.1,217.417a139.876,139.876,0,0,1-61.356,50.525,138.749,138.749,0,0,1-26.176,8.126A140.455,140.455,0,0,1,139.466,278.9Zm46.912-105.433a30.586,30.586,0,0,0-13.642,57.94,30.827,30.827,0,0,0,13.68,3.216,30.569,30.569,0,0,0,24.707-48.546,30.5,30.5,0,0,0-24.745-12.61Zm-93.83,0A30.514,30.514,0,0,0,67.8,186.079,30.579,30.579,0,0,0,92.51,234.624a30.541,30.541,0,0,0,24.763-12.609,30.592,30.592,0,0,0-24.725-48.547ZM215.414,84.192a30.633,30.633,0,1,0,9.391,1.485A30.552,30.552,0,0,0,215.414,84.192Zm-151.906,0A30.655,30.655,0,1,0,72.971,85.7,30.413,30.413,0,0,0,63.507,84.192ZM139.466,29.03a30.57,30.57,0,1,0,21.612,8.954A30.381,30.381,0,0,0,139.466,29.03Z" transform="translate(199.868 127.575)"/>
  <path id="Fill_13" data-name="Fill 13" class="cls-6" d="M49.347,24.673A24.673,24.673,0,1,1,24.672,0,24.674,24.674,0,0,1,49.347,24.673" transform="translate(314.658 242.352)"/>
  <path id="Fill_15" data-name="Fill 15" class="cls-7" d="M34.9,17.447A17.448,17.448,0,1,1,17.447,0,17.447,17.447,0,0,1,34.9,17.447" transform="translate(321.883 249.578)"/>
  <path id="Fill_17" data-name="Fill 17" class="cls-8" d="M31.454,20.3A16.017,16.017,0,1,1,20.3.588,16.016,16.016,0,0,1,31.454,20.3" transform="translate(112.294 243.442)"/>
  <path id="Fill_19" data-name="Fill 19" class="cls-9" d="M31.454,20.3A16.017,16.017,0,1,1,20.3.588,16.017,16.017,0,0,1,31.454,20.3" transform="translate(89.916 237.231)"/>
  <path id="Fill_21" data-name="Fill 21" class="cls-8" d="M31.454,20.3A16.017,16.017,0,1,1,20.3.588,16.017,16.017,0,0,1,31.454,20.3" transform="translate(146.904 239.407)"/>
  <path id="Fill_23" data-name="Fill 23" class="cls-9" d="M31.454,20.3A16.017,16.017,0,1,1,20.3.588,16.016,16.016,0,0,1,31.454,20.3" transform="translate(124.525 233.196)"/>
  <path id="Fill_25" data-name="Fill 25" class="cls-8" d="M.758,11.165A16.017,16.017,0,1,1,11.165,31.284,16.015,16.015,0,0,1,.758,11.165" transform="translate(148.084 214.662)"/>
  <path id="Fill_27" data-name="Fill 27" class="cls-8" d="M.758,11.165A16.017,16.017,0,1,1,11.165,31.284,16.017,16.017,0,0,1,.758,11.165" transform="translate(107.428 214.662)"/>
  <path id="Fill_29" data-name="Fill 29" class="cls-8" d="M.758,11.167A16.017,16.017,0,1,1,11.165,31.284,16.018,16.018,0,0,1,.758,11.167" transform="translate(201.869 189.658)"/>
  <path id="Fill_31" data-name="Fill 31" class="cls-9" d="M.758,11.166A16.017,16.017,0,1,1,11.167,31.285,16.016,16.016,0,0,1,.758,11.166" transform="translate(170.215 221.701)"/>
  <path id="Fill_33" data-name="Fill 33" class="cls-8" d="M.758,11.165A16.017,16.017,0,1,1,11.165,31.284,16.017,16.017,0,0,1,.758,11.165" transform="translate(175.138 243.868)"/>
  <path id="Fill_35" data-name="Fill 35" class="cls-10" d="M.758,11.165A16.017,16.017,0,1,1,11.165,31.284,16.015,16.015,0,0,1,.758,11.165" transform="translate(197.269 250.907)"/>
  <path id="Fill_37" data-name="Fill 37" class="cls-8" d="M11.587,31.412A16.017,16.017,0,1,1,31.412,20.455,16.018,16.018,0,0,1,11.587,31.412" transform="translate(165.492 198.64)"/>
  <path id="Fill_39" data-name="Fill 39" class="cls-8" d="M11.586,31.411A16.016,16.016,0,1,1,31.411,20.456,16.015,16.015,0,0,1,11.586,31.411" transform="translate(195.557 231.9)"/>
  <path id="Fill_41" data-name="Fill 41" class="cls-8" d="M11.587,31.412A16.017,16.017,0,1,1,31.412,20.455,16.018,16.018,0,0,1,11.587,31.412" transform="translate(213.29 207.557)"/>
  <path id="Fill_43" data-name="Fill 43" class="cls-9" d="M11.586,31.411A16.016,16.016,0,1,1,31.411,20.456,16.015,16.015,0,0,1,11.586,31.411" transform="translate(218.884 233.196)"/>
  <path id="Fill_45" data-name="Fill 45" class="cls-11" d="M16.236,0A16.017,16.017,0,1,1,0,15.8,16.016,16.016,0,0,1,16.236,0" transform="translate(241.987 235.019)"/>
  <path id="Fill_47" data-name="Fill 47" class="cls-10" d="M16.236,0A16.017,16.017,0,1,1,0,15.8,16.016,16.016,0,0,1,16.236,0" transform="translate(229.831 211.762)"/>
  <path id="Fill_49" data-name="Fill 49" class="cls-9" d="M11.587,31.411A16.016,16.016,0,1,1,31.412,20.456,16.018,16.018,0,0,1,11.587,31.411" transform="translate(185.847 205.68)"/>
  <path id="Fill_51" data-name="Fill 51" class="cls-9" d="M11.587,31.411A16.016,16.016,0,1,1,31.412,20.456,16.018,16.018,0,0,1,11.587,31.411" transform="translate(126.996 205.68)"/>
  <path id="Fill_53" data-name="Fill 53" class="cls-9" d="M11.586,31.411A16.016,16.016,0,1,1,31.411,20.456,16.015,16.015,0,0,1,11.586,31.411" transform="translate(141.061 189.659)"/>
  <path id="Fill_55" data-name="Fill 55" class="cls-5" d="M174.737,19.722v.016l-2.2,9.93-25.91,117.11-.9,4.041a8.18,8.18,0,0,1-7.968,6.394H43.434a8.127,8.127,0,0,1-7.865-6.039l-1.183-4.38v-.016L3.146,31.341,0,19.722V19.7C.288,8.779,8.965,0,19.637,0a19.588,19.588,0,0,1,16.9,9.912c.016.034.034.069.05.1a19.321,19.321,0,0,1,33.862,0s0-.018.016-.018a19.306,19.306,0,0,1,33.692-.234c.05.083.1.168.151.252a19.321,19.321,0,0,1,33.862,0c.034-.05.069-.1.1-.151A19.508,19.508,0,0,1,155.1,0c10.672,0,19.349,8.794,19.637,19.722" transform="translate(84.665 259.372)"/>
  <path id="Fill_57" data-name="Fill 57" class="cls-12" d="M39.071,157.213H17.2l-1.217-10.434L0,9.912c.016.034.034.069.05.1A19.553,19.553,0,0,1,16.981,0,19.593,19.593,0,0,1,33.912,10.013.016.016,0,0,1,33.929,10L38.7,146.778Z" transform="translate(121.199 259.372)"/>
  <path id="Fill_59" data-name="Fill 59" class="cls-12" d="M41.422,9.861,25.066,146.778l-1.251,10.434H0l.525-10.434L7.308,9.758l.151.254A19.55,19.55,0,0,1,24.39,0,19.548,19.548,0,0,1,41.321,10.013c.034-.05.067-.1.1-.151" transform="translate(181.513 259.372)"/>
  <path id="Fill_61" data-name="Fill 61" class="cls-5" d="M112.24,0l-.9,4.041a8.176,8.176,0,0,1-7.968,6.394H9.05A8.126,8.126,0,0,1,1.185,4.4L0,.016V0Z" transform="translate(119.051 406.15)"/>
  <path id="Fill_63" data-name="Fill 63" class="cls-8" d="M33.828,16.915A16.914,16.914,0,1,1,16.913,0,16.913,16.913,0,0,1,33.828,16.915" transform="translate(109.191 389.235)"/>
  <path id="Fill_65" data-name="Fill 65" class="cls-9" d="M33.828,16.915A16.914,16.914,0,1,1,16.915,0,16.913,16.913,0,0,1,33.828,16.915" transform="translate(84.665 389.235)"/>
  <path id="Fill_67" data-name="Fill 67" class="cls-13" d="M46.8,6.937,9.075,82A4.795,4.795,0,0,1,.507,77.7L38.274,2.539a4.8,4.8,0,0,1,8.788.745,4.217,4.217,0,0,1,.218,1.15,4.647,4.647,0,0,1-.483,2.5" transform="translate(273.254 138.026)"/>
  <path id="Fill_69" data-name="Fill 69" class="cls-2" d="M11.561,4.4,9.71,8.085,0,6.046,3.038,0l9.006,1.9a4.647,4.647,0,0,1-.483,2.5" transform="translate(308.489 140.565)"/>
  <path id="Fill_71" data-name="Fill 71" class="cls-2" d="M12.746,2.039,9.706,8.085,0,6.046,3.036,0Z" transform="translate(302.924 151.643)"/>
  <path id="Fill_73" data-name="Fill 73" class="cls-2" d="M12.753,2.025,9.715,8.071,0,6.046,3.036,0Z" transform="translate(297.349 162.735)"/>
  <path id="Fill_75" data-name="Fill 75" class="cls-2" d="M12.744,2.039,9.706,8.085,0,6.046,3.036,0Z" transform="translate(291.783 173.814)"/>
  <path id="Fill_77" data-name="Fill 77" class="cls-2" d="M12.746,2.039,9.706,8.085,0,6.046,3.036,0Z" transform="translate(286.215 184.891)"/>
  <path id="Fill_79" data-name="Fill 79" class="cls-2" d="M12.753,2.025,9.715,8.071,0,6.046,3.038,0Z" transform="translate(280.64 195.984)"/>
  <path id="Fill_81" data-name="Fill 81" class="cls-2" d="M12.746,2.039,9.708,8.085,0,6.046,3.038,0Z" transform="translate(275.073 207.062)"/>
  <path id="Fill_83" data-name="Fill 83" class="cls-14" d="M95.915,204.657H19.165a8.622,8.622,0,0,1-8.61-8.159L0,0H116.7L104.519,196.569a8.621,8.621,0,0,1-8.6,8.089" transform="translate(227.654 213.922)"/>
  <path id="Fill_85" data-name="Fill 85" class="cls-3" d="M132.633,6.484H3.242A3.242,3.242,0,0,1,3.242,0H132.633a3.242,3.242,0,0,1,0,6.484" transform="translate(218.068 207.438)"/>
  <path id="Fill_87" data-name="Fill 87" class="cls-2" d="M114.027,6.484H3.242A3.242,3.242,0,0,1,3.242,0H114.027a3.242,3.242,0,0,1,0,6.484" transform="translate(227.372 200.955)"/>
  <path id="Clip_90-2" data-name="Clip 90" class="cls-1" d="M0,423.063H512.027V0H0Z"/>
  <g id="All_Done-2" data-name="All Done" class="cls-15">
    <path id="Fill_89" data-name="Fill 89" class="cls-16" d="M0,204.657H18.042V0H0Z" transform="translate(255.749 213.921)"/>
    <path id="Fill_91" data-name="Fill 91" class="cls-16" d="M0,204.657H18.042V0H0Z" transform="translate(296.907 213.921)"/>
    <path id="Fill_92" data-name="Fill 92" class="cls-17" d="M76.982,14.324c7.833,15.173-2.465,36.063-23,46.664S10.456,67.879,2.623,52.706s2.465-36.065,23-46.664S69.151-.849,76.982,14.324" transform="translate(246.203 282.736)"/>
    <path id="Fill_93" data-name="Fill 93" class="cls-18" d="M67.734,12.6c6.89,13.35-2.169,31.732-20.238,41.058S9.2,59.724,2.308,46.374,4.477,14.643,22.544,5.316,60.843-.746,67.734,12.6" transform="translate(250.985 286.762)"/>
    <path id="Fill_94" data-name="Fill 94" class="cls-3" d="M50.073,25.131A40.72,40.72,0,0,1,31.356,6.581L28.092,0,25.51,5.582A40.715,40.715,0,0,1,5.833,25.357L0,28.094l6.02,3.026a40.725,40.725,0,0,1,17.2,16.417l4.868,8.649,3.74-7.073A40.738,40.738,0,0,1,48.254,32.441l7.93-4.347Z" transform="translate(215.978 31.886)"/>
    <path id="Fill_95" data-name="Fill 95" class="cls-3" d="M15.6,7.827A12.677,12.677,0,0,1,9.767,2.048L8.75,0l-.8,1.738A12.682,12.682,0,0,1,1.818,7.9L0,8.75l1.875.941a12.682,12.682,0,0,1,5.359,5.114L8.75,17.5l1.165-2.2A12.67,12.67,0,0,1,15.031,10.1L17.5,8.75Z" transform="translate(272.162 0)"/>
    <path id="Fill_96" data-name="Fill 96" class="cls-3" d="M15.6,7.827A12.673,12.673,0,0,1,9.767,2.05L8.75,0l-.8,1.738A12.682,12.682,0,0,1,1.818,7.9L0,8.75l1.877.943a12.673,12.673,0,0,1,5.357,5.112L8.75,17.5l1.165-2.2A12.681,12.681,0,0,1,15.031,10.1L17.5,8.75Z" transform="translate(207.227 21.276)"/>
    <path id="Stroke_97" data-name="Stroke 97" class="cls-19" d="M8.588,0C-9.44,22.506,4.578,38.869,17.244,43.608" transform="translate(216.666 83.968)"/>
    <path id="Fill_98" data-name="Fill 98" class="cls-13" d="M34.019,23.7A29.93,29.93,0,0,1,27.659,5.4L27.632,0,24.123,2.851A29.942,29.942,0,0,1,4.739,9.544L0,9.463l3,3.945a29.941,29.941,0,0,1,6.051,16.4l.417,7.284,4.757-3.46a29.928,29.928,0,0,1,16.233-5.7l6.641-.307Z" transform="translate(-0.001 190.452)"/>
    <path id="Fill_99" data-name="Fill 99" class="cls-13" d="M10.595,7.382a9.324,9.324,0,0,1-1.982-5.7L8.606,0,7.513.887A9.333,9.333,0,0,1,1.475,2.973L0,2.948.934,4.176A9.339,9.339,0,0,1,2.818,9.284l.128,2.268,1.482-1.076A9.322,9.322,0,0,1,9.484,8.7l2.068-.1Z" transform="translate(53.661 181.314)"/>
    <path id="Fill_100" data-name="Fill 100" class="cls-13" d="M10.595,7.382a9.324,9.324,0,0,1-1.982-5.7L8.6,0,7.513.887A9.323,9.323,0,0,1,1.475,2.973L0,2.948.934,4.176A9.339,9.339,0,0,1,2.818,9.284l.128,2.27,1.482-1.078A9.337,9.337,0,0,1,9.484,8.7l2.068-.1Z" transform="translate(3.91 174.363)"/>
    <path id="Fill_101" data-name="Fill 101" class="cls-13" d="M32.023,19.168l-1.726.525C28.454,13.626,23.24,7.614,17.016,4.379A20.987,20.987,0,0,0,.563,2.827L0,1.114A22.668,22.668,0,0,1,17.847,2.778c6.634,3.449,12.2,9.883,14.176,16.39" transform="translate(68.418 205.894)"/>
    <path id="Fill_102" data-name="Fill 102" class="cls-13" d="M11.788,0,12.8,1.489C7.57,5.067,3.4,11.843,2.175,18.75A20.988,20.988,0,0,0,5.626,34.911L4.16,35.961A22.66,22.66,0,0,1,.4,18.437C1.7,11.075,6.173,3.837,11.788,0" transform="translate(88.107 171.694)"/>
  </g>
</svg>
