<svg xmlns="http://www.w3.org/2000/svg" width="47.836" height="47.836" viewBox="0 0 47.836 47.836">
    <defs>
        <style>
            .cls-1{fill:#2c0b2d}.cls-2{fill:#bb3e8c}
        </style>
    </defs>
    <g id="Outline" transform="translate(-16 -16)">
        <path id="Path_1640" d="M41.595 171.986a2.394 2.394 0 0 1 2.392-2.392h8.77V168h-8.77A3.991 3.991 0 0 0 40 171.986v4.784h1.595z" class="cls-1" transform="translate(-21.608 -136.852)"/>
        <path id="Path_1641" d="M218.79 88a2.79 2.79 0 1 0 2.79 2.79 2.79 2.79 0 0 0-2.79-2.79zm0 3.986a1.2 1.2 0 1 1 1.2-1.2 1.2 1.2 0 0 1-1.2 1.2z" class="cls-2" transform="translate(-180.068 -64.825)"/>
        <path id="Path_1642" d="M214.3 16h-16.881a4.808 4.808 0 0 0-4.1 2.323l-1 1.664h-5.927A2.4 2.4 0 0 0 184 22.378v14.351a2.394 2.394 0 0 0 2.392 2.392h4.784v3.189a.8.8 0 0 0 1.308.612l4.562-3.8h10.873a2.394 2.394 0 0 0 2.392-2.392V25.412a8.519 8.519 0 0 0 4.438-2.358l.112-.112a.8.8 0 0 0 .233-.564V16.8a.8.8 0 0 0-.794-.8zm-5.581 20.729a.8.8 0 0 1-.8.8h-11.163a.8.8 0 0 0-.51.185l-3.476 2.9v-2.291a.8.8 0 0 0-.8-.8h-5.581a.8.8 0 0 1-.8-.8v-1.137l7.153-4.292 6.756 4.5a.8.8 0 0 0 .8.05l4.37-2.185 4.044 2.7zm0-2.287l-3.544-2.363a.8.8 0 0 0-.8-.05L200 34.214l-6.79-4.527a.8.8 0 0 0-.852-.02l-6.765 4.059V22.378a.8.8 0 0 1 .8-.8h12.426l-2.611 2.611a2.77 2.77 0 1 0 3.918 3.918l3.909-3.909a8.553 8.553 0 0 0 4.646 1.367h.035zm4.784-12.4a6.987 6.987 0 0 1-8.694.754l-.431-.287a.8.8 0 0 0-1.006.1L199 26.982a1.176 1.176 0 1 1-1.663-1.662l3.972-3.972 1.595-1.595-1.128-1.128-1.361 1.361h-6.234l.506-.843a3.205 3.205 0 0 1 2.735-1.548H213.5z" class="cls-1" transform="translate(-151.257)"/>
        <path id="Path_1643" d="M291.931 272H277.58a2.4 2.4 0 0 0-2.392 2.392v4.453l-2.956 2.956a.8.8 0 0 0 .564 1.361h2.392v.8a2.4 2.4 0 0 0 2.392 2.392h14.351a2.4 2.4 0 0 0 2.392-2.392v-9.567a2.4 2.4 0 0 0-2.392-2.395zm.8 11.959a.8.8 0 0 1-.8.8H277.58a.8.8 0 0 1-.8-.8v-1.595a.8.8 0 0 0-.8-.8h-1.264l1.828-1.828a.8.8 0 0 0 .234-.564v-4.784a.8.8 0 0 1 .8-.8h14.351a.8.8 0 0 1 .8.8z" class="cls-1" transform="translate(-230.487 -230.487)"/>
        <path id="Path_1644" d="M336 304h7.973v1.595H336z" class="cls-2" transform="translate(-288.109 -259.298)"/>
        <path id="Path_1645" d="M432 304h3.189v1.595H432z" class="cls-2" transform="translate(-374.542 -259.298)"/>
        <path id="Path_1646" d="M336 368h12.756v1.595H336z" class="cls-2" transform="translate(-288.109 -316.92)"/>
        <path id="Path_1647" d="M336 336h12.756v1.595H336z" class="cls-2" transform="translate(-288.109 -288.109)"/>
        <path id="Path_1648" d="M72 200h1.595v1.595H72z" class="cls-2" transform="translate(-50.419 -165.663)"/>
        <path id="Path_1649" d="M104 200h1.595v1.595H104z" class="cls-2" transform="translate(-79.23 -165.663)"/>
        <path id="Path_1650" d="M136 200h1.595v1.595H136z" class="cls-2" transform="translate(-108.041 -165.663)"/>
        <path id="Path_1651" d="M72 232h9.567v1.595H72z" class="cls-2" transform="translate(-50.419 -194.474)"/>
        <path id="Path_1652" d="M18.392 286.351h14.351a2.4 2.4 0 0 0 2.392-2.392v-3.189h2.392a.8.8 0 0 0 .564-1.361l-2.956-2.956v-2.062A2.4 2.4 0 0 0 32.743 272H18.392A2.4 2.4 0 0 0 16 274.392v9.567a2.4 2.4 0 0 0 2.392 2.392zm-.8-11.959a.8.8 0 0 1 .8-.8h14.351a.8.8 0 0 1 .8.8v2.392a.8.8 0 0 0 .234.564l1.828 1.828h-1.268a.8.8 0 0 0-.8.8v3.986a.8.8 0 0 1-.8.8H18.392a.8.8 0 0 1-.8-.8z" class="cls-1" transform="translate(0 -230.487)"/>
        <path id="Path_1653" d="M48 304h1.595v1.595H48z" class="cls-2" transform="translate(-28.811 -259.298)"/>
        <path id="Path_1654" d="M48 336h1.595v1.595H48z" class="cls-2" transform="translate(-28.811 -288.109)"/>
        <path id="Path_1655" d="M48 368h1.595v1.595H48z" class="cls-2" transform="translate(-28.811 -316.92)"/>
        <path id="Path_1656" d="M80 304h9.567v1.595H80z" class="cls-2" transform="translate(-57.622 -259.298)"/>
        <path id="Path_1657" d="M80 336h9.567v1.595H80z" class="cls-2" transform="translate(-57.622 -288.109)"/>
        <path id="Path_1658" d="M80 368h9.567v1.595H80z" class="cls-2" transform="translate(-57.622 -316.92)"/>
        <path id="Path_1659" d="M56.661 432H42.64a3.5 3.5 0 0 0-2.488 1.031 1.912 1.912 0 0 1-1.361.564h-4.124a1.912 1.912 0 0 1-1.361-.564A3.5 3.5 0 0 0 30.818 432H16.8a.8.8 0 0 0-.8.8v2.392a3.193 3.193 0 0 0 3.189 3.189h35.08a3.193 3.193 0 0 0 3.189-3.189V432.8a.8.8 0 0 0-.797-.8zm-.8 3.189a1.6 1.6 0 0 1-1.595 1.595H19.189a1.6 1.6 0 0 1-1.595-1.595v-1.595h13.224a1.912 1.912 0 0 1 1.361.564 3.5 3.5 0 0 0 2.488 1.031h4.123a3.5 3.5 0 0 0 2.488-1.031 1.912 1.912 0 0 1 1.361-.564h13.224z" class="cls-1" transform="translate(0 -374.542)"/>
    </g>
</svg>
