<svg xmlns="http://www.w3.org/2000/svg" width="89.997" height="36.944" viewBox="0 0 89.997 36.944">
  <defs>
    <style>
      .cls-1 {
        fill: #bb3e8c;
      }

      .cls-2 {
        fill: #2c0b2d;
      }
    </style>
  </defs>
  <g id="noun_rating_731727" transform="translate(-5.002 -31.528)">
    <g id="Group_8184" data-name="Group 8184">
      <path id="Path_2651" data-name="Path 2651" class="cls-1" d="M28.38,50.72l-6.62-1.95-3.91-5.7a1.014,1.014,0,0,0-1.61,0l-3.91,5.7L5.7,50.72a.969.969,0,0,0-.65.64,1,1,0,0,0,.15.9l4.22,5.47-.19,6.91a.982.982,0,0,0,.4.82,1,1,0,0,0,.57.19.919.919,0,0,0,.33-.06l6.51-2.32,6.51,2.32a.977.977,0,0,0,1.31-.95l-.19-6.91,4.21-5.47a.973.973,0,0,0,.16-.9A.983.983,0,0,0,28.38,50.72Z"/>
      <g id="Group_8183" data-name="Group 8183">
        <path id="Path_2653" data-name="Path 2653" class="cls-2" d="M89.8,65.646a.979.979,0,0,1-.328-.056l-6.511-2.316-6.51,2.316a.979.979,0,0,1-1.306-.949l.19-6.907-4.214-5.477a.978.978,0,0,1,.5-1.534l6.627-1.954,3.906-5.7a1.017,1.017,0,0,1,1.614,0l3.907,5.7L94.3,50.723a.978.978,0,0,1,.5,1.534l-4.214,5.477.19,6.907a.979.979,0,0,1-.976,1Zm-6.838-4.389a1,1,0,0,1,.328.056l5.494,1.954-.16-5.827a.973.973,0,0,1,.2-.623L92.378,52.2l-5.592-1.649a.976.976,0,0,1-.53-.385l-3.3-4.81-3.3,4.81a.976.976,0,0,1-.53.385L73.542,52.2,77.1,56.817a.972.972,0,0,1,.2.623l-.16,5.827,5.493-1.954A.976.976,0,0,1,82.958,61.257Z"/>
      </g>
      <g id="Group_8187" data-name="Group 8187" transform="translate(-106.412 -2167.95)">
        <path id="Path_2656" data-name="Path 2656" class="cls-1" d="M-21147.713-15597.448l6.539-1.858,3.488-5.889,4.309,5.889,6.273,1.858-4.078,5.865.645,7.477-6.832-2.939-6.437,2.591-.549-7.128Z" transform="translate(21261 17817)"/>
        <path id="Path_2655" data-name="Path 2655" class="cls-2" d="M89.8,65.646a.979.979,0,0,1-.328-.056l-6.511-2.316-6.51,2.316a.979.979,0,0,1-1.306-.949l.19-6.907-4.214-5.477a.978.978,0,0,1,.5-1.534l6.627-1.954,3.906-5.7a1.017,1.017,0,0,1,1.614,0l3.907,5.7L94.3,50.723a.978.978,0,0,1,.5,1.534l-4.214,5.477.19,6.907a.979.979,0,0,1-.976,1Zm-6.838-4.389a1,1,0,0,1,.328.056l5.494,1.954-.16-5.827a.973.973,0,0,1,.2-.623L92.378,52.2l-5.592-1.649a.976.976,0,0,1-.53-.385l-3.3-4.81-3.3,4.81a.976.976,0,0,1-.53.385L73.542,52.2,77.1,56.817a.972.972,0,0,1,.2.623l-.16,5.827,5.493-1.954A.976.976,0,0,1,82.958,61.257Z" transform="translate(40.5 2167.953)"/>
      </g>
      <g id="Group_8188" data-name="Group 8188" transform="translate(-80.777 -2179.096)">
        <path id="Path_2657" data-name="Path 2657" class="cls-1" d="M130.777,2213.524V2241.5l-9.654,4.737s-2.309,2.244-1.652-3.72,0-8.313,0-8.313l-5.713-7.854,2.168-2.858,7.92-1.458Z"/>
        <path id="Path_2655-2" data-name="Path 2655" class="cls-2" d="M101.275,79.613a1.574,1.574,0,0,1-.527-.09L90.278,75.8,79.811,79.523A1.575,1.575,0,0,1,77.711,78l.306-11.106L71.24,58.085a1.572,1.572,0,0,1,.8-2.467L82.7,52.476l6.281-9.165a1.635,1.635,0,0,1,2.6,0l6.282,9.165,10.656,3.142a1.572,1.572,0,0,1,.8,2.467l-6.776,8.807L102.844,78a1.574,1.574,0,0,1-1.569,1.616ZM90.28,73.556a1.6,1.6,0,0,1,.527.09l9.9,3.142-.326-10.369a1.565,1.565,0,0,1,.326-1l5.716-7.43-8.992-2.651a1.569,1.569,0,0,1-.852-.619l-6.241-8.588-6.358,8.588a1.569,1.569,0,0,1-.852.619L74.14,57.987l5.716,7.43a1.563,1.563,0,0,1,.325,1l-.257,10.369,9.832-3.142A1.569,1.569,0,0,1,90.28,73.556Z" transform="translate(40.5 2167.953)"/>
      </g>
    </g>
  </g>
</svg>
