<svg xmlns="http://www.w3.org/2000/svg" width="45.475" height="43" viewBox="0 0 45.475 43">
    <defs>
        <style>
            .cls-1{fill:#2c0b2d}
        </style>
    </defs>
    <g id="video_3_" transform="translate(0 -13.934)">
        <circle id="Ellipse_301" cx=".666" cy=".666" r=".666" class="cls-1" transform="translate(32.961 17.815)"/>
        <circle id="Ellipse_302" cx=".666" cy=".666" r=".666" class="cls-1" transform="translate(36.506 17.815)"/>
        <circle id="Ellipse_303" cx=".666" cy=".666" r=".666" class="cls-1" transform="translate(40.051 17.815)"/>
        <path id="Path_2570" fill="#bb3e8c" d="M210.325 224.063a1.583 1.583 0 0 0 .793-.215l5.311-3.067a1.57 1.57 0 0 0 .793-1.374 1.622 1.622 0 0 0-.013-.206 1.565 1.565 0 0 0-.685-1.109c-.029-.019-.059-.038-.089-.055l-5.311-3.067a1.586 1.586 0 0 0-2.38 1.374v6.133a1.592 1.592 0 0 0 1.586 1.589zm-.254-7.722a.254.254 0 0 1 .381-.22l5.311 3.067a.254.254 0 0 1 0 .44l-5.311 3.067a.254.254 0 0 1-.381-.22z" transform="translate(-190.199 -182.982)"/>
        <path id="Path_2571" d="M97.265 150.167H65.842a1.343 1.343 0 0 0-1.342 1.342v18.1a1.343 1.343 0 0 0 1.342 1.342h6.43a.666.666 0 1 0 0-1.332h-6.43a.01.01 0 0 1-.01-.009v-18.1a.01.01 0 0 1 .01-.01h31.423a.01.01 0 0 1 .01.01v18.1a.01.01 0 0 1-.01.009H74.936a.666.666 0 1 0 0 1.332h22.329a1.343 1.343 0 0 0 1.342-1.342v-18.1a1.343 1.343 0 0 0-1.342-1.342z" class="cls-1" transform="translate(-58.771 -124.133)"/>
        <path id="Path_2572" d="M97.94 405.57H70.552a2.078 2.078 0 0 0-2-1.511h-.202a2.078 2.078 0 0 0-2 1.511h-1.184a.666.666 0 0 0 0 1.332h1.187a2.078 2.078 0 0 0 2 1.512h.205a2.078 2.078 0 0 0 2-1.512H97.94a.666.666 0 1 0 0-1.332zm-28.642.769a.744.744 0 0 1-.743.743h-.205a.744.744 0 0 1-.743-.743v-.205a.744.744 0 0 1 .743-.743h.205a.744.744 0 0 1 .743.743z" class="cls-1" transform="translate(-58.771 -355.475)"/>
        <path id="Path_2573" d="M42.3 13.934H16.577a.666.666 0 1 0 0 1.332H42.3a1.847 1.847 0 0 1 1.845 1.845V21.7H1.332v-4.588a1.847 1.847 0 0 1 1.845-1.845h10.735a.666.666 0 0 0 0-1.332H3.178A3.181 3.181 0 0 0 0 17.112v36.644a3.181 3.181 0 0 0 3.178 3.178H42.3a3.181 3.181 0 0 0 3.178-3.178V17.112a3.181 3.181 0 0 0-3.178-3.178zm0 41.668H3.178a1.847 1.847 0 0 1-1.845-1.845V23.029h42.81v30.727A1.847 1.847 0 0 1 42.3 55.6z" class="cls-1"/>
    </g>
</svg>
