<svg xmlns="http://www.w3.org/2000/svg" width="36.162" height="47.636" viewBox="0 0 36.162 47.636">
    <defs>
        <style>
            .cls-2{fill:#2c0b2d}
        </style>
    </defs>
    <g id="best" transform="translate(-61.664)">
        <path id="Path_1750" fill="#bb3e8c" d="M204.53 132.984a.907.907 0 0 0-.842-.564.907.907 0 0 0-.842.566l-.006.016-3.522 9.248a.7.7 0 1 0 1.3.5l.706-1.854h4.7l.7 1.852a.7.7 0 0 0 1.306-.493L204.538 133zm-2.671 6.513l1.827-4.8 1.81 4.8z" transform="translate(-123.608 -120.619)"/>
        <path id="Path_1752" d="M249.9 374.677v-1.4a.7.7 0 0 0-1.4 0v1.4a.7.7 0 1 0 1.4 0z" class="cls-2" transform="translate(-169.455 -337.912)"/>
        <path id="Path_1753" d="M158.478 79.295a.7.7 0 0 0 .7.69h.008a.7.7 0 0 0 .69-.706 10.977 10.977 0 1 0-.369 2.963.7.7 0 0 0-1.348-.36 9.6 9.6 0 1 1 .322-2.588z" class="cls-2" transform="translate(-69.234 -61.616)"/>
        <path id="Path_1754" d="M94.373 27.984c1.183-1.626.46-4.021.961-5.564.475-1.462 2.492-3 2.492-5.065s-2.017-3.6-2.492-5.065c-.5-1.545.223-3.937-.961-5.564s-3.7-1.686-5-2.629c-1.273-.933-2.09-3.31-4.04-3.943-1.889-.614-3.933.814-5.588.814S76.046-.46 74.157.154c-1.95.633-2.763 3.01-4.044 3.942a4.832 4.832 0 0 1-1.173.582.7.7 0 0 0 .487 1.308 6.127 6.127 0 0 0 1.507-.761c1.478-1.076 2.28-3.3 3.654-3.743 1.31-.426 3.274.882 5.157.882s3.848-1.307 5.158-.882c1.374.446 2.173 2.666 3.654 3.743s3.85 1.175 4.688 2.321.188 3.405.762 5.174c.558 1.718 2.424 3.158 2.424 4.634s-1.862 2.9-2.424 4.634c-.574 1.769.066 4.036-.762 5.174s-3.2 1.237-4.689 2.322-2.28 3.3-3.654 3.743c-1.31.426-3.273-.882-5.158-.882s-3.848 1.307-5.157.882c-1.375-.446-2.173-2.665-3.654-3.743s-3.851-1.171-4.689-2.322-.187-3.4-.762-5.174c-.558-1.718-2.424-3.158-2.424-4.634s1.862-2.9 2.424-4.634c.575-1.77-.066-4.036.762-5.174a2.207 2.207 0 0 1 .681-.587.7.7 0 1 0-.71-1.2 3.561 3.561 0 0 0-1.1.967c-1.183 1.626-.46 4.021-.961 5.564-.476 1.466-2.492 3-2.492 5.065s2.017 3.6 2.492 5.065c.5 1.544-.222 3.938.961 5.564.815 1.12 2.213 1.483 3.512 1.936L63.7 40.947a.7.7 0 0 0 .7.98l6.65-.578 3.271 5.927a.7.7 0 0 0 .611.361.7.7 0 0 0 .611-.367l1.829-3.395a.7.7 0 1 0-1.229-.662l-1.222 2.268-2.872-5.2a.7.7 0 0 0-.671-.358l-5.921.514 4.45-9.956c1.451.881 2.205 3.414 4.248 4.077 1.891.614 3.932-.814 5.588-.814 1.351 0 3 .967 4.573.967 2.823 0 3.6-3.222 5.263-4.231l4.45 9.956-5.921-.514a.694.694 0 0 0-.671.358l-2.872 5.2-3.513-6.52a1.486 1.486 0 0 0-2.617 0l-.953 1.768a.7.7 0 1 0 1.229.662l.953-1.768a.09.09 0 0 1 .16 0l4.12 7.647a.7.7 0 0 0 .611.367.7.7 0 0 0 .611-.361l3.271-5.927 6.65.578a.7.7 0 0 0 .7-.98L90.86 29.92c1.3-.452 2.7-.815 3.513-1.936z" class="cls-2"/>
    </g>
</svg>
