<svg xmlns="http://www.w3.org/2000/svg" id="XMLID_1031_" width="52" height="52" viewBox="0 0 52 52">
    <defs>
        <style>
            .cls-1{fill:#bb3e8c}.cls-2{fill:#2c0b2d}
        </style>
    </defs>
    <g id="XMLID_971_">
        <g id="XMLID_977_">
            <path id="XMLID_1030_" d="M46.452 9.947h1.607a1.015 1.015 0 1 0 0-2.03H44.2a1.015 1.015 0 0 0-1.015 1.015v3.857a1.015 1.015 0 0 0 2.03 0v-1.117A23.97 23.97 0 1 1 26 2.03a24.331 24.331 0 0 1 2.924.176 1.015 1.015 0 0 0 .245-2.015A26.369 26.369 0 0 0 26 0 26 26 0 0 0 7.615 44.385 26 26 0 0 0 46.452 9.947z" class="cls-1"/>
            <path id="XMLID_1029_" d="M69.573 73.891a1.015 1.015 0 0 0-1.4.315 19.38 19.38 0 1 0 6.066-6.054 1.015 1.015 0 1 0 1.082 1.717 17.358 17.358 0 1 1-3.03 26.967 17.468 17.468 0 0 1-2.4-21.545 1.015 1.015 0 0 0-.318-1.4z" class="cls-2" transform="translate(-58.563 -58.564)"/>
            <path id="XMLID_1028_" d="M377.184 248.36h1.252a1.015 1.015 0 0 0 0-2.03h-1.252a1.015 1.015 0 1 0 0 2.03z" class="cls-2" transform="translate(-337.989 -221.329)"/>
            <path id="XMLID_1004_" d="M103.835 247.021a1.015 1.015 0 0 0 1.015 1.015h1.25a1.015 1.015 0 0 0 0-2.03h-1.25a1.015 1.015 0 0 0-1.015 1.015z" class="cls-2" transform="translate(-93.296 -221.037)"/>
            <path id="XMLID_1001_" d="M248.36 106.1v-1.25a1.015 1.015 0 1 0-2.03 0v1.25a1.015 1.015 0 0 0 2.03 0z" class="cls-2" transform="translate(-221.329 -93.296)"/>
            <path id="XMLID_1415_" d="M246.006 377.184v1.252a1.015 1.015 0 0 0 2.03 0v-1.252a1.015 1.015 0 1 0-2.03 0z" class="cls-2" transform="translate(-221.037 -337.989)"/>
            <path id="XMLID_996_" d="M190.7 158.279a1.015 1.015 0 1 0-1.435 1.435l3.44 3.44a3.5 3.5 0 1 0 6.166 0l6.941-6.941a1.015 1.015 0 1 0-1.435-1.435l-6.941 6.941a3.489 3.489 0 0 0-3.3 0zm6.554 6.523a1.467 1.467 0 1 1-1.467-1.467 1.468 1.468 0 0 1 1.472 1.465z" class="cls-2" transform="translate(-169.792 -138.802)"/>
            <path id="XMLID_980_" d="M119.911 119.911a1.014 1.014 0 1 0-.718.3 1.019 1.019 0 0 0 .718-.3z" class="cls-2" transform="translate(-106.183 -106.183)"/>
            <path id="XMLID_979_" d="M316.453 11.908a1.016 1.016 0 1 0-.717-.3 1.019 1.019 0 0 0 .717.3z" class="cls-1" transform="translate(-283.422 -8.875)"/>
        </g>
    </g>
</svg>
