<svg xmlns="http://www.w3.org/2000/svg" width="28" height="28" viewBox="0 0 28 28">
    <g>
        <g transform="translate(-1255 -253) translate(1228 253.5)">
            <rect width="28" height="28" fill="#e7f2fe" rx="5" transform="translate(27 -.5)"/>
        </g>
        <path fill="#2c0b2d" d="M6.355 12.006H1.876A1.878 1.878 0 0 1 0 10.13V3.775A1.878 1.878 0 0 1 1.876 1.9h4.479a1.878 1.878 0 0 1 1.876 1.875v6.355a1.878 1.878 0 0 1-1.876 1.876zM1.876 2.837a.939.939 0 0 0-.938.938v6.355a.939.939 0 0 0 .938.938h4.479a.939.939 0 0 0 .938-.938V3.775a.939.939 0 0 0-.938-.938zm8.231 6.12V1.876A1.878 1.878 0 0 0 8.231 0H3.025a.469.469 0 0 0 0 .938h5.206a.939.939 0 0 1 .938.938v7.082a.469.469 0 0 0 .938 0zm0 0" transform="translate(-1255 -253) translate(1264 261)"/>
    </g>
</svg>
