<svg xmlns="http://www.w3.org/2000/svg" width="42.146" height="46.494" viewBox="0 0 42.146 46.494">
    <defs>
        <style>
            .cls-2{fill:#bb3e8c}.cls-3{fill:#2c0b2d}
        </style>
    </defs>
    <g id="virus" transform="translate(-33 -10)">
        <path id="Path_1098" fill="#f8f0fc" d="M41.835 86.99a20.249 20.249 0 0 1 .537-4.5q.1-.435.217-.864a22.476 22.476 0 0 1 1.9-4.789h.007l4.884-5.667a26.109 26.109 0 0 1 3.931-2.537l4.646-1.394-.337-.486c-.478.043-.949.1-1.371.157h-.011l-5.761 1.729a26.109 26.109 0 0 0-3.931 2.537l-4.888 5.663h-.007a22.7 22.7 0 0 0-2.114 5.653A20.2 20.2 0 0 0 59.3 107.314c.477 0 .949-.018 1.418-.05A20.316 20.316 0 0 1 41.835 86.99z" transform="translate(-5.433 -51.387)"/>
        <g id="Group_1300" transform="translate(35.607 11.723)">
            <path id="Path_1099" d="M423.141 136.649a2.09 2.09 0 1 0-2.091 2.091 2.09 2.09 0 0 0 2.091-2.091zm-2.09.957a.957.957 0 1 1 .956-.957.957.957 0 0 1-.957.957z" class="cls-2" transform="translate(-385.094 -124.512)"/>
            <path id="Path_1100" d="M160.369 28.238a2.463 2.463 0 1 0 2.462 2.462 2.463 2.463 0 0 0-2.462-2.462zm0 3.792a1.329 1.329 0 1 1 1.331-1.33 1.329 1.329 0 0 1-1.331 1.33z" class="cls-2" transform="translate(-148.709 -28.238)"/>
            <path id="Path_1101" d="M235.061 210.678a2.463 2.463 0 1 0-2.461-2.462 2.463 2.463 0 0 0 2.461 2.462zm0-3.792a1.329 1.329 0 1 1-1.327 1.329 1.329 1.329 0 0 1 1.327-1.329z" class="cls-2" transform="translate(-216.345 -188.977)"/>
            <path id="Path_1102" d="M63.054 114.58a2.463 2.463 0 1 0-2.462-2.463 2.463 2.463 0 0 0 2.462 2.463zm0-3.792a1.329 1.329 0 1 1-1.328 1.329 1.329 1.329 0 0 1 1.328-1.329z" class="cls-2" transform="translate(-60.592 -101.96)"/>
        </g>
        <path id="Path_1103" d="M53.871 101.653a20.881 20.881 0 0 0 20.87-20.891 29.225 29.225 0 0 0-1.466-8.4l-1.067.384a28.537 28.537 0 0 1 1.278 6l-.818.082c-.04 0-.08.007-.12.009l-.376.017a2.389 2.389 0 0 0-2.091 1.436l-.1.219a2.28 2.28 0 0 1-2.081 1.366h-1.6a.962.962 0 0 1-.96-.87l-.064-.641a2.379 2.379 0 0 0-1.082-1.771 1.137 1.137 0 0 1-.522-.959v-.642a1.48 1.48 0 0 1 .5-1.108l2.728-2.419a2.477 2.477 0 0 0 .728-2.567 2.526 2.526 0 0 0-2.107-1.775l-.276-.034a1.569 1.569 0 0 1-.991-.525.988.988 0 0 1-.117-1.136l1.5-2.566a20.826 20.826 0 0 1 3.336 2.769l.816-.787a23.414 23.414 0 0 0-7.162-4.958 21.518 21.518 0 0 0-8.754-2.014 23.914 23.914 0 0 0-3.134.246l.158 1.123c.339-.047.679-.089 1.013-.123l2.381 3.436a2.268 2.268 0 0 1-.068 2.684l-.673.873a1.543 1.543 0 0 1-1.413.587l-.763-.1a2.765 2.765 0 0 0-2.737 1.344 1.559 1.559 0 0 1-1.537.758l-1.762-.224a2.858 2.858 0 0 0-2.741 1.24 2.543 2.543 0 0 0-.047 2.784l1.164 1.839a2.37 2.37 0 0 0 2 1.1 2.341 2.341 0 0 0 1.109-.278l1.2-.643a2.848 2.848 0 0 1 2.494.1l.584-.972a4 4 0 0 0-3.613-.125l-1.2.643a1.233 1.233 0 0 1-1.619-.426L43.508 73.9a1.409 1.409 0 0 1 .024-1.543 1.729 1.729 0 0 1 1.658-.75l1.762.224a2.69 2.69 0 0 0 2.662-1.308 1.631 1.631 0 0 1 1.615-.794l.763.1a2.681 2.681 0 0 0 2.455-1.029l.673-.873a3.4 3.4 0 0 0 .1-4.022l-2-2.886c.229-.009.448-.015.65-.015a20.375 20.375 0 0 1 8.287 1.914 23.757 23.757 0 0 1 2.522 1.332l-1.523 2.611a2.124 2.124 0 0 0 .246 2.449 2.7 2.7 0 0 0 1.706.9l.276.034a1.391 1.391 0 0 1 1.161.978 1.34 1.34 0 0 1-.394 1.389l-2.735 2.418a2.615 2.615 0 0 0-.882 1.958v.642a2.266 2.266 0 0 0 1.041 1.911 1.251 1.251 0 0 1 .569.932l.064.641A2.093 2.093 0 0 0 66.3 83.01h1.6a3.414 3.414 0 0 0 3.126-2.043l.1-.219a1.262 1.262 0 0 1 1.1-.759l.376-.017q.092 0 .183-.013l.8-.08c.018.312.027.608.027.886a19.737 19.737 0 1 1-39.473 0 19.541 19.541 0 0 1 .454-4.059l2.158-.7a2.249 2.249 0 0 1 2.349 1.08 4.571 4.571 0 0 0 .82 1.034l1.52 1.432a3.416 3.416 0 0 0 1.437.806l.177.048a1.964 1.964 0 0 1 1.368 1.365l.815 2.942a3.987 3.987 0 0 0 .674 1.358l2.468 3.24a2 2 0 0 1 .381.882l.674 4.046a1.693 1.693 0 0 0 2.329 1.286 2.262 2.262 0 0 0 1.375-1.854 3.059 3.059 0 0 1 .692-1.646l.715-.861a2.613 2.613 0 0 0 .49-.905l.735-2.386a2.419 2.419 0 0 1 .842-1.213l2.206-1.7a1.874 1.874 0 0 0 .286-2.7l-1.455-1.714c-.067-.079-.131-.161-.194-.249l-.646-.887-.917.668.643.883c.078.109.162.216.249.318L58.234 83a.74.74 0 0 1-.113 1.066l-2.205 1.7a3.547 3.547 0 0 0-1.235 1.778l-.735 2.386a1.487 1.487 0 0 1-.278.514l-.715.861a4.189 4.189 0 0 0-.947 2.253 1.128 1.128 0 0 1-.685.925.562.562 0 0 1-.772-.427l-.674-4.046a3.141 3.141 0 0 0-.6-1.383l-2.468-3.24a2.858 2.858 0 0 1-.483-.973l-.815-2.942a3.1 3.1 0 0 0-2.163-2.156l-.177-.048a2.275 2.275 0 0 1-.958-.537l-1.519-1.432a3.433 3.433 0 0 1-.616-.777 3.383 3.383 0 0 0-3.581-1.622.56.56 0 0 0-.065.017l-1.522.5a21.76 21.76 0 0 1 1.809-4.527l-1-.541A22.922 22.922 0 0 0 33 80.762a20.881 20.881 0 0 0 20.871 20.891z" class="cls-3" transform="translate(0 -45.159)"/>
        <path id="Path_1104" d="M119.682 82.275l-.5-1.016a26.768 26.768 0 0 0-4.034 2.6l.7.894a25.949 25.949 0 0 1 3.834-2.478z" class="cls-3" transform="translate(-74.382 -64.525)"/>
        <path id="Path_1105" d="M412.179 123.23a3.483 3.483 0 0 0-6.96 0 3.662 3.662 0 0 0 .728 2.385l2.3 3.072a.567.567 0 0 0 .908 0l2.3-3.072a3.587 3.587 0 0 0 .724-2.385zm-1.637 1.705L408.7 127.4l-1.839-2.46a2.522 2.522 0 0 1-.509-1.637 2.35 2.35 0 0 1 4.7 0 2.453 2.453 0 0 1-.509 1.632z" class="cls-2" transform="translate(-337.04 -99.508)"/>
        <path id="Path_1106" d="M145.027 10a4.257 4.257 0 0 0-4.191 4.021 4.415 4.415 0 0 0 .879 2.876l2.858 3.823a.567.567 0 0 0 .908 0l2.858-3.822a4.325 4.325 0 0 0 .879-2.875A4.257 4.257 0 0 0 145.027 10zm2.4 6.218l-2.4 3.215-2.4-3.21a3.277 3.277 0 0 1-.66-2.128 3.061 3.061 0 0 1 6.119 0 3.193 3.193 0 0 1-.655 2.123z" class="cls-2" transform="translate(-97.641)"/>
        <path id="Path_1107" d="M216.381 194.411l2.858 3.823a.567.567 0 0 0 .908 0l2.853-3.822a4.325 4.325 0 0 0 .879-2.875 4.194 4.194 0 0 0-8.382 0 4.415 4.415 0 0 0 .884 2.874zm.253-2.8a3.061 3.061 0 0 1 6.119 0 3.192 3.192 0 0 1-.656 2.12l-2.4 3.215-2.4-3.21a3.276 3.276 0 0 1-.664-2.126z" class="cls-2" transform="translate(-165.25 -160.74)"/>
        <path id="Path_1108" d="M43.5 95.437a4.416 4.416 0 0 0 .879 2.876l2.858 3.823a.567.567 0 0 0 .908 0L51 98.313a4.325 4.325 0 0 0 .879-2.875 4.194 4.194 0 0 0-8.381 0zm4.191-2.887a3.128 3.128 0 0 1 3.059 2.963 3.192 3.192 0 0 1-.656 2.12l-2.4 3.215-2.4-3.21a3.276 3.276 0 0 1-.66-2.128 3.127 3.127 0 0 1 3.058-2.96z" class="cls-2" transform="translate(-9.504 -73.722)"/>
    </g>
</svg>
