<svg xmlns="http://www.w3.org/2000/svg" width="8.178" height="8.178" viewBox="0 0 8.178 8.178">
  <defs>
    <style>
      .cls-1 {
        fill: #999;
      }
    </style>
  </defs>
  <path id="Path_68" data-name="Path 68" class="cls-1" d="M-.357-.911l3.42-3.42a.389.389,0,0,0,.115-.277.389.389,0,0,0-.115-.277A.389.389,0,0,0,2.786-5a.389.389,0,0,0-.277.115l-3.42,3.42-3.42-3.42A.389.389,0,0,0-4.608-5a.389.389,0,0,0-.277.115A.389.389,0,0,0-5-4.608a.389.389,0,0,0,.115.277l3.42,3.42-3.42,3.42A.389.389,0,0,0-5,2.786a.389.389,0,0,0,.115.277.389.389,0,0,0,.277.115.389.389,0,0,0,.277-.115l3.42-3.42,3.42,3.42a.392.392,0,1,0,.554-.554Z" transform="translate(5 5)"/>
</svg>
