<svg xmlns="http://www.w3.org/2000/svg" id="video-folder" width="64.939" height="44.392" viewBox="0 0 64.939 44.392">
    <defs>
        <style>
            .cls-2{fill:#bb3e8c}
        </style>
    </defs>
    <path id="Path_1707" fill="#2c0b2d" d="M61.134 5.073H21.562V3.8a3.81 3.81 0 0 0-3.8-3.8H3.8A3.81 3.81 0 0 0 0 3.8v36.787a3.81 3.81 0 0 0 3.8 3.8h57.334a3.81 3.81 0 0 0 3.8-3.8V8.878a3.81 3.81 0 0 0-3.8-3.805zm0 2.537A1.27 1.27 0 0 1 62.4 8.878v1.268H21.562V7.61zM62.4 40.587a1.27 1.27 0 0 1-1.268 1.268H3.8a1.27 1.27 0 0 1-1.268-1.268V3.8A1.27 1.27 0 0 1 3.8 2.537h13.957A1.27 1.27 0 0 1 19.025 3.8v7.61a1.268 1.268 0 0 0 1.268 1.268H62.4zm0 0"/>
    <path id="Path_1708" d="M200.846 166.413a1.268 1.268 0 0 1-1.268-1.268v-13.977a1.269 1.269 0 0 1 1.93-1.083l11.43 6.989a1.269 1.269 0 0 1 0 2.164l-11.43 6.988a1.27 1.27 0 0 1-.662.187zm1.268-12.983v9.453l7.731-4.726zm0 0" class="cls-2" transform="translate(-174.265 -130.887)"/>
    <path id="Path_1709" d="M51.268 169.452A1.268 1.268 0 0 1 50 168.183v-11.415a1.268 1.268 0 0 1 2.537 0v11.415a1.268 1.268 0 0 1-1.269 1.269zm0 0" class="cls-2" transform="translate(-43.658 -135.777)"/>
    <path id="Path_1710" d="M51.284 283.037a1.268 1.268 0 1 1 0-2.537 1.268 1.268 0 1 1 0 2.537zm0 0" class="cls-2" transform="translate(-43.672 -244.923)"/>
</svg>
