<svg xmlns="http://www.w3.org/2000/svg" width="19.101" height="19.101" viewBox="0 0 19.101 19.101">
    <path fill="#999" d="M16.639 1.492h-1.716V.6a.6.6 0 0 0-1.194 0v.9H5.372V.6a.6.6 0 0 0-1.194 0v.9H2.462A2.465 2.465 0 0 0 0 3.954v12.685A2.465 2.465 0 0 0 2.462 19.1h14.177a2.465 2.465 0 0 0 2.461-2.461V3.954a2.465 2.465 0 0 0-2.461-2.462zM2.462 2.686h1.716v.6a.6.6 0 1 0 1.194 0v-.6h8.357v.6a.6.6 0 0 0 1.194 0v-.6h1.716a1.27 1.27 0 0 1 1.268 1.268v1.418H1.194V3.954a1.27 1.27 0 0 1 1.268-1.268zm14.177 15.221H2.462a1.27 1.27 0 0 1-1.268-1.268V6.566h16.713v10.073a1.27 1.27 0 0 1-1.268 1.268z"/>
</svg>
