<svg xmlns="http://www.w3.org/2000/svg" width="52.928" height="49" viewBox="0 0 52.928 49">
    <defs>
        <style>
            .cls-1{fill:#2c0b2d}.cls-2{fill:#bb3e8c}
        </style>
    </defs>
    <g id="_24-hours" transform="translate(0 -19)">
        <g id="Group_4685" transform="translate(7.648 21.865)">
            <g id="Group_4684">
                <path id="Path_1795" d="M85.017 47.509a1.551 1.551 0 0 0-2.108-.6A24.672 24.672 0 0 0 74.23 55a1.551 1.551 0 0 0 2.6 1.691 21.56 21.56 0 0 1 7.584-7.071 1.55 1.55 0 0 0 .603-2.111z" class="cls-1" transform="translate(-73.979 -46.71)"/>
            </g>
        </g>
        <g id="Group_4687" transform="translate(0 19)">
            <g id="Group_4686">
                <path id="Path_1796" d="M28.438 19a1.551 1.551 0 1 0 0 3.1A21.4 21.4 0 1 1 7.447 47.616l2.041 2.037a1.551 1.551 0 1 0 2.191-2.195L6.614 42.4a1.565 1.565 0 0 0-1.114-.451 1.549 1.549 0 0 0-1.4.883L.26 48.6a1.551 1.551 0 1 0 2.581 1.719l1.523-2.287A24.494 24.494 0 1 0 28.438 19z" class="cls-1" transform="translate(0 -19)"/>
            </g>
        </g>
        <g id="Group_4689" transform="translate(20.02 36.345)">
            <g id="Group_4688">
                <path id="Path_1797" d="M200.927 197h-4.492v-.155c0-1.562 5.3-2.781 5.3-6.507 0-2.3-2.006-3.554-4-3.554-1.955 0-3.875 1.2-3.875 3.3 0 1.082.514 1.391 1.2 1.391.874 0 1.406-.481 1.406-.979a1.17 1.17 0 0 1 1.286-1.288 1.19 1.19 0 0 1 1.3 1.219c0 2.18-5.4 3.726-5.4 6.421v1.665c0 .5.686.824 1.166.824h6.1c.429 0 .806-.566.806-1.185s-.368-1.152-.797-1.152z" class="cls-2" transform="translate(-193.657 -186.787)"/>
            </g>
        </g>
        <g id="Group_4691" transform="translate(28.112 36.345)">
            <g id="Group_4690">
                <path id="Path_1798" d="M280.257 194.221h-.737v-1.2c0-.566-.669-.807-1.337-.807s-1.337.24-1.337.807v1.2h-1.476l3.035-6.095a.837.837 0 0 0 .086-.326c0-.618-.874-1.013-1.337-1.013a1.2 1.2 0 0 0-1.115.687l-3.961 7.777a1.1 1.1 0 0 0-.137.515.856.856 0 0 0 .892.927h4.012v1.82c0 .549.669.824 1.337.824s1.337-.275 1.337-.824v-1.82h.737c.411 0 .823-.618.823-1.236s-.274-1.236-.822-1.236z" class="cls-2" transform="translate(-271.941 -186.787)"/>
            </g>
        </g>
    </g>
</svg>
