<svg xmlns="http://www.w3.org/2000/svg" width="11.371" height="14" viewBox="0 0 11.371 14">
  <defs>
    <style>
      .cls-1 {
        fill: #f46a6a;
      }
    </style>
  </defs>
  <g id="delete" transform="translate(0.003 0.001)">
    <path id="Path_429" data-name="Path 429" class="cls-1" d="M222.726,154.7a.328.328,0,0,0-.328.328v6.2a.328.328,0,1,0,.656,0v-6.2A.328.328,0,0,0,222.726,154.7Zm0,0" transform="translate(-215.11 -149.632)"/>
    <path id="Path_430" data-name="Path 430" class="cls-1" d="M104.726,154.7a.328.328,0,0,0-.328.328v6.2a.328.328,0,1,0,.656,0v-6.2A.328.328,0,0,0,104.726,154.7Zm0,0" transform="translate(-100.979 -149.632)"/>
    <path id="Path_431" data-name="Path 431" class="cls-1" d="M.928,4.167v8.078a1.809,1.809,0,0,0,.481,1.248A1.615,1.615,0,0,0,2.58,14h6.2a1.614,1.614,0,0,0,1.172-.507,1.809,1.809,0,0,0,.481-1.248V4.167A1.252,1.252,0,0,0,10.115,1.7H8.436v-.41A1.288,1.288,0,0,0,7.138,0H4.227a1.288,1.288,0,0,0-1.3,1.3V1.7H1.249A1.252,1.252,0,0,0,.928,4.167Zm7.856,9.177H2.58a1.038,1.038,0,0,1-1-1.1V4.2h8.2v8.049A1.038,1.038,0,0,1,8.784,13.343ZM3.584,1.294A.632.632,0,0,1,4.227.654H7.138a.632.632,0,0,1,.643.639V1.7h-4.2ZM1.249,2.359h8.866a.59.59,0,1,1,0,1.18H1.249a.59.59,0,1,1,0-1.18Zm0,0" transform="translate(0 0)"/>
    <path id="Path_432" data-name="Path 432" class="cls-1" d="M163.726,154.7a.328.328,0,0,0-.328.328v6.2a.328.328,0,1,0,.656,0v-6.2A.328.328,0,0,0,163.726,154.7Zm0,0" transform="translate(-158.044 -149.632)"/>
  </g>
</svg>
