<svg xmlns="http://www.w3.org/2000/svg" width="56.961" height="48.062" viewBox="0 0 56.961 48.062">
    <defs>
        <style>
            .cls-1{fill:#2c0b2d}.cls-2{fill:#bb3e8c}
        </style>
    </defs>
    <g id="smile" transform="translate(0 -39.995)">
        <g id="Group_4644" transform="translate(10.112 67.622)">
            <g id="Group_4643">
                <path id="Path_1721" d="M92.795 288.652a1.114 1.114 0 1 0 .326.787 1.12 1.12 0 0 0-.326-.787z" class="cls-1" transform="translate(-90.895 -288.326)"/>
            </g>
        </g>
        <g id="Group_4646" transform="translate(20.608 67.622)">
            <g id="Group_4645">
                <path id="Path_1722" d="M187.14 288.652a1.114 1.114 0 1 0 .326.787 1.121 1.121 0 0 0-.326-.787z" class="cls-1" transform="translate(-185.24 -288.326)"/>
            </g>
        </g>
        <g id="Group_4648" transform="translate(11.654 74.022)">
            <g id="Group_4647">
                <path id="Path_1723" d="M113.566 345.89a1.113 1.113 0 0 0-1.363.788 2.722 2.722 0 0 1-5.261 0 1.113 1.113 0 0 0-2.151.575 4.948 4.948 0 0 0 9.563 0 1.113 1.113 0 0 0-.788-1.363z" class="cls-1" transform="translate(-104.754 -345.851)"/>
            </g>
        </g>
        <g id="Group_4650" transform="translate(27.381 39.995)">
            <g id="Group_4649">
                <path id="Path_1724" d="M247.229 39.995a1.113 1.113 0 0 0-1.113 1.113v7.066a1.113 1.113 0 0 0 2.226 0v-7.066a1.113 1.113 0 0 0-1.113-1.113z" class="cls-2" transform="translate(-246.116 -39.995)"/>
            </g>
        </g>
        <g id="Group_4652" transform="translate(27.381 50.994)">
            <g id="Group_4651">
                <path id="Path_1725" d="M248.021 139.19a1.112 1.112 0 1 0 .326.787 1.117 1.117 0 0 0-.326-.787z" class="cls-2" transform="translate(-246.121 -138.864)"/>
            </g>
        </g>
        <g id="Group_4654" transform="translate(16.97 46.949)">
            <g id="Group_4653">
                <path id="Path_1726" d="M157.275 105.668l-2.842-2.839a1.113 1.113 0 1 0-1.573 1.575l2.842 2.839a1.113 1.113 0 1 0 1.573-1.575z" class="cls-2" transform="translate(-152.534 -102.503)"/>
            </g>
        </g>
        <g id="Group_4656" transform="translate(34.774 46.952)">
            <g id="Group_4655">
                <path id="Path_1727" d="M317.49 102.854a1.113 1.113 0 0 0-1.574 0l-3.021 3.023a1.113 1.113 0 1 0 1.575 1.574l3.021-3.023a1.113 1.113 0 0 0-.001-1.574z" class="cls-2" transform="translate(-312.569 -102.528)"/>
            </g>
        </g>
        <g id="Group_4658" transform="translate(0 55.101)">
            <g id="Group_4657">
                <path id="Path_1728" d="M56.4 187.986a16.481 16.481 0 0 0-27.925-7.015 16.474 16.474 0 1 0 .012 22.559A16.471 16.471 0 0 0 56.4 187.986zM16.473 206.5a14.247 14.247 0 1 1 10.579-23.79q-.443.626-.833 1.3a16.477 16.477 0 0 0 .839 17.781 14.181 14.181 0 0 1-10.585 4.709zm27.7-.493a14.247 14.247 0 0 1-16.026-20.885 14.458 14.458 0 0 1 1.169-1.725c.018-.021.036-.043.052-.066a14.248 14.248 0 1 1 14.8 22.676z" class="cls-1" transform="translate(0 -175.775)"/>
            </g>
        </g>
        <g id="Group_4660" transform="translate(32.479 67.604)">
            <g id="Group_4659">
                <path id="Path_1729" d="M296.688 289.951a2.414 2.414 0 1 0-4.664 1.25 1.113 1.113 0 1 0 2.15-.576.188.188 0 0 1 .133-.23.188.188 0 0 1 .23.133 1.113 1.113 0 0 0 2.15-.576z" class="cls-1" transform="translate(-291.942 -288.161)"/>
            </g>
        </g>
        <g id="Group_4662" transform="translate(42.553 64.903)">
            <g id="Group_4661">
                <path id="Path_1730" d="M387.246 265.679a2.414 2.414 0 1 0-4.664 1.25 1.113 1.113 0 1 0 2.15-.576.188.188 0 0 1 .363-.1 1.113 1.113 0 0 0 2.15-.576z" class="cls-1" transform="translate(-382.499 -263.889)"/>
            </g>
        </g>
        <g id="Group_4664" transform="translate(36.86 72.853)">
            <g id="Group_4663">
                <path id="Path_1731" d="M340.787 336.167a1.113 1.113 0 1 0-2.15.576 2.654 2.654 0 1 1-5.127 1.374 1.113 1.113 0 0 0-2.15.576 4.886 4.886 0 0 0 4.706 3.619 4.887 4.887 0 0 0 4.722-6.145z" class="cls-1" transform="translate(-331.322 -335.341)"/>
            </g>
        </g>
    </g>
</svg>
