<svg xmlns="http://www.w3.org/2000/svg" id="chapter" width="44.316" height="40.623" viewBox="0 0 44.316 40.623">
    <defs>
        <style>
            .cls-1{fill:#2c0b2d}
        </style>
    </defs>
    <g id="Group_4781" transform="translate(24.005 16.619)">
        <path id="Path_1822" d="M32.388 10.847H13.923a.923.923 0 0 1 0-1.847h18.465a.923.923 0 0 1 0 1.847z" class="cls-1" transform="translate(-13 -9)"/>
    </g>
    <g id="Group_4782" transform="translate(24.005 22.158)">
        <path id="Path_1823" d="M32.388 13.847H13.923a.923.923 0 0 1 0-1.847h18.465a.923.923 0 0 1 0 1.847z" class="cls-1" transform="translate(-13 -12)"/>
    </g>
    <g id="Group_4783" transform="translate(24.005 27.698)">
        <path id="Path_1824" d="M32.388 16.847H13.923a.923.923 0 1 1 0-1.847h18.465a.923.923 0 0 1 0 1.847z" class="cls-1" transform="translate(-13 -15)"/>
    </g>
    <g id="Group_4784" transform="translate(24.005 33.237)">
        <path id="Path_1825" d="M32.388 19.847H13.923a.923.923 0 1 1 0-1.847h18.465a.923.923 0 0 1 0 1.847z" class="cls-1" transform="translate(-13 -18)"/>
    </g>
    <g id="Group_4785" transform="translate(24.005 38.777)">
        <path id="Path_1826" d="M32.388 22.847H13.923a.923.923 0 0 1 0-1.847h18.465a.923.923 0 0 1 0 1.847z" class="cls-1" transform="translate(-13 -21)"/>
    </g>
    <g id="Group_4786">
        <path id="Path_1827" d="M43.393 1.847H.923A.923.923 0 0 1 .923 0h42.47a.923.923 0 1 1 0 1.847z" class="cls-1"/>
    </g>
    <g id="Group_4787" transform="translate(0 5.54)">
        <path id="Path_1828" d="M43.393 4.847H.923A.923.923 0 0 1 .923 3h42.47a.923.923 0 1 1 0 1.847z" class="cls-1" transform="translate(0 -3)"/>
    </g>
    <g id="Group_4788" transform="translate(0 11.079)">
        <path id="Path_1829" d="M43.393 7.847H.923A.923.923 0 0 1 .923 6h42.47a.923.923 0 1 1 0 1.847z" class="cls-1" transform="translate(0 -6)"/>
    </g>
    <g id="Group_4789" transform="translate(0 16.619)">
        <path id="Path_1830" fill="#bb3e8c" d="M17.542 33H2.77A2.773 2.773 0 0 1 0 30.235V11.77A2.773 2.773 0 0 1 2.77 9h14.772a2.773 2.773 0 0 1 2.77 2.77v18.465A2.773 2.773 0 0 1 17.542 33zM2.77 10.847a.924.924 0 0 0-.923.923v18.465a.924.924 0 0 0 .923.923h14.772a.924.924 0 0 0 .923-.923V11.77a.924.924 0 0 0-.923-.923z" transform="translate(0 -9)"/>
    </g>
</svg>
