<svg xmlns="http://www.w3.org/2000/svg" width="51.659" height="51.659" viewBox="0 0 51.659 51.659">
    <defs>
        <style>
            .cls-1{fill:#2c0b2d}.cls-2{fill:#bb3e8c}
        </style>
    </defs>
    <g id="Calendar" transform="translate(-2 -2)">
        <path id="Path_1713" d="M51.076 7.166h-2.583V4.583a2.583 2.583 0 1 0-5.166 0v2.583H30.413V4.583a2.583 2.583 0 1 0-5.166 0v2.583H12.332V4.583a2.583 2.583 0 1 0-5.166 0v2.583H4.583A2.583 2.583 0 0 0 2 9.749v41.327a2.583 2.583 0 0 0 2.583 2.583h46.493a2.583 2.583 0 0 0 2.583-2.583V9.749a2.583 2.583 0 0 0-2.583-2.583zm-6.027-2.583a.861.861 0 0 1 1.722 0v6.888a.861.861 0 1 1-1.722 0zm-18.081 0a.861.861 0 0 1 1.722 0v6.888a.861.861 0 0 1-1.722 0zm-18.081 0a.861.861 0 0 1 1.722 0v6.888a.861.861 0 0 1-1.722 0zm-4.3 4.3h2.579v2.583a2.583 2.583 0 0 0 5.166 0V8.888h12.915v2.583a2.583 2.583 0 1 0 5.166 0V8.888h12.914v2.583a2.583 2.583 0 0 0 5.166 0V8.888h2.583a.861.861 0 0 1 .861.861V17.5H3.722V9.749a.861.861 0 0 1 .861-.861zm37.022 25.83V27.83h10.328v6.888zm10.332 1.722v6.888H41.605v-6.884zM41.605 26.108V19.22h10.332v6.888zm-37.883 0V19.22h10.332v6.888zm12.054-6.888h11.193v6.888H15.776zm12.915 0h11.192v6.888H28.691zM3.722 51.076V27.83h36.161v6.888h-8.61v1.722h8.61v6.888h-8.61v1.722h8.61v6.888h-35.3a.861.861 0 0 1-.861-.862zm47.354.861h-9.471v-6.888h10.332v6.027a.861.861 0 0 1-.861.861z" class="cls-1"/>
        <path id="Path_1714" d="M10 46h5.166v1.722H10z" class="cls-2" transform="translate(-1.112 -6.117)"/>
        <path id="Path_1715" d="M10 52h5.166v1.722H10z" class="cls-2" transform="translate(-1.112 -6.951)"/>
        <path id="Path_1716" d="M18 46h5.166v1.722H18z" class="cls-2" transform="translate(-2.224 -6.117)"/>
        <path id="Path_1717" d="M18 52h5.166v1.722H18z" class="cls-2" transform="translate(-2.224 -6.951)"/>
        <path id="Path_1718" d="M29.749 41.912a.861.861 0 0 0-.775-.119l-4.066 1.355a2.578 2.578 0 0 0-2.55-2.26h-.022a4.288 4.288 0 1 0-6.866-5.139 4.288 4.288 0 1 0-6.87 5.139h-.017A2.583 2.583 0 0 0 6 43.471v8.61a2.583 2.583 0 0 0 2.583 2.583h13.776a2.578 2.578 0 0 0 2.55-2.26l4.066 1.355a.862.862 0 0 0 1.133-.817V42.61a.861.861 0 0 0-.359-.698zm-10.835-6.19a2.583 2.583 0 1 1-2.582 2.578 2.583 2.583 0 0 1 2.583-2.578zm-3.422 5.166h-.045l.022-.027.022.027zM9.444 38.3a2.583 2.583 0 1 1 2.583 2.583A2.583 2.583 0 0 1 9.444 38.3zM23.22 52.081a.861.861 0 0 1-.861.861H8.583a.861.861 0 0 1-.861-.861v-8.61a.861.861 0 0 1 .861-.861h13.776a.861.861 0 0 1 .861.861zm5.166-.333L24.942 50.6v-5.647l3.444-1.153z" class="cls-1" transform="translate(-.556 -4.448)"/>
        <path id="Path_1719" d="M12 38h1.722v1.722H12z" class="cls-2" transform="translate(-1.39 -5.004)"/>
        <path id="Path_1720" d="M20 38h1.722v1.722H20z" class="cls-2" transform="translate(-2.502 -5.004)"/>
    </g>
</svg>
