<svg xmlns="http://www.w3.org/2000/svg" width="12.994" height="13.789" viewBox="0 0 12.994 13.789">
    <g>
        <path fill="#bb3e8c" d="M27.688 3.732L24.175.081A.265.265 0 0 0 23.984 0h-5.235a1.064 1.064 0 0 0-1.063 1.062v3.711h-2.122a.8.8 0 0 0-.8.795v3.979a.8.8 0 0 0 .8.795h2.122v2.387a1.063 1.063 0 0 0 1.063 1.06H26.7a1.062 1.062 0 0 0 1.063-1.06V3.915a.265.265 0 0 0-.075-.183zM24.05.716l2.884 3H24.05zm-8.486 9.1a.265.265 0 0 1-.265-.264V5.568a.265.265 0 0 1 .265-.264h7.161a.265.265 0 0 1 .265.264v3.979a.265.265 0 0 1-.265.264zm11.668 2.918a.531.531 0 0 1-.532.529h-7.951a.532.532 0 0 1-.532-.53v-2.391h4.508a.8.8 0 0 0 .8-.795V5.568a.8.8 0 0 0-.8-.795h-4.509V1.062a.533.533 0 0 1 .533-.532h4.771v3.448a.265.265 0 0 0 .265.265h3.447z" transform="translate(-14.769)"/>
    </g>
</svg>
