<svg xmlns="http://www.w3.org/2000/svg" viewBox="0 0 41.23 41.23"><defs><style>.cls-1{isolation:isolate;}.cls-2{fill:#bb3e8c;}.cls-3{fill:#2c0b2d;}</style></defs><g id="Layer_2" data-name="Layer 2"><g id="Layer_1-2" data-name="Layer 1"><g id="G" class="cls-1"><g class="cls-1"><path class="cls-2" d="M12.1,16.94a6.69,6.69,0,0,0,.8,0,6.38,6.38,0,0,0,.68-.12,4.85,4.85,0,0,0,.61-.2q.29-.12.57-.27V13.94H13.1a.32.32,0,0,1-.23-.08.27.27,0,0,1-.09-.2v-.83h3.3V17a7.23,7.23,0,0,1-.84.51,7,7,0,0,1-.94.36,6.74,6.74,0,0,1-1.07.22,9.54,9.54,0,0,1-1.24.07,5.51,5.51,0,0,1-2.14-.4,4.88,4.88,0,0,1-1.68-1.13,5.07,5.07,0,0,1-1.1-1.73,6.52,6.52,0,0,1,0-4.47,5,5,0,0,1,1.1-1.74A4.92,4.92,0,0,1,9.9,7.53a6,6,0,0,1,2.27-.4,6.36,6.36,0,0,1,1.19.1,5.15,5.15,0,0,1,1,.27,4.39,4.39,0,0,1,.87.42,5.83,5.83,0,0,1,.74.57l-.41.66a.39.39,0,0,1-.33.2A.46.46,0,0,1,15,9.27,3.46,3.46,0,0,1,14.56,9,3.79,3.79,0,0,0,14,8.73a3.52,3.52,0,0,0-.79-.24,4.81,4.81,0,0,0-1.07-.1,4.28,4.28,0,0,0-1.64.3,3.47,3.47,0,0,0-1.26.85,3.68,3.68,0,0,0-.79,1.33,5.12,5.12,0,0,0-.28,1.76,5.39,5.39,0,0,0,.29,1.82,3.8,3.8,0,0,0,.81,1.35,3.6,3.6,0,0,0,1.25.85A4.29,4.29,0,0,0,12.1,16.94Z"/></g></g><g id="N" class="cls-1"><g class="cls-1"><path class="cls-2" d="M34.15,25.23V36h-.81a.57.57,0,0,1-.31-.07.73.73,0,0,1-.26-.22l-6.08-7.86,0,.39c0,.13,0,.26,0,.37V36h-1.4V25.23h.82a.85.85,0,0,1,.32.05.65.65,0,0,1,.23.22l6.1,7.87c0-.14,0-.28,0-.42s0-.27,0-.38V25.23Z"/></g></g><path id="Path_450-2" data-name="Path 450-2" class="cls-3" d="M16.75,22.62a.61.61,0,0,0-.6-.61H2.55a1.33,1.33,0,0,1-1.34-1.33V2.55A1.34,1.34,0,0,1,2.55,1.21H20.68A1.33,1.33,0,0,1,22,2.55v13.6a.62.62,0,0,0,.61.6.6.6,0,0,0,.61-.6V2.55A2.55,2.55,0,0,0,20.68,0H2.55A2.55,2.55,0,0,0,0,2.55V20.68a2.56,2.56,0,0,0,2.55,2.55h13.6A.62.62,0,0,0,16.75,22.62Z"/><path id="Path_451-2" data-name="Path 451-2" class="cls-3" d="M38.68,18H33.5a.61.61,0,1,0,0,1.21h5.18A1.34,1.34,0,0,1,40,20.55V38.68A1.34,1.34,0,0,1,38.68,40H20.55a1.35,1.35,0,0,1-1.34-1.34V20.55a1.34,1.34,0,0,1,1.34-1.34H38.91a.61.61,0,0,0,0-1.21H20.55A2.55,2.55,0,0,0,18,20.55V38.68a2.56,2.56,0,0,0,2.55,2.55H38.68a2.57,2.57,0,0,0,2.55-2.55V20.55A2.56,2.56,0,0,0,38.68,18Z"/></g></g></svg>