<svg id="ui" xmlns="http://www.w3.org/2000/svg" width="28.515" height="28.515" viewBox="0 0 28.515 28.515">
  <defs>
    <style>
      .cls-1 {
        fill: #59c36a;
      }

      .cls-2 {
        fill: #00a66c;
      }

      .cls-3 {
        fill: #ffda2d;
      }

      .cls-4 {
        fill: #4086f4;
      }

      .cls-5 {
        fill: #4175df;
      }

      .cls-6 {
        fill: #ff641a;
      }

      .cls-7 {
        fill: #f03800;
      }
    </style>
  </defs>
  <path id="Path_1" data-name="Path 1" class="cls-1" d="M57.8,303.955a14.1,14.1,0,0,1-21.4-3.626l.926-4.267,4.1-.762a7.571,7.571,0,0,0,7.2,5.33,7.411,7.411,0,0,0,4.411-1.437l3.943.6Z" transform="translate(-34.373 -278.854)"/>
  <path id="Path_2" data-name="Path 2" class="cls-2" d="M265.173,369.962l-.819-4.16-3.943-.6A7.411,7.411,0,0,1,256,366.637v6.739A14.236,14.236,0,0,0,265.173,369.962Z" transform="translate(-241.743 -344.861)"/>
  <g id="Connected_Home_1_" transform="translate(0 7.04)">
    <g id="Group_3" data-name="Group 3">
      <g id="Group_2" data-name="Group 2">
        <g id="Group_1" data-name="Group 1">
          <path id="Path_3" data-name="Path 3" class="cls-3" d="M6.739,133.618a7.786,7.786,0,0,0,.317,2.189l-5.029,5.029a13.863,13.863,0,0,1,0-14.436l4.036.695.993,4.334A7.785,7.785,0,0,0,6.739,133.618Z" transform="translate(0 -126.4)"/>
        </g>
      </g>
    </g>
  </g>
  <path id="Path_4" data-name="Path 4" class="cls-4" d="M256.093,199.342a14.235,14.235,0,0,1-5.085,10.843l-4.762-4.762a7.393,7.393,0,0,0,2.322-2.74h-6.733a.827.827,0,0,1-.835-.835v-5.012a.827.827,0,0,1,.835-.835h13.188a.826.826,0,0,1,.819.685A14.166,14.166,0,0,1,256.093,199.342Z" transform="translate(-227.578 -185.084)"/>
  <path id="Path_5" data-name="Path 5" class="cls-5" d="M262.733,202.683a7.394,7.394,0,0,1-2.322,2.74l4.762,4.762a14.121,14.121,0,0,0,4.834-13.5.825.825,0,0,0-.819-.685H256v6.683Z" transform="translate(-241.743 -185.084)"/>
  <path id="Path_6" data-name="Path 6" class="cls-6" d="M58.037,3.982A.843.843,0,0,1,57.8,4.6L54.227,8.159a.818.818,0,0,1-1.086.084,7.473,7.473,0,0,0-4.511-1.5,7.571,7.571,0,0,0-7.2,5.33L36.4,7.04A14.09,14.09,0,0,1,57.736,3.364a.879.879,0,0,1,.3.618Z" transform="translate(-34.373)"/>
  <path id="Path_7" data-name="Path 7" class="cls-7" d="M260.511,8.242a.818.818,0,0,0,1.086-.084L265.173,4.6a.843.843,0,0,0,.234-.618.879.879,0,0,0-.3-.618A14.214,14.214,0,0,0,256,0V6.739A7.473,7.473,0,0,1,260.511,8.242Z" transform="translate(-241.743 0)"/>
</svg>
