<svg xmlns="http://www.w3.org/2000/svg" viewBox="0 0 41.23 41.36"><defs><style>.cls-1{isolation:isolate;}.cls-2{fill:#bb3e8c;}.cls-3{fill:#2c0b2d;}</style></defs><g id="Layer_2" data-name="Layer 2"><g id="Layer_1-2" data-name="Layer 1"><g id="H" class="cls-1"><g class="cls-1"><path class="cls-2" d="M16,16.24H14.56V11.35H8.77v4.89H7.31V5.49H8.77v4.79h5.79V5.49H16Z"/></g></g><g id="I-2" class="cls-1"><g class="cls-1"><path class="cls-2" d="M30.93,36.24h-1.6V25.47h1.6Z"/></g></g><path id="Path_450-5" data-name="Path 450-5" class="cls-3" d="M16.75,22.62a.61.61,0,0,0-.6-.61H2.55a1.33,1.33,0,0,1-1.34-1.33V2.55A1.34,1.34,0,0,1,2.55,1.21H20.68A1.33,1.33,0,0,1,22,2.55v13.6a.62.62,0,0,0,.61.6.6.6,0,0,0,.61-.6V2.55A2.55,2.55,0,0,0,20.68,0H2.55A2.55,2.55,0,0,0,0,2.55V20.68a2.56,2.56,0,0,0,2.55,2.55h13.6A.62.62,0,0,0,16.75,22.62Z"/><path id="Path_451-5" data-name="Path 451-5" class="cls-3" d="M38.68,18.13H33.5a.61.61,0,1,0,0,1.21h5.18A1.33,1.33,0,0,1,40,20.68V38.81a1.34,1.34,0,0,1-1.33,1.34H20.55a1.35,1.35,0,0,1-1.34-1.34V20.68a1.34,1.34,0,0,1,1.34-1.34H38.91a.61.61,0,0,0,0-1.21H20.55A2.55,2.55,0,0,0,18,20.68V38.81a2.56,2.56,0,0,0,2.55,2.55H38.68a2.57,2.57,0,0,0,2.55-2.55V20.68A2.56,2.56,0,0,0,38.68,18.13Z"/></g></g></svg>