<svg xmlns="http://www.w3.org/2000/svg" width="68" height="68" viewBox="0 0 68 68">
    <defs>
        <style>
            .cls-2{fill:#ef5353}
        </style>
    </defs>
    <g id="Group_8087" transform="translate(-121 -38)">
        <circle id="Ellipse_303" cx="34" cy="34" r="34" fill="rgba(239,83,83,0.14)" transform="translate(121 38)"/>
        <g id="Group_8085" transform="translate(.156 -1.753)">
            <path id="Path_2625" d="M347.974 346.481l2.682-2.682a1.055 1.055 0 0 0-1.492-1.492l-2.682 2.682-2.682-2.682a1.055 1.055 0 0 0-1.492 1.492l2.682 2.682-2.682 2.682a1.055 1.055 0 0 0 1.492 1.492l2.682-2.682 2.682 2.682a1.055 1.055 0 1 0 1.492-1.492z" class="cls-2" transform="translate(-180.982 -263.398)"/>
            <g id="multimedia" transform="translate(86.69 13.624)">
                <g id="image-gallery" transform="translate(52.154 47.129)">
                    <g id="Group_7517" transform="translate(0 7.816)">
                        <path id="Path_2501" d="M17.714 24.214a2.025 2.025 0 0 1-.518-.067L1.5 19.944a2.048 2.048 0 0 1-1.433-2.487l1.98-7.381a.507.507 0 1 1 .98.262l-1.979 7.379a1.03 1.03 0 0 0 .721 1.247l15.689 4.2a1.01 1.01 0 0 0 1.235-.715l.793-2.937a.508.508 0 1 1 .98.264l-.792 2.933a2.027 2.027 0 0 1-1.96 1.5z" class="cls-2" transform="translate(0 -9.701)"/>
                    </g>
                    <g id="Group_7518" transform="translate(4.059)">
                        <path id="Path_2502" d="M22.27 18.24H6.03A2.032 2.032 0 0 1 4 16.21V4.03A2.032 2.032 0 0 1 6.03 2h16.24a2.032 2.032 0 0 1 2.03 2.03v12.18a2.032 2.032 0 0 1-2.03 2.03zM6.03 3.015A1.017 1.017 0 0 0 5.015 4.03v12.18a1.017 1.017 0 0 0 1.015 1.015h16.24a1.017 1.017 0 0 0 1.015-1.015V4.03a1.017 1.017 0 0 0-1.015-1.015z" class="cls-2" transform="translate(-4 -2)"/>
                    </g>
                    <g id="Group_7519" transform="translate(7.104 3.045)">
                        <path id="Path_2503" d="M9.03 9.06a2.03 2.03 0 1 1 2.03-2.03 2.032 2.032 0 0 1-2.03 2.03zm0-3.045a1.015 1.015 0 1 0 1.015 1.015A1.017 1.017 0 0 0 9.03 6.015z" class="cls-2" transform="translate(-7 -5)"/>
                    </g>
                    <g id="Group_7520" transform="translate(4.13 5.633)">
                        <path id="Path_2504" d="M4.577 17.071a.507.507 0 0 1-.359-.866l4.794-4.794a1.56 1.56 0 0 1 2.153 0l1.427 1.427 3.95-4.74A1.525 1.525 0 0 1 17.7 7.55h.011a1.522 1.522 0 0 1 1.156.531l5.308 6.193a.507.507 0 0 1-.77.661L18.1 8.742a.5.5 0 0 0-.386-.177.539.539 0 0 0-.39.183l-4.307 5.167a.506.506 0 0 1-.367.182.489.489 0 0 1-.382-.148l-1.82-1.82a.521.521 0 0 0-.718 0l-4.794 4.793a.506.506 0 0 1-.358.148z" class="cls-2" transform="translate(-4.07 -7.55)"/>
                    </g>
                </g>
            </g>
        </g>
    </g>
</svg>
