<svg xmlns="http://www.w3.org/2000/svg" width="60.929" height="42.65" viewBox="0 0 60.929 42.65">
    <g>
        <g>
            <g>
                <path fill="#2c0b2d" d="M55.851 72H5.077A5.083 5.083 0 0 0 0 77.077v32.5a5.083 5.083 0 0 0 5.077 5.077h50.774a4.7 4.7 0 0 0 .85-.074 5.063 5.063 0 0 0 4.227-5v-32.5A5.083 5.083 0 0 0 55.851 72zM5.077 112.619a3.046 3.046 0 0 1-3.034-2.778L22.29 96.6l20.59 16.016zm53.82-3.046a3.039 3.039 0 0 1-2.549 3 2.76 2.76 0 0 1-.5.044h-9.661l-13.454-10.468 12.031-9.621 14.133 8.48zm0-10.933L45.2 90.424a1.016 1.016 0 0 0-1.158.077l-12.96 10.368-8.119-6.314a1.015 1.015 0 0 0-1.178-.049L2.031 107.422V77.077a3.046 3.046 0 0 1 3.046-3.046h50.774a3.046 3.046 0 0 1 3.049 3.046z" transform="translate(0 -72) translate(0 72) translate(0 -72)"/>
                <path fill="#bb3e8c" d="M198.093 120a6.093 6.093 0 1 0 6.093 6.093 6.093 6.093 0 0 0-6.093-6.093zm0 10.155a4.062 4.062 0 1 1 4.062-4.062 4.062 4.062 0 0 1-4.062 4.062z" transform="translate(0 -72) translate(0 72) translate(-167.629 -113.907)"/>
            </g>
        </g>
    </g>
</svg>
