<svg xmlns="http://www.w3.org/2000/svg" width="64.277" height="64.277" viewBox="0 0 64.277 64.277">
    <defs>
        <style>
            .cls-1{fill:#2c0b2d}.cls-2{fill:#bb3e8c}
        </style>
    </defs>
    <g id="setting" transform="translate(-2 -2)">
        <path id="Path_2535" d="M30.208 66.277a1.843 1.843 0 0 1-1.8-1.494l-.849-4.224a27.026 27.026 0 0 1-7.46-3.081l-3.592 2.392a1.856 1.856 0 0 1-2.315-.232l-5.558-5.557a1.856 1.856 0 0 1-.241-2.3l2.4-3.607a27.02 27.02 0 0 1-3.081-7.46l-4.243-.854A1.836 1.836 0 0 1 2 38.078v-7.87a1.843 1.843 0 0 1 1.494-1.8l4.224-.837A26.9 26.9 0 0 1 10.8 20.1l-2.4-3.593a1.856 1.856 0 0 1 .231-2.314l5.558-5.558a1.854 1.854 0 0 1 2.3-.241L20.1 10.8a27.1 27.1 0 0 1 7.459-3.081l.854-4.242A1.836 1.836 0 0 1 30.195 2h7.864a1.836 1.836 0 0 1 1.8 1.5l.848 4.216a26.878 26.878 0 0 1 7.46 3.084l3.6-2.4a1.857 1.857 0 0 1 2.315.232l5.557 5.557a1.853 1.853 0 0 1 .241 2.3l-2.406 3.614a26.854 26.854 0 0 1 3.088 7.46l4.239.846a1.836 1.836 0 0 1 1.478 1.782v7.87a1.843 1.843 0 0 1-1.494 1.8l-4.224.842a27.1 27.1 0 0 1-3.083 7.468l2.394 3.592a1.857 1.857 0 0 1-.232 2.315l-5.557 5.557a1.852 1.852 0 0 1-2.3.241l-3.607-2.4a26.9 26.9 0 0 1-7.476 3.086l-.84 4.236a1.836 1.836 0 0 1-1.783 1.479zm-.938-6.537l.943 4.7h7.851l.949-4.812a.918.918 0 0 1 .252-.47.951.951 0 0 1 .459-.253 25.094 25.094 0 0 0 7.981-3.3.918.918 0 0 1 1 .012l4.083 2.721 5.555-5.56-2.721-4.078a.918.918 0 0 1-.012-1 25.283 25.283 0 0 0 3.3-7.982.918.918 0 0 1 .715-.7l4.815-.961v-7.849l-4.815-.957a.918.918 0 0 1-.715-.7 25.057 25.057 0 0 0-3.31-7.973.918.918 0 0 1 .045-1.048l2.693-4.04-5.56-5.555-4.068 2.71a.926.926 0 0 1-1.022.026 25.077 25.077 0 0 0-7.973-3.305.918.918 0 0 1-.7-.714l-.964-4.809-7.846-.006-.947 4.73a.855.855 0 0 1-.027.143.918.918 0 0 1-.682.657 25.269 25.269 0 0 0-7.981 3.3.918.918 0 0 1-1-.012L15.487 9.93l-5.549 5.554 2.713 4.087a.918.918 0 0 1 .012 1 25.081 25.081 0 0 0-3.3 7.98.918.918 0 0 1-.243.449.95.95 0 0 1-.477.258l-4.808.954v7.851l4.73.948a.855.855 0 0 1 .143.027.918.918 0 0 1 .657.682 25.22 25.22 0 0 0 3.3 7.981.918.918 0 0 1-.012 1L9.93 52.786l5.56 5.555 4.08-2.719a.918.918 0 0 1 1-.012 25.237 25.237 0 0 0 7.982 3.3.913.913 0 0 1 .715.834z" class="cls-1"/>
        <path id="Path_2536" d="M54.112 27.714a.918.918 0 0 1-.8-.466A16.36 16.36 0 0 0 51.86 25.1a.918.918 0 0 1 1.44-1.145 18.247 18.247 0 0 1 1.615 2.387.921.921 0 0 1-.8 1.372z" class="cls-1" transform="translate(-4.063 -1.768)"/>
        <path id="Path_2537" d="M35.253 54.539a19.25 19.25 0 1 1-.713-38.493.906.906 0 0 1 .949.89.918.918 0 0 1-.885.949 17.415 17.415 0 1 0 17.927 15.221.918.918 0 1 1 1.822-.231 19.254 19.254 0 0 1-19.1 21.665z" class="cls-1" transform="translate(-1.116 -1.149)"/>
        <path id="Path_2538" d="M47.094 20.681a.918.918 0 0 1-.486-.14 16.219 16.219 0 0 0-2.381-1.225.918.918 0 0 1 .7-1.7 18.049 18.049 0 0 1 2.651 1.364.918.918 0 0 1-.488 1.7z" class="cls-1" transform="translate(-3.409 -1.272)"/>
        <path id="Path_2539" d="M41.478 55.159a.862.862 0 0 1-.918-.793v-7.143a.928.928 0 0 1 1.836 0v7.143a.862.862 0 0 1-.918.793z" class="cls-2" transform="translate(-3.155 -3.635)"/>
        <path id="Path_2540" d="M32.358 55.159a.862.862 0 0 1-.918-.793v-7.143a.928.928 0 0 1 1.836 0v7.143a.862.862 0 0 1-.918.793z" class="cls-2" transform="translate(-2.409 -3.635)"/>
        <path id="Path_2541" d="M40.267 46.741a.918.918 0 0 1-.41-1.741 8.494 8.494 0 0 0 .758-14.788v3.917a.918.918 0 0 1-.362.735l-3.618 2.755a.918.918 0 0 1-1.113 0l-3.617-2.759a.918.918 0 0 1-.362-.735v-3.912A8.494 8.494 0 0 0 32.3 45a.918.918 0 1 1-.819 1.644 10.328 10.328 0 0 1 .629-18.784.918.918 0 0 1 1.27.848v4.958l2.7 2.059 2.7-2.056v-4.957a.918.918 0 0 1 1.27-.848 10.328 10.328 0 0 1 .627 18.785.918.918 0 0 1-.409.093z" class="cls-2" transform="translate(-1.943 -2.11)"/>
    </g>
</svg>
