<svg xmlns="http://www.w3.org/2000/svg" width="18" height="18" viewBox="0 0 18 18">
  <g id="Group_4548" data-name="Group 4548" transform="translate(-518 -519)">
    <g id="Group_1462" data-name="Group 1462" transform="translate(494 517)">
      <circle id="Ellipse_209" data-name="Ellipse 209" cx="9" cy="9" r="9" transform="translate(24 2)" fill="#fff"/>
    </g>
    <g id="danger" transform="translate(523 488.143)">
      <g id="Group_4507" data-name="Group 4507" transform="translate(0 35.857)">
        <g id="Group_4506" data-name="Group 4506" transform="translate(0 0)">
          <path id="Path_1609" data-name="Path 1609" d="M.112,42.157l3.571-5.922a.782.782,0,0,1,1.339,0l3.571,5.922a.782.782,0,0,1-.67,1.186H.781a.782.782,0,0,1-.67-1.186Zm.482.51a.216.216,0,0,0,.187.109H7.923a.215.215,0,0,0,.184-.326L4.536,36.528a.215.215,0,0,0-.369,0L.6,42.45A.216.216,0,0,0,.594,42.667Z" transform="translate(0 -35.857)" fill="#f46a6a" stroke="#f46a6a" stroke-width="0.25"/>
        </g>
      </g>
      <g id="Group_4509" data-name="Group 4509" transform="translate(3.971 38.189)">
        <g id="Group_4508" data-name="Group 4508" transform="translate(0 0)">
          <path id="Path_1610" data-name="Path 1610" d="M233.957,173.005c.216,0,.384.116.384.321,0,.626-.074,1.525-.074,2.151,0,.163-.142.231-.31.231-.126,0-.3-.068-.3-.231,0-.626-.074-1.525-.074-2.151A.338.338,0,0,1,233.957,173.005Z" transform="translate(-233.578 -173.005)" fill="#f46a6a" stroke="#f46a6a" stroke-width="0.25"/>
        </g>
      </g>
      <g id="Group_4511" data-name="Group 4511" transform="translate(3.945 41.254)">
        <g id="Group_4510" data-name="Group 4510">
          <path id="Path_1611" data-name="Path 1611" d="M233.051,353.306a.4.4,0,1,1,0,.81.4.4,0,0,1,0-.81Z" transform="translate(-232.651 -353.306)" fill="#f46a6a" stroke="#f46a6a" stroke-width="0.25"/>
        </g>
      </g>
    </g>
  </g>
</svg>
