<svg xmlns="http://www.w3.org/2000/svg" viewBox="0 0 41.23 41.23"><defs><style>.cls-1{isolation:isolate;}.cls-2{fill:#bb3e8c;}.cls-3{fill:#2c0b2d;}</style></defs><g id="Layer_2" data-name="Layer 2"><g id="Layer_1-2" data-name="Layer 1"><g id="K" class="cls-1"><g class="cls-1"><path class="cls-2" d="M9.9,12h.55a1.12,1.12,0,0,0,.45-.07.9.9,0,0,0,.32-.24L14.8,7.6a1.07,1.07,0,0,1,.32-.27.87.87,0,0,1,.39-.08h1.24l-4.1,4.63a2.64,2.64,0,0,1-.29.29,1.21,1.21,0,0,1-.3.2,1,1,0,0,1,.37.2,2.15,2.15,0,0,1,.33.34L17,18H15.78l-.24,0-.17-.06-.14-.1a.69.69,0,0,1-.11-.13L11.4,13.43a.78.78,0,0,0-.15-.16.71.71,0,0,0-.17-.11.65.65,0,0,0-.21-.06l-.31,0H9.9V18H8.46V7.25H9.9Z"/></g></g><g id="N" class="cls-1"><g class="cls-1"><path class="cls-2" d="M34.15,25.23V36h-.81a.57.57,0,0,1-.31-.07.63.63,0,0,1-.25-.22l-6.09-7.86,0,.4c0,.12,0,.25,0,.36V36h-1.4V25.23h.82a.85.85,0,0,1,.32.05.65.65,0,0,1,.23.22l6.1,7.87c0-.14,0-.28,0-.42s0-.26,0-.38V25.23Z"/></g></g><path id="Path_450-2" data-name="Path 450-2" class="cls-3" d="M16.75,22.62a.61.61,0,0,0-.6-.61H2.55a1.33,1.33,0,0,1-1.34-1.33V2.55A1.34,1.34,0,0,1,2.55,1.21H20.68A1.33,1.33,0,0,1,22,2.55v13.6a.62.62,0,0,0,.61.6.6.6,0,0,0,.61-.6V2.55A2.55,2.55,0,0,0,20.68,0H2.55A2.55,2.55,0,0,0,0,2.55V20.68a2.56,2.56,0,0,0,2.55,2.55h13.6A.62.62,0,0,0,16.75,22.62Z"/><path id="Path_451-2" data-name="Path 451-2" class="cls-3" d="M38.68,18H33.5a.61.61,0,1,0,0,1.21h5.18A1.33,1.33,0,0,1,40,20.55V38.68A1.34,1.34,0,0,1,38.68,40H20.55a1.35,1.35,0,0,1-1.34-1.34V20.55a1.34,1.34,0,0,1,1.34-1.34H38.91a.61.61,0,0,0,0-1.21H20.55A2.55,2.55,0,0,0,18,20.55V38.68a2.56,2.56,0,0,0,2.55,2.55H38.68a2.57,2.57,0,0,0,2.55-2.55V20.55A2.56,2.56,0,0,0,38.68,18Z"/></g></g></svg>