<svg xmlns="http://www.w3.org/2000/svg" width="28" height="28" viewBox="0 0 28 28">
    <defs>
        <style>
            .cls-2{fill:#2c0b2d}
        </style>
    </defs>
    <g id="Group_4360" transform="translate(-274 -254)">
        <g id="Group_4163" transform="translate(274 254)">
            <g id="Group_1521">
                <g id="Group_1511">
                    <rect id="Rectangle_273" width="28" height="28" fill="#f6e3ef" rx="5"/>
                </g>
            </g>
        </g>
        <g id="lightbulb" transform="translate(246.034 261)">
            <g id="Group_4020" transform="translate(35.966)">
                <g id="Group_4019">
                    <path id="Path_1548" d="M108.962 93.2a3.638 3.638 0 0 0-2.4 6.364 2.731 2.731 0 0 1 .51 1.816.216.216 0 0 0 .065.17.241.241 0 0 0 .157.065h3.332a.216.216 0 0 0 .157-.065.248.248 0 0 0 .065-.17 2.814 2.814 0 0 1 .51-1.816l.039-.039a3.627 3.627 0 0 0-2.43-6.324zm2.091 6.024c-.013.013-.039.039-.039.052a3.051 3.051 0 0 0-.614 1.882h-2.888a3.037 3.037 0 0 0-.653-1.934 3.182 3.182 0 1 1 4.195 0z" class="cls-2" transform="translate(-103.063 -90.155)"/>
                    <path id="Path_1549" fill="#b83d8a" d="M209.551 121.6a.222.222 0 0 0 0 .444 2.378 2.378 0 0 1 2.378 2.378.222.222 0 1 0 .444 0 2.811 2.811 0 0 0-2.822-2.822z" transform="translate(-203.666 -117.628)"/>
                    <path id="Path_1550" d="M158.379 358.4h-2.9a.549.549 0 0 0 0 1.1h2.888a.564.564 0 0 0 .562-.549.552.552 0 0 0-.55-.551zm0 .64h-2.9a.1.1 0 0 1-.1-.1.1.1 0 0 1 .1-.1h2.888a.1.1 0 0 1 .1.1.093.093 0 0 1-.088.1z" class="cls-2" transform="translate(-151.043 -346.692)"/>
                    <path id="Path_1551" d="M170.716 398.8h-2.038a.549.549 0 1 0 0 1.1h2.038a.552.552 0 0 0 .549-.549.544.544 0 0 0-.549-.551zm0 .64h-2.038a.1.1 0 0 1-.1-.1.1.1 0 0 1 .1-.1h2.038a.1.1 0 1 1 0 .209z" class="cls-2" transform="translate(-163.812 -385.772)"/>
                    <path id="Path_1552" d="M209.551 1.96a.22.22 0 0 0 .222-.222V.222a.222.222 0 1 0-.444 0v1.516a.229.229 0 0 0 .222.222z" class="cls-2" transform="translate(-203.666)"/>
                    <path id="Path_1553" d="M294.316 33.155a.211.211 0 0 0-.3.052l-.836 1.254a.215.215 0 0 0 .052.314.206.206 0 0 0 .3-.065l.836-1.254a.2.2 0 0 0-.052-.301z" class="cls-2" transform="translate(-284.732 -32.031)"/>
                    <path id="Path_1554" d="M104.08 32.631a.211.211 0 0 0 .118-.039.229.229 0 0 0 .065-.314l-.81-1.267a.227.227 0 0 0-.379.248l.81 1.268a.217.217 0 0 0 .196.104z" class="cls-2" transform="translate(-100.848 -29.9)"/>
                    <path id="Path_1555" d="M37.617 104.036l-1.32-.719a.23.23 0 0 0-.3.091.209.209 0 0 0 .091.3l1.32.719a.308.308 0 0 0 .1.026.216.216 0 0 0 .2-.118.23.23 0 0 0-.091-.299z" class="cls-2" transform="translate(-35.966 -99.92)"/>
                    <path id="Path_1556" d="M343.971 103.409a.23.23 0 0 0-.3-.091l-1.333.719a.23.23 0 0 0-.091.3.216.216 0 0 0 .2.118.246.246 0 0 0 .1-.026l1.333-.719a.23.23 0 0 0 .091-.301z" class="cls-2" transform="translate(-332.219 -99.92)"/>
                </g>
            </g>
        </g>
    </g>
</svg>
