<svg xmlns="http://www.w3.org/2000/svg" width="13.208" height="14" viewBox="0 0 13.208 14">
    <path fill="#28323c" d="M7.737 14h-.009a.336.336 0 0 1-.244-.107L.294 6.27a.353.353 0 0 1-.11-.243L0 .379A.409.409 0 0 1 .1.107.349.349 0 0 1 .351 0h.006l5.33.194A.323.323 0 0 1 5.921.3l7.187 7.631a.382.382 0 0 1 0 .516L7.98 13.892a.337.337 0 0 1-.243.108zM.7.743l.176 5.11 6.852 7.291 4.65-4.953L5.526.929.7.743zm3.051 4.774A1.5 1.5 0 0 1 2.3 3.974a1.5 1.5 0 0 1 1.45-1.539 1.419 1.419 0 0 1 1.029.452A1.583 1.583 0 0 1 5.2 3.978a1.5 1.5 0 0 1-1.449 1.539zm.038-2.354h-.037a.753.753 0 0 0-.541.239.834.834 0 0 0-.243.634.786.786 0 0 0 .765.772h.037a.741.741 0 0 0 .541-.238.836.836 0 0 0 .243-.634.786.786 0 0 0-.765-.772z"/>
</svg>
