<svg xmlns="http://www.w3.org/2000/svg" width="1366" height="768" viewBox="0 0 1366 768">
    <defs>
        <clipPath id="clip-path">
            <path id="Rectangle_267" fill="#fafcff" d="M0 0H1366V768H0z"/>
        </clipPath>
        <clipPath id="clip-path-2">
            <path id="Path_117" fill="none" stroke="#eee" d="M78.729 373.5q-9.782-12.675-20.29-24.767t-21.666-23.571c-6.655-6.832-13.174-18.936-21.317-8.729C-5.4 342.582-28.687 367.1-50.967 392.128c-6.2 6.961-6.619 13.388-.446 20.417l15.713 17.9 15.509 18.074c6.092 7.1 12.514 7.586 20.277 2.432C28 432.411 55.55 412.8 84.372 395.834c11.251-6.627.185-14.783-5.643-22.334z" transform="translate(55.834 -312.501)"/>
        </clipPath>
        <clipPath id="clip-path-3">
            <path fill="none" d="M0 0H194V197H0z"/>
        </clipPath>
        <style>
            .cls-7{fill:#fafcff}.cls-6{fill:none}.cls-6,.cls-7{stroke:#eee;stroke-width:2px;stroke-miterlimit:10}.cls-11{fill:#eee}
        </style>
    </defs>
    <g id="Mask_Group_5" clip-path="url(#clip-path)">
        <g id="Group_752" transform="translate(908.069 474.379)">
            <path id="Path_293" fill="none" stroke="#eee" stroke-linecap="round" stroke-linejoin="round" stroke-width="2px" d="M77.166 186.813c3.3-7.828 8.518-16.75 15.871-21.249 3.791-2.32 7.975-3.9 12.039-5.7 13.233-5.85 23.882-17.24 29.893-30.306" transform="translate(-8.369 -1.714)"/>
            <path id="Path_294" d="M17.45 152.5c5.626-9.943 17.3-13.209 28.216-10.7 16.886 3.882 27.28 21.881 20.391 38.265-4.13 9.825-14.267 17.069-25.028 17.066-20.749 0-32.39-24.912-24.635-42.525a23.451 23.451 0 0 1 1.056-2.106z" class="cls-6" transform="translate(-2.635 -2.752)"/>
            <path id="Path_295" d="M13.707 149.737c6.428-11.358 19.768-15.09 32.234-12.224 19.291 4.435 31.165 25 23.3 43.714-4.718 11.225-16.3 19.5-28.592 19.5-23.7-.005-37-28.461-28.142-48.582q.548-1.257 1.2-2.408z" class="cls-6" transform="translate(-2.25 -2.352)"/>
            <path id="Path_296" d="M9.433 146.576c7.342-12.976 22.582-17.239 36.824-13.964 22.038 5.066 35.6 28.557 26.613 49.939-5.391 12.822-18.621 22.276-32.665 22.272-27.08-.005-42.272-32.512-32.15-55.5a30.514 30.514 0 0 1 1.378-2.747z" class="cls-6" transform="translate(-1.811 -1.896)"/>
            <path id="Path_297" d="M45.79 112.219c-20.954-4.819-43.378 1.455-54.182 20.548a44.975 44.975 0 0 0-2.026 4.044c-14.895 33.822 7.46 81.652 47.3 81.66 20.664 0 40.129-13.905 48.062-32.771 13.231-31.461-6.728-66.026-39.154-73.481zM.247 149.762c-.047-5.985 6.169-13.372 12.616-11.841 3.214.763 5.565 3.7 6.512 6.865a18.508 18.508 0 0 1 .217 10.045 9.225 9.225 0 0 1-2.971 4.673c-2.934 2.359-7.372 2.212-10.61.291a12 12 0 0 1-5.764-10.033zm12.427 43.193c-3.214-.764-5.565-3.7-6.511-6.865a18.511 18.511 0 0 1-.218-10.045 9.223 9.223 0 0 1 2.971-4.672c2.935-2.359 7.372-2.213 10.61-.292a12.007 12.007 0 0 1 5.765 10.033c.046 5.986-6.171 13.373-12.617 11.842zm16.415-66.239a9.211 9.211 0 0 1 2.971-4.672c2.934-2.359 7.371-2.213 10.609-.292a12.005 12.005 0 0 1 5.765 10.033c.047 5.986-6.17 13.372-12.616 11.841-3.214-.764-5.565-3.7-6.512-6.865a18.5 18.5 0 0 1-.218-10.045zm.279 78.825c-3.648-3.237-5.047-8.071-1.145-11.832a12.879 12.879 0 0 1 7.251-3.162 13.917 13.917 0 0 1 5.575.294 8.052 8.052 0 0 1 3.915 2.35c7.971 8.988-7.579 19.464-15.596 12.351zm41.569-18.193c-.907 3.178-3.22 6.144-6.424 6.949-6.426 1.613-12.737-5.694-12.767-11.679a12 12 0 0 1 5.636-10.105c3.213-1.963 7.648-2.166 10.612.155a9.213 9.213 0 0 1 3.031 4.634 18.509 18.509 0 0 1-.088 10.046zm-.186-26.3c-3.213 1.963-7.648 2.166-10.613-.155a9.212 9.212 0 0 1-3.031-4.634 18.5 18.5 0 0 1 .088-10.047c.907-3.177 3.22-6.143 6.424-6.948 6.426-1.614 12.737 5.693 12.767 11.678a12 12 0 0 1-5.635 10.111z" class="cls-7"/>
        </g>
        <g id="Group_732" transform="translate(399.242 58.111)">
            <path id="Path_88" d="M140.978 640.547c3.441-2.356 24.688-12.861 28.767-12.232a9.936 9.936 0 0 1 8.108 8.361 3.263 3.263 0 0 1-.15 1.717c-.89 2.014-2.636.071-3.211-1.016-.713-1.347-1.321-2.791-2.7-3.594-6.921-4.013-28.562 18.411-34.082 19.691a7.042 7.042 0 0 1-3.007-.143 26.932 26.932 0 0 1-4.865-.975 1.906 1.906 0 0 1-1.324-1.987 2.5 2.5 0 0 1 .748-1.1c3.458-3.509 7.632-5.927 11.716-8.722z" class="cls-7" transform="translate(-127.948 -617.79)"/>
            <path id="Path_89" d="M231.361 612.854c-4.166.189-27.457 4.582-30.337 7.538a9.934 9.934 0 0 0-1.445 11.555 3.263 3.263 0 0 0 1.153 1.282c1.923 1.073 2.148-1.529 1.954-2.744-.241-1.5-.624-3.024 0-4.5 3.113-7.37 33.89-2.481 39.07-4.779a7.028 7.028 0 0 0 2.315-1.923 26.941 26.941 0 0 0 3.3-3.706 1.906 1.906 0 0 0-.139-2.384 2.5 2.5 0 0 0-1.259-.429c-4.88-.715-9.673-.135-14.612.09z" class="cls-7" transform="translate(-151.597 -612.419)"/>
            <path id="Path_90" d="M225.458 615.758c-.265-.75-.261-.881-.614-1.936-.341-1.021-1.314-.306-2.188-.013-2.211.74-4.4 1.411-6.471 2.165-3.3 1.2-6.352 2.192-9.706 3.247-6.713 2.11-13.385 4.477-20.059 6.71-3.424 1.145-6.907 2.3-10.357 3.45s-6.925 2.331-10.349 3.477c-6.674 2.232-13.428 4.356-20.059 6.71-3.313 1.176-6.344 2.217-9.706 3.247-2.109.646-4.26 1.425-6.471 2.165-.874.292-2.081.3-1.74 1.326.353 1.056.436 1.158.675 1.917 2.136 6.753 4.662 13.963 6.915 20.7.668 1.995 2.382 2.656 4.11 3.626 2.024 1.136 3.832 2.615 5.873 3.723a9.669 9.669 0 0 0 6.763 1.274c2.506-.615 5.206-1.57 7.642-2.391 4.668-1.573 8.928-2.982 13.588-4.546 1.75-.587 4.224-1.244 5.07-3.1a5.234 5.234 0 0 0 .32-.949q.865-3.6 1.606-7.221c.4-1.94.523-4.135 1.42-5.926a3.16 3.16 0 0 1 1.28-1.157 8040.353 8040.353 0 0 1 1.294-.433 3.16 3.16 0 0 1 1.713.156c1.795.89 3.215 2.568 4.7 3.879q2.773 2.448 5.628 4.8a5.245 5.245 0 0 0 .826.565c1.792.973 4.163.009 5.914-.575 4.663-1.556 8.914-2.993 13.588-4.546 2.44-.81 5.172-1.672 7.543-2.689a9.669 9.669 0 0 0 4.636-5.086c.963-2.113 1.518-4.382 2.451-6.507.8-1.815 1.768-3.374 1.1-5.369-2.258-6.735-4.579-14.013-6.935-20.693z" class="cls-7" transform="translate(-127.678 -612.714)"/>
            <path id="Path_91" d="M168.968 655.858c-3.054 1.022-13.8 4.555-16.837 5.633-1.516.538-2.9 1.014-4.442 1.485-.965.3-1.95.652-2.961.991-.4.134-.953.14-.8.607.162.483.2.529.309.877.978 3.09 3.125 9.353 4.156 12.436.306.913 1.09 1.216 1.881 1.66.926.519 1.754 1.2 2.688 1.7a4.425 4.425 0 0 0 3.095.583c1.146-.281 2.382-.718 3.5-1.094 2.136-.72 11.743-3.926 13.876-4.642.8-.269 1.933-.57 2.32-1.418a2.38 2.38 0 0 0 .146-.434q.4-1.646.736-3.3a15.916 15.916 0 0 1 .5-2.358 1.083 1.083 0 0 0 .03-.72l-4.445-13.287z" class="cls-7" transform="translate(-133.17 -626.686)"/>
            <path id="Path_92" d="M225.29 637.051c3.054-1.022 13.765-4.667 16.837-5.632 1.535-.482 2.929-.937 4.442-1.486.949-.345 1.95-.652 2.961-.99.4-.134.845-.462 1 .006.161.483.159.542.281.886 1.078 3.057 3.132 9.351 4.163 12.434a3.241 3.241 0 0 1-.5 2.457c-.427.972-.681 2.011-1.122 2.978a4.422 4.422 0 0 1-2.121 2.327c-1.086.466-2.336.86-3.452 1.23-2.139.711-11.741 3.93-13.876 4.642-.8.267-1.887.709-2.706.263a2.414 2.414 0 0 1-.378-.259q-1.306-1.077-2.575-2.2a16 16 0 0 0-1.815-1.584 1.074 1.074 0 0 1-.458-.557l-4.445-13.287z" class="cls-7" transform="translate(-159.439 -617.931)"/>
        </g>
        <g id="Group_740" transform="rotate(-78 869.647 60.123)">
            <path id="Path_194" d="M1012.559 404.984a1.846 1.846 0 0 0-2.583-1.782c-67.762 10.045-69.889 10.138-137.69 19.923l-.072.011-.072.011c-67.793 9.838-135.564 19.859-203.393 29.436a1.846 1.846 0 0 0-1.972 2.441c.307 3.405-.366 16.621 3.755 18.582a6.958 6.958 0 0 0 4.344.194c11.459-1.954 13.365-4.314 15.362 7.674 1.543 9.256 2.954 18.536 4.43 27.8 2.848 17.867 5.953 35.716 8.545 53.622 1.761 11.056-4.341 11.51-12.7 12.152a3.549 3.549 0 0 0-3.282 3.405c-.2 5.5.058 12.175 2.59 16.558 3.2 5.539 5.232 3.732 12.542 2.675q10.905-1.577 21.817-3.123l87.267-12.493 82-11.739.072-.011.073-.01c27.321-4-8.674 1.17 18.646-2.826l87.229-12.76c7.269-1.063 12.148-1.79 19.418-2.844 7.309-1.059 9.768.1 11.268-6.12 1.187-4.921-.462-11.4-2.209-16.613a3.552 3.552 0 0 0-4.114-2.336c-8.2 1.756-14.181 3.05-15.626-8.053-2.59-17.906-4.673-35.9-7.007-53.843-1.211-9.305-2.488-18.6-3.633-27.919-1.484-12.062 1.013-10.34 12.556-11.714a6.961 6.961 0 0 0 4.111-1.418c3.39-3.046-1.001-15.528-1.672-18.88z" class="cls-7"/>
            <path id="Path_195" d="M832.615 537.791a2.954 2.954 0 0 0 .569-.614c1.126-1.657.367-4.131-.1-6.9-.687-4.026-1.574-8.566-1.907-11.183q-1.57-12.329-3.275-24.638c-2.028-14.644-4.027-29.324-6.515-43.906-1.079-6.332-6.713-3.432-11.954-2.778q-9.7 1.21-19.386 2.477c-25.564 3.344-50.784 8.768-76.4 11.709-5.326.612-7.322 3.561-6.522 8.659 2.44 15.545 4.488 28.981 6.844 44.538q1.735 11.449 3.478 22.9c.845 5.526-.027 14.991 7.121 16.212a19.592 19.592 0 0 0 6.659-.4c29.747-5.233 59.575-9.442 89.463-13.767 2.828-.432 9.426-.239 11.925-2.309z" class="cls-7" transform="translate(8.327 8.99)"/>
            <path id="Path_196" d="M688.122 456.216a.3.3 0 0 0 .065-.065c.132-.177.047-.439 0-.733-.074-.426-.169-.907-.2-1.183q-.165-1.305-.344-2.61c-.214-1.551-.425-3.106-.692-4.649-.116-.671-.764-.356-1.365-.28q-1.112.141-2.222.287c-2.931.386-5.825.992-8.761 1.336-.611.071-.843.387-.758.927.261 1.645.478 3.068.728 4.715l.371 2.425c.089.584-.022 1.59.794 1.71a2.43 2.43 0 0 0 .763-.051c3.412-.591 6.833-1.076 10.26-1.572a3.653 3.653 0 0 0 1.361-.257z" class="cls-7" transform="translate(1.466 8.994)"/>
            <path id="Path_197" d="M706.926 453.5a.3.3 0 0 0 .065-.065c.132-.177.047-.439 0-.733-.072-.426-.169-.907-.2-1.184q-.165-1.306-.344-2.609c-.214-1.551-.425-3.106-.692-4.65-.116-.67-.764-.355-1.365-.279q-1.112.139-2.222.286c-2.931.388-5.825.993-8.761 1.337-.611.071-.843.386-.758.927.261 1.645.478 3.067.729 4.715q.183 1.213.369 2.424c.089.585-.022 1.591.794 1.712a2.43 2.43 0 0 0 .763-.051c3.412-.593 6.833-1.076 10.26-1.572a3.654 3.654 0 0 0 1.362-.258z" class="cls-7" transform="translate(5.36 8.431)"/>
            <path id="Path_198" d="M725.73 450.774a.338.338 0 0 0 .065-.066c.132-.176.048-.438 0-.732-.074-.426-.17-.907-.205-1.184q-.165-1.306-.344-2.609c-.214-1.551-.425-3.106-.692-4.65-.115-.67-.764-.356-1.365-.28q-1.11.141-2.222.287c-2.931.386-5.825.993-8.761 1.337-.611.071-.843.386-.758.926.261 1.646.478 3.068.729 4.716q.183 1.211.369 2.424c.089.585-.022 1.591.8 1.71a2.434 2.434 0 0 0 .763-.049c3.411-.593 6.832-1.076 10.259-1.572a3.7 3.7 0 0 0 1.362-.258z" class="cls-7" transform="translate(9.255 7.867)"/>
            <path id="Path_199" d="M744.534 448.053a.347.347 0 0 0 .066-.066c.13-.177.047-.438 0-.732-.074-.426-.17-.906-.205-1.184q-.163-1.305-.344-2.61c-.214-1.55-.425-3.1-.69-4.648-.116-.67-.765-.356-1.365-.28q-1.112.141-2.223.287c-2.931.386-5.824.993-8.761 1.336-.611.072-.843.387-.757.927.259 1.646.477 3.068.728 4.716l.369 2.424c.089.585-.022 1.59.8 1.71a2.4 2.4 0 0 0 .763-.051c3.411-.591 6.832-1.076 10.259-1.572a3.676 3.676 0 0 0 1.36-.257z" class="cls-7" transform="translate(13.149 7.304)"/>
            <path id="Path_200" d="M763.337 445.331a.311.311 0 0 0 .066-.065c.13-.177.047-.439 0-.733-.074-.426-.17-.906-.2-1.183q-.165-1.307-.345-2.61c-.214-1.551-.424-3.106-.69-4.649-.116-.671-.765-.356-1.365-.28q-1.112.139-2.224.287c-2.931.386-5.824.992-8.761 1.336-.611.071-.843.388-.757.927.259 1.645.477 3.068.728 4.715l.369 2.425c.09.584-.022 1.59.8 1.71a2.432 2.432 0 0 0 .763-.051c3.413-.591 6.832-1.076 10.259-1.572a3.653 3.653 0 0 0 1.357-.257z" class="cls-7" transform="translate(17.043 6.74)"/>
            <path id="Path_201" d="M782.141 442.61a.314.314 0 0 0 .066-.066c.13-.176.047-.438 0-.732-.074-.426-.169-.907-.2-1.184q-.165-1.306-.345-2.609c-.214-1.551-.424-3.106-.69-4.65-.116-.67-.764-.355-1.365-.279q-1.112.14-2.222.286c-2.931.386-5.826.994-8.762 1.338-.61.071-.843.386-.757.927.26 1.645.478 3.067.728 4.715l.369 2.424c.091.585-.022 1.591.8 1.712a2.469 2.469 0 0 0 .763-.051c3.412-.593 6.832-1.076 10.259-1.572a3.674 3.674 0 0 0 1.356-.259z" class="cls-7" transform="translate(20.937 6.177)"/>
            <path id="Path_202" d="M800.945 439.889a.346.346 0 0 0 .066-.066c.13-.176.047-.438 0-.732-.074-.426-.169-.907-.2-1.184q-.165-1.305-.344-2.609c-.215-1.551-.425-3.106-.692-4.65-.116-.67-.764-.356-1.365-.28q-1.112.141-2.222.287c-2.931.386-5.825.993-8.762 1.338-.61.071-.843.386-.757.926.26 1.646.478 3.068.728 4.716l.369 2.424c.091.585-.022 1.591.8 1.71a2.429 2.429 0 0 0 .763-.049c3.412-.593 6.832-1.076 10.26-1.572a3.7 3.7 0 0 0 1.356-.259z" class="cls-7" transform="translate(24.832 5.613)"/>
            <path id="Path_203" d="M819.75 437.168a.351.351 0 0 0 .066-.066c.132-.177.047-.438 0-.732-.074-.427-.169-.906-.2-1.184q-.165-1.305-.344-2.61c-.215-1.55-.425-3.1-.692-4.649-.116-.67-.764-.356-1.365-.28q-1.112.141-2.222.287c-2.931.386-5.825.993-8.761 1.336-.611.072-.844.388-.758.927.259 1.645.478 3.068.728 4.716l.369 2.424c.091.585-.022 1.59.8 1.71a2.394 2.394 0 0 0 .763-.051c3.412-.591 6.832-1.076 10.26-1.572a3.671 3.671 0 0 0 1.356-.256z" class="cls-7" transform="translate(28.726 5.049)"/>
            <path id="Path_204" d="M838.555 434.446a.334.334 0 0 0 .065-.065c.131-.177.047-.439 0-.733-.074-.426-.169-.906-.2-1.183q-.165-1.307-.344-2.61c-.214-1.551-.425-3.106-.692-4.648-.116-.671-.764-.356-1.365-.28q-1.112.139-2.222.287c-2.931.386-5.825.992-8.761 1.336-.611.073-.844.388-.758.927.259 1.645.478 3.068.728 4.715l.371 2.425c.089.584-.022 1.59.794 1.71a2.428 2.428 0 0 0 .763-.051c3.413-.591 6.833-1.076 10.26-1.572a3.661 3.661 0 0 0 1.361-.258z" class="cls-7" transform="translate(32.62 4.486)"/>
            <path id="Path_205" d="M857.359 431.725a.33.33 0 0 0 .065-.065c.132-.177.047-.439 0-.733-.074-.426-.169-.907-.2-1.184q-.165-1.305-.344-2.609c-.214-1.551-.425-3.106-.692-4.65-.116-.67-.764-.355-1.365-.279q-1.112.139-2.222.286c-2.931.386-5.825.993-8.761 1.337-.611.071-.843.386-.758.927.261 1.645.478 3.067.728 4.715l.371 2.424c.089.585-.022 1.591.794 1.712a2.467 2.467 0 0 0 .763-.051c3.412-.593 6.833-1.076 10.26-1.572a3.678 3.678 0 0 0 1.361-.258z" class="cls-7" transform="translate(36.515 3.922)"/>
            <path id="Path_206" d="M876.163 429a.334.334 0 0 0 .065-.066c.132-.176.047-.438 0-.732-.074-.426-.17-.907-.205-1.184q-.165-1.305-.344-2.61c-.214-1.55-.425-3.1-.692-4.648-.115-.67-.764-.356-1.365-.28q-1.112.141-2.222.287c-2.931.386-5.825.993-8.761 1.338-.611.071-.843.386-.758.926.261 1.646.478 3.068.729 4.716q.183 1.211.369 2.424c.089.585-.022 1.591.794 1.712a2.441 2.441 0 0 0 .764-.052c3.411-.591 6.832-1.076 10.259-1.57a3.7 3.7 0 0 0 1.367-.261z" class="cls-7" transform="translate(40.409 3.359)"/>
            <path id="Path_207" d="M894.967 426.283a.382.382 0 0 0 .066-.066c.13-.177.047-.438 0-.732-.074-.426-.17-.908-.205-1.184q-.165-1.306-.344-2.61c-.214-1.55-.425-3.1-.69-4.648-.116-.67-.765-.356-1.365-.28q-1.112.141-2.224.287c-2.931.386-5.824.993-8.761 1.337-.611.071-.843.386-.758.926.261 1.645.478 3.068.729 4.716q.183 1.211.369 2.424c.089.585-.022 1.59.8 1.71a2.4 2.4 0 0 0 .763-.051c3.411-.591 6.832-1.076 10.259-1.572a3.676 3.676 0 0 0 1.361-.257z" class="cls-7" transform="translate(44.303 2.795)"/>
            <path id="Path_208" d="M913.771 423.561a.31.31 0 0 0 .066-.065c.13-.177.047-.438 0-.733-.074-.426-.17-.907-.205-1.183q-.163-1.307-.344-2.61c-.214-1.551-.425-3.106-.69-4.649-.116-.671-.765-.356-1.365-.28q-1.112.139-2.223.287c-2.931.386-5.824.992-8.761 1.336-.611.071-.843.387-.757.927.259 1.645.477 3.068.728 4.715l.369 2.425c.089.584-.022 1.59.8 1.71a2.431 2.431 0 0 0 .763-.051c3.411-.591 6.832-1.076 10.259-1.572a3.655 3.655 0 0 0 1.36-.257z" class="cls-7" transform="translate(48.198 2.232)"/>
            <path id="Path_209" d="M932.574 420.84a.382.382 0 0 0 .067-.065c.13-.177.047-.439 0-.733-.074-.426-.17-.906-.2-1.184q-.165-1.305-.345-2.609c-.214-1.551-.424-3.106-.691-4.65-.116-.67-.764-.355-1.365-.279q-1.112.139-2.222.286c-2.932.386-5.825.993-8.762 1.337-.611.071-.843.386-.757.926.259 1.646.477 3.068.728 4.716l.369 2.424c.091.585-.022 1.591.8 1.712a2.468 2.468 0 0 0 .763-.051c3.412-.593 6.832-1.076 10.259-1.572a3.673 3.673 0 0 0 1.356-.258z" class="cls-7" transform="translate(52.092 1.668)"/>
            <path id="Path_210" d="M951.379 418.119a.339.339 0 0 0 .066-.066c.13-.176.047-.438 0-.732-.074-.426-.169-.907-.2-1.184q-.165-1.305-.345-2.61c-.214-1.55-.424-3.1-.69-4.649-.116-.67-.764-.355-1.365-.28q-1.112.141-2.222.287c-2.931.386-5.826.993-8.762 1.337-.61.071-.843.386-.757.926.26 1.646.478 3.068.728 4.716l.369 2.424c.091.585-.022 1.591.8 1.71a2.393 2.393 0 0 0 .763-.051c3.413-.591 6.832-1.076 10.259-1.572a3.673 3.673 0 0 0 1.356-.256z" class="cls-7" transform="translate(55.986 1.105)"/>
            <path id="Path_211" d="M703.017 559.144a.374.374 0 0 0 .066-.065c.13-.177.047-.439 0-.733-.074-.426-.17-.906-.205-1.184q-.163-1.305-.344-2.609c-.214-1.551-.425-3.106-.69-4.649-.116-.671-.765-.356-1.365-.28q-1.112.139-2.223.286c-2.931.388-5.824.993-8.761 1.337-.611.071-.843.386-.758.927.261 1.645.478 3.068.729 4.715q.183 1.213.369 2.425c.089.584-.022 1.59.8 1.71a2.436 2.436 0 0 0 .763-.051c3.411-.593 6.832-1.076 10.259-1.572a3.655 3.655 0 0 0 1.36-.257z" class="cls-7" transform="translate(4.551 30.31)"/>
            <path id="Path_212" d="M721.82 556.423a.345.345 0 0 0 .066-.066c.13-.176.047-.438 0-.732-.074-.426-.17-.906-.205-1.184q-.163-1.305-.344-2.609c-.214-1.551-.424-3.106-.69-4.65-.116-.67-.765-.355-1.365-.28q-1.112.141-2.223.287c-2.931.386-5.824.993-8.761 1.337-.611.071-.843.386-.757.926.26 1.646.477 3.068.728 4.716l.369 2.424c.091.586-.022 1.591.8 1.712a2.471 2.471 0 0 0 .763-.051c3.411-.593 6.832-1.077 10.259-1.572a3.679 3.679 0 0 0 1.36-.258z" class="cls-7" transform="translate(8.445 29.747)"/>
            <path id="Path_213" d="M740.625 553.7a.347.347 0 0 0 .066-.066c.13-.177.047-.438 0-.732-.074-.426-.169-.908-.2-1.184q-.165-1.306-.345-2.61c-.214-1.55-.424-3.1-.69-4.649-.116-.67-.764-.356-1.365-.28q-1.112.141-2.222.287c-2.932.386-5.825.993-8.762 1.338-.61.071-.843.386-.757.926.26 1.647.477 3.068.728 4.716l.369 2.424c.091.586-.022 1.59.8 1.711a2.4 2.4 0 0 0 .763-.051c3.412-.591 6.832-1.076 10.259-1.572a3.672 3.672 0 0 0 1.356-.258z" class="cls-7" transform="translate(12.34 29.183)"/>
            <path id="Path_214" d="M759.428 550.981a.342.342 0 0 0 .066-.066c.13-.177.047-.438 0-.733-.074-.426-.169-.906-.2-1.183q-.165-1.305-.345-2.61c-.214-1.551-.424-3.1-.69-4.649-.116-.671-.764-.356-1.365-.28q-1.112.139-2.222.287c-2.931.386-5.825.992-8.762 1.336-.61.072-.843.388-.757.927.259 1.645.478 3.068.728 4.716l.369 2.424c.091.585-.022 1.59.8 1.71a2.432 2.432 0 0 0 .763-.051c3.412-.591 6.832-1.076 10.259-1.572a3.672 3.672 0 0 0 1.356-.256z" class="cls-7" transform="translate(16.234 28.62)"/>
            <path id="Path_215" d="M778.232 548.259a.337.337 0 0 0 .066-.065c.13-.177.047-.439 0-.733-.074-.426-.169-.907-.2-1.184q-.165-1.305-.344-2.609c-.215-1.551-.425-3.106-.692-4.65-.116-.67-.764-.355-1.365-.279q-1.112.139-2.222.286c-2.931.387-5.825.993-8.762 1.337-.61.071-.843.386-.757.927.26 1.645.478 3.068.728 4.715l.369 2.425c.091.584-.022 1.59.8 1.71a2.43 2.43 0 0 0 .763-.051c3.413-.593 6.832-1.076 10.26-1.572a3.649 3.649 0 0 0 1.356-.257z" class="cls-7" transform="translate(20.128 28.056)"/>
            <path id="Path_216" d="M797.038 545.538a.376.376 0 0 0 .065-.066c.132-.176.047-.438 0-.732-.074-.426-.169-.906-.2-1.184q-.165-1.305-.344-2.61c-.215-1.55-.425-3.1-.692-4.649-.116-.67-.764-.355-1.365-.28q-1.112.141-2.222.287c-2.931.386-5.825.993-8.761 1.338-.611.071-.844.386-.758.926.26 1.646.478 3.068.728 4.716l.371 2.424c.089.586-.022 1.591.794 1.712a2.469 2.469 0 0 0 .763-.051c3.412-.593 6.832-1.077 10.26-1.572a3.707 3.707 0 0 0 1.361-.259z" class="cls-7" transform="translate(24.022 27.493)"/>
            <path id="Path_217" d="M815.842 542.817a.336.336 0 0 0 .065-.066c.132-.177.047-.438 0-.731-.074-.426-.169-.908-.2-1.184q-.165-1.306-.344-2.61c-.214-1.55-.425-3.1-.692-4.649-.116-.67-.764-.356-1.365-.28q-1.112.141-2.222.287c-2.931.386-5.825.993-8.761 1.337-.611.071-.843.386-.758.926.261 1.645.478 3.068.728 4.716l.371 2.424c.089.585-.022 1.59.794 1.71a2.394 2.394 0 0 0 .763-.051c3.412-.592 6.833-1.076 10.26-1.572a3.676 3.676 0 0 0 1.361-.257z" class="cls-7" transform="translate(27.917 26.929)"/>
            <path id="Path_218" d="M834.646 540.1a.3.3 0 0 0 .065-.065c.132-.177.047-.438 0-.733-.072-.426-.169-.906-.2-1.183q-.165-1.306-.344-2.61c-.214-1.551-.425-3.106-.692-4.649-.116-.671-.764-.356-1.365-.28q-1.112.14-2.222.287c-2.931.386-5.825.992-8.761 1.336-.611.072-.843.387-.758.927.261 1.645.478 3.068.729 4.715q.183 1.213.369 2.425c.089.585-.022 1.59.794 1.71a2.428 2.428 0 0 0 .763-.051c3.412-.591 6.833-1.076 10.26-1.572a3.656 3.656 0 0 0 1.362-.257z" class="cls-7" transform="translate(31.811 26.366)"/>
            <path id="Path_219" d="M853.45 537.374a.307.307 0 0 0 .065-.065c.132-.177.048-.439 0-.733-.074-.426-.17-.907-.205-1.184q-.165-1.305-.344-2.609c-.214-1.551-.425-3.106-.692-4.65-.115-.67-.764-.355-1.365-.279q-1.11.139-2.222.286c-2.931.387-5.825.993-8.761 1.338-.611.071-.843.386-.758.927.261 1.645.478 3.069.729 4.715q.183 1.213.369 2.425c.089.584-.022 1.59.794 1.71a2.44 2.44 0 0 0 .764-.051c3.411-.593 6.832-1.076 10.259-1.572a3.679 3.679 0 0 0 1.367-.258z" class="cls-7" transform="translate(35.705 25.802)"/>
            <path id="Path_220" d="M872.253 534.653a.384.384 0 0 0 .066-.066c.13-.176.047-.438 0-.731-.074-.426-.17-.906-.205-1.184q-.163-1.306-.344-2.61c-.214-1.55-.425-3.1-.69-4.649-.116-.67-.765-.355-1.365-.28q-1.112.141-2.223.287c-2.931.386-5.824.993-8.761 1.338-.611.071-.843.386-.757.926.26 1.646.477 3.068.728 4.716l.369 2.424c.089.585-.022 1.591.8 1.712a2.466 2.466 0 0 0 .763-.051c3.411-.593 6.832-1.077 10.259-1.572a3.7 3.7 0 0 0 1.36-.26z" class="cls-7" transform="translate(39.6 25.238)"/>
            <path id="Path_221" d="M891.057 531.932a.351.351 0 0 0 .066-.066c.13-.177.047-.438 0-.731-.074-.426-.17-.908-.2-1.184q-.165-1.305-.345-2.61c-.214-1.55-.424-3.1-.69-4.648-.116-.67-.765-.356-1.365-.28q-1.112.141-2.224.287c-2.931.386-5.824.993-8.761 1.337-.611.071-.843.386-.757.926.26 1.645.477 3.068.728 4.716l.369 2.424c.09.585-.022 1.59.8 1.71a2.4 2.4 0 0 0 .763-.051c3.412-.591 6.832-1.076 10.259-1.572a3.679 3.679 0 0 0 1.357-.258z" class="cls-7" transform="translate(43.494 24.675)"/>
            <path id="Path_222" d="M909.861 529.21a.309.309 0 0 0 .066-.065c.13-.177.047-.438 0-.733-.074-.426-.169-.907-.2-1.183q-.165-1.306-.345-2.61c-.214-1.551-.424-3.106-.69-4.649-.116-.671-.764-.356-1.365-.28q-1.112.141-2.222.287c-2.931.386-5.825.992-8.762 1.336-.609.072-.843.387-.757.927.26 1.645.478 3.068.728 4.715l.369 2.425c.091.585-.022 1.59.8 1.71a2.431 2.431 0 0 0 .763-.051c3.412-.591 6.832-1.076 10.259-1.572a3.65 3.65 0 0 0 1.356-.257z" class="cls-7" transform="translate(47.388 24.111)"/>
            <path id="Path_223" d="M928.665 526.489a.341.341 0 0 0 .067-.065c.13-.177.047-.439 0-.733-.074-.426-.169-.907-.2-1.184q-.165-1.306-.344-2.609c-.215-1.551-.425-3.106-.692-4.65-.116-.67-.764-.355-1.365-.279q-1.112.139-2.222.286c-2.931.388-5.825.994-8.762 1.338-.61.071-.843.386-.757.926.259 1.647.478 3.07.728 4.716l.369 2.425c.09.584-.022 1.59.8 1.71a2.428 2.428 0 0 0 .763-.051c3.412-.593 6.832-1.076 10.26-1.572a3.671 3.671 0 0 0 1.355-.258z" class="cls-7" transform="translate(51.282 23.548)"/>
            <path id="Path_224" d="M947.469 523.768a.345.345 0 0 0 .066-.066c.132-.176.047-.438 0-.732-.074-.426-.169-.907-.2-1.184q-.165-1.305-.344-2.609c-.215-1.551-.425-3.106-.692-4.65-.116-.67-.764-.355-1.365-.28q-1.112.141-2.222.287c-2.931.386-5.825.993-8.761 1.337-.611.071-.844.386-.758.926.26 1.646.478 3.068.728 4.716l.369 2.424c.091.585-.022 1.591.8 1.712a2.465 2.465 0 0 0 .763-.051c3.412-.593 6.832-1.077 10.26-1.572a3.7 3.7 0 0 0 1.356-.258z" class="cls-7" transform="translate(55.177 22.984)"/>
            <path id="Path_225" d="M966.275 521.047a.376.376 0 0 0 .065-.066c.132-.177.047-.438 0-.732-.074-.426-.169-.906-.2-1.184q-.165-1.305-.344-2.61c-.214-1.551-.425-3.1-.692-4.649-.116-.67-.764-.356-1.365-.28q-1.112.141-2.222.287c-2.931.386-5.825.993-8.761 1.337-.611.071-.844.386-.758.926.26 1.645.478 3.068.728 4.716l.37 2.424c.089.585-.022 1.59.794 1.71a2.4 2.4 0 0 0 .763-.051c3.412-.591 6.833-1.076 10.26-1.572a3.682 3.682 0 0 0 1.362-.256z" class="cls-7" transform="translate(59.071 22.421)"/>
            <path id="Path_226" d="M951.378 520.6a2.987 2.987 0 0 0 .569-.614c1.126-1.657.367-4.131-.1-6.9-.687-4.026-1.574-8.566-1.907-11.183q-1.57-12.329-3.275-24.638c-2.028-14.645-4.027-29.324-6.515-43.906-1.079-6.331-6.714-3.432-11.954-2.778q-9.7 1.21-19.386 2.477c-25.564 3.344-50.785 8.768-76.4 11.709-5.326.612-7.322 3.561-6.522 8.659 2.44 15.545 4.488 28.981 6.844 44.538q1.733 11.449 3.478 22.9c.845 5.526-.027 14.992 7.121 16.212a19.624 19.624 0 0 0 6.66-.4c29.745-5.234 59.575-9.442 89.463-13.768 2.827-.427 9.425-.234 11.924-2.308z" class="cls-7" transform="translate(32.923 5.431)"/>
        </g>
        <g id="Group_736" transform="rotate(-34 605.164 508.61)">
            <path id="Path_112" fill="#fafcff" stroke="#eee" stroke-linecap="round" stroke-linejoin="round" stroke-width="2px" d="M77.254 329.925c1.138-2.41 4.579-3.178 6.849-4 4.943-1.787 10.412-3.8 15.675-2.1a10.5 10.5 0 0 1 7.077 11.989c-.438 2.238-2.991 8.15-5.131 8.888 2.12 2.252 4.415 4.182 5.411 7.234 2.125 6.522-3.8 10.078-7.746 13.876 3.923 5.272 4.548 12.113.808 17.777-5.04 7.633-14.822 9.687-23.393 9.349-7.828-.309-15.8-2.432-21.916-7.324a15.624 15.624 0 0 1-5.2-6.683c-1.194-3.335-.677-7.017-1.138-10.529-1.114-8.483-7.658-15.05-13.486-21.313-9.541-10.254-15.077-25.186-2.68-35.493q.384-.319.794-.635c4.544-3.494 12.276-5.8 17.365-2.186 4.523 3.211 5.053 7.835 3.816 12.8 3.835-.961 6.872-3.85 11.061-4.338a10.977 10.977 0 0 1 10.537 5.146c1.212 2.07 1.176 3.915 1.066 6.208-.158 3.271 3.372 5.743 5.383 7.815 5.259 5.422 2.818 10.121-1.186 15.286" transform="translate(-6.699)"/>
            <path id="Path_113" d="M78.729 373.5q-9.782-12.675-20.29-24.767t-21.666-23.571c-6.655-6.832-13.174-18.936-21.317-8.729C-5.4 342.582-28.687 367.1-50.967 392.128c-6.2 6.961-6.619 13.388-.446 20.417l15.713 17.9 15.509 18.074c6.092 7.1 12.514 7.586 20.277 2.432C28 432.411 55.55 412.8 84.372 395.834c11.251-6.627.185-14.783-5.643-22.334z" class="cls-7" transform="translate(0 -.459)"/>
            <g id="Group_43" transform="translate(-55.834 312.042)">
                <g id="Group_42" clip-path="url(#clip-path-2)">
                    <path id="Path_114" d="M61.83 338.555c-.164-.116-29.19 24.582-32 26.982-6.58 5.627-80.611 69.141-80.41 69.392l7.235 9.3a2.792 2.792 0 0 0 1.749 1.3 3.762 3.762 0 0 0 2.522-1.151C-.362 413.1 35.958 381.6 74.884 347.814z" class="cls-7" transform="translate(55.399 -314.654)"/>
                    <path id="Path_115" d="M88.143 369.143c-.152-.131-31.336 21.781-34.35 23.911-7.072 4.995-86.653 61.4-86.475 61.667l6.344 9.934a2.793 2.793 0 0 0 1.622 1.45 3.758 3.758 0 0 0 2.617-.913c41.43-27.563 80.505-55.579 122.385-85.625z" class="cls-7" transform="translate(53.92 -317.183)"/>
                    <path id="Path_116" d="M46.881 319.459c.108.17-25.972 27.961-28.5 30.646-5.941 6.3-72.979 77.155-73.218 76.942l-8.943-7.679a2.8 2.8 0 0 1-1.208-1.811 3.763 3.763 0 0 1 1.272-2.462C-30.6 377.954 2.631 343.208 38.269 305.971z" class="cls-7" transform="translate(56.591 -311.961)"/>
                </g>
            </g>
            <path id="Path_118" d="M78.729 373.5q-9.782-12.675-20.29-24.767t-21.666-23.571c-6.655-6.832-13.174-18.936-21.317-8.729C-5.4 342.582-28.687 367.1-50.967 392.128c-6.2 6.961-6.619 13.388-.446 20.417l15.713 17.9 15.509 18.074c6.092 7.1 12.514 7.586 20.277 2.432C28 432.411 55.55 412.8 84.372 395.834c11.251-6.627.185-14.783-5.643-22.334z" class="cls-6" transform="translate(0 -.459)"/>
        </g>
        <g id="Repeat_Grid_2" clip-path="url(#clip-path-3)" transform="translate(-68 -106)">
            <g transform="translate(-1343 -251)">
                <circle id="Ellipse_1" cx="5" cy="5" r="5" class="cls-11" transform="translate(1343 251)"/>
            </g>
            <g transform="translate(-1313 -251)">
                <circle id="Ellipse_1-2" cx="5" cy="5" r="5" class="cls-11" transform="translate(1343 251)"/>
            </g>
            <g transform="translate(-1283 -251)">
                <circle id="Ellipse_1-3" cx="5" cy="5" r="5" class="cls-11" transform="translate(1343 251)"/>
            </g>
            <g transform="translate(-1253 -251)">
                <circle id="Ellipse_1-4" cx="5" cy="5" r="5" class="cls-11" transform="translate(1343 251)"/>
            </g>
            <g transform="translate(-1223 -251)">
                <circle id="Ellipse_1-5" cx="5" cy="5" r="5" class="cls-11" transform="translate(1343 251)"/>
            </g>
            <g transform="translate(-1193 -251)">
                <circle id="Ellipse_1-6" cx="5" cy="5" r="5" class="cls-11" transform="translate(1343 251)"/>
            </g>
            <g transform="translate(-1163 -251)">
                <circle id="Ellipse_1-7" cx="5" cy="5" r="5" class="cls-11" transform="translate(1343 251)"/>
            </g>
            <g transform="translate(-1343 -221)">
                <circle id="Ellipse_1-8" cx="5" cy="5" r="5" class="cls-11" transform="translate(1343 251)"/>
            </g>
            <g transform="translate(-1313 -221)">
                <circle id="Ellipse_1-9" cx="5" cy="5" r="5" class="cls-11" transform="translate(1343 251)"/>
            </g>
            <g transform="translate(-1283 -221)">
                <circle id="Ellipse_1-10" cx="5" cy="5" r="5" class="cls-11" transform="translate(1343 251)"/>
            </g>
            <g transform="translate(-1253 -221)">
                <circle id="Ellipse_1-11" cx="5" cy="5" r="5" class="cls-11" transform="translate(1343 251)"/>
            </g>
            <g transform="translate(-1223 -221)">
                <circle id="Ellipse_1-12" cx="5" cy="5" r="5" class="cls-11" transform="translate(1343 251)"/>
            </g>
            <g transform="translate(-1193 -221)">
                <circle id="Ellipse_1-13" cx="5" cy="5" r="5" class="cls-11" transform="translate(1343 251)"/>
            </g>
            <g transform="translate(-1163 -221)">
                <circle id="Ellipse_1-14" cx="5" cy="5" r="5" class="cls-11" transform="translate(1343 251)"/>
            </g>
            <g transform="translate(-1343 -191)">
                <circle id="Ellipse_1-15" cx="5" cy="5" r="5" class="cls-11" transform="translate(1343 251)"/>
            </g>
            <g transform="translate(-1313 -191)">
                <circle id="Ellipse_1-16" cx="5" cy="5" r="5" class="cls-11" transform="translate(1343 251)"/>
            </g>
            <g transform="translate(-1283 -191)">
                <circle id="Ellipse_1-17" cx="5" cy="5" r="5" class="cls-11" transform="translate(1343 251)"/>
            </g>
            <g transform="translate(-1253 -191)">
                <circle id="Ellipse_1-18" cx="5" cy="5" r="5" class="cls-11" transform="translate(1343 251)"/>
            </g>
            <g transform="translate(-1223 -191)">
                <circle id="Ellipse_1-19" cx="5" cy="5" r="5" class="cls-11" transform="translate(1343 251)"/>
            </g>
            <g transform="translate(-1193 -191)">
                <circle id="Ellipse_1-20" cx="5" cy="5" r="5" class="cls-11" transform="translate(1343 251)"/>
            </g>
            <g transform="translate(-1163 -191)">
                <circle id="Ellipse_1-21" cx="5" cy="5" r="5" class="cls-11" transform="translate(1343 251)"/>
            </g>
            <g transform="translate(-1343 -161)">
                <circle id="Ellipse_1-22" cx="5" cy="5" r="5" class="cls-11" transform="translate(1343 251)"/>
            </g>
            <g transform="translate(-1313 -161)">
                <circle id="Ellipse_1-23" cx="5" cy="5" r="5" class="cls-11" transform="translate(1343 251)"/>
            </g>
            <g transform="translate(-1283 -161)">
                <circle id="Ellipse_1-24" cx="5" cy="5" r="5" class="cls-11" transform="translate(1343 251)"/>
            </g>
            <g transform="translate(-1253 -161)">
                <circle id="Ellipse_1-25" cx="5" cy="5" r="5" class="cls-11" transform="translate(1343 251)"/>
            </g>
            <g transform="translate(-1223 -161)">
                <circle id="Ellipse_1-26" cx="5" cy="5" r="5" class="cls-11" transform="translate(1343 251)"/>
            </g>
            <g transform="translate(-1193 -161)">
                <circle id="Ellipse_1-27" cx="5" cy="5" r="5" class="cls-11" transform="translate(1343 251)"/>
            </g>
            <g transform="translate(-1163 -161)">
                <circle id="Ellipse_1-28" cx="5" cy="5" r="5" class="cls-11" transform="translate(1343 251)"/>
            </g>
            <g transform="translate(-1343 -131)">
                <circle id="Ellipse_1-29" cx="5" cy="5" r="5" class="cls-11" transform="translate(1343 251)"/>
            </g>
            <g transform="translate(-1313 -131)">
                <circle id="Ellipse_1-30" cx="5" cy="5" r="5" class="cls-11" transform="translate(1343 251)"/>
            </g>
            <g transform="translate(-1283 -131)">
                <circle id="Ellipse_1-31" cx="5" cy="5" r="5" class="cls-11" transform="translate(1343 251)"/>
            </g>
            <g transform="translate(-1253 -131)">
                <circle id="Ellipse_1-32" cx="5" cy="5" r="5" class="cls-11" transform="translate(1343 251)"/>
            </g>
            <g transform="translate(-1223 -131)">
                <circle id="Ellipse_1-33" cx="5" cy="5" r="5" class="cls-11" transform="translate(1343 251)"/>
            </g>
            <g transform="translate(-1193 -131)">
                <circle id="Ellipse_1-34" cx="5" cy="5" r="5" class="cls-11" transform="translate(1343 251)"/>
            </g>
            <g transform="translate(-1163 -131)">
                <circle id="Ellipse_1-35" cx="5" cy="5" r="5" class="cls-11" transform="translate(1343 251)"/>
            </g>
            <g transform="translate(-1343 -101)">
                <circle id="Ellipse_1-36" cx="5" cy="5" r="5" class="cls-11" transform="translate(1343 251)"/>
            </g>
            <g transform="translate(-1313 -101)">
                <circle id="Ellipse_1-37" cx="5" cy="5" r="5" class="cls-11" transform="translate(1343 251)"/>
            </g>
            <g transform="translate(-1283 -101)">
                <circle id="Ellipse_1-38" cx="5" cy="5" r="5" class="cls-11" transform="translate(1343 251)"/>
            </g>
            <g transform="translate(-1253 -101)">
                <circle id="Ellipse_1-39" cx="5" cy="5" r="5" class="cls-11" transform="translate(1343 251)"/>
            </g>
            <g transform="translate(-1223 -101)">
                <circle id="Ellipse_1-40" cx="5" cy="5" r="5" class="cls-11" transform="translate(1343 251)"/>
            </g>
            <g transform="translate(-1193 -101)">
                <circle id="Ellipse_1-41" cx="5" cy="5" r="5" class="cls-11" transform="translate(1343 251)"/>
            </g>
            <g transform="translate(-1163 -101)">
                <circle id="Ellipse_1-42" cx="5" cy="5" r="5" class="cls-11" transform="translate(1343 251)"/>
            </g>
            <g transform="translate(-1343 -71)">
                <circle id="Ellipse_1-43" cx="5" cy="5" r="5" class="cls-11" transform="translate(1343 251)"/>
            </g>
            <g transform="translate(-1313 -71)">
                <circle id="Ellipse_1-44" cx="5" cy="5" r="5" class="cls-11" transform="translate(1343 251)"/>
            </g>
            <g transform="translate(-1283 -71)">
                <circle id="Ellipse_1-45" cx="5" cy="5" r="5" class="cls-11" transform="translate(1343 251)"/>
            </g>
            <g transform="translate(-1253 -71)">
                <circle id="Ellipse_1-46" cx="5" cy="5" r="5" class="cls-11" transform="translate(1343 251)"/>
            </g>
            <g transform="translate(-1223 -71)">
                <circle id="Ellipse_1-47" cx="5" cy="5" r="5" class="cls-11" transform="translate(1343 251)"/>
            </g>
            <g transform="translate(-1193 -71)">
                <circle id="Ellipse_1-48" cx="5" cy="5" r="5" class="cls-11" transform="translate(1343 251)"/>
            </g>
            <g transform="translate(-1163 -71)">
                <circle id="Ellipse_1-49" cx="5" cy="5" r="5" class="cls-11" transform="translate(1343 251)"/>
            </g>
        </g>
    </g>
</svg>
