<svg xmlns="http://www.w3.org/2000/svg" viewBox="0 0 41.23 41.23"><defs><style>.cls-1{isolation:isolate;}.cls-2{fill:#bb3e8c;}.cls-3{fill:#2c0b2d;}</style></defs><g id="Layer_2" data-name="Layer 2"><g id="Layer_1-2" data-name="Layer 1"><g id="M" class="cls-1"><g class="cls-1"><path class="cls-2" d="M11.78,14.49l.15.4c.05-.13.1-.27.16-.4s.12-.25.18-.38L15.91,7.5a.46.46,0,0,1,.21-.21,1,1,0,0,1,.3,0h1.07V18H16.21V10.1c0-.1,0-.22,0-.33s0-.25,0-.37l-3.68,6.72a.58.58,0,0,1-.52.33h-.21a.58.58,0,0,1-.53-.33L7.54,9.37c0,.14,0,.26,0,.39s0,.24,0,.34V18H6.3V7.25H7.38a1.08,1.08,0,0,1,.3,0,.45.45,0,0,1,.2.21l3.71,6.61C11.66,14.24,11.72,14.36,11.78,14.49Z"/></g></g><g id="M-2" class="cls-1"><g class="cls-1"><path class="cls-2" d="M35.65,25.23V36H34.26V28.34c0-.12,0-.24,0-.37l0-.4-3.59,6.58a.62.62,0,0,1-.58.37h-.22a.61.61,0,0,1-.57-.37l-3.66-6.6a7.45,7.45,0,0,1,.05.79V36h-1.4V25.23h1.18a1,1,0,0,1,.33,0,.45.45,0,0,1,.22.23L29.66,32a3,3,0,0,1,.19.41c.07.15.12.29.18.44a6.55,6.55,0,0,1,.37-.86l3.53-6.44a.4.4,0,0,1,.21-.23,1,1,0,0,1,.33,0Z"/></g></g><path id="Path_450-5" data-name="Path 450-5" class="cls-3" d="M16.75,22.62a.61.61,0,0,0-.6-.61H2.55a1.33,1.33,0,0,1-1.34-1.33V2.55A1.34,1.34,0,0,1,2.55,1.21H20.68A1.33,1.33,0,0,1,22,2.55v13.6a.62.62,0,0,0,.61.6.6.6,0,0,0,.61-.6V2.55A2.55,2.55,0,0,0,20.68,0H2.55A2.55,2.55,0,0,0,0,2.55V20.68a2.56,2.56,0,0,0,2.55,2.55h13.6A.62.62,0,0,0,16.75,22.62Z"/><path id="Path_451-5" data-name="Path 451-5" class="cls-3" d="M38.68,18H33.5a.61.61,0,1,0,0,1.21h5.18A1.33,1.33,0,0,1,40,20.55V38.68A1.34,1.34,0,0,1,38.68,40H20.55a1.35,1.35,0,0,1-1.34-1.34V20.55a1.34,1.34,0,0,1,1.34-1.34H38.91a.61.61,0,0,0,0-1.21H20.55A2.55,2.55,0,0,0,18,20.55V38.68a2.56,2.56,0,0,0,2.55,2.55H38.68a2.57,2.57,0,0,0,2.55-2.55V20.55A2.56,2.56,0,0,0,38.68,18Z"/></g></g></svg>