<svg xmlns="http://www.w3.org/2000/svg" viewBox="0 0 41.23 41.23"><defs><style>.cls-1{isolation:isolate;}.cls-2{fill:#bb3e8c;}.cls-3{fill:#2c0b2d;}</style></defs><g id="Layer_2" data-name="Layer 2"><g id="Layer_1-2" data-name="Layer 1"><g id="M-2" class="cls-1"><g class="cls-1"><path class="cls-2" d="M11.78,13.49l.15.4c.05-.14.1-.27.16-.4s.12-.25.19-.38L15.91,6.5a.46.46,0,0,1,.21-.21.8.8,0,0,1,.3,0h1.07V17H16.21V9.1c0-.1,0-.22,0-.34s0-.24,0-.36l-3.68,6.72a.58.58,0,0,1-.52.34h-.21a.59.59,0,0,1-.53-.34L7.54,8.38l0,.38c0,.12,0,.24,0,.34V17H6.31V6.25H7.38a.8.8,0,0,1,.3,0,.41.41,0,0,1,.2.21l3.71,6.62C11.66,13.24,11.72,13.36,11.78,13.49Z"/></g></g><g id="Y" class="cls-1"><g class="cls-1"><path class="cls-2" d="M30.52,31.74V36H28.93V31.74L25,25.23h1.41a.48.48,0,0,1,.33.1.71.71,0,0,1,.21.27l2.34,4c.1.18.18.36.26.52s.15.33.21.49c.05-.16.12-.32.19-.49s.16-.34.25-.52l2.33-4a.82.82,0,0,1,.21-.25.48.48,0,0,1,.33-.12h1.41Z"/></g></g><path id="Path_450-3" data-name="Path 450-3" class="cls-3" d="M16.75,22.62a.61.61,0,0,0-.6-.61H2.55a1.33,1.33,0,0,1-1.34-1.33V2.55A1.34,1.34,0,0,1,2.55,1.21H20.68A1.33,1.33,0,0,1,22,2.55v13.6a.62.62,0,0,0,.61.6.6.6,0,0,0,.61-.6V2.55A2.55,2.55,0,0,0,20.68,0H2.55A2.55,2.55,0,0,0,0,2.55V20.68a2.56,2.56,0,0,0,2.55,2.55h13.6A.62.62,0,0,0,16.75,22.62Z"/><path id="Path_451-3" data-name="Path 451-3" class="cls-3" d="M38.68,18H33.5a.61.61,0,1,0,0,1.21h5.18A1.34,1.34,0,0,1,40,20.55V38.68A1.34,1.34,0,0,1,38.68,40H20.55a1.35,1.35,0,0,1-1.34-1.34V20.55a1.34,1.34,0,0,1,1.34-1.34H38.91a.61.61,0,0,0,0-1.21H20.55A2.55,2.55,0,0,0,18,20.55V38.68a2.56,2.56,0,0,0,2.55,2.55H38.68a2.57,2.57,0,0,0,2.55-2.55V20.55A2.56,2.56,0,0,0,38.68,18Z"/></g></g></svg>