<svg xmlns="http://www.w3.org/2000/svg" width="41.356" height="41.356" viewBox="0 0 41.356 41.356">
    <defs>
        <style>
            .cls-2{fill:#2c0b2d}
        </style>
    </defs>
    <g id="Group_738" transform="translate(-411.343 -279.343)">
        <text id="आ" fill="#bb3e8c" font-family="DevanagariMT-Bold, Devanagari MT" font-size="11px" font-weight="700" transform="translate(420.617 291.931)">
            <tspan x="-5.143" y="0">आ</tspan>
        </text>
        <g id="translation" transform="translate(411.343 279.343)">
            <path id="Path_450" d="M16.751 22.621a.606.606 0 0 0-.606-.606H2.548a1.338 1.338 0 0 1-1.337-1.337V2.548a1.338 1.338 0 0 1 1.337-1.336h18.13a1.338 1.338 0 0 1 1.337 1.337v13.6a.606.606 0 0 0 1.212 0V2.548A2.551 2.551 0 0 0 20.678 0H2.548A2.551 2.551 0 0 0 0 2.548v18.13a2.551 2.551 0 0 0 2.548 2.548h13.6a.606.606 0 0 0 .603-.605z" class="cls-2"/>
            <path id="Path_451" d="M245.13 224.452h-5.18a.606.606 0 1 0 0 1.212h5.18a1.338 1.338 0 0 1 1.337 1.336v18.13a1.338 1.338 0 0 1-1.337 1.337H227a1.338 1.338 0 0 1-1.337-1.337V227a1.338 1.338 0 0 1 1.337-1.336h10.36a.606.606 0 1 0 0-1.212H227a2.551 2.551 0 0 0-2.548 2.548v18.13a2.551 2.551 0 0 0 2.548 2.548h18.13a2.551 2.551 0 0 0 2.548-2.548V227a2.551 2.551 0 0 0-2.548-2.548z" class="cls-2" transform="translate(-206.322 -206.322)"/>
            <path id="Path_453" fill="#bb3e8c" d="M309.794 289.119a.867.867 0 0 0-.8-.539.867.867 0 0 0-.8.541l-.005.014-4.389 11.49a.606.606 0 1 0 1.132.431l.941-2.472h6.2l.932 2.47a.606.606 0 0 0 1.134-.428l-4.339-11.491zm-3.457 8.254l2.65-6.959 2.626 6.959z" transform="translate(-279.227 -265.27)"/>
            <path id="Path_454" d="M97.564 313.155l-2.59-1.942a.606.606 0 1 0-.727.969l1.136.852h-2.068a3.931 3.931 0 0 1-3.927-3.927v-3.885a.606.606 0 0 0-1.212 0v3.885a5.144 5.144 0 0 0 5.138 5.138h2.068l-1.136.852a.606.606 0 1 0 .727.969l2.59-1.942a.606.606 0 0 0 0-.969z" class="cls-2" transform="translate(-81.055 -280.012)"/>
            <path id="Path_455" d="M304.855 67.162l2.59 1.942a.606.606 0 1 0 .727-.969l-1.136-.852h2.064a3.931 3.931 0 0 1 3.927 3.927v3.885a.606.606 0 1 0 1.212 0v-3.886a5.144 5.144 0 0 0-5.138-5.138h-2.068l1.136-.852a.606.606 0 0 0-.727-.969l-2.59 1.942a.606.606 0 0 0 0 .969z" class="cls-2" transform="translate(-280.008 -58.949)"/>
        </g>
    </g>
</svg>
