<svg xmlns="http://www.w3.org/2000/svg" width="61.741" height="42.869" viewBox="0 0 61.741 42.869">
    <g>
        <g>
            <g>
                <path d="M59.386 201.072c-4.79-1.428-8.481 2.021-8.635 2.2a1.1 1.1 0 1 0 1.483 1.56 7.229 7.229 0 0 1 6.493-1.659 1.1 1.1 0 0 0 1.385-.7l.01-.032a1.1 1.1 0 0 0-.736-1.369z" transform="translate(0 -68.714) translate(6.898 86.843) translate(-50.234 -200.727)"/>
            </g>
        </g>
        <g>
            <g>
                <path d="M159.209 176.079v-.022c-4.79-1.417-8.481 2.021-8.635 2.2a1.1 1.1 0 0 0 1.516 1.593 7.152 7.152 0 0 1 6.493-1.659 1.1 1.1 0 1 0 .626-2.109z" transform="translate(0 -68.714) translate(20.631 83.408) translate(-150.232 -175.715)"/>
            </g>
        </g>
        <g>
            <g>
                <path fill="#bb3e8c" d="M114.319 262.746a1.122 1.122 0 0 0-1.34-.758l-13.535 3.428a1.1 1.1 0 0 0-.824 1.317c.758 2.988 3.669 5 7.229 5a9.41 9.41 0 0 0 2.318-.3c4.333-1.096 7.086-4.985 6.152-8.687zm-6.691 6.592a7.237 7.237 0 0 1-1.769.22 5.394 5.394 0 0 1-4.669-2.318l11.107-2.812c-.097 2.152-1.977 4.228-4.668 4.909z" transform="translate(0 -68.714) translate(13.539 95.251) translate(-98.591 -261.953)"/>
            </g>
        </g>
        <g>
            <g>
                <path d="M60.947 76.83h-.007l-29.268-8.076a1.1 1.1 0 0 0-1.351.768l-.483 1.725L.824 78.6a1.1 1.1 0 0 0-.791 1.329l4.9 19.368a16.248 16.248 0 0 0 27.158 7.613 16.271 16.271 0 0 0 24.29-9.47L61.7 78.191a1.1 1.1 0 0 0-.753-1.361zm-36.778 32.11a14.062 14.062 0 0 1-17.1-10.159l-.009-.036-4.632-18.291 27.344-6.91 4.636 18.3a14.1 14.1 0 0 1-10.239 17.097zm30.1-12.085a14.084 14.084 0 0 1-20.7 8.393 16.392 16.392 0 0 0 2.494-4.57l9.086 2.516a1.365 1.365 0 0 0 1.4-.8c1.011-3.669-1.659-7.624-5.965-8.789a9.206 9.206 0 0 0-3.7-.253 16.27 16.27 0 0 0-.363-2.054l-1.846-7.2a8.789 8.789 0 0 0 3.57.791 8.239 8.239 0 0 0 2.2-.3 1.113 1.113 0 1 0-.6-2.142 6.878 6.878 0 0 1-5.922-1.362l-2.164-8.525.4-1.439 27.147 7.5zm-17.578 1.7a16.139 16.139 0 0 0 .33-3 6.975 6.975 0 0 1 3 .165c2.681.736 4.515 2.845 4.57 5.01z" transform="translate(0 -68.714) translate(0 68.714) translate(0 -68.714)"/>
            </g>
        </g>
        <g>
            <g>
                <path d="M337.559 183.488a1.1 1.1 0 0 0-1.351-.769 7.152 7.152 0 0 1-6.46-1.8 1.1 1.1 0 1 0-1.549 1.56 9.887 9.887 0 0 0 6.394 2.659 8.219 8.219 0 0 0 2.2-.3 1.1 1.1 0 0 0 .766-1.35z" transform="translate(0 -68.714) translate(45.025 84.079) translate(-327.874 -180.598)"/>
            </g>
        </g>
    </g>
</svg>
