<svg xmlns="http://www.w3.org/2000/svg" id="age-limit" width="42.674" height="42.674" viewBox="0 0 42.674 42.674">
    <defs>
        <style>
            .cls-1{fill:#2c0b2d}
        </style>
    </defs>
    <path id="Path_1172" d="M21.337 0a21.337 21.337 0 1 0 21.337 21.337A21.325 21.325 0 0 0 21.337 0zm0 41.173C10.95 41.173 1.5 31.723 1.5 21.337S10.95 1.5 21.337 1.5s19.836 9.45 19.836 19.836-9.45 19.837-19.836 19.837z" class="cls-1"/>
    <path id="Path_1173" d="M193.666 178.275a3.643 3.643 0 1 0-5.806 0 4.53 4.53 0 1 0 5.806 0zm-4.045-2.2a1.142 1.142 0 1 1 1.142 1.142 1.143 1.143 0 0 1-1.142-1.139zm1.142 7.705a2.031 2.031 0 1 1 2.031-2.031 2.034 2.034 0 0 1-2.031 2.031z" class="cls-1" transform="translate(-170.709 -158.063)"/>
    <path id="Path_1174" d="M100.626 173.417H98.2a1.25 1.25 0 1 0 0 2.5h1.175v10.1a1.25 1.25 0 1 0 2.5 0v-11.35a1.25 1.25 0 0 0-1.249-1.25z" class="cls-1" transform="translate(-88.869 -158.963)"/>
    <path id="Path_1175" fill="#bb3e8c" d="M322.135 175.349h-1.667v-1.665a1.25 1.25 0 1 0-2.5 0v1.665H316.3a1.25 1.25 0 0 0 0 2.5h1.667v1.671a1.25 1.25 0 1 0 2.5 0v-1.67h1.667a1.25 1.25 0 1 0 0-2.5z" transform="translate(-288.791 -158.062)"/>
</svg>
