<svg xmlns="http://www.w3.org/2000/svg" width="44.942" height="44.942" viewBox="0 0 44.942 44.942">
    <g>
        <path fill="#bb3e8c" d="M237.028 322.875a.658.658 0 0 0-.926.091l-1.859 2.266-.7-.609a.658.658 0 1 0-.863.995l1.214 1.053a.658.658 0 0 0 .431.161h.056a.658.658 0 0 0 .453-.238l2.289-2.789a.658.658 0 0 0-.091-.927z" transform="translate(-212.046 -294.397)"/>
        <path fill="#2c0b2d" d="M40.647 38.116l-.338-.093c-.148-.041-.265-.25-.354-.457a6.632 6.632 0 0 0 2.958-4.947v-1.6a6.746 6.746 0 0 0-1.785-4.84 5.649 5.649 0 0 0-3.975-1.7h-.022a5.65 5.65 0 0 0-3.975 1.7 6.746 6.746 0 0 0-1.785 4.84v1.6a6.63 6.63 0 0 0 2.959 4.947c-.088.207-.206.417-.355.458l-.339.093a13.081 13.081 0 0 0-1.809.594l-4.588-4.745a5.579 5.579 0 0 0 1.172-3.43 5.519 5.519 0 0 0-4.833-5.511v-4.564h6.2a1.076 1.076 0 0 0 1.07-1.079V18c0-3.2-2.486-3.873-4.3-4.368l-.331-.091c-.149-.041-.266-.251-.355-.459a6.625 6.625 0 0 0 2.96-4.946v-1.6A6.744 6.744 0 0 0 27.039 1.7 5.653 5.653 0 0 0 23.062 0h-.022a5.65 5.65 0 0 0-3.975 1.7 6.746 6.746 0 0 0-1.785 4.84v1.6a6.626 6.626 0 0 0 2.96 4.946c-.088.208-.206.417-.355.459l-.331.091c-1.815.494-4.3 1.172-4.3 4.368v1.378a1.076 1.076 0 0 0 1.07 1.079h5.939v4.576a5.521 5.521 0 0 0-4.745 5.5 5.579 5.579 0 0 0 1.174 3.432l-4.462 4.656a8.028 8.028 0 0 0-2.924-1.249l-.34-.094c-.148-.041-.266-.25-.354-.458a6.63 6.63 0 0 0 2.959-4.947v-1.6a6.746 6.746 0 0 0-1.785-4.84 5.649 5.649 0 0 0-3.975-1.7h-.023a5.65 5.65 0 0 0-3.975 1.7 6.746 6.746 0 0 0-1.785 4.84v1.6a6.632 6.632 0 0 0 2.958 4.947c-.089.207-.206.417-.354.458l-.337.093C2.482 37.87 0 38.548 0 41.743v1.378A1.076 1.076 0 0 0 1.07 44.2h5.223a.658.658 0 0 0 0-1.317H1.317v-1.14c0-1.764.938-2.37 2.526-2.867l2.912 1.745a1.907 1.907 0 0 0 1.044.367 1.9 1.9 0 0 0 1.042-.368l2.914-1.745c1.589.5 2.527 1.1 2.527 2.867v1.141H9.157a.658.658 0 0 0 0 1.317h5.371a1.076 1.076 0 0 0 1.07-1.079v-1.378a4.192 4.192 0 0 0-.5-2.119l4.519-4.719a5.355 5.355 0 0 0 6.7 0l4.351 4.5a3.719 3.719 0 0 0-1.321 3.081v1.378a1.076 1.076 0 0 0 1.07 1.079h5.343a.658.658 0 1 0 0-1.317h-5.1v-1.141c0-1.764.938-2.37 2.527-2.867l2.913 1.745a1.665 1.665 0 0 0 2.087 0l2.913-1.745c1.589.5 2.526 1.1 2.526 2.867v1.141h-4.887a.658.658 0 0 0 0 1.317h5.133a1.076 1.076 0 0 0 1.07-1.079v-1.379c0-3.2-2.482-3.873-4.295-4.368zM7.8 25.054a4.572 4.572 0 0 1 4.41 4.4 2.179 2.179 0 0 1-.678-.536 1.878 1.878 0 0 0-1.412-.734 2.212 2.212 0 0 0-.564.078l-.7.186a4.741 4.741 0 0 1-1.061.228 4.746 4.746 0 0 1-1.061-.228c-.2-.054-.426-.116-.7-.186a1.8 1.8 0 0 0-1.978.656 2.176 2.176 0 0 1-.676.535 4.572 4.572 0 0 1 4.41-4.4zm-4.456 6.823v-1.031a3.151 3.151 0 0 0 1.671-1.018c.324-.337.366-.381.695-.294.265.069.49.13.684.183a5.368 5.368 0 0 0 1.406.273 5.368 5.368 0 0 0 1.406-.274c.194-.053.419-.114.685-.183.327-.086.368-.043.693.294a3.154 3.154 0 0 0 1.672 1.018v1.032a5.465 5.465 0 0 1-3.409 4.408 2.61 2.61 0 0 1-2.095 0 5.465 5.465 0 0 1-3.408-4.408zM8.153 39.5l-.025.015c-.317.21-.342.21-.662 0l-.023-.015-1.972-1.183a2.175 2.175 0 0 0 .672-.857c.047.019.094.039.142.057a4.227 4.227 0 0 0 1.514.3 4.212 4.212 0 0 0 1.513-.305c.048-.018.1-.038.143-.058a2.169 2.169 0 0 0 .672.857zm14.9-38.182a4.573 4.573 0 0 1 4.412 4.4 2.174 2.174 0 0 1-.679-.537 1.874 1.874 0 0 0-1.412-.735 2.211 2.211 0 0 0-.564.079c-.263.069-.488.131-.682.184a4.782 4.782 0 0 1-1.076.232 4.775 4.775 0 0 1-1.071-.232c-.195-.053-.42-.115-.684-.185a1.8 1.8 0 0 0-1.977.657 2.18 2.18 0 0 1-.678.537 4.572 4.572 0 0 1 4.41-4.4zM18.6 8.14V7.109a3.153 3.153 0 0 0 1.672-1.02c.324-.338.366-.381.692-.3l.672.181a5.4 5.4 0 0 0 1.418.278 5.405 5.405 0 0 0 1.423-.279l.67-.181c.326-.086.367-.042.691.295a3.151 3.151 0 0 0 1.674 1.02V8.14a5.543 5.543 0 0 1-3.412 4.406 2.607 2.607 0 0 1-2.1 0 5.543 5.543 0 0 1-3.4-4.406zm6.783 6.438l-1.972 1.181-.025.016c-.318.21-.343.21-.661 0l-.025-.016-1.973-1.18a2.17 2.17 0 0 0 .673-.859l.141.057a3.9 3.9 0 0 0 3.027 0c.048-.018.095-.038.142-.057a2.17 2.17 0 0 0 .672.858zm-8.811 4.566V18c0-1.763.938-2.369 2.526-2.865l2.914 1.743a1.663 1.663 0 0 0 2.087 0l2.913-1.744c1.589.5 2.527 1.1 2.527 2.866v1.141zm6.395 15.621a4.231 4.231 0 1 1 4.131-4.228 4.185 4.185 0 0 1-4.135 4.228zM37.142 25.8a4.572 4.572 0 0 1 4.41 4.4 2.176 2.176 0 0 1-.676-.535A1.8 1.8 0 0 0 38.9 29l-.7.186a4.741 4.741 0 0 1-1.061.228 4.744 4.744 0 0 1-1.061-.228c-.2-.054-.426-.116-.695-.186a1.8 1.8 0 0 0-1.977.655 2.179 2.179 0 0 1-.678.536 4.572 4.572 0 0 1 4.41-4.4zm-4.455 6.823v-1.036a3.154 3.154 0 0 0 1.672-1.018c.324-.337.366-.38.694-.294.265.069.49.13.684.183a5.37 5.37 0 0 0 1.406.274 5.368 5.368 0 0 0 1.406-.274c.194-.053.419-.114.684-.183.328-.086.37-.043.694.295a3.15 3.15 0 0 0 1.673 1.017v1.032a5.465 5.465 0 0 1-3.406 4.408 2.611 2.611 0 0 1-2.1 0 5.464 5.464 0 0 1-3.408-4.408zM37.5 40.24l-.023.015c-.32.21-.345.21-.662 0l-.025-.015-1.974-1.182a2.17 2.17 0 0 0 .672-.857c.047.019.095.039.143.057a3.909 3.909 0 0 0 3.028 0l.141-.057a2.176 2.176 0 0 0 .672.857z"/>
    </g>
</svg>
