<svg xmlns="http://www.w3.org/2000/svg" viewBox="0 0 41.23 41.36"><defs><style>.cls-1{isolation:isolate;}.cls-2{fill:#bb3e8c;}.cls-3{fill:#2c0b2d;}</style></defs><g id="Layer_2" data-name="Layer 2"><g id="Layer_1-2" data-name="Layer 1"><g id="M" class="cls-1"><g class="cls-1"><path class="cls-2" d="M11.78,12.73l.15.4c.05-.14.1-.27.16-.4s.12-.25.18-.38l3.64-6.61a.42.42,0,0,1,.21-.21.78.78,0,0,1,.29,0h1.08V16.24H16.21V8.34c0-.11,0-.22,0-.34s0-.24,0-.36l-3.68,6.72a.57.57,0,0,1-.52.33h-.22a.57.57,0,0,1-.52-.33L7.54,7.61l0,.39c0,.12,0,.23,0,.34v7.9H6.31V5.49H7.38a.8.8,0,0,1,.3,0c.07,0,.13.09.2.21l3.71,6.61C11.66,12.47,11.72,12.6,11.78,12.73Z"/></g></g><g id="N" class="cls-1"><g class="cls-1"><path class="cls-2" d="M34.15,25.47V36.24h-.81a.57.57,0,0,1-.31-.07.85.85,0,0,1-.26-.22l-6.08-7.86,0,.39c0,.13,0,.25,0,.37v7.39h-1.4V25.47h.82a.69.69,0,0,1,.32.05.65.65,0,0,1,.23.22l6.1,7.87c0-.14,0-.28,0-.42s0-.27,0-.39V25.47Z"/></g></g><path id="Path_450-4" data-name="Path 450-4" class="cls-3" d="M16.75,22.62a.61.61,0,0,0-.6-.61H2.55a1.33,1.33,0,0,1-1.34-1.33V2.55A1.34,1.34,0,0,1,2.55,1.21H20.68A1.33,1.33,0,0,1,22,2.55v13.6a.62.62,0,0,0,.61.6.6.6,0,0,0,.61-.6V2.55A2.55,2.55,0,0,0,20.68,0H2.55A2.55,2.55,0,0,0,0,2.55V20.68a2.56,2.56,0,0,0,2.55,2.55h13.6A.62.62,0,0,0,16.75,22.62Z"/><path id="Path_451-4" data-name="Path 451-4" class="cls-3" d="M38.68,18.13H33.5a.61.61,0,1,0,0,1.21h5.18A1.33,1.33,0,0,1,40,20.68V38.81a1.34,1.34,0,0,1-1.33,1.34H20.55a1.35,1.35,0,0,1-1.34-1.34V20.68a1.34,1.34,0,0,1,1.34-1.34H38.91a.61.61,0,0,0,0-1.21H20.55A2.55,2.55,0,0,0,18,20.68V38.81a2.56,2.56,0,0,0,2.55,2.55H38.68a2.57,2.57,0,0,0,2.55-2.55V20.68A2.56,2.56,0,0,0,38.68,18.13Z"/></g></g></svg>