<svg xmlns="http://www.w3.org/2000/svg" viewBox="0 0 41.45 41.46"><defs><style>.cls-1{isolation:isolate;}.cls-2{fill:#bb3e8c;}.cls-3{fill:#2c0b2d;}</style></defs><g id="Layer_2" data-name="Layer 2"><g id="Layer_1-2" data-name="Layer 1"><g id="Group_3648" data-name="Group 3648"><g id="M" class="cls-1"><g class="cls-1"><path class="cls-2" d="M11.78,12.73l.15.4c.05-.14.1-.27.16-.4a3.37,3.37,0,0,1,.19-.38l3.63-6.61a.42.42,0,0,1,.21-.21.8.8,0,0,1,.3,0h1.07V16.24H16.21V8.34c0-.11,0-.22,0-.34s0-.24,0-.36l-3.68,6.72a.57.57,0,0,1-.52.33h-.21a.58.58,0,0,1-.53-.33L7.54,7.61l0,.39c0,.12,0,.23,0,.34v7.9H6.31V5.49H7.38a.8.8,0,0,1,.3,0,.37.37,0,0,1,.2.21l3.71,6.61C11.66,12.47,11.72,12.6,11.78,12.73Z"/></g></g><g id="I" class="cls-1"><g class="cls-1"><path class="cls-2" d="M30.16,36.24H28.55V25.47h1.61Z"/></g></g></g><path id="Path_450" data-name="Path 450" class="cls-3" d="M16.75,22.62a.61.61,0,0,0-.6-.61H2.55a1.33,1.33,0,0,1-1.34-1.33V2.55A1.34,1.34,0,0,1,2.55,1.21H20.68A1.33,1.33,0,0,1,22,2.55v13.6a.62.62,0,0,0,.61.6.6.6,0,0,0,.61-.6V2.55A2.55,2.55,0,0,0,20.68,0H2.55A2.55,2.55,0,0,0,0,2.55V20.68a2.56,2.56,0,0,0,2.55,2.55h13.6A.62.62,0,0,0,16.75,22.62Z"/><path id="Path_451" data-name="Path 451" class="cls-3" d="M38.9,18.24H33.72a.61.61,0,0,0,0,1.21H38.9a1.34,1.34,0,0,1,1.34,1.34V38.92a1.34,1.34,0,0,1-1.34,1.33H20.77a1.34,1.34,0,0,1-1.33-1.33V20.79a1.34,1.34,0,0,1,1.33-1.34H39.13a.61.61,0,1,0,0-1.21H20.77a2.55,2.55,0,0,0-2.54,2.55V38.92a2.54,2.54,0,0,0,2.54,2.54H38.9a2.55,2.55,0,0,0,2.55-2.54V20.79A2.55,2.55,0,0,0,38.9,18.24Z"/></g></g></svg>