<svg xmlns="http://www.w3.org/2000/svg" width="50" height="45" viewBox="0 0 50 45">
    <defs>
        <style>
            .cls-1{fill:#2c0b2d}.cls-2{fill:#bb3e8c}
        </style>
    </defs>
    <g id="Group_4746" transform="translate(-387 -1351)">
        <g id="Group_4747" transform="translate(-7)">
            <g id="multimedia" transform="translate(394 1351)">
                <g id="Group_743">
                    <g id="Group_742">
                        <path id="Path_456" d="M41.667 85H0V40h50v45zm-35-43.2h-5v5.4h5zm0 7.2h-5v5.4h5zm0 7.2h-5v5.4h5zm0 7.2h-5v5.4h5zm0 7.2h-5V76h5zm0 7.2h-5v5.4h5zm35-36H8.333v41.4h33.334zm6.667 0h-5v5.4h5zm0 7.2h-5v5.4h5zm0 7.2h-5v5.4h5zm0 7.2h-5v5.4h5zm0 7.2h-5V76h5zm0 7.2h-5v5.4h5z" class="cls-1" transform="translate(0 -40)"/>
                    </g>
                </g>
            </g>
            <g id="video-production" transform="translate(409.001 1363.805)">
                <path id="Path_1778" d="M90.744 59.8a1.358 1.358 0 1 0-1.358 1.358 1.36 1.36 0 0 0 1.358-1.358zm-2.155 0a.8.8 0 1 1 .8.8.8.8 0 0 1-.8-.8zm0 0" class="cls-2" transform="translate(-84.732 -55.772)"/>
                <path id="Path_1779" d="M262.831 61.158a1.358 1.358 0 1 0-1.358-1.358 1.36 1.36 0 0 0 1.358 1.358zm0-2.155a.8.8 0 1 1-.8.8.8.8 0 0 1 .8-.803zm0 0" class="cls-2" transform="translate(-251.685 -55.772)"/>
                <path id="Path_1780" d="M46.977 332.758a.281.281 0 0 0-.281.281v3.039a.147.147 0 0 1-.147.147H34.713a.147.147 0 0 1-.147-.147v-3.039a.281.281 0 1 0-.562 0v3.039a.709.709 0 0 0 .709.709h11.836a.709.709 0 0 0 .709-.709v-3.039a.281.281 0 0 0-.281-.281zm0 0" class="cls-1" transform="translate(-32.731 -319.82)"/>
                <path id="Path_1781" d="M46.549 209.766H34.713a.709.709 0 0 0-.709.709v3.039a.281.281 0 1 0 .562 0v-3.039a.147.147 0 0 1 .147-.147h11.836a.147.147 0 0 1 .147.147v3.039a.281.281 0 1 0 .562 0v-3.039a.709.709 0 0 0-.709-.709zm0 0" class="cls-1" transform="translate(-32.731 -201.432)"/>
                <path id="Path_1782" d="M129.248 240.708a3.309 3.309 0 1 0-3.309 3.309 3.313 3.313 0 0 0 3.309-3.309zm-6.057 0a2.748 2.748 0 1 1 2.748 2.748 2.751 2.751 0 0 1-2.749-2.748zm0 0" class="cls-2" transform="translate(-118.038 -228.03)"/>
                <path id="Path_1783" d="M183.115 279.6a.441.441 0 0 0-.2-.368l-2.036-1.355a.442.442 0 0 0-.686.368v2.709a.441.441 0 0 0 .686.368l2.036-1.354a.441.441 0 0 0 .2-.368zm-2.358 1.131v-2.262l1.7 1.131zm0 0" class="cls-2" transform="translate(-173.45 -266.923)"/>
                <path id="Path_1784" d="M18.733 7.825a.777.777 0 0 0-.819.076L15.8 9.5V7.838a.922.922 0 0 0-.921-.921h-1.712A3.527 3.527 0 1 0 7.9 2.648a3.527 3.527 0 1 0-5.267 4.269H.921A.922.922 0 0 0 0 7.838v9.624a.922.922 0 0 0 .921.921h13.957a.922.922 0 0 0 .921-.921V15.8l2.115 1.6a.781.781 0 0 0 1.251-.623V8.524a.777.777 0 0 0-.432-.699zm-7.587-6.763a2.966 2.966 0 0 1 .666 5.855H10.48a2.966 2.966 0 0 1 .666-5.855zM7.9 5.405a3.513 3.513 0 0 0 1.226 1.512H6.674A3.512 3.512 0 0 0 7.9 5.405zM2.353 5.9a2.965 2.965 0 1 1 2.966 1.017H3.987A2.977 2.977 0 0 1 2.353 5.9zm12.885 11.562a.36.36 0 0 1-.36.359H.921a.36.36 0 0 1-.36-.359V7.838a.36.36 0 0 1 .36-.36h13.957a.36.36 0 0 1 .359.36v9.624zm3.367-.686a.22.22 0 0 1-.352.175L15.8 15.1v-4.9l2.454-1.852a.22.22 0 0 1 .352.175zm0 0" class="cls-1"/>
            </g>
        </g>
    </g>
</svg>
