<svg xmlns="http://www.w3.org/2000/svg" width="50" height="45" viewBox="0 0 50 45">
    <g>
        <g>
            <g>
                <g>
                    <path fill="#2c0b2d" d="M41.667 85H0V40h50v45zm-35-43.2h-5v5.4h5zm0 7.2h-5v5.4h5zm0 7.2h-5v5.4h5zm0 7.2h-5v5.4h5zm0 7.2h-5V76h5zm0 7.2h-5v5.4h5zm35-36H8.333v41.4h33.334zm6.667 0h-5v5.4h5zm0 7.2h-5v5.4h5zm0 7.2h-5v5.4h5zm0 7.2h-5v5.4h5zm0 7.2h-5V76h5zm0 7.2h-5v5.4h5z" transform="translate(-394 -1351) translate(394 1351) translate(0 -40)"/>
                </g>
            </g>
        </g>
        <g>
            <g>
                <g>
                    <path d="M54.061 200.871a3.879 3.879 0 0 0-3.611.919.459.459 0 1 0 .62.652 3.023 3.023 0 0 1 2.715-.694.459.459 0 0 0 .579-.294v-.014a.459.459 0 0 0-.303-.569z" transform="translate(-394 -1351) translate(406.481 1365) translate(2.048 5.908) translate(-50.234 -200.727)"/>
                </g>
            </g>
            <g>
                <g>
                    <path d="M153.986 175.867v-.009a3.892 3.892 0 0 0-3.611.919.46.46 0 0 0 .634.666 2.991 2.991 0 0 1 2.715-.694.46.46 0 1 0 .262-.882z" transform="translate(-394 -1351) translate(406.481 1365) translate(7.791 4.472) translate(-150.232 -175.715)"/>
                </g>
            </g>
            <g>
                <g>
                    <path fill="#bb3e8c" d="M105.168 262.285a.469.469 0 0 0-.56-.317l-5.66 1.433a.459.459 0 0 0-.345.551 2.97 2.97 0 0 0 3.023 2.09 3.937 3.937 0 0 0 .969-.124 3.171 3.171 0 0 0 2.573-3.633zm-2.8 2.756a3.028 3.028 0 0 1-.74.092 2.256 2.256 0 0 1-1.952-.969l4.645-1.176a2.427 2.427 0 0 1-1.951 2.053z" transform="translate(-394 -1351) translate(406.481 1365) translate(4.825 9.424) translate(-98.591 -261.953)"/>
                </g>
            </g>
            <g>
                <g>
                    <path d="M25.486 72.108L13.244 68.73a.459.459 0 0 0-.565.321l-.2.721L.344 72.847a.459.459 0 0 0-.331.556l2.049 8.1a6.795 6.795 0 0 0 11.356 3.184 6.8 6.8 0 0 0 10.157-3.96l2.225-8.05a.459.459 0 0 0-.314-.569zm-15.38 13.427a5.88 5.88 0 0 1-7.149-4.248v-.015l-1.942-7.649 11.434-2.89 1.939 7.654a5.894 5.894 0 0 1-4.282 7.148zm12.588-5.053a5.889 5.889 0 0 1-8.655 3.51 6.854 6.854 0 0 0 1.043-1.911l3.8 1.052a.571.571 0 0 0 .583-.335 3.156 3.156 0 0 0-2.495-3.675 3.85 3.85 0 0 0-1.548-.106 6.8 6.8 0 0 0-.152-.859l-.77-3.01a3.675 3.675 0 0 0 1.493.331 3.445 3.445 0 0 0 .919-.124.465.465 0 0 0-.253-.9 2.876 2.876 0 0 1-2.476-.57l-.905-3.565.165-.6 11.352 3.138zm-7.35.712a6.749 6.749 0 0 0 .138-1.254 2.917 2.917 0 0 1 1.254.069 2.425 2.425 0 0 1 1.911 2.091z" transform="translate(-394 -1351) translate(406.481 1365) translate(0 -68.714)"/>
                </g>
            </g>
            <g>
                <g>
                    <path d="M331.924 181.807a.46.46 0 0 0-.565-.322 2.991 2.991 0 0 1-2.7-.753.46.46 0 0 0-.648.652 4.135 4.135 0 0 0 2.674 1.112 3.438 3.438 0 0 0 .919-.124.46.46 0 0 0 .32-.565z" transform="translate(-394 -1351) translate(406.481 1365) translate(17.992 4.752) translate(-327.874 -180.598)"/>
                </g>
            </g>
        </g>
    </g>
</svg>
