<svg xmlns="http://www.w3.org/2000/svg" width="43.409" height="49.325" viewBox="0 0 43.409 49.325">
    <g fill-rule="evenodd">
        <path fill="#2c0b2d" d="M42.445 19.911H9.578l31.57-9.145a.964.964 0 0 0 .652-1.194l-1.652-5.7A5.393 5.393 0 0 0 34.995 0a5.338 5.338 0 0 0-1.484.211L3.871 8.8a5.374 5.374 0 0 0-3.658 6.639l1.614 5.572v22.952a5.367 5.367 0 0 0 5.361 5.361h11.576a.963.963 0 0 0 0-1.927H7.188a3.438 3.438 0 0 1-3.435-3.435V30.853h37.729v13.11a3.438 3.438 0 0 1-3.435 3.437H26.471a.963.963 0 0 0 0 1.927h11.576a5.367 5.367 0 0 0 5.361-5.361V20.874a.963.963 0 0 0-.963-.963zm-16.987 9.015l4.093-7.089h5.324l-4.093 7.089zm-7.549 0L22 21.837h5.324l-4.093 7.089zm-7.549 0l4.093-7.089h5.324l-4.093 7.089zm3.582-12.472L7.088 9.872l5.136-1.488a.956.956 0 0 0 .126.149l6.85 6.583-5.131 1.484a.959.959 0 0 0-.127-.145zM26.851 4.332l6.854 6.583L28.57 12.4a.939.939 0 0 0-.126-.149l-6.855-6.58 5.136-1.488a.956.956 0 0 0 .126.149zm-7.251 2.1l6.854 6.583-5.135 1.485a.939.939 0 0 0-.126-.149l-6.854-6.58 5.136-1.488a1.018 1.018 0 0 0 .125.149zm14.447-4.37a3.406 3.406 0 0 1 .948-.135A3.457 3.457 0 0 1 38.3 4.405l1.384 4.777-3.863 1.118a.979.979 0 0 0-.127-.149L28.84 3.57zM2.359 12.293a3.409 3.409 0 0 1 2.048-1.645l.566-.164a.98.98 0 0 0 .126.149l6.854 6.583-8.505 2.464-1.384-4.78a3.41 3.41 0 0 1 .295-2.607zm1.4 9.545h8.475l-4.098 7.088H3.754zm29.253 7.089l4.088-7.09h4.382v7.089zm0 0"/>
        <path fill="#bb3e8c" d="M206.457 350.241a.963.963 0 0 0-.482-.834l-8.464-4.886a.963.963 0 0 0-1.445.834v9.773a.963.963 0 0 0 1.445.834l8.464-4.886a.963.963 0 0 0 .482-.835zm-8.464 3.218v-6.436l5.574 3.218zm0 0" transform="translate(-177.178 -311.214)"/>
    </g>
</svg>
