<svg xmlns="http://www.w3.org/2000/svg" width="50" height="45" viewBox="0 0 50 45">
    <defs>
        <style>
            .cls-1{fill:#2c0b2d}.cls-2{fill:#bb3e8c}
        </style>
    </defs>
    <g id="Group_4748" transform="translate(-387 -1351)">
        <g id="Group_4747" transform="translate(-7)">
            <g id="multimedia" transform="translate(394 1351)">
                <g id="Group_743">
                    <g id="Group_742">
                        <path id="Path_456" d="M41.667 85H0V40h50v45zm-35-43.2h-5v5.4h5zm0 7.2h-5v5.4h5zm0 7.2h-5v5.4h5zm0 7.2h-5v5.4h5zm0 7.2h-5V76h5zm0 7.2h-5v5.4h5zm35-36H8.333v41.4h33.334zm6.667 0h-5v5.4h5zm0 7.2h-5v5.4h5zm0 7.2h-5v5.4h5zm0 7.2h-5v5.4h5zm0 7.2h-5V76h5zm0 7.2h-5v5.4h5z" class="cls-1" transform="translate(0 -40)"/>
                    </g>
                </g>
            </g>
            <g id="time-management" transform="translate(403.25 1358.25)">
                <path id="Path_1789" d="M33.131 19.829h-1.476a.556.556 0 0 0-.13-.13v-2.268a.321.321 0 0 0-.643 0V19.7a.554.554 0 1 0 .772.773h1.476a.321.321 0 0 0 0-.643z" class="cls-1" transform="translate(-21.144 -10.091)"/>
                <path id="Path_1790" d="M75.842 69.33a.321.321 0 0 0-.31-.237h-1.1q-.062-.139-.131-.271l.732-.732a.321.321 0 0 0 .037-.411 5.319 5.319 0 0 0-1.638-1.524.321.321 0 0 0-.391.049l-.771.771q-.089-.037-.179-.069v-1.06a.321.321 0 0 0-.253-.314 5.31 5.31 0 0 0-2.233 0 .321.321 0 0 0-.253.314v1.062q-.09.032-.179.069l-.771-.771a.321.321 0 0 0-.391-.049 5.318 5.318 0 0 0-1.638 1.524.321.321 0 0 0 .037.411l.732.732q-.069.132-.131.271h-1.1a.321.321 0 0 0-.31.237 5.288 5.288 0 0 0-.186 1.391 5.428 5.428 0 0 0 .066.841.321.321 0 0 0 .317.272h1.028a4.137 4.137 0 0 0 .152.436l-.288.288-.018.021-.464.464a.321.321 0 0 0-.049.391 5.347 5.347 0 0 0 1.522 1.636.321.321 0 0 0 .411-.037l.732-.732a3.981 3.981 0 0 0 .53.234V75.6a.321.321 0 0 0 .253.314 5.283 5.283 0 0 0 2.233 0 .321.321 0 0 0 .253-.314v-1.065a3.98 3.98 0 0 0 .53-.234l.732.732a.321.321 0 0 0 .411.037 5.347 5.347 0 0 0 1.522-1.636.321.321 0 0 0-.049-.391l-.464-.464-.018-.021-.288-.288a4.087 4.087 0 0 0 .152-.436h1.028a.321.321 0 0 0 .317-.272 5.427 5.427 0 0 0 .066-.841 5.288 5.288 0 0 0-.185-1.392zm-.48 1.862h-1a.321.321 0 0 0-.314.254 3.424 3.424 0 0 1-.26.757.321.321 0 0 0 .062.366l.425.425.019.021.3.3a4.721 4.721 0 0 1-.99 1.068l-.709-.709a.321.321 0 0 0-.395-.047 3.341 3.341 0 0 1-.826.365.321.321 0 0 0-.233.309v1.03a4.653 4.653 0 0 1-1.454 0V74.3a.321.321 0 0 0-.233-.309 3.336 3.336 0 0 1-.826-.365.321.321 0 0 0-.395.047l-.709.709a4.721 4.721 0 0 1-.99-1.068l.3-.3.018-.021.425-.425a.321.321 0 0 0 .065-.365 3.414 3.414 0 0 1-.26-.757.322.322 0 0 0-.314-.254h-1c-.016-.158-.024-.315-.024-.47a4.665 4.665 0 0 1 .105-.987h1.066a.321.321 0 0 0 .3-.207 3.572 3.572 0 0 1 .289-.594.321.321 0 0 0-.047-.395l-.709-.709a4.69 4.69 0 0 1 1.07-.99l.746.746a.322.322 0 0 0 .367.062 3.21 3.21 0 0 1 .52-.2.321.321 0 0 0 .233-.309v-1.03a4.686 4.686 0 0 1 1.454 0v1.03a.322.322 0 0 0 .233.309 3.208 3.208 0 0 1 .52.2.322.322 0 0 0 .367-.062l.746-.746a4.686 4.686 0 0 1 1.07.99l-.709.709a.321.321 0 0 0-.047.395 3.57 3.57 0 0 1 .29.593.321.321 0 0 0 .3.207h1.072a4.65 4.65 0 0 1 .105.986c0 .155-.008.312-.024.47z" class="cls-1" transform="translate(-49.524 -49.527)"/>
                <path id="Path_1791" d="M83.862 81.51a2.354 2.354 0 1 0 2.353 2.354 2.354 2.354 0 0 0-2.353-2.354zm0 4.065a1.711 1.711 0 1 1 1.711-1.711 1.711 1.711 0 0 1-1.711 1.711z" class="cls-1" transform="translate(-62.667 -62.668)"/>
                <path id="Path_1792" d="M13.813 6.305l-.025-.02a5.3 5.3 0 0 0-7.459 0l-.025.02c-.008.008-.013.016-.02.025a5.3 5.3 0 0 0 0 7.459c.007.008.012.017.02.025s.017.013.025.02a5.3 5.3 0 0 0 7.459 0c.008-.007.017-.012.025-.02s.013-.017.02-.025a5.3 5.3 0 0 0 0-7.459.284.284 0 0 0-.02-.025zm.484 4.075h.416a4.646 4.646 0 0 1-1.138 2.741l-.293-.292a.321.321 0 0 0-.454.454l.292.293a4.646 4.646 0 0 1-2.741 1.138V14.3a.321.321 0 0 0-.643 0v.416A4.645 4.645 0 0 1 7 13.575l.293-.293a.321.321 0 1 0-.454-.454l-.293.293A4.645 4.645 0 0 1 5.4 10.38h.42a.321.321 0 0 0 0-.643H5.4A4.645 4.645 0 0 1 6.543 7l.293.293a.321.321 0 1 0 .454-.454L7 6.542A4.645 4.645 0 0 1 9.739 5.4v.42a.321.321 0 1 0 .643 0V5.4a4.645 4.645 0 0 1 2.741 1.138l-.293.293a.321.321 0 1 0 .454.454L13.576 7a4.645 4.645 0 0 1 1.138 2.741H14.3a.321.321 0 0 0 0 .643z" class="cls-1"/>
                <path id="Path_1793" d="M36.85 73.847c0-.01.006-.021.01-.031a.255.255 0 0 0 .009-.029.321.321 0 0 0 0-.126c0-.01-.006-.019-.009-.029a.3.3 0 0 0-.01-.031.334.334 0 0 0-.018-.034c0-.007-.007-.015-.012-.021a.312.312 0 0 0-.041-.05l-1.14-1.139a.321.321 0 0 0-.454.454l.592.592h-3.214v-3.992a.321.321 0 1 0-.643 0v4.312a.321.321 0 0 0 .321.321h3.537l-.592.591a.321.321 0 0 0 .454.454l1.141-1.139a.313.313 0 0 0 .041-.05c0-.007.008-.014.012-.021a.326.326 0 0 0 .017-.033z" class="cls-2" transform="translate(-22.182 -52.528)"/>
                <path id="Path_1794" d="M69.115 27.051c0 .01-.006.021-.01.031a.29.29 0 0 0-.009.029.321.321 0 0 0 0 .126c0 .01.006.018.009.029a.317.317 0 0 0 .01.031.356.356 0 0 0 .018.033c0 .007.007.015.012.022a.312.312 0 0 0 .041.05l1.139 1.139a.321.321 0 1 0 .454-.454l-.592-.591H73.4v3.991a.321.321 0 1 0 .643 0v-4.313a.321.321 0 0 0-.321-.321h-3.535l.592-.591a.321.321 0 1 0-.454-.454l-1.139 1.139a.313.313 0 0 0-.041.05.209.209 0 0 0-.012.022.324.324 0 0 0-.018.033z" class="cls-2" transform="translate(-52.529 -17.114)"/>
            </g>
        </g>
    </g>
</svg>
