<svg xmlns="http://www.w3.org/2000/svg" width="28" height="28" viewBox="0 0 28 28">
    <defs>
        <style>
            .cls-2{fill:#fff;fill-rule:evenodd}
        </style>
    </defs>
    <g id="Group_4544" transform="translate(-51 -332)">
        <g id="Group_4004" transform="translate(51 332)">
            <g id="Group_1521">
                <g id="Group_1511">
                    <rect id="Rectangle_273" width="28" height="28" fill="#34c28f" rx="5"/>
                </g>
            </g>
        </g>
        <g id="video" transform="translate(59 339)">
            <path id="Path_1095" d="M225.034 492a.26.26 0 1 0 .26.26.261.261 0 0 0-.26-.26zm0 0" class="cls-2" transform="translate(-218.928 -479.204)"/>
            <g id="Group_4545">
                <path id="Path_1093" d="M11.459 5.375H2.586l8.523-2.469a.26.26 0 0 0 .177-.322l-.446-1.54A1.456 1.456 0 0 0 9.447 0a1.441 1.441 0 0 0-.4.057l-8 2.318a1.451 1.451 0 0 0-.989 1.793l.436 1.5v6.2a1.449 1.449 0 0 0 1.447 1.447h3.125a.26.26 0 0 0 0-.52H1.941a.928.928 0 0 1-.927-.927V8.329H11.2v3.539a.928.928 0 0 1-.927.927H7.146a.26.26 0 0 0 0 .52h3.125a1.449 1.449 0 0 0 1.447-1.447V5.635a.26.26 0 0 0-.259-.26zM6.873 7.809L7.978 5.9h1.437L8.31 7.809zm-2.038 0L5.94 5.9h1.437l-1.1 1.914zm-2.038 0L3.9 5.9h1.439L4.234 7.809zm.967-3.367l-1.85-1.777 1.386-.4a.258.258 0 0 0 .034.04l1.85 1.777-1.386.4a.259.259 0 0 0-.034-.04zm3.485-3.273L9.1 2.947l-1.386.4a.253.253 0 0 0-.034-.04L5.828 1.531l1.386-.4a.258.258 0 0 0 .035.038zm-1.957.567l1.85 1.777-1.386.4a.253.253 0 0 0-.034-.04L3.871 2.1l1.386-.4a.275.275 0 0 0 .035.036zm3.9-1.18A.92.92 0 0 1 9.447.52a.933.933 0 0 1 .893.669l.374 1.29-1.043.3a.264.264 0 0 0-.034-.04L7.786.964zM.637 3.319a.92.92 0 0 1 .553-.444l.153-.044a.264.264 0 0 0 .034.04l1.85 1.777-2.3.665-.37-1.29a.921.921 0 0 1 .08-.704zM1.013 5.9H3.3L2.2 7.809H1.013zm7.9 1.914l1.1-1.914H11.2v1.909zm0 0" class="cls-2"/>
                <g id="Group_4236" transform="translate(-33.551 -239.996)">
                    <g id="accept-reject_btn" transform="translate(37.708 248.935)">
                        <path id="Path_366" fill="#fff" stroke="#fff" stroke-width="0.25px" d="M3.643 51.141a.147.147 0 0 0-.208 0l-2.4 2.4-.78-.78a.147.147 0 0 0-.208.208l.884.884a.147.147 0 0 0 .208 0l2.5-2.503a.147.147 0 0 0 .004-.209z" transform="translate(0 -51.096)"/>
                    </g>
                </g>
            </g>
        </g>
    </g>
</svg>
