<svg xmlns="http://www.w3.org/2000/svg" width="45.737" height="49" viewBox="0 0 45.737 49">
    <defs>
        <style>
            .cls-2{fill:#bb3e8c}
        </style>
    </defs>
    <g id="clapperboard" transform="translate(-15.977)">
        <g id="Group_4750" transform="translate(15.977)">
            <g id="Group_4749">
                <path id="Path_1803" fill="#2c0b2d" d="M61.659 19.326a.659.659 0 0 0-.022-.065.078.078 0 0 0-.009-.029.813.813 0 0 0-.145-.2c-.013-.014-.029-.024-.043-.037a.844.844 0 0 0-.187-.126c-.025-.011-.047-.023-.073-.032a.808.808 0 0 0-.283-.057H27.314l-.215-.268L37.637 15.2l.128-.04.189-.059 10.128-3.18 2.149-.675 3.18-1 7.732-2.427a.817.817 0 0 0 .534-1.019L59.72.568c0-.015-.016-.025-.022-.039a.8.8 0 0 0-.11-.2c-.015-.02-.026-.041-.042-.059a.234.234 0 0 0-.017-.023.789.789 0 0 0-.2-.147c-.019-.011-.04-.016-.06-.025a.836.836 0 0 0-.209-.063C59.035.007 59.01 0 58.981 0a.793.793 0 0 0-.287.031L35.872 7.2l-2.112.663L30.133 9 19.79 12.247h-3a.817.817 0 0 0-.817.817V46.55A2.45 2.45 0 0 0 18.427 49h40.837a2.45 2.45 0 0 0 2.45-2.45V19.6c0-.016-.008-.029-.009-.044a.815.815 0 0 0-.046-.23zm-2.4 1.089l-3.675 4.9H51.1l3.675-4.9zm-6.534 0l-3.675 4.9h-4.487l3.675-4.9zm-6.534 0l-3.675 4.9h-4.487l3.675-4.9zm-6.534 0l-3.675 4.9h-4.487l3.675-4.9zm-6.534 0l-3.675 4.9h-.408v-4.084a.817.817 0 0 0-.179-.51l-.237-.3zM58.895 3.4l.98 3.117-2.339.733zm-4.244-.381l2.979-.934-2.041 5.772-2.719.853-1.57.49 2.042-5.776zm-7.017 2.2l3.759-1.181-2.043 5.777-4.285 1.345 2.042-5.777zM45.161 6l-2.041 5.771-4.285 1.345 2.042-5.775zM34.642 9.3l4.285-1.348-2.042 5.778-4.285 1.346zm-1.942.607l-2.042 5.775-2.64.83-1.646.516 2.042-5.776zm-6.241 1.959l-1.431 4.056-2.3-2.883zM17.61 13.88h3.69l3.778 4.72 1.2 1.5.572.717.1.123.454.567v3.8h-9.8zm42.471 32.67a.817.817 0 0 1-.817.817H18.427a.817.817 0 0 1-.817-.817v-19.6h42.47zm0-21.235H57.63l2.45-3.267z" transform="translate(-15.977)"/>
            </g>
        </g>
        <g id="Group_4752" transform="translate(19.244 22.048)">
            <g id="Group_4751">
                <path id="Rectangle_525" d="M0 0H1.633V1.633H0z"/>
            </g>
        </g>
        <g id="Group_4754" transform="translate(19.244 15.514)">
            <g id="Group_4753">
                <path id="Rectangle_526" d="M0 0H1.633V1.633H0z"/>
            </g>
        </g>
        <g id="Group_4756" transform="translate(24.144 22.048)">
            <g id="Group_4755">
                <path id="Rectangle_527" d="M0 0H1.633V1.633H0z"/>
            </g>
        </g>
        <g id="Group_4758" transform="translate(20.877 31.849)">
            <g id="Group_4757">
                <path id="Rectangle_528" d="M0 0H35.936V1.633H0z" class="cls-2"/>
            </g>
        </g>
        <g id="Group_4760" transform="translate(20.877 38.382)">
            <g id="Group_4759">
                <path id="Path_1804" d="M63.977 375.958v1.633h10.618v4.9h1.633v-4.9h11.434v4.9H89.3v-4.9h10.613v-1.633z" class="cls-2" transform="translate(-63.977 -375.958)"/>
            </g>
        </g>
    </g>
</svg>
