<svg xmlns="http://www.w3.org/2000/svg" width="49.984" height="47.836">
    <path data-name="Path 1711" d="M48.519 22.715h-2.44v-4.393a1.464 1.464 0 0 0-1.464-1.464h-22.57L20.426 12a1.464 1.464 0 0 0-1.389-1H1.464A1.464 1.464 0 0 0 0 12.464v41a5.375 5.375 0 0 0 5.369 5.369h39.245a5.375 5.375 0 0 0 5.369-5.369V24.179a1.464 1.464 0 0 0-1.464-1.464zM7.81 24.179v29.288a2.441 2.441 0 1 1-4.881 0V13.929h15.052l1.619 4.856a1.465 1.465 0 0 0 1.389 1H43.15v2.929H9.274a1.464 1.464 0 0 0-1.464 1.465zm39.245 29.288a2.443 2.443 0 0 1-2.441 2.441H10.151a5.338 5.338 0 0 0 .587-2.441V25.644h36.317z" style="fill:#2c0b2d" transform="translate(0 -11)"/>
    <path data-name="Path 1712" d="M170.393 219.429a4.4 4.4 0 0 0 4.393-4.393v-7.6c10.28 1.346 12.329-11.495-1.771-8.473a1.464 1.464 0 0 0-1.158 1.432v10.5a4.393 4.393 0 1 0-1.464 8.534zm4.393-14.991zm-4.393 9.133a1.464 1.464 0 1 1-1.464 1.464 1.466 1.466 0 0 1 1.464-1.463z" transform="translate(-146.999 -177.939)" style="fill:#bb3e8c"/>
</svg>
