<svg xmlns="http://www.w3.org/2000/svg" width="46.355" height="38.629" viewBox="0 0 46.355 38.629">
    <g>
        <g>
            <g>
                <g>
                    <path fill="#2c0b2d" d="M38.629 78.629H0V40h46.355v38.629zM6.181 41.545H1.545v4.635h4.636zm0 6.181H1.545v4.635h4.636zm0 6.181H1.545v4.635h4.636zm0 6.181H1.545v4.635h4.636zm0 6.181H1.545V70.9h4.636zm0 6.181H1.545v4.635h4.636zm32.448-30.9H7.726v35.534h30.9zm6.181 0h-4.636v4.635h4.636zm0 6.181h-4.636v4.635h4.636zm0 6.181h-4.636v4.635h4.636zm0 6.181h-4.636v4.635h4.636zm0 6.181h-4.636V70.9h4.636zm0 6.181h-4.636v4.635h4.636z" transform="translate(-10.154 -47.129) translate(10.154 7.129) translate(0 40) translate(0 -40)"/>
                </g>
            </g>
            <g>
                <g>
                    <path fill="#bb3e8c" d="M188.262 175.3a.773.773 0 0 1-.287.287l-10.816 6.181a.773.773 0 0 1-1.159-.673v-12.364a.773.773 0 0 1 1.159-.668l10.816 6.181a.773.773 0 0 1 .287 1.056zm-10.717-5.235v9.7l8.486-4.849z" transform="translate(-10.154 -47.129) translate(10.154 7.129) translate(16.997 52.362) translate(-176 -167.959)"/>
                </g>
            </g>
        </g>
    </g>
</svg>
