<svg xmlns="http://www.w3.org/2000/svg" width="74" height="74" viewBox="0 0 74 74">
    <g transform="translate(-550.171 -318.171)">
        <rect width="74" height="74" fill="#ececec" rx="4" transform="translate(550.171 318.171)"/>
        <path fill="#2e0130" d="M14.3 2a6.277 6.277 0 1 0 6.277 6.277A6.284 6.284 0 0 0 14.3 2zm0 10.043a3.766 3.766 0 1 1 3.766-3.766 3.771 3.771 0 0 1-3.766 3.766zm11.3 13.809V24.6a8.8 8.8 0 0 0-8.788-8.788h-5.024A8.8 8.8 0 0 0 3 24.6v1.255h2.511V24.6a6.284 6.284 0 0 1 6.277-6.277h5.022a6.284 6.284 0 0 1 6.276 6.277v1.255z" transform="translate(573.376 341.06)"/>
    </g>
</svg>
