<svg xmlns="http://www.w3.org/2000/svg" viewBox="0 0 41.23 41.23"><defs><style>.cls-1{isolation:isolate;}.cls-2{fill:#bb3e8c;}.cls-3{fill:#2c0b2d;}</style></defs><g id="Layer_2" data-name="Layer 2"><g id="Layer_1-2" data-name="Layer 1"><g id="O" class="cls-1"><g class="cls-1"><path class="cls-2" d="M17.29,11.63a6.13,6.13,0,0,1-.39,2.22,5,5,0,0,1-1.07,1.73,4.88,4.88,0,0,1-1.68,1.13,5.59,5.59,0,0,1-2.17.4,5.53,5.53,0,0,1-2.15-.4,4.79,4.79,0,0,1-1.68-1.13,5.18,5.18,0,0,1-1.08-1.73,6.67,6.67,0,0,1,0-4.44A5.33,5.33,0,0,1,8.15,7.67,4.93,4.93,0,0,1,9.83,6.54,5.53,5.53,0,0,1,12,6.13a5.59,5.59,0,0,1,2.17.41,5,5,0,0,1,1.68,1.13A5.14,5.14,0,0,1,16.9,9.41,6.17,6.17,0,0,1,17.29,11.63Zm-1.49,0a5.5,5.5,0,0,0-.27-1.78,3.79,3.79,0,0,0-.77-1.33,3.27,3.27,0,0,0-1.2-.83,4.26,4.26,0,0,0-3.14,0,3.4,3.4,0,0,0-1.21.83,3.94,3.94,0,0,0-.77,1.33,5.78,5.78,0,0,0-.27,1.78,5.67,5.67,0,0,0,.27,1.77,3.85,3.85,0,0,0,.77,1.33,3.4,3.4,0,0,0,1.21.83,3.94,3.94,0,0,0,1.56.29,4,4,0,0,0,1.58-.29,3.27,3.27,0,0,0,1.2-.83,3.7,3.7,0,0,0,.77-1.33A5.39,5.39,0,0,0,15.8,11.63Z"/></g></g><g id="A" class="cls-1"><g class="cls-1"><path class="cls-2" d="M35.21,36H34a.56.56,0,0,1-.35-.11.49.49,0,0,1-.19-.27l-1-2.49H27.74l-.95,2.49a.63.63,0,0,1-.2.26.5.5,0,0,1-.34.12H25L29.3,25.23h1.62Zm-3.16-4-1.6-4.18a9.41,9.41,0,0,1-.34-1.08c-.06.21-.11.42-.17.6s-.11.35-.17.5L28.18,32Z"/></g></g><path id="Path_450-3" data-name="Path 450-3" class="cls-3" d="M16.75,22.62a.61.61,0,0,0-.6-.61H2.55a1.33,1.33,0,0,1-1.34-1.33V2.55A1.34,1.34,0,0,1,2.55,1.21H20.68A1.33,1.33,0,0,1,22,2.55v13.6a.62.62,0,0,0,.61.6.6.6,0,0,0,.61-.6V2.55A2.55,2.55,0,0,0,20.68,0H2.55A2.55,2.55,0,0,0,0,2.55V20.68a2.56,2.56,0,0,0,2.55,2.55h13.6A.62.62,0,0,0,16.75,22.62Z"/><path id="Path_451-3" data-name="Path 451-3" class="cls-3" d="M38.68,18H33.5a.61.61,0,1,0,0,1.21h5.18A1.33,1.33,0,0,1,40,20.55V38.68A1.34,1.34,0,0,1,38.68,40H20.55a1.35,1.35,0,0,1-1.34-1.34V20.55a1.34,1.34,0,0,1,1.34-1.34H38.91a.61.61,0,0,0,0-1.21H20.55A2.55,2.55,0,0,0,18,20.55V38.68a2.56,2.56,0,0,0,2.55,2.55H38.68a2.57,2.57,0,0,0,2.55-2.55V20.55A2.56,2.56,0,0,0,38.68,18Z"/></g></g></svg>