<svg xmlns="http://www.w3.org/2000/svg" width="69.858" height="51.83" viewBox="0 0 69.858 51.83">
    <defs>
        <style>
            .cls-1{fill:#bb3e8c}.cls-2{fill:#2c0b2d}
        </style>
    </defs>
    <g id="responsive" transform="translate(-8 -72)">
        <path id="Path_1785" d="M36.507 400h-3.38a1.127 1.127 0 1 0 0 2.253h3.38a1.127 1.127 0 1 0 0-2.253z" class="cls-1" transform="translate(-20.62 -281.804)"/>
        <path id="Path_1786" d="M82.253 400h-1.126a1.127 1.127 0 1 0 0 2.253h1.127a1.127 1.127 0 1 0 0-2.253z" class="cls-1" transform="translate(-61.859 -281.804)"/>
        <path id="Path_1787" d="M73.351 85.521H71.1v-9.014A4.513 4.513 0 0 0 66.591 72H19.267a4.512 4.512 0 0 0-4.507 4.507v20.281h-2.253A4.512 4.512 0 0 0 8 101.3v18.028a4.512 4.512 0 0 0 4.507 4.507h11.267a4.513 4.513 0 0 0 4.507-4.507v-3.38h9.824l-.563 2.253h-3.627a1.127 1.127 0 0 0-1.127 1.127v3.38a1.127 1.127 0 0 0 1.127 1.127h39.436a4.513 4.513 0 0 0 4.507-4.507v-29.3a4.513 4.513 0 0 0-4.507-4.507zm-47.323 33.8a2.256 2.256 0 0 1-2.253 2.253H12.507a2.256 2.256 0 0 1-2.253-2.253V101.3a2.256 2.256 0 0 1 2.253-2.253h1.441l.87 2.61a1.127 1.127 0 0 0 1.069.77h4.507a1.127 1.127 0 0 0 1.069-.77l.87-2.61h1.441a2.256 2.256 0 0 1 2.253 2.253zm-9.7-20.281h3.634l-.376 1.127H16.7zm11.958 14.648v-3.38h20.277v3.38zm20.281 2.253v2.259h-.246l-.563-2.253zm-2.57 2.253h-6.131l.563-2.253h5zm-10.951 3.38v-1.124H48.7a4.5 4.5 0 0 0 .465 1.127zm13.517-31.546v18.028H28.281V101.3a4.513 4.513 0 0 0-4.507-4.507h-6.76V76.507a2.256 2.256 0 0 1 2.253-2.253h47.324a2.256 2.256 0 0 1 2.253 2.253v9.014H53.07a4.513 4.513 0 0 0-4.507 4.507zm27.042 29.3a2.256 2.256 0 0 1-2.253 2.253H53.07a2.256 2.256 0 0 1-2.253-2.253v-29.3a2.256 2.256 0 0 1 2.253-2.253h20.281a2.256 2.256 0 0 1 2.249 2.253z" class="cls-2"/>
        <path id="Path_1788" d="M341.408 192h-20.281a1.127 1.127 0 0 0-1.127 1.127v25.915a1.127 1.127 0 0 0 1.127 1.127h20.281a1.127 1.127 0 0 0 1.127-1.127v-25.915a1.127 1.127 0 0 0-1.127-1.127zm-1.127 25.915h-18.028v-23.662h18.028z" class="cls-1" transform="translate(-268.057 -103.099)"/>
        <circle id="Ellipse_295" cx="1" cy="1" r="1" class="cls-2" transform="translate(61.64 118.831)"/>
    </g>
</svg>
