<svg xmlns="http://www.w3.org/2000/svg" viewBox="0 0 41.23 41.23"><defs><style>.cls-1{isolation:isolate;}.cls-2{fill:#bb3e8c;}.cls-3{fill:#2c0b2d;}</style></defs><g id="Layer_2" data-name="Layer 2"><g id="Layer_1-2" data-name="Layer 1"><g id="P" class="cls-1"><g class="cls-1"><path class="cls-2" d="M9.9,14v4H8.45V7.25h3.18a5.83,5.83,0,0,1,1.77.24,3.47,3.47,0,0,1,1.25.67,2.68,2.68,0,0,1,.74,1.05,3.75,3.75,0,0,1,.24,1.37A3.56,3.56,0,0,1,15.37,12,2.86,2.86,0,0,1,14.6,13a3.69,3.69,0,0,1-1.25.7,5.41,5.41,0,0,1-1.72.25Zm0-1.15h1.73a3.39,3.39,0,0,0,1.1-.17,2.33,2.33,0,0,0,.8-.46,2,2,0,0,0,.48-.71,2.46,2.46,0,0,0,.17-.91A2,2,0,0,0,13.54,9a2.73,2.73,0,0,0-1.91-.58H9.9Z"/></g></g><g id="I" class="cls-1"><g class="cls-1"><path class="cls-2" d="M30.93,36h-1.6V25.23h1.6Z"/></g></g><path id="Path_450" data-name="Path 450" class="cls-3" d="M16.75,22.62a.61.61,0,0,0-.6-.61H2.55a1.33,1.33,0,0,1-1.34-1.33V2.55A1.34,1.34,0,0,1,2.55,1.21H20.68A1.33,1.33,0,0,1,22,2.55v13.6a.62.62,0,0,0,.61.6.6.6,0,0,0,.61-.6V2.55A2.55,2.55,0,0,0,20.68,0H2.55A2.55,2.55,0,0,0,0,2.55V20.68a2.56,2.56,0,0,0,2.55,2.55h13.6A.62.62,0,0,0,16.75,22.62Z"/><path id="Path_451" data-name="Path 451" class="cls-3" d="M38.68,18H33.5a.61.61,0,1,0,0,1.21h5.18A1.33,1.33,0,0,1,40,20.55V38.68A1.34,1.34,0,0,1,38.68,40H20.55a1.35,1.35,0,0,1-1.34-1.34V20.55a1.34,1.34,0,0,1,1.34-1.34H38.91a.61.61,0,0,0,0-1.21H20.55A2.55,2.55,0,0,0,18,20.55V38.68a2.56,2.56,0,0,0,2.55,2.55H38.68a2.57,2.57,0,0,0,2.55-2.55V20.55A2.56,2.56,0,0,0,38.68,18Z"/></g></g></svg>