<svg xmlns="http://www.w3.org/2000/svg" id="rating" width="47.836" height="47.836" viewBox="0 0 47.836 47.836">
    <defs>
        <style>
            .cls-1{fill:#bb3e8c}.cls-2{fill:#a3437f}.cls-3{fill:#fff}.cls-5{fill:#2c0b2d}
        </style>
    </defs>
    <g id="Group_4601" transform="translate(.747 .747)">
        <path id="Path_1623" d="M248.857 463.9h-11.049a.9.9 0 0 1-.9-.9v-2.33a.9.9 0 0 1 .9-.9h11.049a.9.9 0 0 1 .9.9V463a.9.9 0 0 1-.9.9z" class="cls-1" transform="translate(-215.52 -417.561)"/>
        <path id="Path_1624" d="M248.857 477.253h-11.049a.9.9 0 0 1-.9-.9v1.682a.9.9 0 0 0 .9.9h11.049a.9.9 0 0 0 .9-.9v-1.682a.9.9 0 0 1-.9.9z" class="cls-2" transform="translate(-215.52 -432.594)"/>
        <path id="Path_1625" d="M9.4 24.907a1.4 1.4 0 0 1-1.4-1.4V9.4A1.4 1.4 0 0 1 9.4 8h43.54a1.4 1.4 0 0 1 1.4 1.4v14.1a1.4 1.4 0 0 1-1.4 1.4z" class="cls-3" transform="translate(-8 -8)"/>
        <path id="Path_1626" fill="#efefef" d="M52.94 157.359H9.4a1.4 1.4 0 0 1-1.4-1.4v1.682a1.4 1.4 0 0 0 1.4 1.4h43.54a1.4 1.4 0 0 0 1.4-1.4v-1.682a1.4 1.4 0 0 1-1.4 1.4z" transform="translate(-8 -142.134)"/>
        <path id="Path_1627" d="M362.484 45.532l-.73 1.479a.8.8 0 0 1-.6.437l-1.632.237a.8.8 0 0 0-.443 1.362l1.181 1.151a.8.8 0 0 1 .23.707l-.279 1.625a.8.8 0 0 0 1.159.842l1.459-.767a.8.8 0 0 1 .743 0l1.459.767a.8.8 0 0 0 1.159-.842l-.279-1.625a.8.8 0 0 1 .23-.707l1.181-1.151a.8.8 0 0 0-.443-1.362l-1.632-.237a.8.8 0 0 1-.6-.437l-.73-1.479a.8.8 0 0 0-1.433 0z" class="cls-1" transform="translate(-326.058 -41.622)"/>
        <g id="Group_4595" transform="translate(34.14 9.21)">
            <g id="Group_4594">
                <path id="Path_1628" d="M379.359 108.021l-2.575-1.354a.8.8 0 0 0-.743 0l-2.575 1.354-.043.253a.8.8 0 0 0 1.159.842l1.46-.767a.8.8 0 0 1 .743 0l1.459.767a.8.8 0 0 0 1.159-.842z" class="cls-2" transform="translate(-373.41 -106.575)"/>
            </g>
        </g>
        <path id="Path_1629" d="M177.6 186.938v-2.469s2.619-2.762 2.619-9.186V171a1.778 1.778 0 0 0-3.556 0v-1.222a1.778 1.778 0 0 0-3.556 0v-1.222a1.778 1.778 0 1 0-3.556 0V160.6a1.778 1.778 0 1 0-3.556 0v15.9h-.027l-2.861-3.207a4.72 4.72 0 0 0-3.522-1.578.913.913 0 0 0-.8 1.35l2.791 5.127a13.181 13.181 0 0 0 2.49 3.246l3.192 3.037v2.469z" class="cls-3" transform="translate(-144.595 -144.729)"/>
        <g id="Group_4596" transform="translate(22.662 40.527)">
            <path id="Path_1630" d="M250.561 441.77h10.346v1.682h-10.346z" class="cls-3" transform="translate(-250.561 -441.77)"/>
        </g>
        <path id="Path_1631" d="M212.941 45.532l-.73 1.479a.8.8 0 0 1-.6.437l-1.632.237a.8.8 0 0 0-.443 1.362l1.181 1.151a.8.8 0 0 1 .23.707l-.279 1.625a.8.8 0 0 0 1.159.842l1.459-.767a.8.8 0 0 1 .743 0l1.459.767a.8.8 0 0 0 1.159-.842l-.279-1.625a.8.8 0 0 1 .23-.707l1.181-1.151a.8.8 0 0 0-.443-1.362l-1.632-.237a.8.8 0 0 1-.6-.437l-.73-1.479a.8.8 0 0 0-1.433 0z" class="cls-1" transform="translate(-190.487 -41.622)"/>
        <g id="Group_4598" transform="translate(20.168 9.21)">
            <g id="Group_4597">
                <path id="Path_1632" d="M229.817 108.021l-2.575-1.354a.8.8 0 0 0-.743 0l-2.575 1.354-.043.253a.8.8 0 0 0 1.159.842l1.459-.767a.8.8 0 0 1 .743 0l1.459.767a.8.8 0 0 0 1.159-.842z" class="cls-2" transform="translate(-223.868 -106.575)"/>
            </g>
        </g>
        <path id="Path_1633" d="M63.4 45.532l-.73 1.479a.8.8 0 0 1-.6.437l-1.632.237a.8.8 0 0 0-.443 1.362l1.178 1.153a.8.8 0 0 1 .23.707l-.279 1.625a.8.8 0 0 0 1.159.842l1.459-.767a.8.8 0 0 1 .743 0l1.459.767a.8.8 0 0 0 1.156-.844l-.274-1.63a.8.8 0 0 1 .23-.707l1.181-1.151a.8.8 0 0 0-.443-1.362l-1.632-.237a.8.8 0 0 1-.6-.437l-.73-1.479a.8.8 0 0 0-1.433 0z" class="cls-1" transform="translate(-54.916 -41.622)"/>
        <g id="Group_4600" transform="translate(6.197 9.21)">
            <g id="Group_4599">
                <path id="Path_1634" d="M80.273 108.021l-2.573-1.354a.8.8 0 0 0-.743 0l-2.575 1.354-.043.253a.8.8 0 0 0 1.159.842l1.459-.767a.8.8 0 0 1 .743 0l1.459.767a.8.8 0 0 0 1.159-.842z" class="cls-2" transform="translate(-74.324 -106.575)"/>
            </g>
        </g>
    </g>
    <g id="Group_4602">
        <path id="Path_1635" d="M177.593 0h-9.318a.7.7 0 0 0 0 1.4h9.318a.7.7 0 0 1 .7.7v14.138a.7.7 0 0 1-.7.7h-19.318V16.6a2.484 2.484 0 0 0-4.968 0v.338h-11.152a.7.7 0 0 0 0 1.4h11.152v12.379l-1.668-1.869a5.437 5.437 0 0 0-4.053-1.815 1.617 1.617 0 0 0-1.421 2.39l2.8 5.137a13.887 13.887 0 0 0 2.628 3.426l2.98 2.835v1.5a1.608 1.608 0 0 0-1.278 1.572v2.334a1.607 1.607 0 0 0 1.605 1.605h11.07a1.607 1.607 0 0 0 1.605-1.605V43.9a1.607 1.607 0 0 0-1.232-1.56v-1.564c.64-.807 2.624-3.77 2.624-9.461v-4.288a2.483 2.483 0 0 0-3.739-2.142 2.483 2.483 0 0 0-3.563-1.224 2.484 2.484 0 0 0-3.388-1.318v-4h19.318a2.109 2.109 0 0 0 2.106-2.106V2.106A2.109 2.109 0 0 0 177.593 0zm-18.239 23.5a1.081 1.081 0 0 1 1.08 1.08v1.22a.7.7 0 0 0 1.4 0 1.08 1.08 0 1 1 2.159 0v1.224a.7.7 0 0 0 1.4 0 1.08 1.08 0 0 1 2.159 0v4.288c0 6.032-2.41 8.7-2.431 8.721a.7.7 0 0 0-.193.483v1.771h-1.7a.7.7 0 1 0 0 1.4h2.727a.2.2 0 0 1 .2.2v2.334a.2.2 0 0 1-.2.2H154.9a.2.2 0 0 1-.2-.2V43.9a.2.2 0 0 1 .2-.2h5.535a.7.7 0 1 0 0-1.4h-4.458v-1.78a.7.7 0 0 0-.218-.509l-3.2-3.043a12.482 12.482 0 0 1-2.362-3.08l-2.8-5.137c-.066-.177 0-.288.187-.315a4.031 4.031 0 0 1 3 1.346L153.458 33a.722.722 0 0 0 1.253-.467V16.6a1.08 1.08 0 1 1 2.159 0v7.976a.7.7 0 1 0 1.4 0 1.081 1.081 0 0 1 1.08-1.08z" class="cls-5" transform="translate(-131.863)"/>
        <path id="Path_1636" d="M11.483 16.94H2.106a.7.7 0 0 1-.7-.7V2.106a.7.7 0 0 1 .7-.7H44.6a.7.7 0 1 0 0-1.4H2.106A2.109 2.109 0 0 0 0 2.106v14.132a2.109 2.109 0 0 0 2.106 2.106h9.377a.7.7 0 1 0 0-1.4z" class="cls-5"/>
        <path id="Path_1637" d="M211.379 42.333a1.5 1.5 0 0 0-.833-2.563l-1.635-.237a.1.1 0 0 1-.074-.054L208.106 38a1.5 1.5 0 0 0-2.695 0l-.731 1.482a.1.1 0 0 1-.074.054l-1.635.237a1.5 1.5 0 0 0-.833 2.563l1.183 1.153a.1.1 0 0 1 .028.087l-.279 1.628a1.5 1.5 0 0 0 2.18 1.584l1.462-.769a.1.1 0 0 1 .091 0l1.462.769a1.5 1.5 0 0 0 2.18-1.584l-.279-1.628a.1.1 0 0 1 .028-.087zm-2.163.148a1.5 1.5 0 0 0-.432 1.33l.279 1.628a.1.1 0 0 1-.143.1l-1.462-.769a1.5 1.5 0 0 0-1.4 0l-1.462.769a.1.1 0 0 1-.143-.1l.279-1.628a1.5 1.5 0 0 0-.432-1.33l-1.183-1.153a.1.1 0 0 1 .054-.168l1.635-.237a1.5 1.5 0 0 0 1.131-.822l.731-1.481a.1.1 0 0 1 .176 0l.731 1.481a1.5 1.5 0 0 0 1.131.822l1.635.237a.1.1 0 0 1 .054.168z" class="cls-5" transform="translate(-182.841 -33.688)"/>
        <path id="Path_1638" d="M60.612 45.2l-.279-1.628a.1.1 0 0 1 .028-.087l1.183-1.153a1.5 1.5 0 0 0-.833-2.563l-1.635-.237A.1.1 0 0 1 59 39.48L58.271 38a1.5 1.5 0 0 0-2.695 0l-.731 1.481a.1.1 0 0 1-.074.054l-1.635.237a1.5 1.5 0 0 0-.833 2.563l1.183 1.153a.1.1 0 0 1 .028.087l-.278 1.625a1.5 1.5 0 0 0 2.18 1.584l1.462-.769a.1.1 0 0 1 .091 0l1.462.769a1.5 1.5 0 0 0 2.18-1.584zm-1.231-2.721a1.5 1.5 0 0 0-.432 1.33l.279 1.628a.1.1 0 0 1-.143.1l-1.462-.769a1.5 1.5 0 0 0-1.4 0l-1.462.769a.1.1 0 0 1-.143-.1l.279-1.628a1.5 1.5 0 0 0-.432-1.33l-1.183-1.153a.1.1 0 0 1 .054-.168l1.635-.237A1.5 1.5 0 0 0 56.1 40.1l.731-1.481a.1.1 0 0 1 .176 0l.731 1.481a1.5 1.5 0 0 0 1.131.822l1.635.237a.1.1 0 0 1 .054.168z" class="cls-5" transform="translate(-47.005 -33.689)"/>
        <path id="Path_1639" d="M361.215 42.333a1.5 1.5 0 0 0-.833-2.563l-1.635-.237a.1.1 0 0 1-.074-.054l-.73-1.479a1.5 1.5 0 0 0-2.695 0l-.731 1.481a.1.1 0 0 1-.074.054l-1.635.237a1.5 1.5 0 0 0-.833 2.563l1.183 1.153a.1.1 0 0 1 .028.087l-.279 1.628a1.5 1.5 0 0 0 2.18 1.584l1.462-.769a.1.1 0 0 1 .091 0l1.462.769a1.5 1.5 0 0 0 2.18-1.584l-.282-1.63a.1.1 0 0 1 .028-.087zm-2.163.148a1.5 1.5 0 0 0-.432 1.33l.279 1.628a.1.1 0 0 1-.143.1l-1.462-.769a1.5 1.5 0 0 0-1.4 0l-1.462.769a.1.1 0 0 1-.142-.1l.279-1.628a1.5 1.5 0 0 0-.432-1.33l-1.183-1.153a.1.1 0 0 1 .054-.168l1.635-.237a1.5 1.5 0 0 0 1.131-.822l.731-1.481a.1.1 0 0 1 .176 0l.731 1.481a1.5 1.5 0 0 0 1.131.822l1.635.237a.1.1 0 0 1 .054.168z" class="cls-5" transform="translate(-318.678 -33.688)"/>
    </g>
</svg>
