<svg xmlns="http://www.w3.org/2000/svg" width="51.786" height="51.786" viewBox="0 0 51.786 51.786">
    <g>
        <path fill="#fff" stroke="#2c0b2d" stroke-width="2px" d="M24.893 0A24.893 24.893 0 1 1 0 24.893 24.894 24.894 0 0 1 24.893 0z" transform="translate(1 1)"/>
        <path fill="#bb3e8c" d="M94.143 88.389a3.115 3.115 0 1 0 3.115 3.111 3.115 3.115 0 0 0-3.115-3.111zm-.92-7.77a2.188 2.188 0 1 0 0 4.375 7.447 7.447 0 0 1 7.438 7.438 2.188 2.188 0 0 0 4.377 0A11.828 11.828 0 0 0 93.223 80.62zm.042-7.781a2.237 2.237 0 1 0 0 4.474 15.088 15.088 0 0 1 15.071 15.07 2.237 2.237 0 0 0 4.474 0 19.569 19.569 0 0 0-19.545-19.543z" transform="translate(1 1) translate(-75.471 -60.391)"/>
    </g>
</svg>
