<svg xmlns="http://www.w3.org/2000/svg" width="48.841" height="49" viewBox="0 0 48.841 49">
    <defs>
        <style>
            .cls-1{fill:#2c0b2d}.cls-2{fill:#bb3e8c}
        </style>
    </defs>
    <g id="file" transform="translate(-.83)">
        <path id="Path_1815" d="M46.843 30.413a9.671 9.671 0 0 0-10.561-2.077v-16.9a2.6 2.6 0 0 0-.767-1.851L26.7.767a2.612 2.612 0 0 0-.707-.5l-.042-.02c-.023-.011-.046-.022-.07-.031A2.625 2.625 0 0 0 24.844 0H3.6A2.77 2.77 0 0 0 .83 2.767v43.466A2.77 2.77 0 0 0 3.6 49h29.915a2.771 2.771 0 0 0 2.762-2.6v-.258a9.655 9.655 0 0 0 10.566-15.729zM33.018 9.793H26.7a.212.212 0 0 1-.212-.212V3.264zm1.349 36.515a.856.856 0 0 1-.852.78H3.6a.856.856 0 0 1-.855-.855V2.767a.856.856 0 0 1 .855-.855h20.98v7.67a2.126 2.126 0 0 0 2.12 2.123h7.67v17.7a9.657 9.657 0 0 0 0 15.666v1.235zm11.124-3.591a7.744 7.744 0 1 1 2.268-5.476 7.753 7.753 0 0 1-2.268 5.476z" class="cls-1"/>
        <path id="Path_1816" d="M62.253 141.292h13.328a.956.956 0 1 0 0-1.912H62.253a.956.956 0 1 0 0 1.912z" class="cls-1" transform="translate(-54.686 -126.055)"/>
        <path id="Path_1817" d="M78.905 319.3H62.253a.956.956 0 0 0 0 1.912h16.653a.956.956 0 1 0 0-1.912z" class="cls-2" transform="translate(-54.686 -288.772)"/>
        <path id="Path_1818" d="M78.905 379.271H62.253a.956.956 0 1 0 0 1.912h16.653a.956.956 0 1 0 0-1.912z" class="cls-2" transform="translate(-54.686 -343.012)"/>
        <path id="Path_1819" d="M84.281 259.326H62.253a.956.956 0 1 0 0 1.912h22.028a.956.956 0 1 0 0-1.912z" class="cls-1" transform="translate(-54.686 -234.534)"/>
        <path id="Path_1820" d="M61.253 201.912H78.5a.956.956 0 1 0 0-1.912H61.253a.956.956 0 1 0 0 1.912z" class="cls-1" transform="translate(-53.782 -180.88)"/>
        <circle id="Ellipse_297" cx=".957" cy=".957" r=".957" class="cls-1" transform="translate(28.52 19.12)"/>
        <path id="Path_1821" d="M379.459 351.531a.956.956 0 0 0-1.352 0l-2.029 2.029-2-2a.956.956 0 0 0-1.352 1.352l2 2-2.029 2.029a.956.956 0 0 0 1.352 1.352l2.029-2.029 2 2a.956.956 0 1 0 1.352-1.352l-2-2 2.029-2.029a.956.956 0 0 0 0-1.352z" class="cls-2" transform="translate(-336.063 -317.671)"/>
    </g>
</svg>
