<svg xmlns="http://www.w3.org/2000/svg" width="28" height="28" viewBox="0 0 28 28">
    <g>
        <g>
            <g>
                <g transform="translate(-1286 -253) translate(-1 .402) translate(0 -.402) translate(1260 253.5)">
                    <rect width="28" height="28" fill="#f3fffb" rx="5" transform="translate(27 -.5)"/>
                </g>
            </g>
        </g>
        <g>
            <g>
                <path fill="#34c28f" d="M.928 4.167v8.078a1.809 1.809 0 0 0 .481 1.248A1.615 1.615 0 0 0 2.58 14h6.2a1.614 1.614 0 0 0 1.172-.507 1.809 1.809 0 0 0 .481-1.248V4.167a1.252 1.252 0 0 0-.318-2.467H8.436v-.41A1.288 1.288 0 0 0 7.138 0H4.227a1.288 1.288 0 0 0-1.3 1.3v.4H1.249a1.252 1.252 0 0 0-.321 2.467zm7.856 9.177H2.58a1.038 1.038 0 0 1-1-1.1V4.2h8.2v8.049a1.038 1.038 0 0 1-.996 1.094zm-5.2-12.05a.632.632 0 0 1 .643-.64h2.911a.632.632 0 0 1 .643.639V1.7h-4.2zM1.249 2.359h8.866a.59.59 0 1 1 0 1.18H1.249a.59.59 0 1 1 0-1.18zm0 0" transform="translate(-1286 -253) translate(1294.003 260.001)"/>
            </g>
            <path fill="#34c28f" stroke="#34c28f" stroke-width="0.25px" d="M13.914 12.594a.191.191 0 0 0 .191-.191V8.584l1.395 1.462a.191.191 0 1 0 .277-.264l-1.59-1.67a.383.383 0 0 0-.545 0l-1.589 1.67a.191.191 0 0 0 .277.264l1.393-1.468V12.4a.191.191 0 0 0 .191.194z" transform="translate(-1286 -253) translate(1285.5 258.5)"/>
        </g>
    </g>
</svg>
