<svg xmlns="http://www.w3.org/2000/svg" viewBox="0 0 41.23 41.23"><defs><style>.cls-1{isolation:isolate;}.cls-2{fill:#bb3e8c;}.cls-3{fill:#2c0b2d;}</style></defs><g id="Layer_2" data-name="Layer 2"><g id="Layer_1-2" data-name="Layer 1"><g id="R" class="cls-1"><g class="cls-1"><path class="cls-2" d="M9.9,12.52V17H8.46V6.25h3a6.61,6.61,0,0,1,1.77.21,3.39,3.39,0,0,1,1.22.59,2.56,2.56,0,0,1,.72,1,3.17,3.17,0,0,1,.23,1.23,3.06,3.06,0,0,1-.18,1.06,2.74,2.74,0,0,1-.52.89,3,3,0,0,1-.83.67,3.83,3.83,0,0,1-1.12.42,1.61,1.61,0,0,1,.48.46L16.4,17H15.11a.64.64,0,0,1-.59-.31l-2.79-3.84a.83.83,0,0,0-.27-.26,1.06,1.06,0,0,0-.45-.07Zm0-1.06h1.52a3.54,3.54,0,0,0,1.13-.16,2.24,2.24,0,0,0,.81-.43,1.9,1.9,0,0,0,.49-.67A2.2,2.2,0,0,0,14,9.34a1.7,1.7,0,0,0-.63-1.45,3,3,0,0,0-1.89-.49H9.9Z"/></g></g><g id="N" class="cls-1"><g class="cls-1"><path class="cls-2" d="M34.15,25.23V36h-.81a.57.57,0,0,1-.31-.07.63.63,0,0,1-.25-.22l-6.09-7.86,0,.4c0,.12,0,.25,0,.36V36h-1.4V25.23h.82a.85.85,0,0,1,.32.05.65.65,0,0,1,.23.22l6.1,7.87c0-.14,0-.28,0-.42s0-.26,0-.38V25.23Z"/></g></g><path id="Path_450" data-name="Path 450" class="cls-3" d="M16.75,22.62a.61.61,0,0,0-.6-.61H2.55a1.33,1.33,0,0,1-1.34-1.33V2.55A1.34,1.34,0,0,1,2.55,1.21H20.68A1.33,1.33,0,0,1,22,2.55v13.6a.62.62,0,0,0,.61.6.6.6,0,0,0,.61-.6V2.55A2.55,2.55,0,0,0,20.68,0H2.55A2.55,2.55,0,0,0,0,2.55V20.68a2.56,2.56,0,0,0,2.55,2.55h13.6A.62.62,0,0,0,16.75,22.62Z"/><path id="Path_451" data-name="Path 451" class="cls-3" d="M38.68,18H33.5a.61.61,0,1,0,0,1.21h5.18A1.33,1.33,0,0,1,40,20.55V38.68A1.34,1.34,0,0,1,38.68,40H20.55a1.35,1.35,0,0,1-1.34-1.34V20.55a1.34,1.34,0,0,1,1.34-1.34H38.91a.61.61,0,0,0,0-1.21H20.55A2.55,2.55,0,0,0,18,20.55V38.68a2.56,2.56,0,0,0,2.55,2.55H38.68a2.57,2.57,0,0,0,2.55-2.55V20.55A2.56,2.56,0,0,0,38.68,18Z"/></g></g></svg>