<svg xmlns="http://www.w3.org/2000/svg" width="11.72" height="12.371" viewBox="0 0 11.72 12.371">
    <g id="bx-user_1_" data-name="bx-user (1)" transform="translate(-3 -2)">
        <circle id="Ellipse_212" cx="2" cy="2" r="2" fill="none" data-name="Ellipse 212" transform="translate(7 3.371)"/>
        <path id="Path_348" fill="#2c0b2d" d="M8.86 2a3.256 3.256 0 1 0 3.256 3.256A3.259 3.259 0 0 0 8.86 2zm0 5.209a1.953 1.953 0 1 1 1.953-1.953A1.956 1.956 0 0 1 8.86 7.209zm5.86 7.162v-.651a4.564 4.564 0 0 0-4.558-4.558h-2.6A4.563 4.563 0 0 0 3 13.72v.651h1.3v-.651a3.259 3.259 0 0 1 3.256-3.256h2.6a3.259 3.259 0 0 1 3.256 3.256v.651z" data-name="Path 348"/>
    </g>
</svg>
