<svg xmlns="http://www.w3.org/2000/svg" viewBox="0 0 41.23 41.23"><defs><style>.cls-1{isolation:isolate;}.cls-2{fill:#bb3e8c;}.cls-3{fill:#2c0b2d;}</style></defs><g id="Layer_2" data-name="Layer 2"><g id="Layer_1-2" data-name="Layer 1"><g id="S" class="cls-1"><g class="cls-1"><path class="cls-2" d="M14.81,8.93a.49.49,0,0,1-.14.17.32.32,0,0,1-.2.06A.48.48,0,0,1,14.18,9c-.12-.08-.26-.18-.43-.28a3.28,3.28,0,0,0-.62-.28,2.61,2.61,0,0,0-.89-.13,2.55,2.55,0,0,0-.86.13,1.78,1.78,0,0,0-.62.36,1.33,1.33,0,0,0-.38.53,1.57,1.57,0,0,0-.13.65,1.21,1.21,0,0,0,.22.75,1.82,1.82,0,0,0,.59.5,3.64,3.64,0,0,0,.82.37l.95.32c.32.11.63.23.94.37a3.52,3.52,0,0,1,.83.52,2.48,2.48,0,0,1,.58.77,2.56,2.56,0,0,1,.22,1.13,3.6,3.6,0,0,1-.24,1.32,3.1,3.1,0,0,1-.7,1.08,3.42,3.42,0,0,1-1.13.72,4.3,4.3,0,0,1-1.53.26,4.71,4.71,0,0,1-1.9-.38,4.36,4.36,0,0,1-1.46-1L8.86,16A.47.47,0,0,1,9,15.89a.33.33,0,0,1,.19-.06.59.59,0,0,1,.36.17c.14.11.31.24.51.37a3.55,3.55,0,0,0,.73.37,2.77,2.77,0,0,0,1.06.17,2.65,2.65,0,0,0,.92-.14,2.12,2.12,0,0,0,.69-.4,1.82,1.82,0,0,0,.43-.62A2.07,2.07,0,0,0,14,15a1.4,1.4,0,0,0-.22-.8,1.82,1.82,0,0,0-.58-.52,4.51,4.51,0,0,0-.83-.36l-.94-.3c-.32-.1-.64-.22-1-.35a3.5,3.5,0,0,1-.82-.53,2.43,2.43,0,0,1-.58-.81,2.81,2.81,0,0,1-.22-1.19A2.77,2.77,0,0,1,9.12,9a2.9,2.9,0,0,1,.64-1,3,3,0,0,1,1-.66,3.71,3.71,0,0,1,1.42-.25,4.61,4.61,0,0,1,1.65.29,3.79,3.79,0,0,1,1.29.82Z"/></g></g><g id="H" class="cls-1"><g class="cls-1"><path class="cls-2" d="M34.15,25.23V36h-1.6V31.15H26.93V36h-1.6V25.23h1.6V30h5.62V25.23Z"/></g></g><path id="Path_450-3" data-name="Path 450-3" class="cls-3" d="M16.75,22.62a.61.61,0,0,0-.6-.61H2.55a1.33,1.33,0,0,1-1.34-1.33V2.55A1.34,1.34,0,0,1,2.55,1.21H20.68A1.33,1.33,0,0,1,22,2.55v13.6a.62.62,0,0,0,.61.6.6.6,0,0,0,.61-.6V2.55A2.55,2.55,0,0,0,20.68,0H2.55A2.55,2.55,0,0,0,0,2.55V20.68a2.56,2.56,0,0,0,2.55,2.55h13.6A.62.62,0,0,0,16.75,22.62Z"/><path id="Path_451-3" data-name="Path 451-3" class="cls-3" d="M38.68,18H33.5a.61.61,0,1,0,0,1.21h5.18A1.34,1.34,0,0,1,40,20.55V38.68A1.34,1.34,0,0,1,38.68,40H20.55a1.35,1.35,0,0,1-1.34-1.34V20.55a1.34,1.34,0,0,1,1.34-1.34H38.91a.61.61,0,0,0,0-1.21H20.55A2.55,2.55,0,0,0,18,20.55V38.68a2.56,2.56,0,0,0,2.55,2.55H38.68a2.57,2.57,0,0,0,2.55-2.55V20.55A2.56,2.56,0,0,0,38.68,18Z"/></g></g></svg>