<svg xmlns="http://www.w3.org/2000/svg" width="47.837" height="47.836" viewBox="0 0 47.837 47.836">
    <defs>
        <style>
            .cls-2{fill:#bb3e8c}
        </style>
    </defs>
    <g id="closed-caption" transform="translate(0 -.007)">
        <path id="Path_1684" fill="#2c0b2d" d="M44.567.007H3.27A3.274 3.274 0 0 0 0 3.277v30.388a3.274 3.274 0 0 0 3.27 3.27h12.825a.465.465 0 0 1 .417.256L21 46.052a3.271 3.271 0 0 0 5.834 0l4.491-8.861a.465.465 0 0 1 .417-.256h12.825a3.274 3.274 0 0 0 3.27-3.27V3.277a3.274 3.274 0 0 0-3.27-3.27zm.467 33.658a.468.468 0 0 1-.467.467H31.743a3.255 3.255 0 0 0-2.917 1.792l-4.49 8.861a.466.466 0 0 1-.833 0l-4.49-8.861a3.255 3.255 0 0 0-2.917-1.792H3.27a.468.468 0 0 1-.467-.467V3.277a.468.468 0 0 1 .467-.467h41.3a.468.468 0 0 1 .467.467z"/>
        <path id="Path_1685" d="M112.744 131.773a1.4 1.4 0 0 0-1.974.173 3.133 3.133 0 0 1-2.515 1.107 4.295 4.295 0 1 1 2.4-7.857 1.4 1.4 0 1 0 1.569-2.323 7.1 7.1 0 1 0-3.969 12.982 5.931 5.931 0 0 0 4.662-2.109 1.4 1.4 0 0 0-.173-1.973z" class="cls-2" transform="translate(-91.706 -110.288)"/>
        <path id="Path_1686" d="M293.053 131.774a1.4 1.4 0 0 0-1.974.173 3.134 3.134 0 0 1-2.515 1.107 4.295 4.295 0 1 1 2.4-7.857 1.4 1.4 0 1 0 1.569-2.323 7.1 7.1 0 1 0-3.969 12.982 5.932 5.932 0 0 0 4.662-2.109 1.4 1.4 0 0 0-.173-1.973z" class="cls-2" transform="translate(-255.168 -110.289)"/>
    </g>
</svg>
