<svg xmlns="http://www.w3.org/2000/svg" id="undraw_feeling_proud_qne1_1_" width="203.341" height="191.482" data-name="undraw_feeling_proud_qne1 (1)" viewBox="0 0 203.341 191.482">
    <defs>
        <style>
            .cls-1{fill:#cfc3ca}.cls-2{opacity:.1}.cls-3{fill:#2c0b2d}.cls-4{fill:#f2f2f2}.cls-5{fill:#2f2e41}.cls-6{fill:#ffb8b8}.cls-9{fill:#999}.cls-11{fill:#a100ff}
        </style>
    </defs>
    <path id="Path_349" d="M516.326 380.018v52.893l8.847 14.419.673 1.1h34.91l.705-68.409z" class="cls-1" data-name="Path 349" transform="translate(-368.699 -271.356)"/>
    <path id="Path_350" d="M516.326 380.018v52.893l8.847 14.419.543-67.312z" class="cls-2" data-name="Path 350" transform="translate(-368.699 -271.356)"/>
    <path id="Path_351" d="M108.839 375.084v52.894L99.991 442.4l-.673 1.1h-34.91l-.708-68.416z" class="cls-1" data-name="Path 351" transform="translate(-45.489 -267.833)"/>
    <path id="Path_352" d="M198.113 375.084v52.894l-8.847 14.422-.543-67.312z" class="cls-2" data-name="Path 352" transform="translate(-134.764 -267.833)"/>
    <path id="Path_353" d="M237.381 344.964v3.173H47.67v-4.584l17.63-9.168h156.566z" class="cls-1" data-name="Path 353" transform="translate(-34.04 -238.77)"/>
    <path id="Path_354" d="M237.381 367.862v3.173H47.67v-4.584z" class="cls-2" data-name="Path 354" transform="translate(-34.04 -261.668)"/>
    <path id="Path_355" d="M112.691 420.718h-8.463l-3.528-2.468h15.87z" class="cls-3" data-name="Path 355" transform="translate(-71.91 -298.657)"/>
    <path id="Path_356" d="M112.691 456.484h-8.463l-3.526-2.468h15.868z" class="cls-3" data-name="Path 356" transform="translate(-71.91 -324.197)"/>
    <path id="Path_357" d="M112.691 507.05h-8.463l-3.526-2.469h15.868z" class="cls-3" data-name="Path 357" transform="translate(-71.91 -360.304)"/>
    <path id="Path_358" d="M112.691 557.615h-8.463l-3.526-2.468h15.868z" class="cls-3" data-name="Path 358" transform="translate(-71.91 -396.413)"/>
    <path id="Path_359" d="M585.57 425.651h8.463l3.526-2.468h-15.868z" class="cls-3" data-name="Path 359" transform="translate(-415.375 -302.179)"/>
    <path id="Path_360" d="M585.57 461.417h8.463l3.526-2.468h-15.868z" class="cls-3" data-name="Path 360" transform="translate(-415.375 -327.719)"/>
    <path id="Path_361" d="M585.57 511.983h8.463l3.526-2.468h-15.868z" class="cls-3" data-name="Path 361" transform="translate(-415.375 -363.828)"/>
    <path id="Path_362" d="M585.57 562.548h8.463l3.526-2.468h-15.868z" class="cls-3" data-name="Path 362" transform="translate(-415.375 -399.935)"/>
    <path id="Path_363" d="M675.152 235.615h-71.247a2.694 2.694 0 0 0-2.694 2.695v47.99a2.694 2.694 0 0 0 2.694 2.7h27.045l-1.013 6.469s-5.791 3.076-1.719 3.167 23.253 0 23.253 0 3.71 0-2.171-3.257l-.953-6.379h26.8a2.694 2.694 0 0 0 2.694-2.695v-47.996a2.694 2.694 0 0 0-2.695-2.694z" class="cls-3" data-name="Path 363" transform="translate(-499.194 -201.166)"/>
    <path id="Rectangle_81" d="M0 0H71.478V39.992H0z" class="cls-4" data-name="Rectangle 81" transform="translate(104.595 37.299)"/>
    <circle id="Ellipse_213" cx=".452" cy=".452" r=".452" class="cls-4" data-name="Ellipse 213" transform="translate(139.882 35.58)"/>
    <circle id="Ellipse_214" cx="1.719" cy="1.719" r="1.719" class="cls-4" data-name="Ellipse 214" transform="translate(138.615 82.448)"/>
    <path id="Path_364" d="M359.879 349.817v.9H311.2V350l.067-.181 1.2-3.257h46.416z" class="cls-3" data-name="Path 364" transform="translate(-222.224 -247.464)"/>
    <path id="Path_365" d="M757.245 462.232c-.089.379-.423.779-1.18 1.157-2.714 1.357-8.234-.362-8.234-.362s-4.253-.724-4.253-2.624a3.381 3.381 0 0 1 .373-.222c1.141-.6 4.925-2.094 11.634.063a2.8 2.8 0 0 1 1.275.836 1.334 1.334 0 0 1 .385 1.152z" class="cls-3" data-name="Path 365" transform="translate(-600.857 -360.765)"/>
    <path id="Path_366" d="M758.176 462.232c-3.322 1.273-6.284 1.368-9.323-.743a6.675 6.675 0 0 0-3.97-1.307c1.141-.6 4.925-2.094 11.634.063a2.8 2.8 0 0 1 1.275.836 1.334 1.334 0 0 1 .384 1.151z" class="cls-2" data-name="Path 366" transform="translate(-601.788 -360.765)"/>
    <ellipse id="Ellipse_215" cx="1.176" cy=".362" class="cls-4" data-name="Ellipse 215" rx="1.176" ry=".362" transform="translate(151.046 100)"/>
    <path id="Path_367" d="M359.879 357.952v.9H311.2v-.724l.067-.181z" class="cls-2" data-name="Path 367" transform="translate(-222.224 -255.599)"/>
    <path id="Path_368" d="M316.341 115.138a2.446 2.446 0 0 0-1.418.317 3.7 3.7 0 0 0-.96 1.266 15.15 15.15 0 0 1-4.127 4.662c-1.226.9-2.785 2.018-2.576 3.675a4.966 4.966 0 0 0 .6 1.551c1.131 2.284 4.218 4.048 3.915 6.654 1.124-1.882-.379-2.812.745-4.694.535-.9 1.465-1.908 2.273-1.345.271.188.448.526.73.692.672.394 1.387-.36 1.983-.894 2.052-1.842 4.97-1.359 7.524-.786a4.7 4.7 0 0 1 3.242 1.779c.937 1.515-.89 3.151-1.352 4.864a.933.933 0 0 0 1 1.161c.766-.076 1.674-.138 1.719-.474.964.034 2.145-.075 2.558-1.079a4.222 4.222 0 0 0 .2-1.227 25.246 25.246 0 0 1 1.341-4.829 6.523 6.523 0 0 0-.12-4.908 5.68 5.68 0 0 0-1.048-1.274c-4.543-4.393-10.512-5.117-16.229-5.111z" class="cls-5" data-name="Path 368" transform="translate(-289.276 -115.13)"/>
    <path id="Path_369" d="M317.348 186.148s.987 8.228-2.633 8.887 3.291 11.849 3.291 11.849l16.457 1.975-3.95-13.165s-2.633-.987-.987-7.57-12.178-1.976-12.178-1.976z" class="cls-6" data-name="Path 369" transform="translate(-293.863 -164.723)"/>
    <path id="Path_370" d="M47.028 569.318l1.317 18.1h6.911l-1.975-18.1z" class="cls-6" data-name="Path 370" transform="translate(-33.582 -406.532)"/>
    <path id="Path_371" d="M224.3 447.956l.987 15.14 7.57-3.291L229.9 447.3z" class="cls-6" data-name="Path 371" transform="translate(-160.171 -319.399)"/>
    <path id="Path_372" fill="#1c001e" d="M274.167 407.589s.329 19.09 2.3 25.343 1.646 6.583 1.316 7.57-.658.329-.658 1.975-.658 27.647 0 29.951-1.975 6.253 0 6.583 11.19 0 11.52-1.975-2.633-2.633-1.317-3.95 3.291-28.305 3.291-28.305l4.608-18.76 8.557-9.874h18.1l5.6 21.723s-2.3 6.253-.658 6.253 11.52 1.975 11.52-5.266-3.291-28.634-3.95-29.293.329-2.962-.658-3.95-12.507-7.9-16.786-9.216-10.281-2.883-10.281-2.883z" data-name="Path 372" transform="translate(-265.658 -313.92)"/>
    <path id="Path_373" d="M476.741 596.333a5.919 5.919 0 0 0-7.241 3.291c-2.3 4.937-1.316 6.253-1.316 6.253s7.57 2.633 8.886 1.317c.573-.573 2.392-.772 4.264-.814 2.851-.064 3.61-4.1.917-5.038q-.121-.042-.244-.073c-2.633-.657-5.266-4.936-5.266-4.936z" class="cls-5" data-name="Path 373" transform="translate(-404.052 -458.561)"/>
    <circle id="Ellipse_216" cx="9.874" cy="9.874" r="9.874" class="cls-6" data-name="Ellipse 216" transform="translate(21.016 7.108)"/>
    <path id="Path_374" fill="#ffc52f" d="M287 228.4s16.127 3.291 20.077-1.975 5.6 14.811 5.6 14.811l1.975 21.064-2.962 11.52s-15.469 12.507-20.406 13.494-12.507 1.646-12.507 1.646 2.3-36.533 2.3-37.192S287 228.4 287 228.4z" data-name="Path 374" transform="translate(-268.946 -193.977)"/>
    <path id="Path_375" d="M274.327 211.6s-3.588-2.056-4.576-.081-10.2 6.912-11.19 6.912 1.975 27.318.658 30.609-7.57 27.318-3.95 29.293.987-1.975 4.608 2.962 21.393 4.937 22.381 2.962-7.9-16.786-6.253-30.609 4.279-32.913 1.975-35.546a22.9 22.9 0 0 1-3.653-6.502z" class="cls-9" data-name="Path 375" transform="translate(-251.369 -183.349)"/>
    <path id="Path_376" d="M366.258 217.78l.458-1.578s13.694 4.54 14.352 7.5.329 23.7-1.975 25.343-5.6 4.279-3.291 8.228 4.937 8.228 6.912 8.557 5.6 2.633 4.608 4.937-12.836-1.975-12.836-1.975-7.9-5.924-7.57-15.14-.658-35.872-.658-35.872z" class="cls-9" data-name="Path 376" transform="translate(-331.418 -187.304)"/>
    <path id="Path_377" d="M369.415 357.554l-7.9 14.811S350 384.214 356.579 385.53s10.2-10.861 10.2-10.861l8.557-12.178z" class="cls-6" data-name="Path 377" transform="translate(-323.056 -288.241)"/>
    <path id="Path_378" d="M322.25 124.179a2.241 2.241 0 0 0-1.155.224 2.691 2.691 0 0 0-.781.9 11.372 11.372 0 0 1-3.36 3.295c-1 .635-2.267 1.427-2.1 2.6a3.247 3.247 0 0 0 .487 1.1 8.624 8.624 0 0 1 1.048 5.375l2.745-3.99c.436-.633 1.193-1.348 1.85-.951.22.133.365.372.594.489.547.279 1.129-.254 1.614-.632 1.67-1.3 4.046-.961 6.125-.555a4.012 4.012 0 0 1 2.639 1.257c.964 1.353-.043 3.309.52 4.872a1.436 1.436 0 0 0 .594-.948c.785.024 1.746-.053 2.082-.762a2.627 2.627 0 0 0 .161-.868 16.05 16.05 0 0 1 1.092-3.413 4.052 4.052 0 0 0-.1-3.469 4.2 4.2 0 0 0-.853-.9c-3.689-3.116-8.552-3.628-13.202-3.624z" class="cls-5" data-name="Path 378" transform="translate(-294.703 -121.588)"/>
    <path id="Path_379" d="M399.972 237.836l3.067.814s7.136 18.276 5.491 30.783-2.633 9.874-2.633 9.874-2.633-5.924-8.557-4.608z" class="cls-9" data-name="Path 379" transform="translate(-353.613 -202.752)"/>
    <path id="Path_380" d="M279.526 737.02c-.794 1.079-.635 2.62-1.338 3.76-.609.988-1.758 1.506-2.52 2.381a6.376 6.376 0 0 0-.648.932c-.707 1.184-1.282 2.7-.585 3.893a4.18 4.18 0 0 0 2.818 1.587 10.34 10.34 0 0 0 4.164.334 4.147 4.147 0 0 0 3.222-2.405 9.3 9.3 0 0 1 .345-.972c.748-1.473 3.1-1.489 3.862-2.954.536-1.025.043-2.263-.449-3.31l-1.5-3.2c-.5-1.06-2.523-.451-3.578-.7-1.381-.331-2.803-.696-3.793.654z" class="cls-5" data-name="Path 380" transform="translate(-265.624 -558.524)"/>
    <path id="Path_381" d="M254.6 374.823l13.823 21.393s8.557 10.861 11.19 5.924-9.216-13.165-9.216-13.165l-8.887-16.457z" class="cls-6" data-name="Path 381" transform="translate(-251.684 -298.927)"/>
    <path id="Path_382" d="M254.232 238.494l-2.633-.658s-5.266 1.646-6.583 8.557-.329 34.559 1.316 34.888 8.128-4.814 9.165-3.723-2.254-4.5-1.266-7.467.001-31.597.001-31.597z" class="cls-9" data-name="Path 382" transform="translate(-244.406 -202.752)"/>
    <g id="Group_13" data-name="Group 13" opacity="0.4" transform="translate(114.35 50.433)">
        <path id="Rectangle_55" d="M0 0H8.507V2.048H0z" class="cls-11" data-name="Rectangle 55" transform="translate(10.712)"/>
        <path id="Rectangle_56" d="M0 0H2.993V2.048H0z" class="cls-11" data-name="Rectangle 56" transform="translate(45.684)"/>
        <path id="Rectangle_57" d="M0 0H2.993V2.048H0z" class="cls-11" data-name="Rectangle 57" transform="translate(51.67)"/>
        <path id="Rectangle_58" d="M0 0H20.322V2.048H0z" class="cls-11" data-name="Rectangle 58" transform="translate(22.212)"/>
        <path id="Rectangle_59" d="M0 0H8.507V2.048H0z" class="cls-11" data-name="Rectangle 59" transform="translate(0 13.233)"/>
        <path id="Rectangle_60" d="M0 0H2.993V2.048H0z" class="cls-11" data-name="Rectangle 60" transform="translate(34.972 13.233)"/>
        <path id="Rectangle_61" d="M0 0H2.993V2.048H0z" class="cls-11" data-name="Rectangle 61" transform="translate(40.958 13.233)"/>
        <path id="Rectangle_62" d="M0 0H20.322V2.048H0z" class="cls-11" data-name="Rectangle 62" transform="translate(11.5 13.233)"/>
        <path id="Rectangle_63" d="M0 0H8.507V2.048H0z" class="cls-11" data-name="Rectangle 63" transform="translate(35.13 4.568)"/>
        <path id="Rectangle_64" d="M0 0H8.507V2.048H0z" class="cls-11" data-name="Rectangle 64" transform="translate(46.629 4.568)"/>
        <path id="Rectangle_66" d="M0 0H2.993V2.048H0z" class="cls-11" data-name="Rectangle 66" transform="translate(0 4.568)"/>
        <path id="Rectangle_67" d="M0 0H2.993V2.048H0z" class="cls-11" data-name="Rectangle 67" transform="translate(5.986 4.568)"/>
        <path id="Rectangle_68" d="M0 0H20.322V2.048H0z" class="cls-11" data-name="Rectangle 68" transform="translate(11.972 4.568)"/>
        <path id="Rectangle_69" d="M0 0H8.507V2.048H0z" class="cls-11" data-name="Rectangle 69" transform="translate(17.486 8.979)"/>
        <path id="Rectangle_70" d="M0 0H8.507V2.048H0z" class="cls-11" data-name="Rectangle 70" transform="translate(5.986 8.979)"/>
        <path id="Rectangle_71" d="M0 0H2.993V2.048H0z" class="cls-11" data-name="Rectangle 71" transform="translate(0 8.979)"/>
        <path id="Rectangle_73" d="M0 0H2.993V2.048H0z" class="cls-11" data-name="Rectangle 73" transform="translate(52.143 8.979)"/>
        <path id="Rectangle_74" d="M0 0H20.322V2.048H0z" class="cls-11" data-name="Rectangle 74" transform="translate(28.828 8.979)"/>
    </g>
</svg>
