<svg xmlns="http://www.w3.org/2000/svg" id="target-audience" width="46.048" height="46.048" viewBox="0 0 46.048 46.048">
    <defs>
        <style>
            .cls-1{fill:#2c0b2d}
        </style>
    </defs>
    <path id="Path_1732" d="M39.3 6.743a23.044 23.044 0 0 0-25.978-4.605.675.675 0 0 0 .569 1.223 21.7 21.7 0 1 1-2.67 1.48.675.675 0 0 0-.736-1.131A23.026 23.026 0 1 0 39.3 6.743z" class="cls-1"/>
    <path id="Path_1733" fill="#bb3e8c" d="M78.9 62.4h2.59a.679.679 0 0 0 .673-.724 19.115 19.115 0 0 0-17.674-17.653.678.678 0 0 0-.723.673v3.426a.686.686 0 0 1-1.372 0V44.7a.679.679 0 0 0-.724-.673 19.115 19.115 0 0 0-17.628 17.649.679.679 0 0 0 .673.724h2.5a.686.686 0 1 1 0 1.372h-2.5a.679.679 0 0 0-.673.724 19.115 19.115 0 0 0 17.627 17.648.679.679 0 0 0 .724-.673v-2.523a.686.686 0 1 1 1.372 0v2.526a.679.679 0 0 0 .723.673 19.071 19.071 0 0 0 9.328-3.233.675.675 0 1 0-.757-1.117 17.721 17.721 0 0 1-7.944 2.937v-1.786a2.035 2.035 0 0 0-4.07 0v1.782a17.86 17.86 0 0 1-15.59-15.61h1.76a2.035 2.035 0 1 0 0-4.07h-1.76a17.86 17.86 0 0 1 15.588-15.61v2.681a2.035 2.035 0 0 0 4.07 0v-2.686A17.852 17.852 0 0 1 80.749 61.05H78.9a2.035 2.035 0 0 0 0 4.07h1.85A17.718 17.718 0 0 1 75.4 75.9a.674.674 0 1 0 .934.973 19.06 19.06 0 0 0 5.824-12.377.679.679 0 0 0-.673-.724H78.9a.686.686 0 1 1 0-1.371z" transform="translate(-40.078 -40.061)"/>
    <path id="Path_1734" d="M226.475 163.238a3.238 3.238 0 1 0-3.238 3.238 3.241 3.241 0 0 0 3.238-3.238zm-5.126 0a1.889 1.889 0 1 1 1.889 1.889 1.891 1.891 0 0 1-1.889-1.889z" class="cls-1" transform="translate(-200.214 -145.61)"/>
    <path id="Path_1735" d="M312.756 159.878a2.878 2.878 0 1 0-2.878 2.878 2.881 2.881 0 0 0 2.878-2.878zm-4.407 0a1.529 1.529 0 1 1 1.529 1.529 1.531 1.531 0 0 1-1.529-1.529z" class="cls-1" transform="translate(-279.389 -142.88)"/>
    <path id="Path_1736" d="M142.878 162.756a2.878 2.878 0 1 0-2.878-2.878 2.881 2.881 0 0 0 2.878 2.878zm0-4.407a1.529 1.529 0 1 1-1.529 1.529 1.531 1.531 0 0 1 1.529-1.529z" class="cls-1" transform="translate(-127.409 -142.88)"/>
    <path id="Path_1737" d="M118.472 234.912a.675.675 0 0 0-1.287-.4 9.783 9.783 0 0 0-.227 2.922 2.237 2.237 0 0 0 2.264 2.2h4.572a2.484 2.484 0 0 0 2.48 2.428h6.369a2.484 2.484 0 0 0 2.48-2.428h4.482a2.237 2.237 0 0 0 2.264-2.2v-1.439A4.985 4.985 0 0 0 136.9 231h-.045a4.935 4.935 0 0 0-4.019 2.1 5.614 5.614 0 0 0-3.358-1.111h-.045a5.613 5.613 0 0 0-3.416 1.155A4.922 4.922 0 0 0 121.97 231h-.045a4.916 4.916 0 0 0-2.47.669.675.675 0 1 0 .679 1.166 3.565 3.565 0 0 1 1.791-.486h.045a3.573 3.573 0 0 1 3.064 1.76 5.616 5.616 0 0 0-1.24 3.524v.652h-4.571a.887.887 0 0 1-.915-.854 9.354 9.354 0 0 1 .165-2.518zm18.387-2.563h.045a3.635 3.635 0 0 1 3.618 3.642v1.439a.887.887 0 0 1-.915.854h-4.481v-.652a5.618 5.618 0 0 0-1.291-3.589 3.582 3.582 0 0 1 3.023-1.694zm-7.377.989a4.3 4.3 0 0 1 4.294 4.294v1.948a1.134 1.134 0 0 1-1.132 1.132h-6.369a1.134 1.134 0 0 1-1.132-1.132v-1.948a4.3 4.3 0 0 1 4.294-4.294z" class="cls-1" transform="translate(-106.435 -210.225)"/>
</svg>
