<svg xmlns="http://www.w3.org/2000/svg" width="51.567" height="47.869" viewBox="0 0 51.567 47.869">
    <defs>
        <style>
            .cls-2{fill:#bb3e8c}
        </style>
    </defs>
    <g id="circular-line-with-word-age-in-the-center" transform="translate(0 -5.845)">
        <g id="Group_4669" transform="translate(0 5.845)">
            <path id="Path_1755" fill="#2c0b2d" d="M51.567 35.985l-6.205-11.411-5.205 11.411h4.179c-2.631 8.213-11.325 15.183-20.4 15.183-11.242 0-21.389-10.147-21.389-21.389S12.692 8.391 23.933 8.391c8.662 0 15.843 4.262 18.79 11.9l2.257-1.9a23.949 23.949 0 1 0 2.052 17.595h4.536z" transform="translate(0 -5.845)"/>
            <path id="Path_1756" d="M35.486 75.943h2.241l.68-2.452h2.735l.738 2.452h2.32l-2.957-9.553h-2.835zm3.8-6.095c.156-.553.3-1.276.44-1.842h.028c.142.566.313 1.277.483 1.842l.6 2.029H38.72z" class="cls-2" transform="translate(-24.258 -47.233)"/>
            <path id="Path_1757" d="M70 67.858a5.324 5.324 0 0 1 2.224.409l.454-1.729a6.592 6.592 0 0 0-2.651-.468c-3.133 0-5.442 1.813-5.459 4.989a4.63 4.63 0 0 0 1.348 3.474 5.324 5.324 0 0 0 3.885 1.29 10.693 10.693 0 0 0 3.188-.538v-5.032h-3.554v1.687h1.476v2A3.114 3.114 0 1 1 70 67.858z" class="cls-2" transform="translate(-44.14 -47.014)"/>
            <path id="Path_1758" d="M102.436 68.166V66.4h-5.9v9.551h6.1v-1.77h-3.928v-2.272h3.516v-1.76h-3.516v-1.983z" class="cls-2" transform="translate(-65.993 -47.237)"/>
        </g>
    </g>
</svg>
