<svg xmlns="http://www.w3.org/2000/svg" width="61.219" height="44.942" viewBox="0 0 61.219 44.942">
    <defs>
        <style>
            .cls-1{fill:#bb3e8c}
        </style>
    </defs>
    <g id="team" transform="translate(0 -68.066)">
        <g id="Group_1754" transform="translate(46.96 87.243)">
            <g id="Group_1753">
                <path id="Path_1182" d="M399.8 229.5c-2.083-1.041-5.989-1.053-6.154-1.053a.9.9 0 0 0 0 1.794 15.483 15.483 0 0 1 5.352.864.9.9 0 1 0 .8-1.6z" class="cls-1" transform="translate(-392.751 -228.449)"/>
            </g>
        </g>
        <g id="Group_1756" transform="translate(0 68.066)">
            <g id="Group_1755">
                <path id="Path_1183" d="M58.482 101.064l-3.7-1.058a.376.376 0 0 1-.272-.36v-1.237a6.74 6.74 0 0 0 .857-.7 6.6 6.6 0 0 0 2.019-4.773v-1.708l.358-.716a5.721 5.721 0 0 0 .6-2.545v-4.622a.9.9 0 0 0-.9-.9h-8.63a5.7 5.7 0 0 0-5.691 5.691v.053a4.756 4.756 0 0 0 .5 2.116l.459.919v1.465a7 7 0 0 0 2.878 5.661v1.3c0 .2 0 .283-.74.494l-1.807.516-5.228-1.9a.9.9 0 0 0-.244-.687l-1.67-1.755v-2.951c.177-.146.351-.295.519-.453a10.525 10.525 0 0 0 3.316-7.651V82.91a10.366 10.366 0 0 0 .959-4.359v-9.588a.9.9 0 0 0-.9-.9H27.744a8.577 8.577 0 0 0-8.567 8.567v1.918a10.366 10.366 0 0 0 .959 4.359v2.024a10.958 10.958 0 0 0 3.835 8.369v3.016L22.3 98.068a.9.9 0 0 0-.244.687l-5.517 2.006a4.7 4.7 0 0 0-1.109.581l-.866-.433A6.849 6.849 0 0 0 18 98.129a.9.9 0 0 0 0-.8c-.647-1.293-.725-3.663-.788-5.567-.021-.634-.041-1.233-.079-1.766a7.8 7.8 0 0 0-7.606-7.545 7.8 7.8 0 0 0-7.607 7.543c-.038.533-.058 1.132-.079 1.766-.063 1.9-.141 4.274-.788 5.567a.9.9 0 0 0 0 .8 6.848 6.848 0 0 0 3.439 2.778l-2.407 1.2A3.754 3.754 0 0 0 0 105.485v6.625a.9.9 0 1 0 1.794 0v-6.625a1.969 1.969 0 0 1 1.094-1.771l3-1.5 1.042.991a3.771 3.771 0 0 0 5.2 0l1.042-.991.977.489a4.722 4.722 0 0 0-.721 2.5v6.9a.9.9 0 1 0 1.794 0v-6.9a2.948 2.948 0 0 1 1.934-2.762l5.817-2.115 2.422 3.633a1.849 1.849 0 0 0 1.361.817q.093.009.185.009a1.848 1.848 0 0 0 1.31-.544l1.477-1.477v9.341a.9.9 0 0 0 1.794 0v-9.335l1.477 1.477a1.848 1.848 0 0 0 1.31.544q.092 0 .185-.009a1.849 1.849 0 0 0 1.361-.817l2.422-3.632 5.817 2.115a2.948 2.948 0 0 1 1.934 2.762v6.9a.9.9 0 1 0 1.794 0v-6.9a4.741 4.741 0 0 0-1.326-3.281l.222-.063a4.916 4.916 0 0 0 .834-.3l2.29 2.29v8.258a.9.9 0 0 0 1.794 0v-8.258l2.274-2.274a2.133 2.133 0 0 0 .382.151l3.7 1.058a1.988 1.988 0 0 1 1.436 1.9v7.418a.9.9 0 1 0 1.794 0v-7.418a3.79 3.79 0 0 0-2.74-3.627zM5.753 99.48a6.447 6.447 0 0 1-2.878-1.848 9.885 9.885 0 0 0 .511-2.147A6.687 6.687 0 0 0 5.753 98.4zm5.137 2.427a1.979 1.979 0 0 1-2.728 0l-.834-.792a1.856 1.856 0 0 0 .218-.876v-.956a6.669 6.669 0 0 0 3.959 0v.955a1.856 1.856 0 0 0 .218.876zM9.527 97.79a4.862 4.862 0 0 1-4.857-4.856.891.891 0 0 0-1.044-.884c0-.077.005-.154.008-.231.02-.617.039-1.2.075-1.7a6.658 6.658 0 0 1 1.813-4.179 5.572 5.572 0 0 1 8.009 0 6.658 6.658 0 0 1 1.813 4.181c.035.5.055 1.082.075 1.7l.005.16a8.058 8.058 0 0 0-4.429-3.237 11.254 11.254 0 0 0-3.411-.54.9.9 0 0 0-.621.274l-1.618 1.676A.9.9 0 1 0 6.636 91.4L7.983 90c1.159.057 4.89.49 6.34 3.685a4.845 4.845 0 0 1-4.796 4.105zm3.773 1.693v-1.07a6.633 6.633 0 0 0 2.368-2.923 9.872 9.872 0 0 0 .511 2.142 6.477 6.477 0 0 1-2.879 1.851zm8.63-14.548V82.71a.9.9 0 0 0-.089-.39 8.6 8.6 0 0 1-.87-3.769v-1.918a6.782 6.782 0 0 1 6.774-6.774h12.526v8.692a8.6 8.6 0 0 1-.87 3.769.9.9 0 0 0-.089.39v2.553a8.609 8.609 0 0 1-2.749 6.343 8.925 8.925 0 0 1-.688.583l-.015.011a8.623 8.623 0 0 1-5.819 1.736 8.882 8.882 0 0 1-8.112-9.002zm5.049 18.044a.056.056 0 0 1-.05.018.057.057 0 0 1-.046-.027l-2.789-4.183.9-.943 4.231 2.892zm3.642-3.461L25.764 96.2v-1.675a10.1 10.1 0 0 0 4.16 1.2q.355.023.706.023a10.388 10.388 0 0 0 4.847-1.188v1.64zm3.738 3.451a.057.057 0 0 1-.046.027.055.055 0 0 1-.05-.018l-2.244-2.244 4.231-2.892.9.943zm16.375-.757l-2.034-2.034a2.46 2.46 0 0 0 .055-.533v-.378a6.288 6.288 0 0 0 1.776.314h.206a6.661 6.661 0 0 0 1.977-.3v.361a2.144 2.144 0 0 0 .065.523zm3.382-5.794a4.82 4.82 0 0 1-3.532 1.369 5.02 5.02 0 0 1-4.706-5.1v-1.671a.9.9 0 0 0-.095-.4l-.554-1.108a2.954 2.954 0 0 1-.31-1.314v-.054a3.9 3.9 0 0 1 3.9-3.9h7.733v3.725a3.918 3.918 0 0 1-.411 1.743l-.453.905a.9.9 0 0 0-.095.4v1.918a4.818 4.818 0 0 1-1.478 3.488z" transform="translate(0 -68.066)"/>
            </g>
        </g>
        <g id="Group_1758" transform="translate(55.59 105.461)">
            <g id="Group_1757">
                <path id="Path_1184" d="M465.82 380.814a.9.9 0 0 0-.9.9v5.753a.9.9 0 1 0 1.794 0v-5.753a.9.9 0 0 0-.894-.9z" transform="translate(-464.923 -380.814)"/>
            </g>
        </g>
        <g id="Group_1760" transform="translate(3.835 106.646)">
            <g id="Group_1759">
                <path id="Path_1185" d="M32.974 390.728a.9.9 0 0 0-.9.9v4.568a.9.9 0 0 0 1.794 0v-4.568a.9.9 0 0 0-.894-.9z" transform="translate(-32.077 -390.728)"/>
            </g>
        </g>
        <g id="Group_1762" transform="translate(23.012 76.213)">
            <g id="Group_1761">
                <path id="Path_1186" d="M207.415 138.866c-3.392-3.392-10.488-2.743-13.382-2.307a1.841 1.841 0 0 0-1.573 1.834v2.066a.9.9 0 1 0 1.794 0v-2.066a.059.059 0 0 1 .047-.061 28.329 28.329 0 0 1 5.826-.285c2.8.186 4.822.888 6.02 2.086a.9.9 0 0 0 1.268-1.268z" class="cls-1" transform="translate(-192.46 -136.203)"/>
            </g>
        </g>
        <g id="Group_1764" transform="translate(19.177 107.378)">
            <g id="Group_1763">
                <path id="Path_1187" d="M161.281 396.853a.9.9 0 0 0-.9.9v3.835a.9.9 0 0 0 1.794 0v-3.838a.9.9 0 0 0-.894-.897z" transform="translate(-160.384 -396.853)"/>
            </g>
        </g>
        <g id="Group_1766" transform="translate(40.271 107.378)">
            <g id="Group_1765">
                <path id="Path_1188" d="M337.7 396.853a.9.9 0 0 0-.9.9v3.835a.9.9 0 0 0 1.794 0v-3.838a.9.9 0 0 0-.894-.897z" transform="translate(-336.806 -396.853)"/>
            </g>
        </g>
    </g>
</svg>
