<svg xmlns="http://www.w3.org/2000/svg" viewBox="0 0 41.23 41.23"><defs><style>.cls-1{isolation:isolate;}.cls-2{fill:#bb3e8c;}.cls-3{fill:#2c0b2d;}</style></defs><g id="Layer_2" data-name="Layer 2"><g id="Layer_1-2" data-name="Layer 1"><g id="T" class="cls-1"><g class="cls-1"><path class="cls-2" d="M15.62,7.25V8.47H12.15V18H10.7V8.47H7.21V7.25Z"/></g></g><g id="U" class="cls-1"><g class="cls-1"><path class="cls-2" d="M29.53,34.72a2.81,2.81,0,0,0,1.15-.22,2.32,2.32,0,0,0,.86-.61,2.57,2.57,0,0,0,.54-.94,3.51,3.51,0,0,0,.19-1.2V25.23h1.59v6.52a5,5,0,0,1-.3,1.75,4.08,4.08,0,0,1-.86,1.38,4,4,0,0,1-1.37.92,4.66,4.66,0,0,1-1.8.33,4.71,4.71,0,0,1-1.81-.33,4,4,0,0,1-2.23-2.3,5,5,0,0,1-.3-1.75V25.23h1.6v6.51A3.89,3.89,0,0,0,27,33a2.89,2.89,0,0,0,.54.94,2.32,2.32,0,0,0,.86.61A2.86,2.86,0,0,0,29.53,34.72Z"/></g></g><path id="Path_450-5" data-name="Path 450-5" class="cls-3" d="M16.75,22.62a.61.61,0,0,0-.6-.61H2.55a1.33,1.33,0,0,1-1.34-1.33V2.55A1.34,1.34,0,0,1,2.55,1.21H20.68A1.33,1.33,0,0,1,22,2.55v13.6a.62.62,0,0,0,.61.6.6.6,0,0,0,.61-.6V2.55A2.55,2.55,0,0,0,20.68,0H2.55A2.55,2.55,0,0,0,0,2.55V20.68a2.56,2.56,0,0,0,2.55,2.55h13.6A.62.62,0,0,0,16.75,22.62Z"/><path id="Path_451-5" data-name="Path 451-5" class="cls-3" d="M38.68,18H33.5a.61.61,0,1,0,0,1.21h5.18A1.33,1.33,0,0,1,40,20.55V38.68A1.34,1.34,0,0,1,38.68,40H20.55a1.35,1.35,0,0,1-1.34-1.34V20.55a1.34,1.34,0,0,1,1.34-1.34H38.91a.61.61,0,0,0,0-1.21H20.55A2.55,2.55,0,0,0,18,20.55V38.68a2.56,2.56,0,0,0,2.55,2.55H38.68a2.57,2.57,0,0,0,2.55-2.55V20.55A2.56,2.56,0,0,0,38.68,18Z"/></g></g></svg>