<svg xmlns="http://www.w3.org/2000/svg" width="34.556" height="48.037" viewBox="0 0 34.556 48.037">
    <defs>
        <style>
            .cls-1{stroke:#000;stroke-width:.25px}
        </style>
    </defs>
    <g id="template" transform="translate(-72.093 .125)">
        <g id="Group_3565" transform="translate(72.218)">
            <g id="Group_3564">
                <path id="Path_1542" d="M102.885 0H75.858a3.644 3.644 0 0 0-3.64 3.64v34.118a.732.732 0 0 0 1.465 0V3.64a2.177 2.177 0 0 1 2.175-2.175h27.027a2.177 2.177 0 0 1 2.175 2.175v40.507a2.177 2.177 0 0 1-2.175 2.175H75.858a2.177 2.177 0 0 1-2.175-2.175V41.04a.732.732 0 0 0-1.465 0v3.108a3.644 3.644 0 0 0 3.64 3.64h27.027a3.644 3.644 0 0 0 3.64-3.64V3.64a3.644 3.644 0 0 0-3.64-3.64z" class="cls-1" transform="translate(-72.218)"/>
            </g>
        </g>
        <g id="Group_3567" transform="translate(76.057 3.95)">
            <g id="Group_3566">
                <path id="Path_1543" fill="#bb3e8c" stroke="#bb3e8c" stroke-width="0.25px" d="M139.243 49.674a.732.732 0 0 0-.732.732v20.148a.014.014 0 0 1-.014.014h-23.672a.014.014 0 0 1-.014-.014V43.8a.014.014 0 0 1 .014-.014H138.5a.014.014 0 0 1 .014.014v2.3a.732.732 0 1 0 1.465 0v-2.3a1.48 1.48 0 0 0-1.479-1.48h-23.675a1.48 1.48 0 0 0-1.479 1.479v26.755a1.48 1.48 0 0 0 1.479 1.479H138.5a1.48 1.48 0 0 0 1.479-1.479V50.407a.732.732 0 0 0-.736-.733z" transform="translate(-113.346 -42.32)"/>
            </g>
        </g>
        <g id="Group_3569" transform="translate(76.057 36.293)">
            <g id="Group_3568">
                <path id="Path_1544" d="M139.242 388.855h-25.164a.732.732 0 0 0 0 1.465h25.164a.732.732 0 1 0 0-1.465z" class="cls-1" transform="translate(-113.346 -388.855)"/>
            </g>
        </g>
        <g id="Group_3571" transform="translate(76.057 41.04)">
            <g id="Group_3570">
                <path id="Path_1545" d="M128.544 439.707h-14.466a.732.732 0 0 0 0 1.465h14.466a.732.732 0 0 0 0-1.465z" class="cls-1" transform="translate(-113.346 -439.707)"/>
            </g>
        </g>
    </g>
</svg>
