<svg xmlns="http://www.w3.org/2000/svg" id="timetable" width="12.893" height="12.893" viewBox="0 0 12.893 12.893">
    <defs>
        <style>
            .cls-1{fill:#f46a6a}
        </style>
    </defs>
    <path id="Path_1178" d="M12.138 7.36v-6.2a.378.378 0 0 0-.378-.379H9.846v-.4a.378.378 0 1 0-.755 0v.4H7.58v-.4a.378.378 0 1 0-.755 0v.4H5.313v-.4a.378.378 0 1 0-.755 0v.4H3.047v-.4a.378.378 0 1 0-.755 0v.4H.378A.378.378 0 0 0 0 1.158V11a.378.378 0 0 0 .378.378h6.29a3.4 3.4 0 1 0 5.47-4.018zM2.292 1.536v.378a.378.378 0 1 0 .755 0v-.378h1.511v.378a.378.378 0 1 0 .755 0v-.378h1.511v.378a.378.378 0 0 0 .755 0v-.378h1.512v.378a.378.378 0 1 0 .755 0v-.378h1.536v1.511H.755V1.536zM.755 10.627V3.8h10.627v2.868a3.4 3.4 0 0 0-4.741.977.376.376 0 0 0-.17-.041h-.755a.378.378 0 1 0 0 .755h.572a3.371 3.371 0 0 0-.173.755h-.4a.378.378 0 1 0 0 .755h.4a3.366 3.366 0 0 0 .173.755zm8.738 1.511a2.644 2.644 0 1 1 2.644-2.644 2.647 2.647 0 0 1-2.643 2.644zm0 0" class="cls-1"/>
    <path id="Path_1179" d="M363.889 303.511h-1.133v-1.133a.378.378 0 0 0-.755 0v1.511a.378.378 0 0 0 .378.378h1.511a.378.378 0 1 0 0-.755zm0 0" class="cls-1" transform="translate(-352.884 -294.395)"/>
    <path id="Path_1180" d="M92.133 182h-.755a.378.378 0 1 0 0 .755h.755a.378.378 0 0 0 0-.755zm0 0" class="cls-1" transform="translate(-88.708 -177.417)"/>
    <path id="Path_1181" d="M92.133 242h-.755a.378.378 0 1 0 0 .755h.755a.378.378 0 1 0 0-.755zm0 0" class="cls-1" transform="translate(-88.708 -235.906)"/>
    <path id="Path_1182" d="M92.133 302h-.755a.378.378 0 0 0 0 .755h.755a.378.378 0 0 0 0-.755zm0 0" class="cls-1" transform="translate(-88.708 -294.395)"/>
    <path id="Path_1183" d="M212.378 182.755h.755a.378.378 0 0 0 0-.755h-.755a.378.378 0 1 0 0 .755zm0 0" class="cls-1" transform="translate(-206.661 -177.417)"/>
    <path id="Path_1184" d="M212.378 242.755h.755a.378.378 0 0 0 0-.755h-.755a.378.378 0 1 0 0 .755zm0 0" class="cls-1" transform="translate(-206.661 -235.906)"/>
    <path id="Path_1185" d="M92.133 362h-.755a.378.378 0 0 0 0 .755h.755a.378.378 0 0 0 0-.755zm0 0" class="cls-1" transform="translate(-88.708 -352.884)"/>
    <path id="Path_1186" d="M332.378 182.755h.755a.378.378 0 0 0 0-.755h-.755a.378.378 0 1 0 0 .755zm0 0" class="cls-1" transform="translate(-323.639 -177.417)"/>
</svg>
