<svg id="edit-video" xmlns="http://www.w3.org/2000/svg" width="57.237" height="46.505" viewBox="0 0 57.237 46.505">
  <path id="Path_1612" data-name="Path 1612" d="M181.364,109.8a1.118,1.118,0,0,1-1.118-1.118V96.359a1.118,1.118,0,0,1,1.7-.954l10.075,6.164a1.118,1.118,0,0,1,0,1.907l-10.075,6.164A1.116,1.116,0,0,1,181.364,109.8Zm1.118-11.451v8.339l6.815-4.169Zm0,0" transform="translate(-160.096 -84.594)" fill="#bb3e8c"/>
  <path id="Path_1613" data-name="Path 1613" d="M55,24.1H52.61V3.354A3.357,3.357,0,0,0,49.256,0H3.354A3.358,3.358,0,0,0,0,3.354V32.5a3.358,3.358,0,0,0,3.354,3.354h31.5v8.411A2.239,2.239,0,0,0,37.087,46.5H55a2.238,2.238,0,0,0,2.236-2.236V26.332A2.238,2.238,0,0,0,55,24.1Zm-20.15,2.236v7.29H3.354A1.12,1.12,0,0,1,2.236,32.5V3.354A1.12,1.12,0,0,1,3.354,2.236h45.9a1.119,1.119,0,0,1,1.118,1.118V24.1H37.087A2.239,2.239,0,0,0,34.851,26.332ZM55,44.269H37.087V26.332H55Zm0,0" fill="#2c0b2d"/>
  <path id="Path_1614" data-name="Path 1614" d="M51.748,261.888H41.673a1.118,1.118,0,1,1,0-2.236H51.748a1.118,1.118,0,1,1,0,2.236Zm0,0" transform="translate(-36.021 -230.626)" fill="#bb3e8c"/>
  <path id="Path_1615" data-name="Path 1615" d="M166.857,261.888a1.118,1.118,0,1,1,0-2.236h0a1.118,1.118,0,1,1,0,2.236Zm0,0" transform="translate(-147.21 -230.626)" fill="#bb3e8c"/>
  <path id="Path_1616" data-name="Path 1616" d="M348.542,248.162v-1.314a1.118,1.118,0,1,0-2.236,0v1.314a3.354,3.354,0,0,0,0,6.324v5.787a1.118,1.118,0,0,0,2.236,0v-5.787a3.354,3.354,0,0,0,0-6.324Zm-1.118,4.282a1.12,1.12,0,1,1,1.118-1.12A1.12,1.12,0,0,1,347.424,252.444Zm0,0" transform="translate(-305.607 -218.26)" fill="#bb3e8c"/>
  <path id="Path_1617" data-name="Path 1617" d="M418.542,252.636v-5.787a1.118,1.118,0,1,0-2.236,0v5.787a3.354,3.354,0,0,0,0,6.325v1.313a1.118,1.118,0,0,0,2.236,0v-1.313a3.354,3.354,0,0,0,0-6.325Zm-1.118,4.282a1.119,1.119,0,1,1,1.118-1.119A1.119,1.119,0,0,1,417.424,256.917Zm0,0" transform="translate(-367.781 -218.26)" fill="#bb3e8c"/>
</svg>
