<svg xmlns="http://www.w3.org/2000/svg" width="24" height="24" viewBox="0 0 24 24">
    <defs>
        <style>
            .cls-3{fill:#2c0b2d}
        </style>
    </defs>
    <g id="Group_3652" transform="translate(-1143 -271.598)">
        <circle id="Ellipse_262" cx="12" cy="12" r="12" fill="#f6e3ef" transform="translate(1143 271.598)"/>
        <g id="Group_738" transform="translate(738.657 -.405)">
            <text id="आ" fill="#bb3e8c" font-family="DevanagariMT-Bold, Devanagari MT" font-size="4px" font-weight="700" transform="translate(414.432 283.002)">
                <tspan x="-1.87" y="0">आ</tspan>
            </text>
            <g id="translation" transform="translate(411.343 279.343)">
                <path id="Path_450" d="M4.269 5.765a.154.154 0 0 0-.154-.154H.649a.341.341 0 0 1-.34-.341V.649a.341.341 0 0 1 .34-.34H5.27a.341.341 0 0 1 .341.341v3.465a.154.154 0 1 0 .309 0V.649A.65.65 0 0 0 5.27 0H.649A.65.65 0 0 0 0 .649V5.27a.65.65 0 0 0 .649.649h3.466a.154.154 0 0 0 .154-.154z" class="cls-3"/>
                <path id="Path_451" d="M229.722 224.452H228.4a.154.154 0 1 0 0 .309h1.32a.341.341 0 0 1 .341.341v4.621a.341.341 0 0 1-.341.341h-4.62a.341.341 0 0 1-.341-.341V225.1a.341.341 0 0 1 .341-.341h2.64a.154.154 0 1 0 0-.309h-2.64a.65.65 0 0 0-.649.649v4.621a.65.65 0 0 0 .649.649h4.621a.65.65 0 0 0 .649-.649v-4.62a.65.65 0 0 0-.648-.648z" class="cls-3" transform="translate(-219.831 -219.831)"/>
                <path id="Path_453" fill="#bb3e8c" d="M305.3 288.717a.221.221 0 0 0-.205-.137.221.221 0 0 0-.205.138l-1.115 2.929a.154.154 0 1 0 .289.11l.24-.63h1.579l.238.629a.154.154 0 0 0 .289-.109l-1.105-2.929zm-.881 2.1l.675-1.774.669 1.774z" transform="translate(-297.509 -282.639)"/>
                <path id="Path_454" d="M90.569 306.793l-.66-.5a.154.154 0 1 0-.185.247l.29.217h-.527a1 1 0 0 1-1-1v-.99a.154.154 0 0 0-.309 0v.99a1.311 1.311 0 0 0 1.31 1.31h.527l-.29.217a.154.154 0 1 0 .185.247l.66-.5a.154.154 0 0 0 0-.247z" class="cls-3" transform="translate(-86.362 -298.346)"/>
                <path id="Path_455" d="M304.675 64.9l.66.5a.154.154 0 1 0 .185-.247l-.289-.217h.527a1 1 0 0 1 1 1v.99a.154.154 0 1 0 .309 0v-.99a1.311 1.311 0 0 0-1.31-1.31h-.527l.29-.217a.154.154 0 0 0-.185-.247l-.66.5a.154.154 0 0 0 0 .247z" class="cls-3" transform="translate(-298.342 -62.808)"/>
            </g>
        </g>
    </g>
</svg>
