<svg xmlns="http://www.w3.org/2000/svg" width="13.538" height="10.039" viewBox="0 0 13.538 10.039">
    <g id="diagram" transform="translate(-1.772 -51.273)">
        <g id="Group_494" data-name="Group 494" transform="translate(1.897 51.398)">
            <path id="Path_347" fill="#999" stroke="#999" stroke-width="0.25px" d="M12.749 56.2H11.7v-1.32a.239.239 0 0 0-.257-.249H6.9v-1.069h1.052a.519.519 0 0 0 .539-.523v-2.516A.519.519 0 0 0 7.952 50H5.336a.519.519 0 0 0-.539.523v2.541a.519.519 0 0 0 .539.523h1.052v1.046H1.847a.239.239 0 0 0-.257.249V56.2H.539a.519.519 0 0 0-.539.525v2.541a.519.519 0 0 0 .539.523h2.616a.519.519 0 0 0 .539-.523v-2.541a.519.519 0 0 0-.539-.523H2.1v-1.071h4.288V56.2H5.336a.519.519 0 0 0-.539.523v2.541a.519.519 0 0 0 .539.523h2.616a.519.519 0 0 0 .539-.523v-2.539a.519.519 0 0 0-.539-.523H6.9v-1.071h4.284V56.2h-1.051a.519.519 0 0 0-.539.523v2.541a.519.519 0 0 0 .539.523h2.617a.519.519 0 0 0 .539-.523v-2.539a.534.534 0 0 0-.54-.525zm-9.569.523c-.026-.025 0-.025 0 0v2.541c0 .025 0 .025-.026.025H.539c-.026 0-.026 0-.026-.025v-2.539c0-.025 0-.025.026-.025zm4.8 0c-.026-.025 0-.025 0 0v2.541c0 .025 0 .025-.026.025H5.336c-.026 0-.026 0-.026-.025v-2.539c0-.025 0-.025.026-.025zm-2.67-3.684c.026.025 0 .025 0 0v-2.516c0-.025 0-.025.026-.025h2.616c.026 0 .026 0 .026.025v2.541c0 .025 0 .025-.026.025zm7.465 6.2c0 .025-.026.025 0 0l-2.642.025c-.026 0-.026 0-.026-.025v-2.514c0-.025 0-.025.026-.025h2.617c.026 0 .026 0 .026.025z" data-name="Path 347" transform="translate(0 -50)"/>
        </g>
    </g>
</svg>
