<svg xmlns="http://www.w3.org/2000/svg" width="59.55" height="44.099" viewBox="0 0 59.55 44.099">
  <g id="led" transform="translate(-21.573 -32.584)">
    <path id="Path_1618" data-name="Path 1618" d="M62.332,66.84a.878.878,0,0,0,1.152-.461l7.011-16.359a.878.878,0,1,0-1.614-.691L61.87,65.687a.878.878,0,0,0,.462,1.152Z" transform="translate(-11.996 -4.835)" fill="#bb3e8c"/>
    <path id="Path_1619" data-name="Path 1619" d="M68.448,39.393a.877.877,0,0,0-1.152.461l-2.256,5.263a.878.878,0,0,0,1.614.691l2.256-5.263a.877.877,0,0,0-.462-1.152Z" transform="translate(-12.942 -2.009)" fill="#bb3e8c"/>
    <path id="Path_1620" data-name="Path 1620" d="M60.27,52.049,53.78,67.192a.878.878,0,0,0,1.614.691L61.883,52.74a.878.878,0,0,0-1.614-.691Z" transform="translate(-9.583 -5.646)" fill="#bb3e8c"/>
    <path id="Path_1621" data-name="Path 1621" d="M77.025,32.584H25.671a4.1,4.1,0,0,0-4.1,4.1V63.4a4.1,4.1,0,0,0,4.1,4.1h1.9a.877.877,0,0,0,0-1.754h-1.9A2.345,2.345,0,0,1,23.327,63.4V36.68a2.346,2.346,0,0,1,2.343-2.343H77.025a2.346,2.346,0,0,1,2.343,2.343V63.4a2.345,2.345,0,0,1-2.343,2.343H30.82a.877.877,0,0,0,0,1.754h14.82l-.983,4.048A4.066,4.066,0,0,0,40.85,75.6a1.083,1.083,0,0,0,1.081,1.082H60.764A1.083,1.083,0,0,0,61.845,75.6a4.07,4.07,0,0,0-4.064-4.065H46.467l.978-4.035h7.8l.539,2.225a.877.877,0,1,0,1.705-.414L57.055,67.5h19.97a4.1,4.1,0,0,0,4.1-4.1V36.68A4.1,4.1,0,0,0,77.025,32.584ZM59.991,74.925H42.7a2.316,2.316,0,0,1,2.21-1.638H57.781a2.316,2.316,0,0,1,2.21,1.638Z" fill="#2c0b2d"/>
  </g>
</svg>
