<svg xmlns="http://www.w3.org/2000/svg" width="59.217" height="47.623" viewBox="0 0 59.217 47.623">
    <defs>
        <style>
            .cls-1{fill:#bb3e8c}
        </style>
    </defs>
    <g id="online-video" transform="translate(0 -47.969)">
        <g id="Group_4641" transform="translate(0 47.969)">
            <path id="Path_1704" d="M56.193 82.605H3.024A3.027 3.027 0 0 1 0 79.582v-28.59a3.027 3.027 0 0 1 3.024-3.023h53.169a3.027 3.027 0 0 1 3.024 3.023v28.59a3.027 3.027 0 0 1-3.024 3.023zM3.024 50.411a.582.582 0 0 0-.582.581v28.59a.583.583 0 0 0 .582.581h53.169a.582.582 0 0 0 .582-.581v-28.59a.582.582 0 0 0-.582-.581z" transform="translate(0 -47.969)"/>
        </g>
        <g id="Group_4642" transform="translate(22.625 55.871)">
            <path id="Path_1705" d="M187.876 132.052a1.243 1.243 0 0 1-.662-1.085v-16.39a1.221 1.221 0 0 1 1.929-.995l11.524 8.195a1.221 1.221 0 0 1 0 1.99l-11.524 8.195a1.118 1.118 0 0 1-1.267.09zm1.781-15.108V128.6l8.2-5.828z" class="cls-1" transform="translate(-187.214 -113.357)"/>
        </g>
        <path id="Path_1706" d="M58 365.646H34.656a4.834 4.834 0 0 0-9.354 0H1.221a1.221 1.221 0 1 0 0 2.442H25.3a4.834 4.834 0 0 0 9.354 0H58a1.221 1.221 0 0 0 0-2.442zm-28.017 3.613a2.392 2.392 0 1 1 2.392-2.392 2.394 2.394 0 0 1-2.396 2.391z" class="cls-1" transform="translate(0 -276.109)"/>
    </g>
</svg>
