<svg xmlns="http://www.w3.org/2000/svg" width="45.029" height="45.587" viewBox="0 0 45.029 45.587">
    <defs>
        <style>
            .cls-1{fill:#2c0b2d}.cls-2{fill:#bb3e8c}
        </style>
    </defs>
    <g id="Group_4792" transform="translate(-660 -1667)">
        <g id="Group_4780" transform="translate(0 158)">
            <g id="Group_4769" transform="translate(266)">
                <g id="Group_4766" transform="translate(-28 158)">
                    <g id="television_1_" transform="translate(420 1348.978)">
                        <path id="Path_1805" d="M42.445 52.8H6.583A4.588 4.588 0 0 1 2 48.214V22.793a4.588 4.588 0 0 1 4.583-4.583h35.862a4.588 4.588 0 0 1 4.583 4.583v25.421a4.588 4.588 0 0 1-4.583 4.586zM6.583 19.5a3.3 3.3 0 0 0-3.3 3.3v25.414a3.3 3.3 0 0 0 3.3 3.3h35.862a3.3 3.3 0 0 0 3.3-3.3V22.793a3.3 3.3 0 0 0-3.3-3.3z" class="cls-1" transform="translate(0 -5.188)"/>
                        <path id="Path_1806" d="M33.939 50.993H11.6a3.063 3.063 0 0 1-3.059-3.059V27.567a3.063 3.063 0 0 1 3.059-3.059h22.339A3.063 3.063 0 0 1 37 27.567v20.366a3.063 3.063 0 0 1-3.059 3.059zM11.6 25.795a1.775 1.775 0 0 0-1.773 1.773v20.365a1.775 1.775 0 0 0 1.773 1.773h22.339a1.775 1.775 0 0 0 1.773-1.773V27.567a1.775 1.775 0 0 0-1.773-1.773z" class="cls-1" transform="translate(-2.543 -7.486)"/>
                        <path id="Path_1807" d="M59.431 32.764a3.241 3.241 0 1 1 3.24-3.241 3.241 3.241 0 0 1-3.24 3.241zm0-5.2a1.954 1.954 0 1 0 1.954 1.954 1.954 1.954 0 0 0-1.954-1.954z" class="cls-1" transform="translate(-19.331 -8.654)"/>
                        <path id="Path_1808" d="M59.645 44.912a2.855 2.855 0 1 1 2.855-2.855 2.855 2.855 0 0 1-2.855 2.855zm0-4.422a1.568 1.568 0 1 0 1.567 1.568 1.568 1.568 0 0 0-1.567-1.568z" class="cls-1" transform="translate(-19.545 -13.263)"/>
                        <path id="Path_1809" d="M56.51 60.043a.643.643 0 0 1-.643-.643v-2.1a.643.643 0 0 1 1.287 0v2.1a.643.643 0 0 1-.644.643z" class="cls-1" transform="translate(-19.216 -19.488)"/>
                        <path id="Path_1810" d="M60.872 60.043a.643.643 0 0 1-.643-.643v-2.1a.643.643 0 1 1 1.287 0v2.1a.643.643 0 0 1-.644.643z" class="cls-1" transform="translate(-20.772 -19.488)"/>
                        <path id="Path_1811" d="M65.232 60.043a.643.643 0 0 1-.643-.643v-2.1a.643.643 0 0 1 1.287 0v2.1a.643.643 0 0 1-.644.643z" class="cls-1" transform="translate(-22.328 -19.488)"/>
                        <path id="Path_1812" d="M37.616 13.583a.643.643 0 0 1-.426-1.125L43.474 6.9a.644.644 0 0 1 .852.965l-6.283 5.555a.643.643 0 0 1-.426.16z" class="cls-1" transform="translate(-12.476 -1.684)"/>
                        <path id="Path_1813" d="M22.868 11.825a.643.643 0 0 1-.414-.151l-10.13-8.516a.643.643 0 1 1 .828-.985l10.13 8.519a.643.643 0 0 1-.414 1.136z" class="cls-1" transform="translate(-3.601)"/>
                        <path id="Path_1814" d="M34.642 17.646a.643.643 0 0 1-.642-.579 3.043 3.043 0 0 0-6.057 0 .643.643 0 0 1-1.28-.125 4.33 4.33 0 0 1 8.62 0 .643.643 0 0 1-.579.7.515.515 0 0 1-.064 0z" class="cls-1" transform="translate(-8.798 -3.926)"/>
                    </g>
                </g>
            </g>
        </g>
        <g id="Group_4790" transform="translate(-3.158 10.367)">
            <path id="Path_1843" d="M81.33 71.39a.49.49 0 0 0-.473-.361h-1.683q-.094-.212-.2-.413l1.117-1.116a.49.49 0 0 0 .056-.627 8.117 8.117 0 0 0-2.5-2.325.491.491 0 0 0-.6.075L75.874 67.8q-.135-.056-.273-.1v-1.626a.49.49 0 0 0-.386-.479 8.1 8.1 0 0 0-3.407 0 .49.49 0 0 0-.386.479v1.621q-.138.049-.273.1l-1.177-1.177a.489.489 0 0 0-.6-.075 8.115 8.115 0 0 0-2.5 2.325.49.49 0 0 0 .056.627l1.117 1.117q-.106.2-.2.413h-1.679a.49.49 0 0 0-.473.361 8.07 8.07 0 0 0-.284 2.123 8.284 8.284 0 0 0 .1 1.283.491.491 0 0 0 .484.414h1.569a6.318 6.318 0 0 0 .232.665l-.44.44a.333.333 0 0 0-.028.032l-.708.708a.49.49 0 0 0-.075.6 8.16 8.16 0 0 0 2.323 2.5.49.49 0 0 0 .627-.056l1.117-1.116a6.075 6.075 0 0 0 .809.357v1.621a.49.49 0 0 0 .386.479 8.062 8.062 0 0 0 3.408 0 .49.49 0 0 0 .386-.479v-1.624a6.069 6.069 0 0 0 .809-.357l1.117 1.116a.49.49 0 0 0 .627.056 8.159 8.159 0 0 0 2.323-2.5.49.49 0 0 0-.075-.6l-.708-.708-.028-.032-.44-.44a6.232 6.232 0 0 0 .232-.665h1.569a.491.491 0 0 0 .484-.414 8.284 8.284 0 0 0 .1-1.283 8.069 8.069 0 0 0-.283-2.124zm-.73 2.841h-1.525a.491.491 0 0 0-.479.387 5.224 5.224 0 0 1-.4 1.155.49.49 0 0 0 .1.559l.649.649.029.032.46.46a7.2 7.2 0 0 1-1.511 1.63l-1.084-1.083a.489.489 0 0 0-.6-.072 5.1 5.1 0 0 1-1.261.557.491.491 0 0 0-.356.471v1.571a7.1 7.1 0 0 1-2.219 0v-1.57a.49.49 0 0 0-.356-.472 5.089 5.089 0 0 1-1.261-.557.49.49 0 0 0-.6.072L69.1 79.1a7.2 7.2 0 0 1-1.511-1.63l.459-.46a.329.329 0 0 0 .028-.032l.649-.649a.491.491 0 0 0 .1-.557 5.209 5.209 0 0 1-.4-1.155.491.491 0 0 0-.48-.388h-1.518c-.024-.24-.036-.48-.036-.717a7.12 7.12 0 0 1 .161-1.506h1.626a.49.49 0 0 0 .458-.315 5.448 5.448 0 0 1 .441-.906.49.49 0 0 0-.071-.6L67.923 69.1a7.156 7.156 0 0 1 1.632-1.511l1.138 1.138a.491.491 0 0 0 .56.095 4.9 4.9 0 0 1 .793-.3.49.49 0 0 0 .356-.471V66.48a7.152 7.152 0 0 1 2.219 0v1.571a.491.491 0 0 0 .355.471 4.9 4.9 0 0 1 .793.3.491.491 0 0 0 .56-.095l1.138-1.138A7.15 7.15 0 0 1 79.1 69.1l-1.082 1.082a.49.49 0 0 0-.071.6 5.449 5.449 0 0 1 .442.905.49.49 0 0 0 .458.315h1.627a7.1 7.1 0 0 1 .161 1.5c-.002.249-.014.489-.035.729z" class="cls-2" transform="translate(607.92 1611.392)"/>
            <path id="Path_1844" d="M85.1 81.51a3.592 3.592 0 1 0 3.591 3.59 3.592 3.592 0 0 0-3.591-3.59zm0 6.2a2.611 2.611 0 1 1 2.611-2.61 2.611 2.611 0 0 1-2.611 2.613z" class="cls-2" transform="translate(596.331 1599.804)"/>
        </g>
    </g>
</svg>
