<svg xmlns="http://www.w3.org/2000/svg" width="45.029" height="45.587" viewBox="0 0 45.029 45.587">
    <defs>
        <style>
            .cls-1{fill:#2c0b2d}.cls-2{fill:#bb3e8c}
        </style>
    </defs>
    <g id="Group_4772" transform="translate(-660 -1509)">
        <g id="Group_4769" transform="translate(266)">
            <g id="Group_4766" transform="translate(-28 158)">
                <g id="television_1_" transform="translate(420 1348.978)">
                    <path id="Path_1805" d="M42.445 52.8H6.583A4.588 4.588 0 0 1 2 48.214V22.793a4.588 4.588 0 0 1 4.583-4.583h35.862a4.588 4.588 0 0 1 4.583 4.583v25.421a4.588 4.588 0 0 1-4.583 4.586zM6.583 19.5a3.3 3.3 0 0 0-3.3 3.3v25.414a3.3 3.3 0 0 0 3.3 3.3h35.862a3.3 3.3 0 0 0 3.3-3.3V22.793a3.3 3.3 0 0 0-3.3-3.3z" class="cls-1" transform="translate(0 -5.188)"/>
                    <path id="Path_1806" d="M33.939 50.993H11.6a3.063 3.063 0 0 1-3.059-3.059V27.567a3.063 3.063 0 0 1 3.059-3.059h22.339A3.063 3.063 0 0 1 37 27.567v20.366a3.063 3.063 0 0 1-3.059 3.059zM11.6 25.795a1.775 1.775 0 0 0-1.773 1.773v20.365a1.775 1.775 0 0 0 1.773 1.773h22.339a1.775 1.775 0 0 0 1.773-1.773V27.567a1.775 1.775 0 0 0-1.773-1.773z" class="cls-1" transform="translate(-2.543 -7.486)"/>
                    <path id="Path_1807" d="M59.431 32.764a3.241 3.241 0 1 1 3.24-3.241 3.241 3.241 0 0 1-3.24 3.241zm0-5.2a1.954 1.954 0 1 0 1.954 1.954 1.954 1.954 0 0 0-1.954-1.954z" class="cls-1" transform="translate(-19.331 -8.654)"/>
                    <path id="Path_1808" d="M59.645 44.912a2.855 2.855 0 1 1 2.855-2.855 2.855 2.855 0 0 1-2.855 2.855zm0-4.422a1.568 1.568 0 1 0 1.567 1.568 1.568 1.568 0 0 0-1.567-1.568z" class="cls-1" transform="translate(-19.545 -13.263)"/>
                    <path id="Path_1809" d="M56.51 60.043a.643.643 0 0 1-.643-.643v-2.1a.643.643 0 0 1 1.287 0v2.1a.643.643 0 0 1-.644.643z" class="cls-1" transform="translate(-19.216 -19.488)"/>
                    <path id="Path_1810" d="M60.872 60.043a.643.643 0 0 1-.643-.643v-2.1a.643.643 0 1 1 1.287 0v2.1a.643.643 0 0 1-.644.643z" class="cls-1" transform="translate(-20.772 -19.488)"/>
                    <path id="Path_1811" d="M65.232 60.043a.643.643 0 0 1-.643-.643v-2.1a.643.643 0 0 1 1.287 0v2.1a.643.643 0 0 1-.644.643z" class="cls-1" transform="translate(-22.328 -19.488)"/>
                    <path id="Path_1812" d="M37.616 13.583a.643.643 0 0 1-.426-1.125L43.474 6.9a.644.644 0 0 1 .852.965l-6.283 5.555a.643.643 0 0 1-.426.16z" class="cls-1" transform="translate(-12.476 -1.684)"/>
                    <path id="Path_1813" d="M22.868 11.825a.643.643 0 0 1-.414-.151l-10.13-8.516a.643.643 0 1 1 .828-.985l10.13 8.519a.643.643 0 0 1-.414 1.136z" class="cls-1" transform="translate(-3.601)"/>
                    <path id="Path_1814" d="M34.642 17.646a.643.643 0 0 1-.642-.579 3.043 3.043 0 0 0-6.057 0 .643.643 0 0 1-1.28-.125 4.33 4.33 0 0 1 8.62 0 .643.643 0 0 1-.579.7.515.515 0 0 1-.064 0z" class="cls-1" transform="translate(-8.798 -3.926)"/>
                </g>
            </g>
        </g>
        <g id="Group_4771" transform="translate(659.721 1506.778)">
            <path id="Path_1782" d="M135.111 243.639a6.241 6.241 0 1 0-6.241 6.241 6.248 6.248 0 0 0 6.241-6.241zm-11.424 0a5.182 5.182 0 1 1 5.182 5.182 5.188 5.188 0 0 1-5.181-5.182zm0 0" class="cls-2" transform="translate(-110.35 -213.177)"/>
            <path id="Path_1783" d="M185.7 281.191a.831.831 0 0 0-.372-.693l-3.84-2.555a.833.833 0 0 0-1.294.693v5.109a.832.832 0 0 0 1.294.693l3.84-2.554a.831.831 0 0 0 .372-.693zm-4.447 2.133v-4.265l3.206 2.133zm0 0" class="cls-2" transform="translate(-163.852 -250.729)"/>
        </g>
    </g>
</svg>
