<svg xmlns="http://www.w3.org/2000/svg" width="45.404" height="35.12" viewBox="0 0 45.404 35.12">
    <defs>
        <style>
            .cls-1{fill:#2c0b2d}.cls-2{fill:#bb3e8c}
        </style>
    </defs>
    <g id="Group_4791" transform="translate(-926 -1677.284)">
        <g id="broadcasting" transform="translate(925.999 1667)">
            <path id="Path_1738" d="M45.405 119.57a3.607 3.607 0 0 0-3.6-3.6H3.6a3.607 3.607 0 0 0-3.6 3.6v8.219a.665.665 0 0 0 1.33 0v-8.219a2.276 2.276 0 0 1 2.27-2.27h38.2a2.276 2.276 0 0 1 2.273 2.273v21.372H1.331V130.45a.665.665 0 1 0-1.33 0v14.1a3.607 3.607 0 0 0 3.6 3.6H8.4l-.988 1.976a.665.665 0 0 0 .595.963h2.943a.665.665 0 0 0 .595-.368l1.285-2.571h1.927a.665.665 0 0 0 0-1.33H3.6a2.276 2.276 0 0 1-2.273-2.273v-2.273h42.748v2.273a2.276 2.276 0 0 1-2.273 2.273H17.417a.665.665 0 0 0 0 1.33h15.159l1.285 2.571a.665.665 0 0 0 .595.368h2.938a.665.665 0 0 0 .595-.963L37 148.149h4.8a3.607 3.607 0 0 0 3.6-3.6V119.57zm-34.866 30.187H9.088l.8-1.608h1.451zm25.78 0h-1.451l-.8-1.608h1.451z" class="cls-1" transform="translate(0 -105.683)"/>
            <path id="Path_1739" d="M383.168 432.063a.665.665 0 0 0 0-1.33H381.7a.665.665 0 1 0 0 1.33z" class="cls-1" transform="translate(-347.243 -392.535)"/>
            <path id="Path_1740" d="M333.468 432.063a.665.665 0 0 0 0-1.33H332a.665.665 0 0 0 0 1.33z" class="cls-1" transform="translate(-301.95 -392.535)"/>
            <path id="Path_1741" d="M432.868 432.063a.665.665 0 0 0 0-1.33H431.4a.665.665 0 0 0 0 1.33z" class="cls-1" transform="translate(-392.535 -392.535)"/>
        </g>
        <g id="film-reel" transform="translate(938.965 1678.299)">
            <path id="Path_1845" d="M57.881 16.7a.228.228 0 0 1-.187-.1c-.137-.194-.268-.365-.4-.52a.228.228 0 1 1 .347-.3c.142.166.281.347.426.554a.228.228 0 0 1-.187.36z" class="cls-2" transform="translate(-42.599 -8.528)"/>
            <path id="Path_1846" d="M9.412 19.427a7.384 7.384 0 1 1 2.243-14.422.228.228 0 0 1-.137.435A6.927 6.927 0 1 0 15.86 9.5a.228.228 0 1 1 .424-.168 7.385 7.385 0 0 1-6.872 10.095z" class="cls-2"/>
            <path id="Path_1847" d="M50.452 10.072a.228.228 0 0 1-.138-.047 6.488 6.488 0 0 0-.545-.373.228.228 0 1 1 .238-.39 6.932 6.932 0 0 1 .583.4.228.228 0 0 1-.139.411z" class="cls-2" transform="translate(-36.75 -3.527)"/>
            <path id="Path_1848" d="M28.237 15.645a1.807 1.807 0 1 1 1.807-1.807 1.807 1.807 0 0 1-1.807 1.807zm0-3.157a1.35 1.35 0 1 0 1.35 1.35 1.35 1.35 0 0 0-1.35-1.35z" class="cls-2" transform="translate(-18.824 -5.689)"/>
            <path id="Path_1849" d="M28.237 49.755a1.807 1.807 0 1 1 1.807-1.807 1.807 1.807 0 0 1-1.807 1.807zm0-3.157a1.35 1.35 0 1 0 1.35 1.35 1.35 1.35 0 0 0-1.35-1.348z" class="cls-2" transform="translate(-18.824 -32.011)"/>
            <path id="Path_1850" d="M45.291 32.7a1.807 1.807 0 1 1 1.809-1.807 1.807 1.807 0 0 1-1.809 1.807zm0-3.157a1.35 1.35 0 1 0 1.35 1.35 1.35 1.35 0 0 0-1.35-1.35z" class="cls-2" transform="translate(-31.984 -18.85)"/>
            <path id="Path_1851" d="M11.18 32.7a1.807 1.807 0 1 1 1.806-1.807A1.807 1.807 0 0 1 11.18 32.7zm0-3.157a1.35 1.35 0 1 0 1.35 1.35 1.35 1.35 0 0 0-1.35-1.35z" class="cls-2" transform="translate(-5.661 -18.85)"/>
            <path id="Path_1852" d="M15.946 32.715a.228.228 0 0 1-.211-.141 4.325 4.325 0 0 1 0-3.32.228.228 0 0 1 .421.176 3.868 3.868 0 0 0 0 2.968.228.228 0 0 1-.123.3.226.226 0 0 1-.087.017z" class="cls-2" transform="translate(-10.316 -18.871)"/>
            <path id="Path_1853" d="M50.138 32.717a.228.228 0 0 1-.211-.316 3.871 3.871 0 0 0 0-2.968.228.228 0 1 1 .421-.176 4.328 4.328 0 0 1 0 3.32.228.228 0 0 1-.211.14z" class="cls-2" transform="translate(-36.943 -18.873)"/>
            <path id="Path_1854" d="M29.831 18.836a.225.225 0 0 1-.088-.018 3.885 3.885 0 0 0-2.968 0 .228.228 0 1 1-.175-.418 4.346 4.346 0 0 1 3.321 0 .228.228 0 0 1-.088.439z" class="cls-2" transform="translate(-18.847 -10.347)"/>
            <path id="Path_1855" d="M28.258 53.336A4.289 4.289 0 0 1 26.6 53a.228.228 0 1 1 .176-.421 3.885 3.885 0 0 0 2.968 0 .228.228 0 1 1 .176.421 4.289 4.289 0 0 1-1.662.336z" class="cls-2" transform="translate(-18.845 -36.968)"/>
            <path id="Path_1856" d="M30.726 34.453a1.07 1.07 0 1 1 1.07-1.07 1.07 1.07 0 0 1-1.07 1.07zm0-1.684a.614.614 0 1 0 .614.614.614.614 0 0 0-.614-.614z" class="cls-2" transform="translate(-21.313 -21.339)"/>
            <path id="Path_1857" d="M41.942 62.881h-8.37a.228.228 0 0 1 0-.457h8.141v-1H37.9a.228.228 0 1 1 0-.457h4.044a.228.228 0 0 1 .228.228v1.456a.228.228 0 0 1-.23.23z" class="cls-2" transform="translate(-24.16 -43.453)"/>
        </g>
    </g>
</svg>
