<svg xmlns="http://www.w3.org/2000/svg" width="45.029" height="45.587" viewBox="0 0 45.029 45.587">
    <defs>
        <style>
            .cls-1{fill:#2c0b2d}
        </style>
    </defs>
    <g id="Group_4768" transform="translate(-394 -1509)">
        <g id="Group_4766" transform="translate(-28 158)">
            <g id="television_1_" transform="translate(420 1348.978)">
                <path id="Path_1805" d="M42.445 52.8H6.583A4.588 4.588 0 0 1 2 48.214V22.793a4.588 4.588 0 0 1 4.583-4.583h35.862a4.588 4.588 0 0 1 4.583 4.583v25.421a4.588 4.588 0 0 1-4.583 4.586zM6.583 19.5a3.3 3.3 0 0 0-3.3 3.3v25.414a3.3 3.3 0 0 0 3.3 3.3h35.862a3.3 3.3 0 0 0 3.3-3.3V22.793a3.3 3.3 0 0 0-3.3-3.3z" class="cls-1" transform="translate(0 -5.188)"/>
                <path id="Path_1806" d="M33.939 50.993H11.6a3.063 3.063 0 0 1-3.059-3.059V27.567a3.063 3.063 0 0 1 3.059-3.059h22.339A3.063 3.063 0 0 1 37 27.567v20.366a3.063 3.063 0 0 1-3.059 3.059zM11.6 25.795a1.775 1.775 0 0 0-1.773 1.773v20.365a1.775 1.775 0 0 0 1.773 1.773h22.339a1.775 1.775 0 0 0 1.773-1.773V27.567a1.775 1.775 0 0 0-1.773-1.773z" class="cls-1" transform="translate(-2.543 -7.486)"/>
                <path id="Path_1807" d="M59.431 32.764a3.241 3.241 0 1 1 3.24-3.241 3.241 3.241 0 0 1-3.24 3.241zm0-5.2a1.954 1.954 0 1 0 1.954 1.954 1.954 1.954 0 0 0-1.954-1.954z" class="cls-1" transform="translate(-19.331 -8.654)"/>
                <path id="Path_1808" d="M59.645 44.912a2.855 2.855 0 1 1 2.855-2.855 2.855 2.855 0 0 1-2.855 2.855zm0-4.422a1.568 1.568 0 1 0 1.567 1.568 1.568 1.568 0 0 0-1.567-1.568z" class="cls-1" transform="translate(-19.545 -13.263)"/>
                <path id="Path_1809" d="M56.51 60.043a.643.643 0 0 1-.643-.643v-2.1a.643.643 0 0 1 1.287 0v2.1a.643.643 0 0 1-.644.643z" class="cls-1" transform="translate(-19.216 -19.488)"/>
                <path id="Path_1810" d="M60.872 60.043a.643.643 0 0 1-.643-.643v-2.1a.643.643 0 1 1 1.287 0v2.1a.643.643 0 0 1-.644.643z" class="cls-1" transform="translate(-20.772 -19.488)"/>
                <path id="Path_1811" d="M65.232 60.043a.643.643 0 0 1-.643-.643v-2.1a.643.643 0 0 1 1.287 0v2.1a.643.643 0 0 1-.644.643z" class="cls-1" transform="translate(-22.328 -19.488)"/>
                <path id="Path_1812" d="M37.616 13.583a.643.643 0 0 1-.426-1.125L43.474 6.9a.644.644 0 0 1 .852.965l-6.283 5.555a.643.643 0 0 1-.426.16z" class="cls-1" transform="translate(-12.476 -1.684)"/>
                <path id="Path_1813" d="M22.868 11.825a.643.643 0 0 1-.414-.151l-10.13-8.516a.643.643 0 1 1 .828-.985l10.13 8.519a.643.643 0 0 1-.414 1.136z" class="cls-1" transform="translate(-3.601)"/>
                <path id="Path_1814" d="M34.642 17.646a.643.643 0 0 1-.642-.579 3.043 3.043 0 0 0-6.057 0 .643.643 0 0 1-1.28-.125 4.33 4.33 0 0 1 8.62 0 .643.643 0 0 1-.579.7.515.515 0 0 1-.064 0z" class="cls-1" transform="translate(-8.798 -3.926)"/>
            </g>
        </g>
        <g id="mask" transform="translate(404 1532)">
            <g id="Group_1735" transform="translate(1.319 3.803)">
                <g id="Group_1734">
                    <path id="Path_1163" d="M52.7 200.82a2.5 2.5 0 0 0-2.324.591.3.3 0 1 0 .4.42 1.946 1.946 0 0 1 1.748-.447.3.3 0 0 0 .373-.189v-.009a.3.3 0 0 0-.197-.366z" transform="translate(-50.234 -200.727)"/>
                </g>
            </g>
            <g id="Group_1737" transform="translate(5.015 2.879)">
                <g id="Group_1736">
                    <path id="Path_1164" d="M152.648 175.813v-.006a2.505 2.505 0 0 0-2.324.591.3.3 0 0 0 .408.429 1.925 1.925 0 0 1 1.748-.447.3.3 0 1 0 .169-.568z" transform="translate(-150.232 -175.715)"/>
                </g>
            </g>
            <g id="Group_1739" transform="translate(3.106 6.067)">
                <g id="Group_1738">
                    <path id="Path_1165" fill="#bb3e8c" d="M102.825 262.167a.3.3 0 0 0-.361-.2l-3.643.923a.3.3 0 0 0-.222.354 1.912 1.912 0 0 0 1.946 1.346 2.535 2.535 0 0 0 .624-.08 2.041 2.041 0 0 0 1.656-2.343zm-1.8 1.774a1.948 1.948 0 0 1-.476.059 1.452 1.452 0 0 1-1.257-.624l2.99-.757a1.563 1.563 0 0 1-1.258 1.322z" transform="translate(-98.591 -261.953)"/>
                </g>
            </g>
            <g id="Group_1741">
                <g id="Group_1740">
                    <path id="Path_1166" d="M16.406 70.9l-7.881-2.175a.3.3 0 0 0-.364.207l-.13.464-7.81 1.978a.3.3 0 0 0-.213.358l1.319 5.214A4.374 4.374 0 0 0 8.638 79a4.38 4.38 0 0 0 6.539-2.549l1.431-5.181a.3.3 0 0 0-.202-.37zm-9.9 8.644a3.785 3.785 0 0 1-4.6-2.735v-.01L.653 71.874l7.361-1.86 1.248 4.927a3.794 3.794 0 0 1-2.756 4.601zm8.1-3.253a3.791 3.791 0 0 1-5.572 2.259 4.412 4.412 0 0 0 .671-1.23l2.449.68a.367.367 0 0 0 .376-.216 2.032 2.032 0 0 0-1.606-2.366 2.478 2.478 0 0 0-1-.068 4.38 4.38 0 0 0-.1-.553l-.5-1.937a2.366 2.366 0 0 0 .961.213 2.218 2.218 0 0 0 .591-.08.3.3 0 0 0-.163-.577 1.851 1.851 0 0 1-1.594-.367l-.583-2.295.106-.387 7.307 2.02zm-4.732.458a4.344 4.344 0 0 0 .089-.807 1.878 1.878 0 0 1 .807.044A1.561 1.561 0 0 1 12 77.333z" transform="translate(0 -68.714)"/>
                </g>
            </g>
            <g id="Group_1743" transform="translate(11.582 3.059)">
                <g id="Group_1742">
                    <path id="Path_1167" d="M330.481 181.376a.3.3 0 0 0-.364-.207 1.925 1.925 0 0 1-1.739-.485.3.3 0 0 0-.417.42 2.662 2.662 0 0 0 1.721.716 2.213 2.213 0 0 0 .591-.08.3.3 0 0 0 .208-.364z" transform="translate(-327.874 -180.598)"/>
                </g>
            </g>
        </g>
    </g>
</svg>
