<svg xmlns="http://www.w3.org/2000/svg" width="37.842" height="43" viewBox="0 0 37.842 43">
    <defs>
        <style>
            .cls-1{fill:#2c0b2d;fill-rule:evenodd}
        </style>
    </defs>
    <g id="video_2_">
        <path id="Path_2507" d="M37 17.358H8.35l27.521-7.973a.84.84 0 0 0 .573-1.04L35 3.373A4.7 4.7 0 0 0 30.508 0a4.653 4.653 0 0 0-1.294.184L3.374 7.669a4.685 4.685 0 0 0-3.189 5.79l1.407 4.857v20.01A4.679 4.679 0 0 0 6.266 43h10.092a.84.84 0 0 0 0-1.68H6.267a3 3 0 0 1-2.994-2.994V26.9h32.89v11.426a3 3 0 0 1-2.994 2.994H23.077a.84.84 0 1 0 0 1.68h10.092a4.679 4.679 0 0 0 4.674-4.674V18.2a.84.84 0 0 0-.843-.842zm-14.809 7.86l3.568-6.18H30.4l-3.568 6.18zm-6.581 0l3.568-6.18h4.641l-3.568 6.18zm-6.581 0l3.568-6.18h4.641l-3.568 6.18zm3.123-10.872l-5.973-5.74 4.477-1.3a.833.833 0 0 0 .11.13l5.975 5.739-4.477 1.3a.836.836 0 0 0-.109-.13zm11.257-10.57l5.975 5.739-4.477 1.3a.818.818 0 0 0-.11-.13l-5.976-5.741 4.477-1.3a.833.833 0 0 0 .111.132zm-6.322 1.832l5.975 5.739-4.477 1.3a.818.818 0 0 0-.11-.13L12.5 6.775l4.477-1.3a.887.887 0 0 0 .11.133zM29.682 1.8a2.969 2.969 0 0 1 .826-.118 3.013 3.013 0 0 1 2.883 2.158L34.6 8.005l-3.37.976a.854.854 0 0 0-.111-.13l-5.977-5.738zM2.056 10.717a2.972 2.972 0 0 1 1.786-1.434l.493-.143a.854.854 0 0 0 .11.13l5.975 5.739-7.414 2.148L1.8 12.992a2.973 2.973 0 0 1 .256-2.275zm1.216 8.321h7.388l-3.568 6.18h-3.82zm25.5 6.18l3.568-6.18h3.82v6.18zm0 0" class="cls-1"/>
        <path id="Path_2508" fill="#bb3e8c" fill-rule="evenodd" d="M205.125 349.491a.84.84 0 0 0-.42-.727l-7.378-4.26a.84.84 0 0 0-1.26.727v8.52a.839.839 0 0 0 1.26.727l7.378-4.26a.84.84 0 0 0 .42-.727zm-7.378 2.805v-5.611l4.859 2.805zm0 0" transform="translate(-179.6 -315.468)"/>
        <path id="Path_2509" d="M225.613 492a.84.84 0 1 0 .84.84.841.841 0 0 0-.84-.84zm0 0" class="cls-1" transform="translate(-205.896 -450.68)"/>
    </g>
</svg>
