<svg xmlns="http://www.w3.org/2000/svg" width="55.439" height="46.2" viewBox="0 0 55.439 46.2">
    <g>
        <g>
            <g>
                <path fill="#2c0b2d" d="M46.2 40H0v46.2h55.439V40zM7.392 84.352H1.848v-5.544h5.544zm0-7.392H1.848v-5.544h5.544zm0-7.392H1.848v-5.544h5.544zm0-7.392H1.848v-5.544h5.544zm0-7.392H1.848V49.24h5.544zm0-7.392H1.848v-5.544h5.544zM46.2 84.352H9.24v-42.5H46.2zm7.392 0h-5.544v-5.544h5.544zm0-7.392h-5.544v-5.544h5.544zm0-7.392h-5.544v-5.544h5.544zm0-7.392h-5.544v-5.544h5.544zm0-7.392h-5.544V49.24h5.544zm0-7.392h-5.544v-5.544h5.544z" transform="translate(0 -40) translate(0 40) translate(0 -40)"/>
            </g>
        </g>
        <g>
            <g>
                <path fill="#bb3e8c" d="M190.665 175.818a.924.924 0 0 0-.343-.343l-12.936-7.392a.924.924 0 0 0-1.386.8v14.784a.924.924 0 0 0 1.386.8l12.936-7.392a.924.924 0 0 0 .343-1.257zm-12.817 6.261v-11.6L188 176.28z" transform="translate(0 -40) translate(20.328 54.779) translate(-176 -167.959)"/>
            </g>
        </g>
    </g>
</svg>
