<svg xmlns="http://www.w3.org/2000/svg" width="37.842" height="43" viewBox="0 0 37.842 43">
    <defs>
        <style>
            .cls-1,.cls-3{fill:#2c0b2d}.cls-1{fill-rule:evenodd}.cls-2{fill:#bb3e8c}
        </style>
    </defs>
    <g id="Group_7649" transform="translate(-699 -1826)">
        <g id="video_2_" transform="translate(699 1826)">
            <path id="Path_2507" d="M37 17.358H8.35l27.521-7.973a.84.84 0 0 0 .573-1.04L35 3.373A4.7 4.7 0 0 0 30.508 0a4.653 4.653 0 0 0-1.294.184L3.374 7.669a4.685 4.685 0 0 0-3.189 5.79l1.407 4.857v20.01A4.679 4.679 0 0 0 6.266 43h10.092a.84.84 0 0 0 0-1.68H6.267a3 3 0 0 1-2.994-2.994V26.9h32.89v11.426a3 3 0 0 1-2.994 2.994H23.077a.84.84 0 1 0 0 1.68h10.092a4.679 4.679 0 0 0 4.674-4.674V18.2a.84.84 0 0 0-.843-.842zm-14.809 7.86l3.568-6.18H30.4l-3.568 6.18zm-6.581 0l3.568-6.18h4.641l-3.568 6.18zm-6.581 0l3.568-6.18h4.641l-3.568 6.18zm3.123-10.872l-5.973-5.74 4.477-1.3a.833.833 0 0 0 .11.13l5.975 5.739-4.477 1.3a.836.836 0 0 0-.109-.13zm11.257-10.57l5.975 5.739-4.477 1.3a.818.818 0 0 0-.11-.13l-5.976-5.741 4.477-1.3a.833.833 0 0 0 .111.132zm-6.322 1.832l5.975 5.739-4.477 1.3a.818.818 0 0 0-.11-.13L12.5 6.775l4.477-1.3a.887.887 0 0 0 .11.133zM29.682 1.8a2.969 2.969 0 0 1 .826-.118 3.013 3.013 0 0 1 2.883 2.158L34.6 8.005l-3.37.976a.854.854 0 0 0-.111-.13l-5.977-5.738zM2.056 10.717a2.972 2.972 0 0 1 1.786-1.434l.493-.143a.854.854 0 0 0 .11.13l5.975 5.739-7.414 2.148L1.8 12.992a2.973 2.973 0 0 1 .256-2.275zm1.216 8.321h7.388l-3.568 6.18h-3.82zm25.5 6.18l3.568-6.18h3.82v6.18zm0 0" class="cls-1"/>
            <path id="Path_2509" d="M225.613 492a.84.84 0 1 0 .84.84.841.841 0 0 0-.84-.84zm0 0" class="cls-1" transform="translate(-205.896 -450.68)"/>
        </g>
        <g id="video-production" transform="translate(713 1854.688)">
            <path id="Path_1778" d="M89.507 59.181a.74.74 0 1 0-.74.74.741.741 0 0 0 .74-.74zm-1.174 0a.434.434 0 1 1 .434.434.435.435 0 0 1-.434-.434zm0 0" class="cls-2" transform="translate(-86.232 -56.76)"/>
            <path id="Path_1779" d="M262.213 59.921a.74.74 0 1 0-.74-.74.741.741 0 0 0 .74.74zm0-1.174a.434.434 0 1 1-.434.434.434.434 0 0 1 .434-.434zm0 0" class="cls-2" transform="translate(-256.14 -56.76)"/>
            <path id="Path_1780" d="M41.071 332.758a.153.153 0 0 0-.153.153v1.655a.08.08 0 0 1-.08.08H34.39a.08.08 0 0 1-.08-.08v-1.655a.153.153 0 0 0-.306 0v1.655a.387.387 0 0 0 .386.386h6.448a.387.387 0 0 0 .386-.386v-1.655a.153.153 0 0 0-.153-.153zm0 0" class="cls-3" transform="translate(-33.31 -325.482)"/>
            <path id="Path_1781" d="M40.838 209.766H34.39a.386.386 0 0 0-.386.386v1.656a.153.153 0 0 0 .306 0v-1.656a.08.08 0 0 1 .08-.08h6.448a.08.08 0 0 1 .08.08v1.656a.153.153 0 0 0 .306 0v-1.656a.386.386 0 0 0-.386-.386zm0 0" class="cls-3" transform="translate(-33.31 -204.998)"/>
            <path id="Path_1782" d="M126.235 239.2a1.8 1.8 0 1 0-1.8 1.8 1.8 1.8 0 0 0 1.8-1.8zm-3.3 0a1.5 1.5 0 1 1 1.5 1.5 1.5 1.5 0 0 1-1.5-1.5zm0 0" class="cls-2" transform="translate(-120.128 -232.067)"/>
            <path id="Path_1783" d="M181.786 278.782a.24.24 0 0 0-.107-.2l-1.109-.738a.241.241 0 0 0-.374.2v1.476a.24.24 0 0 0 .374.2l1.109-.738a.24.24 0 0 0 .107-.2zm-1.285.616v-1.232l.926.616zm0 0" class="cls-2" transform="translate(-176.52 -271.648)"/>
            <path id="Path_1784" d="M10.206 4.49a.423.423 0 0 0-.446.041L8.607 5.4v-.9a.5.5 0 0 0-.5-.5h-.934A1.921 1.921 0 1 0 4.3 1.67 1.922 1.922 0 1 0 1.434 4H.5a.5.5 0 0 0-.5.5v5.241a.5.5 0 0 0 .5.5h7.6a.5.5 0 0 0 .5-.5v-.9l1.152.87a.426.426 0 0 0 .682-.34v-4.5a.423.423 0 0 0-.228-.381zM6.072.806A1.616 1.616 0 0 1 6.435 4H5.71A1.616 1.616 0 0 1 6.072.806zM4.3 3.172A1.914 1.914 0 0 0 4.972 4H3.636a1.913 1.913 0 0 0 .664-.828zm-3.022.269A1.615 1.615 0 1 1 2.9 4h-.728a1.622 1.622 0 0 1-.89-.559zm7.02 6.3a.2.2 0 0 1-.2.2H.5a.2.2 0 0 1-.2-.2V4.5a.2.2 0 0 1 .2-.2h7.6a.2.2 0 0 1 .2.2v5.241zm1.834-.374a.12.12 0 0 1-.192.1L8.607 8.454V5.785l1.337-1.009a.12.12 0 0 1 .192.1zm0 0" class="cls-3"/>
        </g>
    </g>
</svg>
