<svg xmlns="http://www.w3.org/2000/svg" width="37.842" height="43" viewBox="0 0 37.842 43">
    <defs>
        <style>
            .cls-1{fill:#2c0b2d;fill-rule:evenodd}.cls-2{fill:#bb3e8c}
        </style>
    </defs>
    <g id="Group_7648" transform="translate(-930 -1827)">
        <g id="video_2_" transform="translate(930 1827)">
            <path id="Path_2507" d="M37 17.358H8.35l27.521-7.973a.84.84 0 0 0 .573-1.04L35 3.373A4.7 4.7 0 0 0 30.508 0a4.653 4.653 0 0 0-1.294.184L3.374 7.669a4.685 4.685 0 0 0-3.189 5.79l1.407 4.857v20.01A4.679 4.679 0 0 0 6.266 43h10.092a.84.84 0 0 0 0-1.68H6.267a3 3 0 0 1-2.994-2.994V26.9h32.89v11.426a3 3 0 0 1-2.994 2.994H23.077a.84.84 0 1 0 0 1.68h10.092a4.679 4.679 0 0 0 4.674-4.674V18.2a.84.84 0 0 0-.843-.842zm-14.809 7.86l3.568-6.18H30.4l-3.568 6.18zm-6.581 0l3.568-6.18h4.641l-3.568 6.18zm-6.581 0l3.568-6.18h4.641l-3.568 6.18zm3.123-10.872l-5.973-5.74 4.477-1.3a.833.833 0 0 0 .11.13l5.975 5.739-4.477 1.3a.836.836 0 0 0-.109-.13zm11.257-10.57l5.975 5.739-4.477 1.3a.818.818 0 0 0-.11-.13l-5.976-5.741 4.477-1.3a.833.833 0 0 0 .111.132zm-6.322 1.832l5.975 5.739-4.477 1.3a.818.818 0 0 0-.11-.13L12.5 6.775l4.477-1.3a.887.887 0 0 0 .11.133zM29.682 1.8a2.969 2.969 0 0 1 .826-.118 3.013 3.013 0 0 1 2.883 2.158L34.6 8.005l-3.37.976a.854.854 0 0 0-.111-.13l-5.977-5.738zM2.056 10.717a2.972 2.972 0 0 1 1.786-1.434l.493-.143a.854.854 0 0 0 .11.13l5.975 5.739-7.414 2.148L1.8 12.992a2.973 2.973 0 0 1 .256-2.275zm1.216 8.321h7.388l-3.568 6.18h-3.82zm25.5 6.18l3.568-6.18h3.82v6.18zm0 0" class="cls-1"/>
            <path id="Path_2509" d="M225.613 492a.84.84 0 1 0 .84.84.841.841 0 0 0-.84-.84zm0 0" class="cls-1" transform="translate(-205.896 -450.68)"/>
        </g>
        <g id="Group_7647" transform="translate(270.67 179.988)">
            <path id="Path_1843" d="M74.214 68.719a.271.271 0 0 0-.262-.2h-.931q-.052-.117-.11-.229l.618-.617a.271.271 0 0 0 .031-.347 4.489 4.489 0 0 0-1.382-1.286.271.271 0 0 0-.33.041l-.651.651q-.075-.031-.151-.058v-.9a.271.271 0 0 0-.214-.265 4.481 4.481 0 0 0-1.884 0 .271.271 0 0 0-.214.265v.9q-.076.027-.151.058l-.651-.651a.271.271 0 0 0-.33-.041 4.488 4.488 0 0 0-1.382 1.286.271.271 0 0 0 .031.347l.618.618q-.059.111-.11.229h-.93a.271.271 0 0 0-.262.2 4.463 4.463 0 0 0-.157 1.174 4.582 4.582 0 0 0 .056.71.271.271 0 0 0 .268.229h.866a3.5 3.5 0 0 0 .128.368l-.243.243-.015.018-.392.392a.271.271 0 0 0-.041.33 4.513 4.513 0 0 0 1.285 1.38.271.271 0 0 0 .347-.031l.618-.617a3.359 3.359 0 0 0 .447.2v.9a.271.271 0 0 0 .213.265 4.459 4.459 0 0 0 1.885 0 .271.271 0 0 0 .213-.265v-.9a3.357 3.357 0 0 0 .447-.2l.618.617a.271.271 0 0 0 .347.031 4.512 4.512 0 0 0 1.285-1.38.271.271 0 0 0-.041-.33l-.392-.391-.015-.018-.243-.243a3.449 3.449 0 0 0 .128-.368h.868a.271.271 0 0 0 .268-.229 4.582 4.582 0 0 0 .056-.71 4.463 4.463 0 0 0-.156-1.175zm-.405 1.571h-.841a.271.271 0 0 0-.265.214 2.889 2.889 0 0 1-.22.639.271.271 0 0 0 .053.309l.359.359.016.018.254.254a3.984 3.984 0 0 1-.836.9l-.6-.6a.271.271 0 0 0-.333-.04 2.82 2.82 0 0 1-.7.308.271.271 0 0 0-.2.261v.869a3.927 3.927 0 0 1-1.227 0v-.869a.271.271 0 0 0-.2-.261 2.815 2.815 0 0 1-.7-.308.271.271 0 0 0-.333.04l-.6.6a3.984 3.984 0 0 1-.836-.9l.254-.254.015-.018.359-.359a.271.271 0 0 0 .055-.308 2.881 2.881 0 0 1-.22-.639.271.271 0 0 0-.265-.215h-.841c-.013-.133-.02-.266-.02-.4a3.938 3.938 0 0 1 .089-.833h.9a.271.271 0 0 0 .253-.174 3.014 3.014 0 0 1 .244-.5.271.271 0 0 0-.04-.333l-.6-.6a3.958 3.958 0 0 1 .9-.836l.629.629a.272.272 0 0 0 .31.052 2.71 2.71 0 0 1 .438-.167.271.271 0 0 0 .2-.261V66a3.955 3.955 0 0 1 1.24 0v.869a.271.271 0 0 0 .2.261 2.708 2.708 0 0 1 .438.168.272.272 0 0 0 .31-.052l.629-.629a3.954 3.954 0 0 1 .9.836l-.6.6a.271.271 0 0 0-.04.333 3.013 3.013 0 0 1 .244.5.271.271 0 0 0 .253.174h.9a3.924 3.924 0 0 1 .089.832c.006.133-.001.265-.014.398z" class="cls-2" transform="translate(607.92 1611.392)"/>
            <path id="Path_1844" d="M83.494 81.51a1.986 1.986 0 1 0 1.987 1.99 1.986 1.986 0 0 0-1.986-1.986zm0 3.43a1.444 1.444 0 1 1 1.444-1.44 1.444 1.444 0 0 1-1.444 1.44z" class="cls-2" transform="translate(594.316 1597.789)"/>
        </g>
    </g>
</svg>
