<svg xmlns="http://www.w3.org/2000/svg" width="37.837" height="46.562" viewBox="0 0 37.837 46.562">
    <g>
        <g>
            <g>
                <path fill="#2c0b2d" d="M70.474 12.611v-.08a.9.9 0 0 0-.172-.259L58.641.2a.852.852 0 0 0-.249-.152h-.086A.831.831 0 0 0 58.091 0H34.4a1.753 1.753 0 0 0-1.72 1.785V44.8a1.752 1.752 0 0 0 1.72 1.758h34.4a1.753 1.753 0 0 0 1.72-1.785v-31.93a.925.925 0 0 0-.046-.232zM58.9 2.981L67.593 12H58.9zm9.9 41.8H34.4V1.723h22.78v10.308a1.753 1.753 0 0 0 1.72 1.785h9.9z" transform="translate(-32.68) translate(32.68) translate(-32.68)"/>
            </g>
        </g>
        <g>
            <g>
                <path fill="#bb3e8c" d="M125.03 130.96h-18.059a1.651 1.651 0 0 0-1.651 1.651v20.148a1.651 1.651 0 0 0 1.651 1.651h18.059a1.651 1.651 0 0 0 1.651-1.651v-20.148a1.651 1.651 0 0 0-1.651-1.651zm-13.26 1.72l8.427-.009v9.193h-8.427zm-1.72 20.011h-3.01v-2.9h3.01zm0-4.626h-3.01v-2.435l3.01-.009zm0-4.162h-3.01v-2.443h3.01zm0-4.162h-3.01V137.3h3.01zm0-4.171h-3.01v-2.89l3.01-.009zm10.15 17.12l-8.427-.009v-9.1h8.427zm4.738 0l-3.018-.009v-2.889h3.018zm0-4.626h-2.984l-.034-2.442h3.018zm0-4.162h-3.018v-2.442h3.018zm0-4.162h-3.018v-2.44h3.018zm0-4.171h-2.984v-2.889h3.018z" transform="translate(-32.68) translate(40.488 15.194) translate(-105.32 -130.96)"/>
            </g>
        </g>
    </g>
</svg>
