<svg xmlns="http://www.w3.org/2000/svg" width="51.269" height="47.836" viewBox="0 0 51.269 47.836">
    <defs>
        <style>
            .cls-1{fill:#bb3e8c}.cls-2{fill:#2c0b2d}
        </style>
    </defs>
    <g id="video-production" transform="translate(0 -.5)">
        <path id="Path_1778" d="M95.293 62.074a3.633 3.633 0 1 0-3.633 3.633 3.637 3.637 0 0 0 3.633-3.633zm-5.764 0a2.131 2.131 0 1 1 2.131 2.131 2.133 2.133 0 0 1-2.131-2.131zm0 0" class="cls-1" transform="translate(-79.213 -52.139)"/>
        <path id="Path_1779" d="M265.106 65.708a3.633 3.633 0 1 0-3.633-3.633 3.637 3.637 0 0 0 3.633 3.633zm0-5.764a2.131 2.131 0 1 1-2.131 2.131 2.133 2.133 0 0 1 2.131-2.132zm0 0" class="cls-1" transform="translate(-235.29 -52.139)"/>
        <path id="Path_1780" d="M68.706 332.758a.751.751 0 0 0-.751.751v8.129a.394.394 0 0 1-.394.394H35.9a.394.394 0 0 1-.394-.394v-8.129a.751.751 0 1 0-1.5 0v8.129a1.9 1.9 0 0 0 1.9 1.9h31.656a1.9 1.9 0 0 0 1.9-1.9v-8.129a.751.751 0 0 0-.756-.751zm0 0" class="cls-2" transform="translate(-30.599 -298.987)"/>
        <path id="Path_1781" d="M67.562 209.766H35.9a1.9 1.9 0 0 0-1.9 1.9v8.129a.751.751 0 0 0 1.5 0v-8.129a.394.394 0 0 1 .394-.394h31.668a.394.394 0 0 1 .394.394v8.129a.751.751 0 0 0 1.5 0v-8.129a1.9 1.9 0 0 0-1.894-1.9zm0 0" class="cls-2" transform="translate(-30.599 -188.311)"/>
        <path id="Path_1782" d="M140.334 246.251a8.852 8.852 0 1 0-8.853 8.853 8.862 8.862 0 0 0 8.853-8.853zm-16.2 0a7.35 7.35 0 1 1 7.351 7.351 7.359 7.359 0 0 1-7.354-7.351zm0 0" class="cls-1" transform="translate(-110.349 -213.176)"/>
        <path id="Path_1783" d="M188.005 282.608a1.178 1.178 0 0 0-.527-.983L182.031 278a1.181 1.181 0 0 0-1.836.983v7.247a1.181 1.181 0 0 0 1.836.983l5.447-3.623a1.179 1.179 0 0 0 .527-.982zm-6.308 3.025v-6.05l4.547 3.025zm0 0" class="cls-1" transform="translate(-162.151 -249.535)"/>
        <path id="Path_1784" d="M50.112 20.093a2.078 2.078 0 0 0-2.19.2l-5.659 4.271v-4.435a2.466 2.466 0 0 0-2.463-2.464h-4.58A9.434 9.434 0 1 0 21.132 6.246 9.436 9.436 0 1 0 7.043 17.665H2.464A2.467 2.467 0 0 0 0 20.129v25.743a2.466 2.466 0 0 0 2.464 2.463H39.8a2.466 2.466 0 0 0 2.463-2.463v-4.438l5.659 4.271a2.089 2.089 0 0 0 3.348-1.667V21.963a2.078 2.078 0 0 0-1.158-1.87zM29.816 2A7.933 7.933 0 0 1 31.6 17.665h-3.566A7.933 7.933 0 0 1 29.816 2zm-8.684 11.621a9.4 9.4 0 0 0 3.279 4.044h-6.559a9.4 9.4 0 0 0 3.279-4.044zM6.293 14.939a7.932 7.932 0 1 1 7.936 2.726h-3.563a7.962 7.962 0 0 1-4.373-2.726zm34.469 30.933a.963.963 0 0 1-.962.961H2.464a.963.963 0 0 1-.962-.961V20.129a.963.963 0 0 1 .962-.962H39.8a.963.963 0 0 1 .961.962v25.743zm9.006-1.835a.587.587 0 0 1-.941.469l-6.564-4.954v-13.1l6.564-4.954a.587.587 0 0 1 .941.469zm0 0" class="cls-2"/>
    </g>
</svg>
