<svg xmlns="http://www.w3.org/2000/svg" width="37.842" height="43" viewBox="0 0 37.842 43">
    <defs>
        <style>
            .cls-2{fill:#2c0b2d;fill-rule:evenodd}
        </style>
    </defs>
    <g id="Group_7650" transform="translate(-395 -1827)">
        <g id="Group_7644" transform="translate(-.48 490.484)">
            <g id="mask" transform="translate(406.481 1365)">
                <g id="Group_1735" transform="translate(1.25 3.607)">
                    <g id="Group_1734">
                        <path id="Path_1163" d="M52.57 200.815a2.368 2.368 0 0 0-2.2.561.28.28 0 1 0 .379.4 1.845 1.845 0 0 1 1.657-.423.28.28 0 0 0 .354-.18v-.008a.28.28 0 0 0-.19-.35z" transform="translate(-50.234 -200.727)"/>
                    </g>
                </g>
                <g id="Group_1737" transform="translate(4.756 2.73)">
                    <g id="Group_1736">
                        <path id="Path_1164" d="M152.523 175.808v-.008a2.376 2.376 0 0 0-2.2.561.281.281 0 0 0 .387.407 1.826 1.826 0 0 1 1.657-.423.281.281 0 1 0 .16-.538z" transform="translate(-150.232 -175.715)"/>
                    </g>
                </g>
                <g id="Group_1739" transform="translate(2.946 5.753)">
                    <g id="Group_1738">
                        <path id="Path_1165" fill="#bb3e8c" d="M102.606 262.156a.286.286 0 0 0-.342-.193l-3.455.875a.28.28 0 0 0-.21.336 1.813 1.813 0 0 0 1.845 1.276 2.4 2.4 0 0 0 .592-.076 1.936 1.936 0 0 0 1.57-2.218zm-1.708 1.683a1.849 1.849 0 0 1-.452.056 1.377 1.377 0 0 1-1.192-.592l2.835-.718a1.482 1.482 0 0 1-1.189 1.253z" transform="translate(-98.591 -261.953)"/>
                    </g>
                </g>
                <g id="Group_1741">
                    <g id="Group_1740">
                        <path id="Path_1166" d="M15.557 70.786l-7.472-2.062a.28.28 0 0 0-.345.2l-.123.44L.21 71.237a.28.28 0 0 0-.2.339l1.249 4.944a4.148 4.148 0 0 0 6.932 1.943 4.153 4.153 0 0 0 6.2-2.417l1.357-4.913a.28.28 0 0 0-.191-.347zm-9.388 8.2a3.59 3.59 0 0 1-4.364-2.593v-.009L.619 71.711 7.6 69.947l1.183 4.672a3.6 3.6 0 0 1-2.614 4.363zm7.684-3.086a3.6 3.6 0 0 1-5.283 2.14 4.184 4.184 0 0 0 .637-1.167l2.319.642a.348.348 0 0 0 .356-.2 1.926 1.926 0 0 0-1.523-2.243A2.35 2.35 0 0 0 9.414 75a4.154 4.154 0 0 0-.093-.524l-.471-1.834a2.244 2.244 0 0 0 .911.2 2.1 2.1 0 0 0 .561-.076.284.284 0 0 0-.154-.547 1.756 1.756 0 0 1-1.512-.348L8.1 69.7l.1-.367 6.93 1.915zm-4.487.435a4.12 4.12 0 0 0 .084-.766 1.781 1.781 0 0 1 .766.042 1.48 1.48 0 0 1 1.167 1.279z" transform="translate(0 -68.714)"/>
                    </g>
                </g>
                <g id="Group_1743" transform="translate(10.983 2.901)">
                    <g id="Group_1742">
                        <path id="Path_1167" d="M330.347 181.336a.281.281 0 0 0-.345-.2 1.826 1.826 0 0 1-1.649-.46.281.281 0 0 0-.4.4 2.524 2.524 0 0 0 1.632.679 2.1 2.1 0 0 0 .561-.076.281.281 0 0 0 .201-.343z" transform="translate(-327.874 -180.598)"/>
                    </g>
                </g>
            </g>
        </g>
        <g id="video_2_" transform="translate(395 1827)">
            <path id="Path_2507" d="M37 17.358H8.35l27.521-7.973a.84.84 0 0 0 .573-1.04L35 3.373A4.7 4.7 0 0 0 30.508 0a4.653 4.653 0 0 0-1.294.184L3.374 7.669a4.685 4.685 0 0 0-3.189 5.79l1.407 4.857v20.01A4.679 4.679 0 0 0 6.266 43h10.092a.84.84 0 0 0 0-1.68H6.267a3 3 0 0 1-2.994-2.994V26.9h32.89v11.426a3 3 0 0 1-2.994 2.994H23.077a.84.84 0 1 0 0 1.68h10.092a4.679 4.679 0 0 0 4.674-4.674V18.2a.84.84 0 0 0-.843-.842zm-14.809 7.86l3.568-6.18H30.4l-3.568 6.18zm-6.581 0l3.568-6.18h4.641l-3.568 6.18zm-6.581 0l3.568-6.18h4.641l-3.568 6.18zm3.123-10.872l-5.973-5.74 4.477-1.3a.833.833 0 0 0 .11.13l5.975 5.739-4.477 1.3a.836.836 0 0 0-.109-.13zm11.257-10.57l5.975 5.739-4.477 1.3a.818.818 0 0 0-.11-.13l-5.976-5.741 4.477-1.3a.833.833 0 0 0 .111.132zm-6.322 1.832l5.975 5.739-4.477 1.3a.818.818 0 0 0-.11-.13L12.5 6.775l4.477-1.3a.887.887 0 0 0 .11.133zM29.682 1.8a2.969 2.969 0 0 1 .826-.118 3.013 3.013 0 0 1 2.883 2.158L34.6 8.005l-3.37.976a.854.854 0 0 0-.111-.13l-5.977-5.738zM2.056 10.717a2.972 2.972 0 0 1 1.786-1.434l.493-.143a.854.854 0 0 0 .11.13l5.975 5.739-7.414 2.148L1.8 12.992a2.973 2.973 0 0 1 .256-2.275zm1.216 8.321h7.388l-3.568 6.18h-3.82zm25.5 6.18l3.568-6.18h3.82v6.18zm0 0" class="cls-2"/>
            <path id="Path_2509" d="M225.613 492a.84.84 0 1 0 .84.84.841.841 0 0 0-.84-.84zm0 0" class="cls-2" transform="translate(-205.896 -450.68)"/>
        </g>
    </g>
</svg>
