<svg xmlns="http://www.w3.org/2000/svg" width="971.44" height="662" viewBox="0 0 971.44 662">
    <defs>
        <linearGradient id="linear-gradient" x1=".5" x2=".5" y1="1" gradientUnits="objectBoundingBox">
            <stop offset="0" stop-color="gray" stop-opacity=".251"/>
            <stop offset=".535" stop-color="gray" stop-opacity=".122"/>
            <stop offset="1" stop-color="gray" stop-opacity=".102"/>
        </linearGradient>
        <style>
            .cls-4{opacity:.7}.cls-5{fill:url(#linear-gradient)}.cls-6{fill:#999}.cls-11{opacity:.1}.cls-8{fill:#e0e0e0}.cls-10{fill:#2c0b2d}.cls-12{fill:#ffb8b8}
        </style>
    </defs>
    <g id="undraw_Designer_by46_1_">
        <path id="Path_2505" fill="#7dac14" d="M260.114 656.809c-6.985 26.6-31.459 43.22-31.459 43.22s-13.15-26.5-6.166-53.1 31.459-43.22 31.459-43.22 13.152 26.502 6.166 53.1z" transform="translate(-114.28 -119)"/>
        <path id="Path_2506" fill="#7a647b" d="M249.52 651.183c-19.563 19.327-21.751 48.831-21.751 48.831s29.528-1.831 49.091-21.159 21.751-48.831 21.751-48.831-29.529 1.831-49.091 21.159z" transform="translate(-114.28 -119)"/>
        <rect id="Rectangle_1461" width="106.916" height="45.496" fill="#686b89" rx="15.198" transform="translate(68.053 573.241)"/>
        <g id="Group_7521" class="cls-4">
            <path id="Path_2507" d="M1009.774 663.178v-16.393H927.8v75.821a15.984 15.984 0 0 0 15.984 15.984h50a15.984 15.984 0 0 0 15.984-15.984V705.8a21.312 21.312 0 0 0 0-42.624zm0 34.427v-26.23a13.115 13.115 0 0 1 0 26.23z" class="cls-5" transform="translate(-114.28 -119)"/>
        </g>
        <path id="Path_2508" d="M1007.137 665.744A19.459 19.459 0 1 0 1026.6 685.2a19.459 19.459 0 0 0-19.463-19.456zm0 31.433a11.975 11.975 0 1 1 11.975-11.975 11.975 11.975 0 0 1-11.975 11.975z" class="cls-6" transform="translate(-114.28 -119)"/>
        <path id="Path_2509" fill="#686b89" d="M1007.137 665.744A19.459 19.459 0 1 0 1026.6 685.2a19.459 19.459 0 0 0-19.463-19.456zm0 31.433a11.975 11.975 0 1 1 11.975-11.975 11.975 11.975 0 0 1-11.975 11.975z" opacity="0.1" transform="translate(-115.28 -119)"/>
        <path id="Path_2510" d="M818.016 531.776h74.841v74.072a9.75 9.75 0 0 1-9.75 9.75h-55.341a9.75 9.75 0 0 1-9.75-9.75z" class="cls-6"/>
        <path id="Rectangle_1462" d="M0 0H971.44V32.93H0z" class="cls-8" transform="translate(0 615.598)"/>
        <g id="Group_7522" class="cls-4">
            <path id="Path_2511" d="M753.249 514.265c-10.412-37.792-69.438-65.389-113.851-71.508.006-.279.021-.555.021-.836v-32.35c.047-.017.1-.032.143-.049V408.3a110.939 110.939 0 0 0 67.01-70.232 119.889 119.889 0 0 0 7.15-15.416c4.741-1.726 8.322-9.545 8.322-18.939a33.07 33.07 0 0 0-1.338-9.5 121.545 121.545 0 0 0 .894-14.413 120.18 120.18 0 0 0-39.7-89.382 23.447 23.447 0 0 0 .375-5.877c-1-15.527-17.589-26.076-33.133-26.781a32.8 32.8 0 0 0 5.532-34.637c-9.911 14.439-30.259 15.974-47.772 16.088 7.557-2.926 10.957-13.4 6.562-20.205-18.3 24.534-53.985 29.077-75.756 50.594a63.864 63.864 0 0 0-11.78 16.067 120.241 120.241 0 0 0-45.319 94.133 121.557 121.557 0 0 0 .872 14.289 32.965 32.965 0 0 0-1.38 9.625c0 9.437 3.615 17.28 8.388 18.958a119.88 119.88 0 0 0 7.183 15.467 110.917 110.917 0 0 0 66.541 69.985v33.8c0 .26.014.517.02.776-44.581 6.014-104.079 33.828-114.4 71.924-8.911 32.9-18.424 69.028-23.157 90.241 40.568 28.506 125.693 45.243 179.041 45.243 50.687 0 133.533-15.107 172.907-41.063-4.263-23.311-14.076-61.027-23.375-94.78z" class="cls-5" transform="translate(-114.28 -119)"/>
        </g>
        <path id="Path_2512" fill="#ffc52f" d="M603.61 640.722c48.9 0 128.814-14.573 166.8-39.612-4.114-22.484-13.58-58.868-22.55-91.428-11.424-41.468-83.528-70.216-126.54-70.216h-41.452c-43.146 0-115.353 28.915-126.634 70.56-8.6 31.736-17.773 66.589-22.338 87.052 39.135 27.497 121.252 43.644 172.714 43.644z" transform="translate(-114.28 -119)"/>
        <circle id="Ellipse_287" cx="116.236" cy="116.236" r="116.236" class="cls-10" transform="translate(370.571 48.261)"/>
        <path id="Path_2513" d="M449.291 261.311h74.479v59.583a37.239 37.239 0 0 1-37.239 37.239 37.239 37.239 0 0 1-37.239-37.239v-59.583z" class="cls-11"/>
        <path id="Path_2514" d="M459.974 258.553h53.113a10.683 10.683 0 0 1 10.683 10.683v48.9a37.239 37.239 0 0 1-37.239 37.239 37.239 37.239 0 0 1-37.239-37.239v-48.9a10.683 10.683 0 0 1 10.683-10.683z" class="cls-12"/>
        <path id="Path_2515" d="M563.709 408.434a107.191 107.191 0 0 0 74.479.206v-9.15h-74.479z" class="cls-11" transform="translate(-114.28 -119)"/>
        <circle id="Ellipse_288" cx="106.753" cy="106.753" r="106.753" class="cls-12" transform="translate(380.054 80.915)"/>
        <path id="Path_2516" d="M525.046 209.565s44.99 91.323 171.9 38.275L667.4 201.507l-52.376-18.8z" class="cls-11" transform="translate(-114.28 -119)"/>
        <path id="Path_2517" d="M525.046 208.222s44.99 91.323 171.9 38.275L667.4 200.164l-52.376-18.8z" class="cls-10" transform="translate(-114.28 -119)"/>
        <path id="Path_2518" d="M524.647 202.052a61.67 61.67 0 0 1 15.285-24.863c21-20.757 55.422-25.139 73.079-48.806 4.24 6.568.959 16.668-6.33 19.491 16.894-.11 36.523-1.59 46.084-15.519a31.641 31.641 0 0 1-5.336 33.413c14.994.681 30.993 10.857 31.962 25.835.646 9.979-5.611 19.427-13.811 25.149s-18.121 8.35-27.886 10.5c-28.506 6.288-131.648 32.63-113.047-25.2z" class="cls-10" transform="translate(-114.28 -119)"/>
        <path id="Path_2519" d="M707.836 307.6h-2.83l-55.062 49.019c-53.048-24.845-91.994 0-91.994 0l-57.748-47-5.823.732a106.744 106.744 0 1 0 213.47-2.746zm-106.911 67.82c-20.768 0-37.6-4.209-37.6-9.4s16.836-9.4 37.6-9.4 37.6 4.209 37.6 9.4-16.833 9.403-37.601 9.403z" class="cls-10" transform="translate(-114.28 -119)"/>
        <ellipse id="Ellipse_289" cx="9.93" cy="18.62" class="cls-12" rx="9.93" ry="18.62" transform="translate(370.081 168.947)"/>
        <ellipse id="Ellipse_290" cx="9.93" cy="18.62" class="cls-12" rx="9.93" ry="18.62" transform="translate(583.615 168.947)"/>
        <g id="Group_7523" class="cls-4">
            <rect id="Rectangle_1463" width="413.124" height="237.894" class="cls-5" rx="14.5" transform="translate(279.158 377.704)"/>
        </g>
        <rect id="Rectangle_1464" width="398.156" height="233.505" class="cls-6" rx="26.835" transform="translate(286.642 382.093)"/>
        <circle id="Ellipse_291" cx="13.471" cy="13.471" r="13.471" fill="#fff" transform="translate(472.249 485.374)"/>
        <path id="Rectangle_1465" d="M0 0H889.115V13.471H0z" class="cls-8" transform="translate(41.163 648.529)"/>
        <path id="Rectangle_1466" d="M0 0H889.115V4.49H0z" opacity="0.478" transform="translate(41.163 648.529)"/>
        <path id="Path_2520" d="M993.665 650.776V720a14.594 14.594 0 0 1-14.594 14.6h7.484a14.594 14.594 0 0 0 14.594-14.6v-69.224z" class="cls-11" transform="translate(-114.28 -119)"/>
        <path id="Path_2521" fill="#fdc32f" d="M947.064 594.979c-1.262.216-2.686.557-3.305 1.678-.982 1.78.8 3.786 2.421 5.009 3 2.259 6.16 4.478 8.2 7.632s2.679 7.554.451 10.576c-2.91 3.946-9.852 4.795-10.524 9.652-.431 3.118 2.264 5.778 5 7.343 6.741 3.862 15.432 4.892 20.315 10.935 2.02-4.154 6.538-6.555 11.042-7.58s9.183-.949 13.749-1.644c1.474-.225 3.135-.675 3.794-2.012 1.276-2.59-2.362-5.7-1.106-8.3.956-1.979 3.763-1.826 5.813-2.618 3.338-1.291 4.715-5.587 3.767-9.038s-3.624-6.148-6.438-8.36c-7.584-5.96-16.7-9.464-25.927-11.985-4.29-1.172-9.326-3.011-13.781-3.189-4.308-.171-9.213 1.173-13.471 1.901z" opacity="0.3" transform="translate(-114.28 -119)"/>
    </g>
</svg>
