<svg xmlns="http://www.w3.org/2000/svg" width="13.012" height="13.009" viewBox="0 0 13.012 13.009">
    <g>
        <g>
            <path fill="#818181" d="M6.508.05a6.5 6.5 0 0 0-5.98 3.944l-.081.027.031.094A6.5 6.5 0 1 0 6.508.05zm5.1 9.784l-.332-.334v-.777a.217.217 0 0 0-.022-.1l-.846-1.689v-.813a.217.217 0 0 0-.1-.18l-.65-.434a.217.217 0 0 0-.173-.03l-.8.2L7.354 5.1 7.17 3.812l.51-.51h1.1l.369.554a.217.217 0 0 0 .145.093l1.3.217a.215.215 0 0 0 .1-.008l1.2-.4a6.049 6.049 0 0 1-.284 6.076zm-.894-7.647l-.353.235-.983-.2-.638-.212a.213.213 0 0 0-.121 0l-.806.2-.353-.118.262-.524h.733a.217.217 0 0 0 .1-.023L9.3 1.17a6.093 6.093 0 0 1 1.416 1.017zM4.131.968l.52.347a.217.217 0 0 0 .085.033l1.051.175-.1.307-.547.183a.217.217 0 0 0-.117.094L4.4 3.144l-1 .6-1.474.211a.217.217 0 0 0-.186.214v.65a.217.217 0 0 0 .064.153l.37.37v.372l-.9-.6-.333-.981A6.106 6.106 0 0 1 4.131.968zm-.617 7.109l-.98-.2-.364-.723v-.51l.808-.808.3.6a.217.217 0 0 0 .194.12h1.394l.587.979a.217.217 0 0 0 .186.105h.6l-.149.76-.821.821a.217.217 0 0 0-.064.153v.542l-.781.585a.217.217 0 0 0-.087.173v.783l-.27-.089-.381-.952V8.289a.217.217 0 0 0-.172-.212zm-.652 3.333A6.069 6.069 0 0 1 .7 4.782l.18.54a.217.217 0 0 0 .085.112l1.081.72L1.8 6.4a.217.217 0 0 0-.064.153V7.2a.217.217 0 0 0 .023.1l.434.867a.217.217 0 0 0 .152.116l.911.182v1.991a.217.217 0 0 0 .015.08l.429 1.086a.217.217 0 0 0 .133.125l.65.217a.213.213 0 0 0 .067.011.217.217 0 0 0 .217-.217v-.976l.781-.585a.217.217 0 0 0 .087-.173v-.561l.8-.8a.217.217 0 0 0 .065-.115l.217-1.084a.217.217 0 0 0-.211-.264h-.744l-.587-.979a.217.217 0 0 0-.186-.105H3.6l-.372-.747a.217.217 0 0 0-.159-.117.212.212 0 0 0-.188.061L2.6 5.6v-.346a.217.217 0 0 0-.06-.154l-.37-.37v-.373l1.33-.19a.218.218 0 0 0 .081-.029l1.084-.65a.217.217 0 0 0 .074-.074L5.35 2.4l.574-.192a.215.215 0 0 0 .137-.137l.217-.65a.217.217 0 0 0-.138-.274l-.032-.008L4.853.928l-.22-.147A6.054 6.054 0 0 1 8.8.936l-.4.2h-.81a.217.217 0 0 0-.2.12l-.434.867a.217.217 0 0 0 .1.291l.028.012.65.217a.213.213 0 0 0 .121 0l.806-.2.591.2.026.007 1.084.217a.215.215 0 0 0 .163-.032l.493-.329a6.117 6.117 0 0 1 .652.871l-1.067.356-1.151-.196-.382-.572a.217.217 0 0 0-.179-.1H7.59a.217.217 0 0 0-.153.064l-.65.65a.217.217 0 0 0-.061.184l.217 1.518a.217.217 0 0 0 .13.168L8.59 6.1a.214.214 0 0 0 .138.011l.772-.19.473.316v.751a.217.217 0 0 0 .022.1l.846 1.689v.813a.217.217 0 0 0 .064.153l.454.454a6.069 6.069 0 0 1-8.497 1.213z" transform="translate(0 -.05) translate(0 .05) translate(0 -.05)"/>
        </g>
    </g>
</svg>
