<svg xmlns="http://www.w3.org/2000/svg" viewBox="0 0 512 511.98"><defs><style>.cls-1{fill:#21bbbf;}.cls-2{fill:#7ead15;}.cls-3{fill:#f6b81a;}.cls-4{fill:#e85720;}.cls-5{fill:#b52c81;}.cls-6{fill:#fff;}.cls-555{fill: #000;}</style></defs><title>ZEE5_For_Black_Bg@1x</title><g id="Layer_2" data-name="Layer 2"><g id="Layer_1-2" data-name="Layer 1"><path class="cls-1" d="M256,17V0C114.61,0,0,114.61,0,256S114.61,512,256,512V495c-91.78-.08-179.26-53.35-218.6-142.76C-15.76,231.44,39.07,90.44,159.85,37.3A238,238,0,0,1,256,17"/><path class="cls-2" d="M166.65,52.94l-6.87-15.61C39,90.47-15.83,231.47,37.31,352.24S231.45,527.85,352.23,474.71l-6.87-15.61a221.56,221.56,0,0,1-200.29-11C39,386.89,2.6,251.2,63.87,145.09A220.84,220.84,0,0,1,166.65,52.94"/><path class="cls-3" d="M358.43,78.55l8.49-14.69C260.8,2.59,125.12,39,63.86,145.06S39,386.86,145.06,448.12l8.51-14.74a204.8,204.8,0,0,1-46-36.42c-77.85-82-74.46-211.67,7.59-289.52,67.36-63.93,166.8-73.07,243.32-28.89"/><path class="cls-4" d="M126.75,119.8l-11.69-12.32C33,185.34,29.58,314.92,107.44,397S314.92,482.39,397,404.54l-11.74-12.37a187.49,187.49,0,0,1-169.86,47.09C114.14,416.82,50.27,316.58,72.71,215.36a187,187,0,0,1,54-95.56"/><path class="cls-5" d="M292.92,89.38l3.7-16.67C195.4,50.27,95.15,114.14,72.71,215.36s41.43,201.46,142.65,223.9l3.69-16.65h0A170.66,170.66,0,1,1,292.89,89.37h0"/><path class="cls-6" d="M381.34,282h43.22a170,170,0,0,0,1.79-18.34l-45,.22Z"/><path class="cls-6" d="M381.34,229.45V247l44.94-.22a172.43,172.43,0,0,0-1.81-17.29Z"/><path class="cls-6" d="M362.48,298.87V212.56H421a170.67,170.67,0,1,0,.14,86.31Z"/><path class="cls-555" d="M448.6,287.06l9.34-10.93c6.88,6.39,14.13,10.32,22.12,10.32,10.32,0,17.07-5.9,17.07-14.87v-.24c0-8.72-7.37-14.25-17.81-14.25a36.74,36.74,0,0,0-15.85,3.81l-9.09-6,2.46-42.15h51.35v13.4H469.86l-1.35,20.14a36.62,36.62,0,0,1,13.63-2.45c16.71,0,29.86,8.84,29.86,27v.24c0,17.57-12.78,29.12-31.82,29.12-13.15,0-23.47-5.28-31.58-13.15"/><polygon points="339.63 229.45 292.77 229.45 292.77 246.96 339.63 246.96 339.63 263.85 292.77 263.85 292.77 281.97 339.63 281.97 339.63 298.87 273.91 298.87 273.91 212.56 339.63 212.56 339.63 229.45"/><polygon points="254.06 226.99 206.59 282.22 254.06 282.22 254.06 298.87 182.18 298.87 182.18 284.44 229.65 229.2 183.66 229.2 183.66 212.56 254.06 212.56 254.06 226.99"/><path d="M426.29,246.74h-.63l-44.32.22V229.45h43.15A171.43,171.43,0,0,0,421,212.56H362.48v86.31H421.1a171.47,171.47,0,0,0,3.47-16.9H381.34V263.85l44.42-.22h.61q.17-3.79.17-7.64C426.54,252.89,426.45,249.8,426.29,246.74Z"/></g></g></svg>