<svg xmlns="http://www.w3.org/2000/svg" width="24" height="24" viewBox="0 0 24 24">
    <g transform="translate(-1143 -361.598)">
        <circle cx="12" cy="12" r="12" fill="#f6e3ef" transform="translate(1143 361.598)"/>
        <g>
            <g>
                <g>
                    <path fill="#2c0b2d" d="M40.2 2.434v-.015a.173.173 0 0 0-.034-.05L37.846.038A.171.171 0 0 0 37.8.009h-.02A.17.17 0 0 0 37.737 0h-4.715a.343.343 0 0 0-.342.345v8.3a.343.343 0 0 0 .342.339h6.845a.343.343 0 0 0 .342-.345v-6.16a.174.174 0 0 0-.009-.045zM37.9.575l1.73 1.742H37.9zm1.97 8.068h-6.848V.333h4.533v1.99a.343.343 0 0 0 .342.345h1.97z" transform="translate(1118.32 369.321) translate(32.68) translate(-32.68)"/>
                </g>
            </g>
            <g>
                <g>
                    <path fill="#b83d8a" d="M109.377 130.96h-3.717a.34.34 0 0 0-.34.34v4.147a.34.34 0 0 0 .34.34h3.717a.34.34 0 0 0 .34-.34V131.3a.34.34 0 0 0-.34-.34zm-2.73.354h1.735v1.886h-1.735zm-.354 4.119h-.62v-.6h.62zm0-.952h-.62v-.5h.62zm0-.857h-.62v-.5h.62zm0-.857h-.62v-.5h.62zm0-.859h-.62v-.595h.62zm2.089 3.524h-1.735v-1.873h1.735zm.975 0h-.621v-.595h.621zm0-.952h-.614l-.007-.5h.621zm0-.857h-.621v-.5h.621zm0-.857h-.621v-.5h.621zm0-.859h-.614v-.595h.621z" transform="translate(1118.32 369.321) translate(34.165 2.735) translate(-105.32 -130.96)"/>
                </g>
            </g>
        </g>
    </g>
</svg>
