<svg xmlns="http://www.w3.org/2000/svg" width="24" height="24" viewBox="0 0 24 24">
    <defs>
        <style>
            .cls-2{fill:#2c0b2d}.cls-3{fill:#b83d8a}
        </style>
    </defs>
    <g id="Group_7788" transform="translate(-51 -181)">
        <g id="Group_7786" transform="translate(-1092 -225)">
            <circle id="Ellipse_271" cx="12" cy="12" r="12" fill="#f6e3ef" transform="translate(1143 406)"/>
        </g>
        <g id="smart-tv" transform="translate(43 173)">
            <path id="Path_1625" d="M24.313 16h-7.989a.324.324 0 0 0-.324.324v4.246a.324.324 0 0 0 .324.324h7.989a.324.324 0 0 0 .324-.324v-4.246a.324.324 0 0 0-.324-.324zm-8.025 4.57v-4.246a.036.036 0 0 1 .036-.036h.252v4.318h-.252a.036.036 0 0 1-.036-.036zm.576-4.282h6.909v4.318h-6.909zm7.485 4.282a.036.036 0 0 1-.036.036h-.252v-4.318h.252a.036.036 0 0 1 .036.036z" class="cls-2"/>
            <path id="Path_1626" d="M161.726 56a1.713 1.713 0 0 0-1.031.342l.172.231a1.441 1.441 0 1 1-.185.165l-.209-.2a1.727 1.727 0 1 0 1.253-.538z" class="cls-3" transform="translate(-141.408 -39.28)"/>
            <path id="Path_1627" d="M224.144 105.727a.144.144 0 0 0 .076-.022l1.152-.72a.144.144 0 0 0 0-.244l-1.152-.72a.144.144 0 0 0-.22.122v1.439a.144.144 0 0 0 .144.145zm.144-1.324l.736.46-.736.46z" class="cls-3" transform="translate(-204.257 -86.416)"/>
            <path id="Path_1628" d="M80 48.144v.288h.288v-.144h.144V48h-.288a.144.144 0 0 0-.144.144z" class="cls-2" transform="translate(-62.848 -31.424)"/>
            <path id="Path_1629" d="M408.288 48H408v.288h.144v.144h.288v-.288a.144.144 0 0 0-.144-.144z" class="cls-2" transform="translate(-384.947 -31.424)"/>
            <path id="Path_1630" d="M408.144 232.144H408v.288h.288a.144.144 0 0 0 .144-.144V232h-.288z" class="cls-2" transform="translate(-384.947 -212.113)"/>
            <path id="Path_1631" d="M80.288 232H80v.288a.144.144 0 0 0 .144.144h.288v-.288h-.144z" class="cls-2" transform="translate(-62.848 -212.113)"/>
            <path id="Path_1632" d="M24.133 304.72h-.648v-.22a.5.5 0 0 0-.5-.5H18.3v.288h4.68a.216.216 0 0 1 .216.216v1.128a.5.5 0 0 0-.216-.049h-.362a.325.325 0 0 0 0-.036v-.5a.324.324 0 0 0-.324-.324h-1.08a.324.324 0 0 0-.324.324v.5a.325.325 0 0 0 0 .036h-.218a.5.5 0 0 0-.36.152.5.5 0 0 0-.36-.152h-.218a.325.325 0 0 0 0-.036v-.5a.324.324 0 0 0-.324-.324h-1.08a.324.324 0 0 0-.324.324v.5a.325.325 0 0 0 0 .036h-.362a.5.5 0 0 0-.216.049V304.5a.216.216 0 0 1 .216-.216h.36V304h-.36a.5.5 0 0 0-.5.5v.216H16.5a.5.5 0 0 0-.5.5v1.152a.5.5 0 0 0 .432.5v.437a.144.144 0 0 0 .144.144h.576a.144.144 0 0 0 .129-.08l.248-.5h5.58l.248.5a.144.144 0 0 0 .129.08h.576a.144.144 0 0 0 .144-.144v-.437a.5.5 0 0 0 .432-.5v-.36h-.288v.36a.216.216 0 0 1-.216.216h-.648v-1.583h.648a.216.216 0 0 1 .216.216v.5h.288v-.5a.5.5 0 0 0-.505-.497zm-2.951.828v-.5a.036.036 0 0 1 .036-.036H22.3a.036.036 0 0 1 .036.036v.5a.036.036 0 0 1-.036.036h-1.08a.036.036 0 0 1-.038-.037zm-2.879 0v-.5a.036.036 0 0 1 .036-.036h1.08a.036.036 0 0 1 .036.036v.5a.036.036 0 0 1-.036.036h-1.08a.036.036 0 0 1-.039-.037zm-.648.324h2.3a.216.216 0 0 1 .216.216v.5h-2.732v-.5a.216.216 0 0 1 .216-.217zm-1.367.5v-1.152a.216.216 0 0 1 .216-.216h.648v1.583H16.5a.216.216 0 0 1-.212-.212zm.775.792h-.343v-.288h.487zm6.854-.288v.288h-.343l-.144-.288zm-3.455-.288v-.5a.216.216 0 0 1 .216-.216h2.3a.216.216 0 0 1 .216.216v.5z" class="cls-2" transform="translate(0 -282.818)"/>
        </g>
    </g>
</svg>
