<svg xmlns="http://www.w3.org/2000/svg" width="24" height="24" viewBox="0 0 24 24">
    <defs>
        <style>
            .cls-2{fill:#2c0b2d}.cls-3{fill:#b83d8a}
        </style>
    </defs>
    <g id="Group_7791" transform="translate(-52 -310)">
        <circle id="Ellipse_271" cx="12" cy="12" r="12" fill="#f6e3ef" transform="translate(52 310)"/>
        <g id="Template" transform="translate(57 315)">
            <path id="Path_2481" d="M11.95 2H2.524A.524.524 0 0 0 2 2.524v9.426a.524.524 0 0 0 .524.524h9.426a.524.524 0 0 0 .524-.524V2.524A.524.524 0 0 0 11.95 2zm-9.6.524a.175.175 0 0 1 .175-.175h9.425a.175.175 0 0 1 .175.175v1.571H2.349zm9.775 9.426a.175.175 0 0 1-.175.175H2.524a.175.175 0 0 1-.175-.175V4.444h9.775z" class="cls-2"/>
            <path id="Path_2482" d="M32.713 7.047h-4.189a.524.524 0 0 1 0-1.047h4.189a.524.524 0 0 1 0 1.047zm-4.189-.7a.175.175 0 0 0 0 .349h4.189a.175.175 0 0 0 0-.349z" class="cls-2" transform="translate(-21.461 -3.302)"/>
            <path id="Path_2483" d="M6.524 7.047a.524.524 0 1 1 .524-.524.524.524 0 0 1-.524.524zm0-.7a.175.175 0 1 0 .175.175.175.175 0 0 0-.175-.173z" class="cls-3" transform="translate(-3.302 -3.302)"/>
            <path id="Path_2484" d="M13.524 7.047a.524.524 0 1 1 .524-.524.524.524 0 0 1-.524.524zm0-.7a.175.175 0 1 0 .175.175.175.175 0 0 0-.175-.173z" class="cls-3" transform="translate(-9.08 -3.302)"/>
            <path id="Path_2485" d="M20.524 7.047a.524.524 0 1 1 .524-.524.524.524 0 0 1-.524.524zm0-.7a.175.175 0 1 0 .175.175.175.175 0 0 0-.175-.173z" class="cls-3" transform="translate(-14.858 -3.302)"/>
            <path id="Path_2486" d="M12.968 22.444h-2.793a.175.175 0 0 1-.175-.175v-2.094a.175.175 0 0 1 .175-.175h2.793a.175.175 0 0 1 .175.175v2.095a.175.175 0 0 1-.175.174zm-2.618-.349h2.444v-1.746h-2.445z" class="cls-2" transform="translate(-6.604 -14.858)"/>
            <path id="Path_2487" d="M35.666 22.349h-3.491a.175.175 0 0 1 0-.349h3.491a.175.175 0 0 1 0 .349z" class="cls-3" transform="translate(-24.763 -16.509)"/>
            <path id="Path_2488" d="M35.666 26.349h-3.491a.175.175 0 0 1 0-.349h3.491a.175.175 0 0 1 0 .349z" class="cls-3" transform="translate(-24.763 -19.811)"/>
            <path id="Path_2489" d="M35.666 30.349h-3.491a.175.175 0 0 1 0-.349h3.491a.175.175 0 0 1 0 .349z" class="cls-3" transform="translate(-24.763 -23.112)"/>
            <path id="Path_2490" d="M43.92 37.047h-1.745a.175.175 0 0 1-.175-.174v-.7a.175.175 0 0 1 .175-.173h1.745a.175.175 0 0 1 .175.175v.7a.175.175 0 0 1-.175.172zm-1.571-.347h1.4v-.349h-1.4z" class="cls-2" transform="translate(-33.018 -28.065)"/>
            <path id="Path_2491" d="M11.92 37.047h-1.745a.175.175 0 0 1-.175-.174v-.7a.175.175 0 0 1 .175-.173h1.745a.175.175 0 0 1 .175.175v.7a.175.175 0 0 1-.175.172zm-1.571-.347h1.4v-.349h-1.4z" class="cls-2" transform="translate(-6.604 -28.065)"/>
            <path id="Path_2492" d="M27.92 37.047h-1.745a.175.175 0 0 1-.175-.174v-.7a.175.175 0 0 1 .175-.173h1.745a.175.175 0 0 1 .175.175v.7a.175.175 0 0 1-.175.172zm-1.571-.347h1.4v-.349h-1.4z" class="cls-2" transform="translate(-19.811 -28.065)"/>
            <path id="Path_2493" d="M17.506 46.095h-7.331A.175.175 0 0 1 10 45.92v-1.745a.175.175 0 0 1 .175-.175h7.332a.175.175 0 0 1 .175.175v1.745a.175.175 0 0 1-.176.175zm-7.157-.349h6.982v-1.4h-6.982z" class="cls-2" transform="translate(-6.604 -34.668)"/>
        </g>
    </g>
</svg>
